<svg id="svg" version="1.1" xmlns="http://www.w3.org/2000/svg" xmlns:xlink="http://www.w3.org/1999/xlink" width="400" height="400" viewBox="0, 0, 400,400"><g id="svgg"><path id="path0" d="M213.784 50.680 C 215.027 50.757,216.961 50.757,218.081 50.678 C 219.201 50.599,218.184 50.536,215.820 50.537 C 213.457 50.538,212.541 50.602,213.784 50.680 M206.776 51.301 C 207.024 51.480,206.172 51.533,204.883 51.419 C 203.220 51.272,202.766 51.321,203.320 51.589 C 203.884 51.862,203.504 51.914,201.953 51.775 C 200.379 51.634,199.961 51.693,200.391 51.995 C 200.821 52.298,200.511 52.345,199.219 52.174 C 197.897 52.000,197.606 52.047,198.047 52.367 C 198.490 52.689,198.252 52.735,197.070 52.554 C 195.867 52.370,195.642 52.415,196.094 52.752 C 196.547 53.090,196.325 53.141,195.117 52.973 C 193.956 52.812,193.705 52.862,194.141 53.169 C 194.582 53.480,194.409 53.527,193.438 53.359 C 192.559 53.208,192.233 53.273,192.412 53.563 C 192.594 53.857,192.266 53.909,191.357 53.729 C 190.325 53.525,190.166 53.565,190.625 53.913 C 191.099 54.273,191.008 54.326,190.149 54.189 C 189.564 54.095,189.167 54.151,189.267 54.312 C 189.528 54.735,187.685 55.124,186.881 54.816 C 186.391 54.628,186.286 54.694,186.508 55.054 C 186.739 55.427,186.596 55.482,185.938 55.273 C 185.283 55.066,185.136 55.120,185.364 55.488 C 185.586 55.848,185.440 55.923,184.826 55.762 C 184.309 55.627,184.078 55.695,184.228 55.938 C 184.383 56.189,184.151 56.232,183.594 56.055 C 182.955 55.852,182.795 55.905,183.008 56.250 C 183.221 56.595,183.060 56.648,182.422 56.445 C 181.854 56.265,181.631 56.310,181.793 56.571 C 182.101 57.069,180.647 57.578,180.021 57.191 C 179.755 57.027,179.672 57.080,179.820 57.321 C 180.146 57.848,179.102 58.254,178.256 57.929 C 177.868 57.780,177.704 57.838,177.849 58.073 C 178.179 58.607,173.665 60.733,173.031 60.342 C 172.685 60.128,172.632 60.192,172.855 60.553 C 173.087 60.928,172.997 61.002,172.530 60.823 C 172.132 60.670,171.920 60.757,171.977 61.049 C 172.028 61.310,171.765 61.499,171.391 61.470 C 171.005 61.439,170.822 61.594,170.967 61.829 C 171.127 62.089,170.973 62.147,170.552 61.985 C 170.100 61.812,169.972 61.875,170.161 62.180 C 170.343 62.474,170.232 62.553,169.846 62.404 C 169.068 62.106,169.145 63.086,170.029 64.726 C 172.866 69.991,172.611 74.141,168.164 95.117 C 165.716 106.660,164.175 116.021,162.305 130.707 C 160.071 148.255,155.740 159.882,149.257 165.740 C 147.980 166.893,147.767 167.254,148.254 167.442 C 148.595 167.572,148.777 167.929,148.660 168.235 C 148.526 168.584,148.613 168.688,148.894 168.514 C 149.199 168.326,149.271 168.507,149.121 169.080 C 149.000 169.544,149.043 169.835,149.217 169.728 C 149.667 169.450,150.407 171.770,150.112 172.536 C 149.960 172.935,150.024 173.078,150.283 172.918 C 150.780 172.611,151.284 173.721,150.917 174.314 C 150.754 174.578,150.849 174.613,151.178 174.410 C 151.557 174.176,151.626 174.270,151.438 174.761 C 151.265 175.213,151.328 175.340,151.633 175.152 C 151.938 174.963,152.002 175.090,151.829 175.542 C 151.655 175.994,151.719 176.121,152.024 175.933 C 152.329 175.744,152.393 175.872,152.219 176.323 C 152.046 176.775,152.110 176.903,152.415 176.714 C 152.720 176.526,152.783 176.653,152.610 177.105 C 152.437 177.556,152.500 177.684,152.805 177.495 C 153.110 177.307,153.174 177.434,153.001 177.886 C 152.827 178.338,152.891 178.465,153.196 178.277 C 153.496 178.091,153.566 178.211,153.404 178.634 C 153.269 178.985,153.354 179.393,153.593 179.540 C 153.871 179.712,153.925 179.611,153.742 179.260 C 153.586 178.958,153.738 179.057,154.081 179.481 C 154.424 179.905,154.621 180.470,154.518 180.738 C 154.415 181.006,154.526 181.346,154.765 181.493 C 155.046 181.667,155.087 181.581,154.883 181.250 C 154.667 180.901,154.719 180.833,155.044 181.034 C 155.307 181.196,155.430 181.569,155.317 181.863 C 155.204 182.157,155.308 182.518,155.546 182.665 C 155.824 182.837,155.878 182.736,155.695 182.385 C 155.539 182.083,155.682 182.169,156.013 182.577 C 156.345 182.985,156.520 183.472,156.404 183.661 C 156.287 183.849,156.425 183.955,156.709 183.896 C 156.994 183.837,157.229 184.090,157.231 184.458 C 157.234 184.825,157.489 185.353,157.798 185.630 C 158.288 186.067,158.288 186.031,157.800 185.352 C 157.244 184.576,157.246 184.575,158.126 185.327 C 158.613 185.743,158.931 186.296,158.831 186.555 C 158.641 187.050,160.268 188.820,160.604 188.484 C 160.711 188.377,161.314 188.842,161.943 189.518 C 162.571 190.193,162.839 190.604,162.537 190.430 C 162.205 190.238,162.082 190.265,162.226 190.498 C 162.357 190.710,161.513 191.821,160.352 192.969 C 159.190 194.116,158.327 195.197,158.435 195.371 C 158.671 195.754,151.558 203.168,151.179 202.934 C 150.851 202.731,147.295 206.295,147.285 206.836 C 147.273 207.528,144.428 210.529,144.022 210.278 C 143.806 210.145,143.737 210.209,143.868 210.422 C 143.999 210.634,143.280 211.584,142.269 212.533 L 140.430 214.258 141.993 212.500 L 143.555 210.742 141.911 212.271 C 141.007 213.111,140.339 213.916,140.428 214.059 C 140.657 214.431,138.279 217.232,137.921 217.011 C 137.546 216.779,135.063 219.308,135.367 219.612 C 135.491 219.736,134.659 220.790,133.519 221.954 C 132.378 223.118,131.973 223.445,132.617 222.680 L 133.789 221.289 132.339 222.620 C 131.542 223.353,130.980 224.097,131.089 224.275 C 131.199 224.453,130.621 225.269,129.805 226.089 C 128.988 226.909,128.672 227.131,129.102 226.583 L 129.883 225.586 128.837 226.506 C 128.262 227.013,127.871 227.635,127.968 227.889 C 128.065 228.142,127.572 228.871,126.872 229.507 C 125.823 230.460,125.735 230.492,126.373 229.688 L 127.148 228.711 126.279 229.447 C 125.800 229.851,125.495 230.322,125.601 230.493 C 125.706 230.663,125.329 231.299,124.762 231.905 C 124.195 232.512,123.972 232.656,124.268 232.227 C 124.756 231.516,124.745 231.492,124.144 231.962 C 123.781 232.246,123.569 232.702,123.674 232.974 C 123.857 233.450,122.781 234.646,122.303 234.498 C 122.175 234.459,122.117 234.655,122.173 234.934 C 122.268 235.405,121.265 236.523,120.748 236.523 C 120.624 236.523,120.519 236.787,120.515 237.108 C 120.511 237.430,120.288 237.694,120.020 237.694 C 119.751 237.695,119.561 237.783,119.597 237.891 C 119.769 238.398,118.660 239.835,118.279 239.599 C 118.042 239.452,117.957 239.509,118.091 239.726 C 118.225 239.942,118.063 240.453,117.732 240.860 C 117.401 241.268,117.258 241.355,117.414 241.053 C 117.597 240.701,117.543 240.600,117.265 240.772 C 117.026 240.920,116.919 241.271,117.027 241.551 C 117.135 241.832,116.918 242.310,116.544 242.613 C 115.965 243.084,115.914 243.084,116.196 242.615 C 116.416 242.251,116.381 242.157,116.093 242.335 C 115.854 242.482,115.751 242.843,115.864 243.137 C 115.977 243.431,115.854 243.804,115.591 243.966 C 115.266 244.167,115.214 244.099,115.430 243.750 C 115.634 243.419,115.593 243.333,115.312 243.507 C 115.073 243.654,114.970 244.015,115.083 244.309 C 115.195 244.603,115.073 244.976,114.810 245.138 C 114.479 245.343,114.430 245.265,114.651 244.885 C 114.836 244.565,114.823 244.470,114.618 244.656 C 114.426 244.833,114.266 245.272,114.263 245.633 C 114.260 245.994,114.059 246.252,113.815 246.207 C 113.572 246.161,113.396 246.425,113.425 246.793 C 113.453 247.160,113.278 247.424,113.034 247.379 C 112.791 247.333,112.615 247.597,112.644 247.965 C 112.672 248.332,112.482 248.591,112.221 248.540 C 111.929 248.483,111.842 248.694,111.995 249.092 C 112.148 249.493,112.086 249.641,111.829 249.482 C 111.594 249.337,111.439 249.520,111.470 249.907 C 111.500 250.282,111.292 250.538,111.006 250.479 C 110.722 250.420,110.598 250.548,110.731 250.763 C 111.058 251.292,110.212 252.815,109.751 252.530 C 109.543 252.402,109.496 252.595,109.641 252.973 C 109.815 253.425,109.751 253.553,109.446 253.364 C 109.141 253.176,109.077 253.303,109.251 253.755 C 109.439 254.246,109.369 254.339,108.990 254.105 C 108.668 253.906,108.567 253.938,108.722 254.189 C 109.052 254.723,107.853 257.102,107.396 256.820 C 107.200 256.699,107.156 256.902,107.297 257.270 C 107.471 257.722,107.407 257.849,107.102 257.661 C 106.797 257.472,106.733 257.600,106.907 258.052 C 107.080 258.503,107.016 258.631,106.711 258.442 C 106.407 258.254,106.343 258.381,106.516 258.833 C 106.690 259.285,106.626 259.412,106.321 259.223 C 106.016 259.035,105.952 259.162,106.126 259.614 C 106.314 260.105,106.244 260.199,105.865 259.965 C 105.520 259.751,105.441 259.796,105.629 260.099 C 105.996 260.693,105.519 262.186,105.054 261.899 C 104.857 261.777,104.812 261.979,104.954 262.348 C 105.127 262.800,105.063 262.928,104.758 262.739 C 104.453 262.551,104.390 262.678,104.563 263.130 C 104.751 263.621,104.682 263.714,104.303 263.480 C 103.957 263.267,103.879 263.311,104.066 263.615 C 104.461 264.254,103.939 265.691,103.427 265.375 C 103.172 265.217,103.117 265.296,103.289 265.574 C 103.642 266.145,102.010 271.175,101.562 270.898 C 101.195 270.671,100.300 273.266,99.542 276.758 C 97.683 285.316,100.553 302.248,104.334 305.044 C 105.021 305.551,105.439 306.155,105.320 306.466 C 105.206 306.763,105.308 307.127,105.546 307.274 C 105.830 307.450,105.872 307.353,105.667 306.994 C 105.423 306.565,105.463 306.546,105.851 306.904 C 106.189 307.216,106.260 307.834,106.073 308.831 C 105.860 309.966,105.708 310.171,105.401 309.739 C 105.090 309.301,105.056 309.339,105.243 309.913 C 105.375 310.316,105.359 311.547,105.209 312.647 C 105.008 314.115,104.876 314.407,104.714 313.744 C 104.592 313.246,104.492 314.942,104.492 317.512 C 104.492 320.082,104.601 322.011,104.733 321.798 C 104.866 321.585,105.091 321.874,105.234 322.442 C 105.376 323.009,105.372 323.668,105.225 323.906 C 105.051 324.188,105.138 324.228,105.475 324.020 C 105.854 323.786,105.923 323.879,105.735 324.370 C 105.562 324.822,105.625 324.949,105.930 324.761 C 106.235 324.572,106.299 324.700,106.126 325.152 C 105.964 325.573,106.021 325.727,106.281 325.567 C 106.507 325.427,106.638 325.550,106.572 325.840 C 106.505 326.130,106.563 326.367,106.700 326.367 C 107.268 326.367,108.607 327.918,108.432 328.373 C 108.320 328.666,108.457 328.784,108.769 328.664 C 109.292 328.464,109.943 329.133,109.955 329.882 C 109.958 330.097,110.312 330.273,110.742 330.273 C 111.172 330.273,111.482 330.487,111.430 330.748 C 111.373 331.040,111.585 331.127,111.983 330.974 C 112.397 330.815,112.533 330.881,112.362 331.157 C 112.216 331.393,112.302 331.714,112.554 331.869 C 112.840 332.046,112.907 331.983,112.733 331.701 C 112.383 331.135,112.600 331.134,113.837 331.698 C 114.377 331.944,114.710 332.323,114.576 332.539 C 114.441 332.757,114.526 332.814,114.765 332.666 C 115.437 332.251,117.389 332.834,116.736 333.254 C 116.416 333.461,116.744 333.504,117.578 333.365 C 118.658 333.185,118.822 333.232,118.359 333.586 C 117.877 333.956,117.923 333.994,118.619 333.799 C 119.811 333.465,121.729 333.974,121.033 334.439 C 120.700 334.661,120.922 334.693,121.640 334.525 C 122.520 334.320,122.702 334.376,122.455 334.775 C 122.222 335.152,122.320 335.219,122.819 335.028 C 123.743 334.673,125.449 335.136,125.129 335.655 C 124.967 335.916,125.116 335.977,125.526 335.819 C 126.478 335.454,128.724 335.954,128.059 336.383 C 127.746 336.584,128.084 336.627,128.906 336.490 C 129.971 336.313,130.144 336.359,129.688 336.700 C 129.236 337.038,129.459 337.084,130.664 336.899 C 131.834 336.720,132.079 336.766,131.641 337.080 C 131.197 337.397,131.386 337.444,132.422 337.271 C 133.486 337.094,133.659 337.141,133.203 337.482 C 132.751 337.819,132.975 337.865,134.180 337.681 C 135.349 337.502,135.595 337.547,135.156 337.861 C 134.715 338.177,134.898 338.217,135.901 338.024 C 136.849 337.842,137.152 337.897,136.955 338.214 C 136.761 338.529,137.059 338.595,137.969 338.438 C 138.977 338.264,139.130 338.311,138.672 338.653 C 138.220 338.991,138.444 339.037,139.648 338.852 C 140.849 338.669,141.075 338.714,140.625 339.049 C 140.178 339.382,140.501 339.435,141.992 339.271 C 143.435 339.112,143.741 339.158,143.164 339.444 C 142.594 339.726,143.017 339.779,144.727 339.640 C 146.377 339.505,146.839 339.558,146.289 339.820 C 145.745 340.079,146.396 340.145,148.438 340.037 C 150.692 339.917,151.052 339.962,150.000 340.231 C 149.030 340.479,149.748 340.530,152.467 340.407 C 154.576 340.312,156.635 340.056,157.044 339.837 C 159.520 338.512,159.186 329.285,156.466 323.845 C 154.861 320.636,156.308 320.308,158.580 323.367 C 161.647 327.497,163.123 335.513,161.386 338.608 C 160.738 339.763,160.610 339.699,164.063 339.939 C 165.961 340.070,166.648 340.022,166.016 339.803 C 165.314 339.560,165.644 339.509,167.188 339.623 C 168.724 339.736,169.113 339.677,168.555 339.415 C 167.964 339.138,168.155 339.089,169.336 339.215 C 170.195 339.307,170.680 339.296,170.414 339.191 C 170.044 339.045,170.064 338.865,170.497 338.432 C 172.664 336.265,172.158 329.017,169.512 324.322 C 167.759 321.212,168.114 319.890,170.225 321.666 C 173.444 324.375,175.738 333.085,174.099 336.374 C 173.869 336.836,174.001 337.063,174.588 337.217 C 175.103 337.352,175.298 337.276,175.132 337.007 C 174.968 336.742,175.109 336.677,175.509 336.831 C 175.860 336.965,176.268 336.880,176.415 336.641 C 176.587 336.363,176.486 336.309,176.135 336.492 C 175.833 336.649,175.919 336.506,176.327 336.174 C 176.735 335.843,177.198 335.652,177.357 335.750 C 177.516 335.849,177.885 335.633,178.178 335.272 C 178.545 334.821,178.558 334.707,178.223 334.909 C 177.954 335.070,177.734 335.038,177.734 334.837 C 177.734 334.288,178.742 333.560,179.060 333.878 C 179.213 334.031,179.211 333.825,179.056 333.420 C 178.861 332.912,178.913 332.771,179.226 332.964 C 179.531 333.153,179.595 333.025,179.421 332.573 C 179.257 332.145,179.316 331.997,179.585 332.163 C 179.855 332.330,179.937 332.109,179.812 331.544 C 179.657 330.833,179.701 330.777,180.044 331.250 C 180.367 331.697,180.414 331.512,180.240 330.469 C 180.068 329.436,180.115 329.245,180.430 329.688 C 180.750 330.136,180.840 329.862,180.814 328.516 C 180.786 327.006,180.733 326.896,180.439 327.734 C 180.183 328.464,180.129 328.183,180.228 326.627 C 180.301 325.481,180.232 324.751,180.076 325.004 C 179.898 325.292,179.687 325.053,179.516 324.369 C 179.309 323.546,179.418 323.136,179.952 322.724 C 180.401 322.379,180.453 322.239,180.093 322.346 C 179.755 322.447,178.940 321.780,178.101 320.719 C 171.367 312.201,160.405 308.288,150.755 310.960 C 145.299 312.470,145.333 312.465,144.716 311.847 C 142.921 310.053,146.706 308.303,156.836 306.242 C 163.024 304.983,168.636 291.486,167.819 279.829 C 166.316 258.408,147.126 244.717,130.423 253.148 C 127.823 254.460,127.046 254.081,128.731 252.323 C 132.665 248.216,141.838 245.990,148.556 247.512 C 170.528 252.490,180.806 284.827,166.747 304.748 C 165.644 306.311,165.722 306.376,169.914 307.365 C 174.388 308.422,175.452 308.147,177.255 305.472 C 179.379 302.321,179.502 301.101,179.372 284.570 C 179.220 265.223,179.769 257.873,181.294 258.816 C 181.485 258.934,181.644 260.382,181.649 262.035 C 181.663 267.262,183.076 285.763,185.145 307.813 C 185.558 312.217,186.016 317.578,186.163 319.727 C 186.309 321.875,186.599 323.846,186.806 324.108 C 187.013 324.369,187.079 325.336,186.952 326.256 C 186.776 327.533,186.815 327.745,187.118 327.148 C 187.420 326.552,187.472 326.829,187.336 328.320 C 187.208 329.733,187.261 330.057,187.528 329.492 C 187.831 328.850,187.874 328.933,187.769 329.960 C 187.693 330.702,187.796 331.113,188.023 330.973 C 188.248 330.834,188.314 331.082,188.184 331.580 C 188.041 332.126,188.112 332.331,188.384 332.163 C 188.653 331.997,188.712 332.145,188.547 332.573 C 188.375 333.022,188.438 333.152,188.738 332.967 C 189.042 332.779,189.115 332.960,188.965 333.533 C 188.844 333.997,188.895 334.283,189.079 334.169 C 189.518 333.898,190.342 335.448,190.028 335.955 C 189.895 336.171,190.018 336.299,190.303 336.240 C 190.588 336.181,190.798 336.428,190.771 336.789 C 190.709 337.605,192.776 339.637,193.673 339.644 C 194.038 339.646,194.292 339.868,194.238 340.137 C 194.185 340.405,194.272 340.604,194.434 340.579 C 195.209 340.456,195.725 340.664,195.511 341.011 C 195.369 341.241,195.544 341.293,195.942 341.140 C 196.394 340.967,196.521 341.030,196.333 341.335 C 196.144 341.640,196.272 341.704,196.723 341.531 C 197.175 341.357,197.303 341.421,197.114 341.726 C 196.926 342.031,197.053 342.095,197.505 341.921 C 197.996 341.733,198.089 341.803,197.855 342.181 C 197.643 342.524,197.687 342.606,197.983 342.422 C 198.652 342.009,202.862 343.419,202.250 343.852 C 201.949 344.064,202.365 344.106,203.320 343.960 C 204.490 343.781,204.736 343.826,204.297 344.141 C 203.858 344.455,204.103 344.500,205.273 344.321 C 206.387 344.151,206.672 344.196,206.266 344.478 C 205.866 344.755,206.628 344.828,208.805 344.722 C 210.984 344.616,211.505 344.666,210.547 344.890 C 209.491 345.137,209.980 345.215,212.695 345.234 C 214.853 345.248,215.909 345.135,215.430 344.941 C 214.746 344.663,214.795 344.606,215.820 344.480 C 219.049 344.083,218.621 333.094,215.190 328.317 C 213.002 325.270,215.322 324.124,217.993 326.932 C 221.045 330.139,222.308 337.529,220.598 342.172 C 219.846 344.214,219.796 344.116,221.729 344.385 C 222.929 344.552,223.121 344.502,222.656 344.141 C 222.196 343.784,222.447 343.737,223.828 343.919 C 225.158 344.095,225.443 344.047,225.000 343.723 C 224.547 343.391,224.707 343.344,225.703 343.516 C 226.606 343.672,226.910 343.606,226.719 343.297 C 226.528 342.987,226.766 342.935,227.514 343.123 C 228.287 343.317,228.502 343.263,228.295 342.927 C 228.087 342.592,228.302 342.538,229.076 342.732 C 229.707 342.891,230.051 342.851,229.918 342.635 C 229.794 342.434,229.939 342.175,230.240 342.059 C 232.871 341.049,232.391 331.264,229.496 326.889 C 227.688 324.156,228.504 322.883,230.817 324.829 C 234.304 327.763,235.736 334.211,234.153 339.857 C 233.971 340.506,235.669 340.660,236.228 340.044 C 236.390 339.865,236.277 339.862,235.975 340.037 C 235.594 340.258,235.517 340.209,235.721 339.877 C 235.884 339.615,236.250 339.489,236.534 339.599 C 236.819 339.708,237.262 339.544,237.519 339.235 C 237.776 338.925,237.842 338.672,237.665 338.672 C 237.488 338.672,237.563 338.452,237.832 338.184 C 238.101 337.915,238.531 337.695,238.789 337.695 C 239.046 337.695,239.257 337.344,239.257 336.914 C 239.258 336.484,239.471 336.175,239.732 336.226 C 240.011 336.280,240.112 336.073,239.977 335.722 C 239.839 335.362,239.940 335.169,240.232 335.238 C 241.583 335.555,241.463 328.376,240.063 325.213 C 238.197 320.992,233.675 316.705,229.082 314.801 C 227.694 314.226,226.953 313.689,226.953 313.260 C 226.953 312.897,226.694 310.073,226.378 306.984 C 224.584 289.483,223.755 263.849,224.916 261.816 C 226.353 259.301,227.910 260.980,228.476 265.652 C 229.069 270.557,229.701 276.564,229.797 278.222 C 229.844 279.027,229.997 279.686,230.137 279.687 C 231.098 279.690,241.780 266.690,245.222 261.328 C 247.937 257.098,247.936 257.100,248.596 257.943 C 250.254 260.059,241.940 275.477,234.046 284.926 L 232.715 286.519 232.973 290.037 C 233.114 291.972,233.674 297.510,234.216 302.344 C 234.759 307.178,235.333 312.311,235.493 313.751 C 235.745 316.019,235.938 316.486,236.935 317.249 C 242.011 321.135,244.120 327.298,242.475 333.441 C 241.959 335.364,241.968 335.429,242.711 335.235 C 243.195 335.108,243.386 335.188,243.225 335.449 C 243.060 335.715,243.270 335.785,243.811 335.644 C 244.327 335.509,244.559 335.577,244.409 335.820 C 244.257 336.065,244.553 336.141,245.187 336.020 C 245.813 335.900,246.116 335.976,245.968 336.215 C 245.821 336.454,246.124 336.530,246.750 336.410 C 247.473 336.272,247.689 336.350,247.486 336.678 C 247.279 337.013,247.494 337.067,248.268 336.873 C 249.082 336.668,249.262 336.724,249.025 337.106 C 248.784 337.497,249.038 337.548,250.177 337.334 C 251.164 337.149,251.557 337.193,251.385 337.471 C 251.213 337.750,251.924 337.823,253.593 337.697 C 255.292 337.569,255.752 337.618,255.078 337.855 C 254.449 338.077,255.493 338.135,258.008 338.020 C 263.546 337.766,263.426 337.812,263.989 335.710 C 265.622 329.604,264.634 324.777,260.874 320.495 C 258.598 317.903,261.738 318.113,264.438 320.734 C 268.194 324.379,269.390 331.621,267.022 336.383 C 266.521 337.390,266.543 337.420,267.922 337.648 C 270.143 338.016,270.637 337.970,269.922 337.465 C 269.487 337.158,269.740 337.113,270.898 337.290 C 272.094 337.473,272.323 337.427,271.875 337.096 C 271.413 336.755,271.553 336.696,272.538 336.816 C 273.276 336.906,273.692 336.814,273.554 336.591 C 273.411 336.361,273.761 336.317,274.453 336.478 C 275.336 336.684,275.457 336.647,275.000 336.308 C 274.542 335.969,274.670 335.926,275.586 336.113 C 276.346 336.268,276.572 336.228,276.228 335.998 C 275.885 335.769,275.841 335.556,276.104 335.394 C 277.772 334.363,277.392 326.323,275.522 323.069 C 272.334 317.523,272.179 316.525,274.817 318.538 C 279.358 322.002,281.396 326.565,280.523 331.322 C 280.170 333.249,280.293 333.705,281.143 333.623 C 281.309 333.607,281.446 333.374,281.446 333.105 C 281.447 332.837,281.742 332.615,282.102 332.612 C 282.463 332.609,282.902 332.449,283.078 332.257 C 283.261 332.056,283.189 332.026,282.910 332.187 C 282.642 332.342,282.422 332.309,282.422 332.115 C 282.422 331.721,283.575 330.594,284.177 330.399 C 284.390 330.330,284.511 330.036,284.444 329.746 C 284.377 329.456,284.508 329.333,284.735 329.473 C 284.994 329.633,285.052 329.479,284.890 329.058 C 284.726 328.630,284.785 328.481,285.053 328.647 C 285.324 328.815,285.405 328.594,285.281 328.028 C 285.144 327.400,285.194 327.298,285.459 327.670 C 285.706 328.018,285.790 327.499,285.710 326.107 C 285.608 324.325,285.637 324.222,285.908 325.391 C 286.201 326.654,286.227 326.595,286.249 324.609 C 286.267 322.979,286.184 322.649,285.903 323.242 C 285.619 323.841,285.574 323.679,285.712 322.550 C 285.835 321.542,285.756 321.160,285.462 321.341 C 285.180 321.516,285.109 321.318,285.254 320.764 C 285.396 320.218,285.326 320.013,285.053 320.181 C 284.785 320.347,284.726 320.198,284.890 319.770 C 285.062 319.322,284.999 319.192,284.700 319.377 C 284.395 319.565,284.322 319.384,284.472 318.811 C 284.593 318.348,284.506 317.854,284.278 317.713 C 284.017 317.552,283.981 317.647,284.180 317.969 C 284.395 318.317,284.344 318.386,284.018 318.185 C 283.755 318.023,283.638 317.635,283.758 317.323 C 283.879 317.007,283.805 316.862,283.589 316.995 C 283.377 317.126,283.181 317.047,283.154 316.820 C 283.127 316.592,283.083 316.245,283.057 316.048 C 283.030 315.851,282.848 315.544,282.652 315.365 C 282.443 315.173,282.415 315.281,282.584 315.625 C 282.741 315.947,282.599 315.877,282.268 315.470 C 281.937 315.062,281.741 314.607,281.833 314.457 C 281.925 314.308,281.392 313.597,280.649 312.876 C 279.905 312.155,279.297 311.694,279.297 311.851 C 279.297 312.008,278.947 311.950,278.520 311.721 C 278.092 311.492,277.784 311.090,277.836 310.828 C 277.887 310.566,277.635 310.400,277.276 310.460 C 276.916 310.519,276.493 310.360,276.336 310.106 C 276.145 309.797,276.220 309.749,276.563 309.961 C 276.894 310.166,276.979 310.124,276.806 309.843 C 276.658 309.604,276.297 309.501,276.004 309.614 C 275.710 309.727,275.337 309.604,275.174 309.341 C 274.973 309.016,275.042 308.964,275.391 309.180 C 275.722 309.384,275.807 309.343,275.634 309.062 C 275.486 308.823,275.125 308.720,274.832 308.833 C 274.538 308.945,274.165 308.823,274.003 308.560 C 273.801 308.234,273.870 308.183,274.219 308.398 C 274.550 308.603,274.636 308.562,274.462 308.281 C 274.314 308.042,273.907 307.957,273.556 308.091 C 273.133 308.254,273.013 308.184,273.198 307.883 C 273.376 307.596,273.274 307.509,272.921 307.645 C 271.751 308.094,270.117 306.071,270.117 304.173 C 270.117 303.140,269.984 302.604,269.793 302.869 C 269.612 303.120,269.561 302.539,269.678 301.563 C 269.832 300.270,269.788 300.011,269.511 300.586 C 269.239 301.150,269.194 300.823,269.349 299.414 C 269.512 297.926,269.460 297.601,269.129 298.047 C 268.798 298.493,268.746 298.167,268.910 296.680 C 269.070 295.229,269.025 294.928,268.735 295.508 C 268.443 296.092,268.395 295.797,268.545 294.336 C 268.693 292.890,268.637 292.535,268.329 292.969 C 268.022 293.401,267.969 293.043,268.129 291.602 C 268.288 290.156,268.243 289.851,267.956 290.430 C 267.668 291.008,267.616 290.653,267.754 289.063 C 267.891 287.489,267.838 287.123,267.558 287.695 C 267.279 288.263,267.224 287.834,267.356 286.133 C 267.463 284.755,267.409 284.111,267.225 284.570 C 266.803 285.624,266.277 281.502,266.569 279.428 C 266.745 278.179,266.717 278.092,266.403 278.906 C 266.120 279.641,266.067 279.255,266.191 277.344 C 266.306 275.569,266.245 275.040,265.988 275.586 C 265.730 276.134,265.674 275.668,265.799 274.023 C 265.932 272.289,265.883 271.934,265.613 272.656 C 265.349 273.361,265.295 272.873,265.420 270.898 C 265.540 268.987,265.480 268.399,265.219 268.945 C 264.959 269.491,264.905 268.962,265.039 267.188 C 265.180 265.327,265.126 264.857,264.838 265.430 C 264.549 266.003,264.494 265.535,264.632 263.672 C 264.768 261.840,264.713 261.350,264.435 261.914 C 264.156 262.479,264.106 262.046,264.254 260.352 C 264.405 258.614,264.349 258.159,264.036 258.594 C 263.725 259.026,263.664 258.409,263.804 256.250 C 263.940 254.134,263.899 253.700,263.656 254.688 C 263.409 255.689,263.355 255.167,263.454 252.734 C 263.545 250.496,263.477 249.732,263.246 250.391 C 263.012 251.055,262.952 250.430,263.059 248.438 C 263.167 246.404,263.108 245.807,262.864 246.484 C 262.613 247.186,262.555 246.745,262.660 244.922 C 262.759 243.192,262.693 242.632,262.452 243.164 C 262.217 243.682,262.160 243.023,262.282 241.211 C 262.413 239.275,262.356 238.705,262.087 239.258 C 261.820 239.806,261.768 239.225,261.914 237.305 C 262.069 235.265,262.013 234.719,261.693 235.156 C 261.372 235.595,261.315 235.103,261.466 233.203 C 261.603 231.475,261.552 230.914,261.304 231.445 C 261.054 231.982,260.997 231.433,261.120 229.688 C 261.253 227.814,261.203 227.404,260.929 228.125 C 260.651 228.856,260.596 228.464,260.711 226.563 C 260.819 224.759,260.763 224.306,260.515 225.000 C 260.259 225.718,260.209 225.408,260.326 223.828 C 260.439 222.292,260.380 221.902,260.118 222.461 C 259.858 223.016,259.801 222.621,259.923 221.094 C 260.044 219.572,259.987 219.173,259.729 219.727 C 259.473 220.275,259.420 219.869,259.551 218.359 C 259.687 216.797,259.634 216.424,259.358 216.992 C 259.079 217.567,259.029 217.257,259.169 215.820 C 259.312 214.354,259.263 214.062,258.970 214.648 C 258.675 215.238,258.623 214.951,258.757 213.477 C 258.886 212.060,258.833 211.738,258.565 212.305 C 258.291 212.883,258.250 212.679,258.409 211.523 C 258.564 210.389,258.513 210.121,258.224 210.547 C 257.881 211.051,257.824 211.037,257.818 210.449 C 257.812 209.701,257.222 209.531,256.831 210.165 C 256.407 210.850,252.273 212.768,248.021 214.252 C 218.988 224.383,180.820 217.131,161.469 197.806 L 158.680 195.021 160.639 193.062 L 162.598 191.103 166.162 194.090 C 188.521 212.823,224.139 218.366,254.134 207.779 C 255.961 207.134,257.816 206.246,258.256 205.806 C 258.728 205.335,259.363 205.086,259.802 205.201 C 260.271 205.324,260.451 205.240,260.288 204.975 C 260.122 204.707,260.270 204.648,260.698 204.812 C 261.150 204.985,261.278 204.922,261.089 204.617 C 260.901 204.312,261.028 204.248,261.480 204.421 C 261.931 204.595,262.059 204.531,261.870 204.226 C 261.682 203.921,261.809 203.857,262.261 204.031 C 262.713 204.204,262.840 204.140,262.652 203.835 C 262.463 203.530,262.590 203.467,263.042 203.640 C 263.494 203.813,263.621 203.750,263.433 203.445 C 263.244 203.140,263.372 203.076,263.823 203.249 C 264.275 203.423,264.403 203.359,264.214 203.054 C 264.026 202.749,264.153 202.685,264.605 202.859 C 265.056 203.032,265.184 202.968,264.995 202.664 C 264.807 202.359,264.934 202.295,265.386 202.468 C 265.838 202.642,265.965 202.578,265.777 202.273 C 265.588 201.968,265.715 201.904,266.167 202.078 C 266.619 202.251,266.746 202.187,266.558 201.882 C 266.372 201.582,266.492 201.512,266.916 201.674 C 267.266 201.809,267.674 201.724,267.821 201.485 C 267.995 201.204,267.909 201.163,267.578 201.367 C 267.230 201.583,267.161 201.531,267.362 201.206 C 267.524 200.943,267.912 200.826,268.224 200.945 C 268.536 201.065,268.689 200.998,268.564 200.796 C 268.290 200.353,269.791 199.482,270.294 199.793 C 270.489 199.914,270.776 199.807,270.932 199.555 C 271.120 199.250,271.044 199.203,270.703 199.414 C 270.355 199.629,270.286 199.578,270.487 199.252 C 270.649 198.990,271.022 198.867,271.316 198.980 C 271.610 199.092,271.971 198.989,272.118 198.751 C 272.292 198.470,272.206 198.428,271.875 198.633 C 271.526 198.848,271.458 198.797,271.659 198.471 C 271.821 198.209,272.194 198.086,272.488 198.198 C 272.782 198.311,273.143 198.208,273.290 197.969 C 273.468 197.681,273.374 197.646,273.010 197.866 C 272.541 198.149,272.540 198.100,273.001 197.531 C 273.299 197.164,273.822 196.911,274.164 196.967 C 274.507 197.024,274.794 196.895,274.802 196.680 C 274.825 196.073,275.395 195.312,275.827 195.312 C 276.042 195.312,276.086 195.532,275.925 195.801 C 275.723 196.137,275.836 196.123,276.288 195.757 C 276.649 195.464,276.863 195.092,276.763 194.930 C 276.509 194.520,277.998 193.235,278.423 193.497 C 278.614 193.615,279.987 192.466,281.475 190.943 C 282.962 189.420,283.960 188.296,283.691 188.446 C 283.005 188.829,283.081 188.087,283.789 187.500 C 284.111 187.233,284.375 187.145,284.375 187.305 C 284.375 187.465,284.637 187.378,284.957 187.113 C 285.277 186.847,285.437 186.467,285.314 186.267 C 285.038 185.821,285.908 184.702,286.328 184.961 C 286.495 185.064,286.606 184.842,286.577 184.468 C 286.548 184.095,286.743 183.833,287.012 183.887 C 287.280 183.940,287.479 183.853,287.454 183.691 C 287.336 182.946,287.532 182.396,287.847 182.590 C 288.037 182.708,288.169 182.498,288.139 182.125 C 288.110 181.751,288.299 181.487,288.560 181.538 C 288.821 181.589,288.949 181.409,288.845 181.136 C 288.740 180.864,288.935 180.295,289.278 179.872 C 289.621 179.448,289.774 179.348,289.617 179.650 C 289.434 180.002,289.488 180.103,289.766 179.931 C 290.005 179.783,290.090 179.376,289.956 179.025 C 289.779 178.565,289.855 178.476,290.228 178.707 C 290.582 178.926,290.653 178.877,290.452 178.552 C 290.092 177.970,290.974 175.709,291.447 176.002 C 291.635 176.118,291.704 175.984,291.602 175.704 C 291.367 175.063,293.120 170.203,293.462 170.545 C 293.601 170.684,293.690 170.381,293.661 169.872 C 293.539 167.777,293.779 166.541,294.143 167.383 C 294.370 167.905,294.423 167.517,294.304 166.211 C 294.178 164.825,294.231 164.485,294.487 165.039 C 294.739 165.585,294.802 165.113,294.695 163.477 C 294.609 162.149,294.668 161.524,294.830 162.035 C 294.988 162.531,295.102 160.509,295.083 157.543 C 295.050 152.303,294.764 150.324,293.174 144.336 C 290.873 135.669,289.929 129.087,289.616 119.531 C 288.850 96.132,285.003 84.293,274.591 73.294 C 270.285 68.745,260.662 61.332,259.059 61.329 C 258.778 61.329,258.638 61.182,258.749 61.003 C 258.859 60.824,258.702 60.677,258.398 60.677 C 258.095 60.677,257.938 60.825,258.050 61.006 C 258.162 61.186,257.808 61.131,257.264 60.883 C 256.720 60.635,256.366 60.285,256.478 60.104 C 256.590 59.923,256.380 59.890,256.011 60.032 C 255.559 60.205,255.432 60.141,255.620 59.836 C 255.809 59.532,255.681 59.468,255.230 59.641 C 254.739 59.829,254.645 59.760,254.879 59.381 C 255.082 59.052,255.047 58.957,254.783 59.121 C 254.190 59.487,253.080 58.983,253.387 58.486 C 253.548 58.225,253.401 58.164,252.989 58.322 C 252.163 58.639,250.332 57.833,250.662 57.298 C 250.811 57.057,250.656 56.996,250.270 57.144 C 249.504 57.438,247.184 56.698,247.462 56.248 C 247.569 56.074,247.278 56.031,246.814 56.153 C 246.187 56.317,246.052 56.242,246.288 55.861 C 246.497 55.522,246.453 55.442,246.157 55.625 C 245.580 55.981,241.374 54.666,241.652 54.215 C 241.768 54.028,241.364 53.984,240.755 54.118 C 239.874 54.311,239.768 54.269,240.234 53.914 C 240.694 53.564,240.526 53.520,239.453 53.711 C 238.392 53.899,238.217 53.856,238.672 53.516 C 239.127 53.176,238.952 53.132,237.891 53.320 C 236.868 53.502,236.671 53.459,237.109 53.149 C 237.547 52.840,237.358 52.800,236.365 52.991 C 235.445 53.168,235.117 53.115,235.300 52.818 C 235.481 52.524,235.103 52.454,234.091 52.595 C 232.974 52.750,232.759 52.697,233.203 52.379 C 233.640 52.065,233.293 52.009,231.836 52.158 C 230.448 52.300,230.109 52.252,230.664 51.992 C 231.219 51.731,230.824 51.674,229.297 51.796 C 227.750 51.919,227.367 51.863,227.930 51.595 C 228.482 51.332,227.966 51.271,226.172 51.387 C 224.775 51.477,224.039 51.422,224.535 51.264 C 225.031 51.106,221.137 50.977,215.881 50.977 C 210.625 50.977,206.528 51.123,206.776 51.301 M159.869 60.827 C 160.462 60.917,161.341 60.915,161.822 60.822 C 162.302 60.729,161.816 60.656,160.742 60.659 C 159.668 60.662,159.275 60.737,159.869 60.827 M268.555 104.131 C 273.342 105.138,276.389 107.534,275.464 109.565 C 274.667 111.314,273.424 111.558,270.989 110.443 C 267.257 108.735,263.884 108.085,259.945 108.315 C 255.590 108.570,254.317 108.040,254.303 105.966 C 254.285 103.413,261.021 102.546,268.555 104.131 M207.314 105.717 C 210.562 108.131,208.620 109.838,202.993 109.516 C 198.095 109.236,195.820 109.688,191.731 111.752 C 187.283 113.997,184.429 111.856,187.577 108.637 C 191.130 105.002,203.827 103.124,207.314 105.717 M98.953 116.016 C 98.953 117.412,99.024 117.983,99.111 117.285 C 99.197 116.587,99.197 115.444,99.111 114.746 C 99.024 114.048,98.953 114.619,98.953 116.016 M323.528 118.750 C 323.528 119.502,323.609 119.810,323.707 119.434 C 323.805 119.058,323.805 118.442,323.707 118.066 C 323.609 117.690,323.528 117.998,323.528 118.750 M267.086 122.467 C 272.644 124.117,275.912 133.113,273.494 140.109 C 269.487 151.704,255.576 148.427,254.782 135.701 C 254.213 126.579,259.994 120.361,267.086 122.467 M205.522 124.526 C 213.494 128.668,213.340 144.155,205.289 147.904 C 198.966 150.848,193.452 146.925,192.214 138.600 C 190.684 128.306,197.969 120.602,205.522 124.526 M252.148 147.965 C 261.341 151.312,259.086 161.629,248.454 164.868 L 245.898 165.646 245.800 169.437 C 245.714 172.761,245.158 176.083,244.333 178.199 C 243.980 179.102,245.975 179.448,250.121 179.204 C 255.135 178.909,258.379 177.421,260.439 174.471 C 263.420 170.204,267.320 173.088,264.443 177.431 C 260.974 182.669,248.746 185.894,242.629 183.185 C 241.374 182.629,241.201 182.657,238.931 183.781 C 230.966 187.727,210.876 179.711,213.824 173.763 C 214.689 172.018,216.602 172.303,218.904 174.521 C 221.617 177.135,222.755 177.851,226.172 179.088 C 235.845 182.592,240.403 179.753,240.969 169.871 L 241.218 165.531 238.081 164.082 C 228.038 159.442,227.545 150.147,237.199 147.462 C 240.421 146.567,249.109 146.859,252.148 147.965 M283.203 188.782 C 283.203 188.842,282.104 189.941,280.762 191.223 L 278.320 193.555 280.652 191.113 C 282.818 188.845,283.203 188.493,283.203 188.782 M149.609 204.883 C 148.661 205.850,147.796 206.641,147.689 206.641 C 147.581 206.641,148.270 205.850,149.219 204.883 C 150.168 203.916,151.032 203.125,151.139 203.125 C 151.247 203.125,150.558 203.916,149.609 204.883 M137.891 217.310 C 137.891 217.377,137.319 217.948,136.621 218.579 L 135.352 219.727 136.499 218.457 C 137.568 217.274,137.891 217.008,137.891 217.310 M84.961 292.969 C 86.019 294.043,86.973 294.922,87.080 294.922 C 87.187 294.922,86.410 294.043,85.352 292.969 C 84.293 291.895,83.340 291.016,83.232 291.016 C 83.125 291.016,83.903 291.895,84.961 292.969 M280.689 313.379 L 281.836 314.648 280.566 313.501 C 279.868 312.870,279.297 312.299,279.297 312.232 C 279.297 311.930,279.619 312.196,280.689 313.379 M104.027 318.555 C 104.029 319.844,104.102 320.324,104.189 319.622 C 104.276 318.920,104.274 317.865,104.185 317.278 C 104.096 316.691,104.025 317.266,104.027 318.555 M192.407 338.379 L 193.555 339.648 192.285 338.501 C 191.102 337.432,190.836 337.109,191.138 337.109 C 191.205 337.109,191.776 337.681,192.407 338.379 M161.035 340.504 C 161.411 340.602,162.026 340.602,162.402 340.504 C 162.778 340.405,162.471 340.325,161.719 340.325 C 160.967 340.325,160.659 340.405,161.035 340.504 " stroke="none" fill="#ab6d42" fill-rule="evenodd"></path><path id="path1" d="M256.804 103.936 C 251.889 105.363,253.800 107.983,259.828 108.082 C 264.548 108.159,268.145 108.851,270.762 110.186 C 274.343 112.013,277.140 109.526,274.487 106.874 C 271.989 104.376,261.367 102.611,256.804 103.936 M194.760 105.330 C 189.775 106.399,186.603 108.602,186.796 110.862 C 186.988 113.112,188.400 113.309,191.786 111.556 C 195.464 109.653,199.102 108.833,202.344 109.177 C 207.272 109.699,207.521 109.671,208.182 108.503 C 209.902 105.462,202.409 103.691,194.760 105.330 M260.715 123.005 C 252.864 126.571,252.864 142.289,260.715 145.945 C 268.022 149.348,274.017 144.304,274.004 134.766 C 273.991 125.433,267.675 119.844,260.715 123.005 M199.046 124.020 C 188.013 127.951,191.170 150.465,202.500 148.653 C 208.068 147.763,211.092 143.352,211.084 136.133 C 211.074 127.495,205.379 121.764,199.046 124.020 M237.945 147.476 C 232.694 148.616,230.859 150.445,230.859 154.542 C 230.859 159.321,232.586 161.482,238.502 164.106 L 241.487 165.430 241.288 169.141 C 240.726 179.656,236.426 182.687,226.653 179.455 C 223.247 178.329,221.201 177.090,219.014 174.830 C 217.024 172.773,215.925 172.370,214.629 173.219 C 213.003 174.285,213.358 175.634,215.918 178.114 C 221.751 183.765,233.039 186.492,238.817 183.648 C 241.217 182.466,241.254 182.461,242.983 183.084 C 249.065 185.275,259.456 183.008,263.277 178.657 C 267.772 173.537,264.698 170.237,259.997 175.135 C 256.771 178.496,254.419 179.421,249.023 179.453 C 243.646 179.484,243.671 179.499,244.608 176.723 C 245.072 175.348,245.470 172.740,245.633 170.005 L 245.898 165.535 248.047 164.864 C 256.082 162.357,259.912 156.156,256.528 151.132 C 254.137 147.583,245.387 145.861,237.945 147.476 " stroke="none" fill="#473631" fill-rule="evenodd"></path><path id="path2" d="M212.187 51.072 C 214.056 51.143,217.220 51.144,219.219 51.073 C 221.217 51.002,219.688 50.943,215.820 50.943 C 211.953 50.942,210.318 51.000,212.187 51.072 M204.985 51.448 C 205.471 51.542,206.174 51.538,206.548 51.440 C 206.921 51.342,206.523 51.266,205.664 51.270 C 204.805 51.275,204.499 51.355,204.985 51.448 M224.512 51.448 C 224.995 51.541,225.786 51.541,226.270 51.448 C 226.753 51.354,226.357 51.278,225.391 51.278 C 224.424 51.278,224.028 51.354,224.512 51.448 M201.860 51.839 C 202.346 51.932,203.049 51.929,203.423 51.831 C 203.796 51.733,203.398 51.657,202.539 51.661 C 201.680 51.665,201.374 51.745,201.860 51.839 M193.750 53.125 C 192.437 53.545,193.855 53.545,195.508 53.125 C 196.560 52.857,196.580 52.826,195.703 52.820 C 195.166 52.816,194.287 52.953,193.750 53.125 M235.938 53.125 C 237.273 53.553,238.300 53.553,237.305 53.125 C 236.875 52.940,236.172 52.794,235.742 52.801 C 235.114 52.810,235.152 52.874,235.938 53.125 M188.281 54.492 C 187.529 54.782,187.178 55.024,187.500 55.031 C 187.822 55.037,188.613 54.801,189.258 54.506 C 190.766 53.816,190.065 53.805,188.281 54.492 M243.483 54.942 C 243.649 55.107,245.131 55.734,246.776 56.334 C 248.422 56.934,249.601 57.267,249.396 57.074 C 248.936 56.640,243.065 54.523,243.483 54.942 M266.704 58.870 C 267.190 58.963,267.893 58.960,268.266 58.862 C 268.640 58.764,268.242 58.688,267.383 58.692 C 266.523 58.697,266.218 58.777,266.704 58.870 M262.500 59.983 C 261.533 60.288,260.558 60.472,260.334 60.390 C 259.054 59.926,260.077 61.714,261.651 62.693 C 281.293 74.913,288.644 89.855,289.616 119.531 C 289.928 129.061,290.866 135.615,293.156 144.276 C 294.186 148.171,295.311 153.618,295.343 154.865 C 295.360 155.519,295.448 155.879,295.539 155.664 C 295.630 155.449,297.095 155.273,298.796 155.273 C 300.496 155.273,301.826 155.211,301.750 155.135 C 301.478 154.864,306.016 152.785,306.385 153.013 C 306.592 153.141,306.648 153.063,306.510 152.839 C 306.229 152.385,307.079 151.544,307.949 151.416 C 308.740 151.300,309.796 150.366,309.563 149.989 C 309.266 149.507,311.343 147.229,311.815 147.520 C 312.047 147.664,312.117 147.593,311.972 147.360 C 311.661 146.857,315.152 141.556,315.693 141.709 C 315.903 141.768,315.975 141.656,315.854 141.460 C 315.537 140.948,320.108 131.572,320.500 131.928 C 320.681 132.092,320.704 132.010,320.552 131.746 C 320.174 131.088,321.113 128.091,321.603 128.393 C 321.819 128.527,321.876 128.442,321.729 128.204 C 321.582 127.967,321.818 126.022,322.254 123.883 C 323.570 117.425,323.201 112.493,320.979 106.874 C 320.291 105.134,319.752 103.493,319.781 103.227 C 319.810 102.961,319.694 102.829,319.524 102.934 C 319.068 103.216,317.101 99.675,317.423 99.153 C 317.587 98.888,317.526 98.814,317.272 98.971 C 316.722 99.311,314.318 95.848,314.688 95.249 C 314.852 94.983,314.792 94.907,314.540 95.063 C 314.028 95.380,312.824 93.783,313.163 93.235 C 313.294 93.022,313.211 92.966,312.978 93.110 C 312.465 93.427,311.262 91.830,311.600 91.282 C 311.732 91.069,311.662 91.005,311.445 91.139 C 311.000 91.414,309.277 89.748,309.455 89.214 C 309.518 89.023,309.420 88.842,309.237 88.811 C 308.560 88.697,305.459 85.354,305.626 84.919 C 305.721 84.672,305.153 83.877,304.364 83.153 L 302.930 81.836 304.292 83.398 C 305.041 84.258,304.470 83.823,303.023 82.433 C 300.331 79.848,299.373 78.622,301.660 80.689 L 302.930 81.836 301.796 80.580 C 301.172 79.890,300.531 79.405,300.371 79.504 C 299.973 79.751,296.091 76.216,296.201 75.708 C 296.249 75.483,295.962 75.245,295.563 75.178 C 294.583 75.014,292.933 73.420,293.236 72.930 C 293.380 72.697,293.283 72.657,293.000 72.832 C 292.416 73.193,290.542 71.544,290.893 70.977 C 291.030 70.754,290.942 70.703,290.689 70.859 C 290.124 71.208,287.047 68.777,287.377 68.243 C 287.519 68.013,287.425 67.969,287.153 68.137 C 286.632 68.459,285.449 67.662,285.742 67.187 C 285.845 67.021,285.623 66.909,285.250 66.939 C 284.874 66.968,284.618 66.761,284.678 66.475 C 284.737 66.190,284.611 66.065,284.398 66.196 C 283.858 66.530,280.816 64.449,281.121 63.954 C 281.263 63.726,281.181 63.668,280.933 63.822 C 280.365 64.173,277.245 62.586,277.546 62.099 C 277.677 61.887,277.488 61.838,277.105 61.985 C 276.653 62.158,276.526 62.095,276.714 61.790 C 276.903 61.485,276.775 61.421,276.323 61.594 C 275.833 61.783,275.739 61.713,275.973 61.334 C 276.178 61.002,276.141 60.910,275.869 61.079 C 275.636 61.223,274.127 60.898,272.517 60.358 C 269.161 59.231,265.331 59.088,262.500 59.983 M154.757 62.315 C 152.968 62.852,151.315 63.175,151.083 63.031 C 150.848 62.886,150.772 62.950,150.911 63.176 C 151.232 63.695,149.030 64.624,148.401 64.235 C 148.077 64.035,148.027 64.106,148.246 64.459 C 148.480 64.838,148.386 64.908,147.895 64.719 C 147.444 64.546,147.316 64.610,147.505 64.915 C 147.693 65.220,147.566 65.283,147.114 65.110 C 146.745 64.968,146.540 65.008,146.657 65.198 C 146.932 65.642,145.763 66.099,145.217 65.761 C 144.978 65.613,144.915 65.689,145.070 65.939 C 145.402 66.476,143.123 67.720,142.506 67.338 C 142.252 67.181,142.175 67.241,142.323 67.481 C 142.632 67.982,139.219 70.065,138.657 69.717 C 138.440 69.583,138.310 69.652,138.369 69.870 C 138.507 70.379,133.223 73.887,132.755 73.597 C 132.561 73.477,132.451 73.612,132.510 73.897 C 132.569 74.183,132.314 74.390,131.938 74.361 C 131.564 74.331,131.346 74.449,131.454 74.624 C 131.748 75.098,129.373 76.655,128.849 76.332 C 128.580 76.165,128.500 76.221,128.652 76.468 C 128.996 77.024,125.926 79.433,125.337 79.069 C 125.072 78.905,124.983 78.954,125.126 79.184 C 125.471 79.744,123.984 81.002,123.402 80.642 C 123.123 80.470,123.027 80.511,123.170 80.742 C 123.520 81.309,121.647 82.959,121.062 82.598 C 120.781 82.424,120.682 82.463,120.824 82.692 C 121.097 83.135,119.130 85.168,118.309 85.292 C 117.493 85.416,116.762 85.956,116.966 86.286 C 117.195 86.657,110.868 92.984,110.389 92.863 C 110.194 92.814,109.987 93.100,109.929 93.499 C 109.786 94.470,108.191 96.132,107.695 95.826 C 107.472 95.688,107.421 95.777,107.578 96.031 C 107.892 96.539,105.937 99.313,105.469 99.024 C 105.303 98.921,105.190 99.142,105.220 99.516 C 105.249 99.890,105.074 100.158,104.831 100.113 C 104.588 100.068,104.412 100.331,104.440 100.699 C 104.469 101.066,104.259 101.319,103.975 101.260 C 103.690 101.201,103.566 101.327,103.698 101.541 C 104.057 102.123,102.777 104.370,102.267 104.054 C 101.999 103.888,101.943 103.964,102.120 104.250 C 102.422 104.739,100.817 109.053,100.423 108.809 C 100.141 108.635,100.054 109.863,99.929 115.820 C 99.824 120.806,100.190 122.678,102.210 127.487 C 102.740 128.748,103.077 130.031,102.958 130.340 C 102.822 130.696,102.908 130.798,103.196 130.620 C 103.501 130.432,103.565 130.559,103.391 131.011 C 103.218 131.463,103.282 131.590,103.586 131.402 C 103.891 131.213,103.955 131.340,103.782 131.792 C 103.608 132.244,103.672 132.371,103.977 132.183 C 104.282 131.994,104.346 132.122,104.172 132.573 C 103.999 133.025,104.063 133.153,104.368 132.964 C 104.673 132.776,104.736 132.903,104.563 133.355 C 104.390 133.806,104.453 133.934,104.758 133.745 C 105.063 133.557,105.127 133.684,104.954 134.136 C 104.807 134.518,104.856 134.708,105.066 134.578 C 105.553 134.277,106.751 136.614,106.401 137.181 C 106.223 137.470,106.307 137.511,106.647 137.301 C 107.022 137.069,107.096 137.159,106.916 137.627 C 106.780 137.981,106.823 138.230,107.011 138.179 C 107.530 138.038,111.765 144.532,111.467 145.013 C 111.323 145.246,111.389 145.321,111.614 145.182 C 112.166 144.841,113.030 145.943,112.669 146.528 C 112.497 146.806,112.545 146.894,112.786 146.744 C 113.354 146.393,116.137 149.870,115.782 150.486 C 115.627 150.756,115.649 150.841,115.832 150.675 C 116.014 150.509,116.921 151.117,117.847 152.026 C 119.463 153.611,120.068 154.645,119.043 154.068 C 118.774 153.917,119.331 154.602,120.280 155.591 C 121.228 156.579,122.166 157.288,122.364 157.166 C 122.853 156.863,125.421 159.400,125.120 159.888 C 124.988 160.102,125.054 160.169,125.267 160.038 C 125.814 159.699,127.411 160.903,127.095 161.415 C 126.940 161.665,127.014 161.727,127.272 161.568 C 127.852 161.209,129.754 162.467,129.428 162.994 C 129.278 163.237,129.366 163.285,129.644 163.113 C 129.902 162.953,130.500 163.070,130.974 163.371 C 134.189 165.416,140.381 166.896,145.019 166.728 L 148.465 166.603 149.961 165.040 C 156.326 158.389,160.126 147.820,162.305 130.707 C 164.175 116.021,165.716 106.660,168.164 95.117 C 172.643 73.991,172.892 69.601,169.898 64.521 C 169.476 63.806,169.232 63.059,169.354 62.861 C 169.477 62.662,169.391 62.500,169.164 62.500 C 168.936 62.500,168.750 62.672,168.750 62.882 C 168.750 63.116,168.376 63.094,167.786 62.825 C 167.255 62.583,166.904 62.252,167.005 62.089 C 167.106 61.925,166.809 61.891,166.346 62.012 C 165.882 62.133,165.600 62.073,165.720 61.878 C 166.262 60.991,158.077 61.317,154.757 62.315 M261.035 103.394 C 261.411 103.493,262.026 103.493,262.402 103.394 C 262.778 103.296,262.471 103.216,261.719 103.216 C 260.967 103.216,260.659 103.296,261.035 103.394 M199.902 109.267 C 200.601 109.354,201.743 109.354,202.441 109.267 C 203.140 109.180,202.568 109.109,201.172 109.109 C 199.775 109.109,199.204 109.180,199.902 109.267 M263.770 122.144 C 264.146 122.243,264.761 122.243,265.137 122.144 C 265.513 122.046,265.205 121.966,264.453 121.966 C 263.701 121.966,263.394 122.046,263.770 122.144 M191.888 135.938 C 191.888 136.689,191.968 136.997,192.066 136.621 C 192.164 136.245,192.164 135.630,192.066 135.254 C 191.968 134.878,191.888 135.186,191.888 135.938 M264.360 147.151 C 264.846 147.245,265.549 147.241,265.923 147.143 C 266.296 147.046,265.898 146.969,265.039 146.974 C 264.180 146.978,263.874 147.058,264.360 147.151 M230.567 154.883 C 230.572 155.742,230.652 156.048,230.745 155.562 C 230.838 155.076,230.835 154.373,230.737 153.999 C 230.639 153.626,230.563 154.023,230.567 154.883 M257.528 155.078 C 257.528 156.045,257.604 156.440,257.698 155.957 C 257.791 155.474,257.791 154.683,257.698 154.199 C 257.604 153.716,257.528 154.111,257.528 155.078 M121.094 155.664 C 121.823 156.416,122.331 157.031,122.224 157.031 C 122.116 157.031,121.432 156.416,120.703 155.664 C 119.974 154.912,119.466 154.297,119.573 154.297 C 119.681 154.297,120.365 154.912,121.094 155.664 M294.380 163.862 C 294.237 165.256,294.023 166.706,293.905 167.085 C 293.720 167.682,293.745 167.691,294.093 167.156 C 294.515 166.510,295.174 161.328,294.834 161.328 C 294.727 161.328,294.522 162.468,294.380 163.862 M241.147 168.750 C 241.147 170.361,241.216 171.021,241.300 170.215 C 241.384 169.409,241.384 168.091,241.300 167.285 C 241.216 166.479,241.147 167.139,241.147 168.750 M245.810 167.969 C 245.810 168.936,245.886 169.331,245.979 168.848 C 246.072 168.364,246.072 167.573,245.979 167.090 C 245.886 166.606,245.810 167.002,245.810 167.969 M143.066 167.457 C 143.442 167.555,144.058 167.555,144.434 167.457 C 144.810 167.359,144.502 167.278,143.750 167.278 C 142.998 167.278,142.690 167.359,143.066 167.457 M292.166 173.298 C 291.950 173.867,291.680 174.482,291.567 174.666 C 291.453 174.850,291.517 175.000,291.708 175.000 C 291.900 175.000,292.245 174.385,292.476 173.633 C 292.966 172.035,292.739 171.791,292.166 173.298 M214.453 177.075 C 214.453 177.143,215.024 177.714,215.723 178.345 L 216.992 179.492 215.845 178.223 C 214.775 177.039,214.453 176.774,214.453 177.075 M247.956 179.580 C 248.658 179.667,249.713 179.665,250.300 179.576 C 250.887 179.487,250.312 179.416,249.023 179.418 C 247.734 179.420,247.254 179.493,247.956 179.580 M232.329 180.745 C 232.815 180.838,233.518 180.835,233.891 180.737 C 234.265 180.639,233.867 180.563,233.008 180.567 C 232.148 180.572,231.843 180.652,232.329 180.745 M231.543 185.041 C 232.026 185.134,232.817 185.134,233.301 185.041 C 233.784 184.948,233.389 184.872,232.422 184.872 C 231.455 184.872,231.060 184.948,231.543 185.041 M161.253 193.193 C 159.014 195.574,158.987 195.330,161.790 198.129 C 180.813 217.119,219.224 224.301,248.021 214.252 C 252.273 212.768,256.407 210.850,256.831 210.165 C 257.220 209.534,257.810 209.699,257.843 210.449 C 257.863 210.879,257.949 210.947,258.076 210.631 C 258.186 210.356,258.105 209.916,257.895 209.655 C 257.684 209.394,257.393 208.622,257.247 207.940 C 256.984 206.707,256.976 206.703,255.697 207.238 C 228.132 218.755,188.612 212.954,166.136 194.091 L 162.935 191.405 161.253 193.193 M156.036 198.145 L 154.492 199.805 156.152 198.261 C 157.696 196.825,157.992 196.484,157.696 196.484 C 157.633 196.484,156.886 197.231,156.036 198.145 M145.117 208.984 C 144.500 209.629,144.191 210.156,144.432 210.156 C 144.672 210.156,145.244 209.629,145.703 208.984 C 146.162 208.340,146.471 207.813,146.389 207.813 C 146.307 207.813,145.735 208.340,145.117 208.984 M258.563 213.965 C 258.750 215.313,258.777 215.341,258.906 214.308 C 258.982 213.691,258.891 213.032,258.703 212.843 C 258.506 212.647,258.447 213.125,258.563 213.965 M138.617 216.003 C 138.110 216.425,137.888 216.777,138.123 216.784 C 138.358 216.791,138.869 216.445,139.258 216.016 C 140.162 215.016,139.810 215.009,138.617 216.003 M259.381 219.368 C 259.384 219.780,259.565 220.381,259.783 220.703 C 260.073 221.131,260.109 220.973,259.918 220.117 C 259.597 218.681,259.373 218.369,259.381 219.368 M260.162 224.837 C 260.166 225.249,260.347 225.850,260.565 226.172 C 260.854 226.600,260.891 226.442,260.699 225.586 C 260.378 224.150,260.154 223.838,260.162 224.837 M261.028 230.859 C 261.028 231.611,261.109 231.919,261.207 231.543 C 261.305 231.167,261.305 230.552,261.207 230.176 C 261.109 229.800,261.028 230.107,261.028 230.859 M261.435 233.984 C 261.435 234.951,261.511 235.347,261.604 234.863 C 261.697 234.380,261.697 233.589,261.604 233.105 C 261.511 232.622,261.435 233.018,261.435 233.984 M84.530 234.660 C 84.893 235.023,82.428 236.378,81.947 236.081 C 81.708 235.933,81.630 235.995,81.771 236.224 C 81.910 236.447,81.737 236.868,81.387 237.158 C 81.038 237.448,80.014 238.785,79.111 240.130 C 78.209 241.475,77.345 242.449,77.191 242.296 C 77.038 242.142,77.021 242.301,77.155 242.650 C 77.289 242.998,77.055 243.960,76.636 244.786 C 76.217 245.613,75.560 247.292,75.176 248.518 C 74.791 249.748,74.305 250.639,74.093 250.508 C 73.881 250.377,73.828 250.464,73.975 250.702 C 74.122 250.940,73.951 252.843,73.595 254.930 C 72.666 260.379,72.996 267.258,74.435 272.461 C 75.029 274.609,75.531 276.746,75.550 277.209 C 75.570 277.672,75.705 277.977,75.851 277.887 C 76.247 277.642,76.656 279.220,76.332 279.744 C 76.176 279.997,76.220 280.094,76.431 279.964 C 76.916 279.664,79.010 283.891,78.658 284.460 C 78.505 284.708,78.575 284.775,78.826 284.620 C 79.360 284.290,80.216 285.789,79.841 286.397 C 79.683 286.651,79.740 286.732,79.974 286.588 C 80.485 286.272,82.554 288.924,82.219 289.465 C 82.084 289.684,82.131 289.815,82.324 289.756 C 82.790 289.613,88.897 295.705,88.760 296.175 C 88.701 296.377,88.832 296.432,89.051 296.296 C 89.592 295.962,92.244 298.030,91.928 298.541 C 91.784 298.775,91.864 298.833,92.116 298.677 C 92.696 298.319,94.598 299.577,94.272 300.103 C 94.127 300.338,94.208 300.395,94.463 300.238 C 95.071 299.862,96.570 300.718,96.240 301.252 C 96.082 301.507,96.151 301.573,96.408 301.414 C 96.648 301.266,98.209 301.844,99.877 302.698 C 103.553 304.579,103.369 304.784,101.787 300.567 C 99.009 293.163,98.155 282.698,99.765 275.781 C 100.757 271.519,100.769 271.446,100.434 271.653 C 99.911 271.976,97.145 268.871,97.476 268.334 C 97.667 268.026,97.617 267.947,97.341 268.118 C 96.767 268.472,94.751 265.437,95.141 264.806 C 95.340 264.483,95.269 264.434,94.916 264.652 C 94.541 264.884,94.467 264.794,94.646 264.327 C 94.785 263.965,94.715 263.722,94.486 263.774 C 93.965 263.893,92.474 260.210,92.751 259.488 C 92.866 259.189,92.800 259.042,92.605 259.163 C 92.152 259.443,91.646 257.201,92.024 256.590 C 92.185 256.328,92.141 256.233,91.921 256.369 C 91.215 256.805,90.611 252.709,90.382 245.929 C 90.258 242.260,89.961 238.555,89.723 237.695 C 89.485 236.836,89.282 235.886,89.272 235.584 C 89.260 235.218,88.668 234.988,87.498 234.895 C 86.532 234.818,85.417 234.682,85.020 234.592 C 84.623 234.502,84.402 234.533,84.530 234.660 M261.825 238.281 C 261.825 239.248,261.901 239.644,261.994 239.160 C 262.088 238.677,262.088 237.886,261.994 237.402 C 261.901 236.919,261.825 237.314,261.825 238.281 M90.761 243.359 C 90.761 245.186,90.829 245.933,90.911 245.020 C 90.993 244.106,90.993 242.612,90.911 241.699 C 90.829 240.786,90.761 241.533,90.761 243.359 M262.132 241.829 C 262.144 242.563,262.309 243.867,262.498 244.727 C 262.763 245.927,262.791 245.656,262.623 243.555 C 262.390 240.645,262.094 239.607,262.132 241.829 M138.477 247.524 C 135.336 248.197,130.316 250.668,128.731 252.323 C 127.046 254.081,127.823 254.460,130.423 253.148 C 147.126 244.717,166.316 258.408,167.819 279.829 C 168.636 291.486,163.024 304.983,156.836 306.242 C 146.706 308.303,142.921 310.053,144.716 311.847 C 145.333 312.465,145.299 312.470,150.755 310.960 C 160.458 308.274,171.364 312.196,178.184 320.824 C 179.011 321.871,179.688 322.515,179.688 322.256 C 179.688 321.792,180.065 321.813,184.914 322.544 L 186.430 322.772 186.157 319.296 C 186.007 317.385,185.549 312.217,185.139 307.813 C 183.025 285.096,181.663 267.231,181.649 262.035 C 181.644 260.382,181.485 258.934,181.294 258.816 C 179.769 257.873,179.220 265.223,179.372 284.570 C 179.502 301.101,179.379 302.321,177.255 305.472 C 175.452 308.147,174.388 308.422,169.914 307.365 C 165.722 306.376,165.644 306.311,166.747 304.748 C 183.838 280.532,164.751 241.898,138.477 247.524 M263.002 249.414 C 263.005 250.488,263.081 250.881,263.171 250.288 C 263.261 249.694,263.258 248.815,263.166 248.334 C 263.073 247.854,262.999 248.340,263.002 249.414 M263.309 254.525 C 263.324 255.151,263.492 256.016,263.682 256.445 C 263.913 256.967,263.951 256.642,263.796 255.469 C 263.522 253.399,263.270 252.910,263.309 254.525 M247.023 258.496 C 243.042 265.061,231.384 279.691,230.137 279.687 C 229.997 279.686,229.844 279.027,229.797 278.222 C 229.701 276.564,229.069 270.557,228.476 265.652 C 227.910 260.980,226.353 259.301,224.916 261.816 C 223.755 263.849,224.584 289.483,226.378 306.984 C 226.694 310.073,226.953 312.897,226.953 313.260 C 226.953 313.689,227.694 314.226,229.082 314.801 C 236.296 317.791,241.042 324.140,241.154 330.953 C 241.213 334.482,241.871 335.839,242.476 333.678 C 244.141 327.733,241.882 321.036,236.935 317.249 C 235.938 316.486,235.745 316.019,235.493 313.751 C 235.333 312.311,234.759 307.178,234.216 302.344 C 233.674 297.510,233.114 291.972,232.973 290.037 L 232.715 286.519 234.046 284.926 C 241.541 275.954,250.068 260.404,248.766 258.079 C 248.245 257.148,247.772 257.261,247.023 258.496 M264.161 261.133 C 264.165 261.992,264.245 262.298,264.339 261.812 C 264.432 261.326,264.429 260.623,264.331 260.249 C 264.233 259.876,264.157 260.273,264.161 261.133 M264.934 268.359 C 264.934 269.111,265.015 269.419,265.113 269.043 C 265.211 268.667,265.211 268.052,265.113 267.676 C 265.015 267.300,264.934 267.607,264.934 268.359 M266.292 280.469 C 266.413 281.650,266.646 282.871,266.810 283.182 C 267.187 283.895,266.792 280.155,266.379 279.102 C 266.209 278.667,266.170 279.275,266.292 280.469 M267.286 286.914 C 267.290 287.773,267.370 288.079,267.464 287.593 C 267.557 287.107,267.554 286.404,267.456 286.031 C 267.358 285.657,267.282 286.055,267.286 286.914 M267.669 289.844 C 267.669 290.596,267.749 290.903,267.847 290.527 C 267.946 290.151,267.946 289.536,267.847 289.160 C 267.749 288.784,267.669 289.092,267.669 289.844 M268.450 294.922 C 268.450 295.674,268.530 295.981,268.629 295.605 C 268.727 295.229,268.727 294.614,268.629 294.238 C 268.530 293.862,268.450 294.170,268.450 294.922 M269.147 300.033 C 269.150 300.552,269.325 301.240,269.537 301.563 C 269.807 301.975,269.846 301.743,269.670 300.781 C 269.361 299.097,269.139 298.779,269.147 300.033 M105.764 308.008 C 105.661 308.545,105.728 308.984,105.914 308.984 C 106.099 308.984,106.250 308.545,106.250 308.008 C 106.250 307.471,106.183 307.031,106.100 307.031 C 106.018 307.031,105.866 307.471,105.764 308.008 M104.733 313.347 C 104.708 313.705,104.586 314.321,104.463 314.714 C 104.250 315.392,104.261 315.393,104.684 314.734 C 104.930 314.351,105.051 313.736,104.954 313.367 C 104.796 312.762,104.774 312.760,104.733 313.347 M104.403 318.359 C 104.403 319.326,104.479 319.722,104.573 319.238 C 104.666 318.755,104.666 317.964,104.573 317.480 C 104.479 316.997,104.403 317.393,104.403 318.359 M272.946 317.809 C 272.725 318.030,273.298 319.200,275.522 323.069 C 277.560 326.615,277.747 333.489,275.866 335.726 C 275.200 336.518,275.201 336.518,276.060 335.792 C 276.537 335.389,277.202 335.168,277.545 335.300 C 277.886 335.431,278.070 335.383,277.952 335.193 C 277.678 334.749,278.846 334.292,279.392 334.629 C 279.626 334.773,279.695 334.703,279.550 334.469 C 279.408 334.239,279.467 333.992,279.681 333.920 C 281.137 333.429,280.869 326.494,279.275 323.438 C 277.907 320.816,273.690 317.065,272.946 317.809 M260.035 319.002 C 259.897 319.140,260.295 319.836,260.921 320.549 C 263.778 323.803,265.115 327.762,264.700 331.739 C 264.432 334.297,263.690 337.181,263.213 337.516 C 263.048 337.633,264.182 337.726,265.733 337.723 C 267.285 337.720,268.090 337.659,267.521 337.587 C 266.538 337.462,266.513 337.405,267.011 336.404 C 268.413 333.585,268.568 327.992,267.328 325.000 C 265.690 321.050,261.463 317.573,260.035 319.002 M168.487 321.324 C 168.338 321.714,168.729 322.876,169.455 324.196 C 171.706 328.291,172.483 333.553,171.318 336.816 C 170.734 338.453,170.915 338.575,172.905 337.882 C 174.235 337.418,174.295 337.173,174.352 332.031 C 174.389 328.678,174.286 328.113,173.286 326.172 C 171.185 322.097,169.027 319.917,168.487 321.324 M155.737 321.623 C 155.649 321.869,155.922 322.756,156.343 323.595 C 159.115 329.116,159.609 337.266,157.312 339.563 L 156.517 340.358 157.458 340.106 C 157.975 339.968,158.948 339.852,159.621 339.849 C 163.403 339.833,162.715 328.935,158.580 323.367 C 157.213 321.528,156.031 320.802,155.737 321.623 M228.516 324.618 C 228.516 325.052,228.957 326.074,229.496 326.889 C 231.648 330.140,232.727 335.953,231.698 338.744 C 230.919 340.858,230.857 341.713,231.468 341.947 C 231.859 342.097,231.974 342.021,231.795 341.731 C 231.607 341.426,231.788 341.354,232.361 341.504 C 232.907 341.646,233.112 341.576,232.944 341.303 C 232.786 341.047,232.912 340.970,233.269 341.107 C 233.591 341.231,233.874 341.129,233.899 340.881 C 233.924 340.633,234.221 339.214,234.558 337.728 C 235.311 334.413,234.935 331.807,233.190 328.247 C 231.514 324.825,228.516 322.498,228.516 324.618 M214.285 326.048 C 214.127 326.459,214.466 327.309,215.190 328.317 C 217.738 331.865,218.671 337.746,217.440 342.493 C 216.950 344.382,216.962 344.531,217.603 344.531 C 217.984 344.531,218.617 344.636,219.011 344.763 C 219.617 344.960,219.637 344.927,219.141 344.544 C 218.667 344.180,218.779 344.124,219.727 344.252 C 220.371 344.339,220.666 344.334,220.381 344.241 C 220.069 344.139,219.971 343.815,220.132 343.423 C 222.386 337.957,221.424 330.538,217.993 326.932 C 216.413 325.271,214.736 324.871,214.285 326.048 M187.377 328.711 C 187.471 329.785,187.699 330.817,187.884 331.004 C 188.180 331.304,188.077 330.593,187.383 327.539 C 187.285 327.109,187.282 327.637,187.377 328.711 M115.625 332.804 C 115.625 332.973,116.059 333.195,116.590 333.296 C 117.120 333.398,117.475 333.352,117.377 333.194 C 117.118 332.774,115.625 332.441,115.625 332.804 M119.672 333.896 C 119.803 334.108,120.366 334.369,120.922 334.475 C 122.116 334.703,121.700 334.197,120.361 333.791 C 119.784 333.616,119.523 333.656,119.672 333.896 M243.183 335.577 C 243.389 335.911,247.238 336.877,247.463 336.652 C 247.548 336.566,246.581 336.227,245.313 335.896 C 244.046 335.566,243.087 335.423,243.183 335.577 M125.781 335.656 C 125.889 335.766,126.665 336.044,127.506 336.274 C 128.347 336.503,128.874 336.540,128.678 336.356 C 128.301 336.002,125.445 335.312,125.781 335.656 M131.250 337.109 C 131.787 337.281,132.578 337.422,133.008 337.422 C 133.626 337.422,133.586 337.357,132.813 337.109 C 132.275 336.937,131.484 336.797,131.055 336.797 C 130.436 336.797,130.477 336.862,131.250 337.109 M253.418 337.776 C 253.901 337.869,254.692 337.869,255.176 337.776 C 255.659 337.683,255.264 337.606,254.297 337.606 C 253.330 337.606,252.935 337.683,253.418 337.776 M258.116 338.177 C 259.035 338.260,260.441 338.259,261.241 338.175 C 262.041 338.091,261.289 338.023,259.570 338.025 C 257.852 338.026,257.197 338.095,258.116 338.177 M166.041 339.506 C 164.873 339.700,163.822 339.954,163.704 340.072 C 163.379 340.397,167.690 339.788,168.359 339.414 C 169.045 339.031,168.864 339.038,166.041 339.506 M148.541 340.124 C 149.134 340.214,150.013 340.211,150.494 340.119 C 150.974 340.026,150.488 339.953,149.414 339.955 C 148.340 339.958,147.947 340.034,148.541 340.124 M200.204 342.930 C 200.414 343.136,201.113 343.429,201.758 343.582 C 203.269 343.940,202.930 343.608,201.181 343.016 C 200.434 342.764,199.994 342.725,200.204 342.930 M208.503 344.814 C 209.205 344.901,210.260 344.899,210.847 344.810 C 211.434 344.721,210.859 344.650,209.570 344.652 C 208.281 344.654,207.801 344.727,208.503 344.814 " stroke="none" fill="#825438" fill-rule="evenodd"></path><path id="path3" d="M261.523 59.810 C 259.106 60.634,257.964 61.328,259.023 61.328 C 259.346 61.328,259.776 61.168,259.980 60.973 C 261.770 59.260,268.317 58.948,272.563 60.373 C 288.462 65.710,316.595 93.392,321.672 108.694 C 327.162 125.240,312.241 155.095,298.408 155.244 C 296.922 155.260,295.705 155.405,295.704 155.566 C 295.702 156.062,299.701 155.882,301.620 155.300 C 311.950 152.165,323.438 131.902,323.438 116.816 C 323.438 106.898,317.585 96.829,303.593 82.678 C 284.929 63.801,271.393 56.444,261.523 59.810 M154.688 61.853 C 134.954 67.736,105.609 93.097,100.152 108.984 C 94.707 124.838,116.488 159.552,135.938 166.017 C 138.773 166.960,146.297 167.550,147.426 166.918 C 147.878 166.665,147.045 166.597,144.848 166.708 C 133.194 167.298,120.515 158.118,109.312 140.981 C 95.103 119.243,96.503 106.688,115.155 88.610 C 135.250 69.133,157.120 58.093,166.973 62.451 C 167.951 62.884,168.750 63.078,168.750 62.884 C 168.750 61.150,159.355 60.461,154.688 61.853 M158.594 186.450 C 158.594 186.518,159.165 187.089,159.863 187.720 L 161.133 188.867 159.986 187.598 C 158.916 186.414,158.594 186.149,158.594 186.450 M280.851 190.918 L 277.539 194.336 280.957 191.024 C 282.837 189.203,284.375 187.665,284.375 187.606 C 284.375 187.322,283.927 187.743,280.851 190.918 M158.398 195.408 L 154.102 199.737 158.008 196.148 C 162.210 192.287,163.046 191.432,162.832 191.217 C 162.756 191.142,160.761 193.028,158.398 195.408 M272.070 198.276 L 270.898 199.283 272.168 198.443 C 272.866 197.981,273.438 197.527,273.438 197.434 C 273.438 197.142,273.272 197.244,272.070 198.276 M153.320 200.704 C 153.105 200.869,151.436 202.581,149.610 204.506 L 146.290 208.008 150.098 204.305 C 152.193 202.268,153.906 200.554,153.906 200.496 C 153.906 200.324,153.734 200.385,153.320 200.704 M265.527 202.177 C 264.067 202.969,264.156 203.299,265.625 202.539 C 266.270 202.206,266.797 201.850,266.797 201.748 C 266.797 201.496,266.755 201.511,265.527 202.177 M257.251 207.813 C 257.390 208.564,257.674 209.355,257.881 209.570 C 258.332 210.038,257.891 207.922,257.352 207.031 C 257.121 206.650,257.086 206.923,257.251 207.813 M141.591 212.988 L 138.867 215.820 141.699 213.096 C 144.330 210.566,144.710 210.156,144.423 210.156 C 144.364 210.156,143.089 211.431,141.591 212.988 M136.118 218.848 L 134.180 220.898 136.230 218.960 C 137.358 217.894,138.281 216.971,138.281 216.909 C 138.281 216.618,137.919 216.942,136.118 218.848 M131.818 223.535 L 130.273 225.195 131.934 223.651 C 133.478 222.215,133.773 221.875,133.478 221.875 C 133.414 221.875,132.667 222.622,131.818 223.535 M128.693 227.051 L 127.148 228.711 128.809 227.167 C 130.353 225.731,130.648 225.391,130.353 225.391 C 130.289 225.391,129.542 226.138,128.693 227.051 M125.952 230.176 L 124.805 231.445 126.074 230.298 C 127.258 229.229,127.523 228.906,127.222 228.906 C 127.154 228.906,126.583 229.478,125.952 230.176 M121.484 235.547 C 120.804 236.406,120.335 237.109,120.442 237.109 C 120.550 237.109,121.194 236.406,121.875 235.547 C 122.556 234.687,123.025 233.984,122.917 233.984 C 122.810 233.984,122.165 234.687,121.484 235.547 M83.698 234.955 C 77.118 237.815,71.410 253.866,72.703 265.871 C 74.462 282.204,83.435 294.648,99.505 303.040 C 101.738 304.206,103.655 305.069,103.765 304.959 C 103.876 304.848,102.327 303.933,100.323 302.925 C 85.082 295.263,76.563 284.467,73.653 269.123 C 70.887 254.544,78.228 234.766,86.405 234.766 C 89.484 234.766,90.059 236.390,90.385 246.006 C 90.684 254.829,92.014 260.278,95.195 265.705 C 96.472 267.885,101.227 273.292,100.449 271.680 C 100.241 271.250,99.597 270.459,99.016 269.922 C 93.634 264.945,90.659 254.965,90.631 241.794 C 90.618 235.311,88.250 232.976,83.698 234.955 M280.062 312.988 C 281.020 314.009,281.855 314.844,281.917 314.844 C 282.211 314.844,281.900 314.493,280.176 312.874 L 278.320 311.133 280.062 312.988 M180.660 322.270 C 181.302 322.473,182.884 322.726,184.175 322.834 C 185.998 322.985,186.227 322.952,185.200 322.685 C 183.203 322.168,179.165 321.798,180.660 322.270 M284.272 329.788 L 283.582 331.055 284.369 330.133 C 285.039 329.348,285.397 328.510,285.059 328.518 C 285.005 328.519,284.651 329.091,284.272 329.788 M110.124 329.829 C 110.644 330.470,112.109 331.439,112.109 331.142 C 112.109 331.067,111.538 330.588,110.840 330.077 C 110.054 329.502,109.781 329.407,110.124 329.829 M282.603 332.047 C 282.207 332.485,280.596 333.479,279.023 334.257 C 277.451 335.034,276.238 335.743,276.328 335.833 C 276.643 336.148,280.912 333.826,282.343 332.561 C 283.138 331.858,283.684 331.275,283.557 331.266 C 283.429 331.257,283.000 331.609,282.603 332.047 M174.023 337.330 C 172.949 337.848,171.773 338.273,171.410 338.276 C 171.046 338.279,170.636 338.464,170.498 338.688 C 170.130 339.283,172.108 338.737,174.316 337.633 C 175.337 337.123,176.172 336.621,176.172 336.517 C 176.172 336.280,176.325 336.222,174.023 337.330 M191.992 338.281 C 192.831 339.141,193.606 339.844,193.713 339.844 C 193.821 339.844,193.222 339.141,192.383 338.281 C 191.544 337.422,190.769 336.719,190.662 336.719 C 190.554 336.719,191.153 337.422,191.992 338.281 M237.677 338.379 L 236.133 340.039 237.793 338.495 C 238.706 337.646,239.453 336.899,239.453 336.835 C 239.453 336.539,239.113 336.835,237.677 338.379 M263.477 337.891 L 262.305 338.189 263.672 338.208 C 264.424 338.218,265.391 338.075,265.820 337.891 C 266.859 337.444,265.231 337.444,263.477 337.891 M156.836 340.234 C 155.788 340.501,155.850 340.533,157.422 340.533 C 158.389 340.533,159.707 340.398,160.352 340.234 C 161.399 339.968,161.337 339.936,159.766 339.936 C 158.799 339.936,157.480 340.070,156.836 340.234 M232.316 341.298 C 230.861 341.850,229.740 342.370,229.823 342.454 C 230.021 342.651,234.456 341.024,234.941 340.577 C 235.435 340.122,235.375 340.138,232.316 341.298 M217.383 344.531 L 215.820 344.811 217.188 344.839 C 217.939 344.854,218.906 344.716,219.336 344.531 C 220.256 344.136,219.592 344.136,217.383 344.531 " stroke="none" fill="#712907" fill-rule="evenodd"></path><path id="path4" d="M206.055 50.431 C 203.691 50.633,201.406 50.974,200.977 51.189 C 200.385 51.486,200.642 51.534,202.038 51.386 C 223.006 49.163,240.373 51.805,255.859 59.574 L 258.398 60.847 260.350 60.080 C 263.036 59.024,263.056 58.841,260.461 59.096 C 258.019 59.337,257.113 59.115,252.734 57.204 C 251.123 56.501,248.223 55.448,246.289 54.865 C 244.355 54.281,242.158 53.580,241.406 53.305 C 240.109 52.832,238.993 52.589,230.664 50.962 C 226.498 50.149,212.827 49.854,206.055 50.431 M195.898 51.938 C 195.254 52.106,193.672 52.462,192.383 52.728 C 188.369 53.558,176.909 57.458,173.633 59.108 C 170.581 60.646,170.412 60.683,166.406 60.691 C 163.448 60.697,162.795 60.774,164.063 60.967 C 165.029 61.115,166.501 61.520,167.334 61.868 L 168.848 62.501 171.631 60.972 C 177.833 57.566,186.501 54.495,194.922 52.720 C 197.999 52.071,199.545 51.613,198.633 51.620 C 197.773 51.627,196.543 51.770,195.898 51.938 M276.413 61.287 C 292.079 68.821,316.114 92.842,321.562 106.410 C 325.118 115.264,324.242 124.521,318.741 136.216 C 312.632 149.205,305.615 155.839,297.858 155.956 L 295.313 155.995 295.311 158.954 C 295.302 177.116,283.538 193.653,263.445 203.748 L 257.554 206.708 258.089 208.725 C 259.475 213.947,261.170 226.930,263.478 250.000 C 266.080 276.020,269.982 304.716,271.101 306.064 C 271.323 306.331,272.626 307.205,273.997 308.007 C 288.074 316.240,290.403 329.371,278.799 335.084 C 270.969 338.938,255.593 339.404,244.336 336.127 L 240.821 335.103 240.235 336.005 C 236.465 341.804,226.798 345.022,213.086 345.043 C 196.780 345.067,187.873 338.834,186.845 326.679 C 186.560 323.310,186.549 323.300,182.243 322.839 C 179.721 322.569,179.581 322.595,179.849 323.288 C 186.617 340.727,161.018 345.853,121.897 334.892 C 106.046 330.451,101.528 323.939,105.010 310.547 C 106.002 306.730,105.684 306.246,100.557 303.767 C 85.161 296.324,76.247 285.232,73.049 269.543 C 70.389 256.487,75.840 238.693,83.691 234.807 C 85.135 234.092,85.220 233.985,84.344 233.985 C 83.353 233.984,79.687 236.120,79.688 236.698 C 79.688 236.860,79.194 237.510,78.590 238.142 C 73.357 243.618,69.822 262.077,72.317 270.898 C 72.560 271.758,72.984 273.428,73.259 274.609 C 75.911 286.004,86.258 298.253,97.461 303.260 C 103.327 305.881,104.055 306.776,103.706 310.938 C 103.589 312.334,103.388 315.078,103.259 317.034 C 102.656 326.191,107.229 331.702,117.969 334.760 C 119.580 335.219,122.568 336.116,124.609 336.753 C 126.650 337.391,128.772 337.907,129.324 337.901 C 129.875 337.895,131.282 338.176,132.449 338.526 C 133.616 338.875,135.537 339.300,136.719 339.470 C 137.900 339.639,140.098 339.983,141.602 340.233 C 143.105 340.484,145.918 340.952,147.852 341.274 C 151.976 341.962,161.239 341.848,166.406 341.047 C 174.096 339.855,177.645 338.175,179.443 334.879 C 180.737 332.506,180.964 331.710,181.285 328.398 C 181.667 324.462,181.764 324.219,182.944 324.219 C 184.526 324.219,185.483 325.260,185.731 327.252 C 186.420 332.776,188.927 337.698,192.385 340.313 C 194.457 341.881,198.860 344.141,199.842 344.141 C 200.165 344.141,200.992 344.440,201.680 344.805 C 205.999 347.102,226.349 345.528,233.457 342.348 C 234.134 342.045,234.900 341.797,235.158 341.797 C 235.416 341.797,236.521 340.993,237.613 340.011 C 241.288 336.707,242.095 336.621,251.367 338.539 C 259.797 340.283,277.461 338.592,279.137 335.881 C 279.250 335.697,279.666 335.547,280.061 335.547 C 281.329 335.547,284.200 332.560,285.531 329.856 C 288.920 322.972,284.986 314.455,275.303 307.714 C 272.404 305.696,270.926 303.321,270.544 300.072 C 270.403 298.874,270.048 296.654,269.755 295.138 C 269.293 292.751,268.408 286.540,267.803 281.445 C 267.701 280.586,267.453 278.740,267.252 277.344 C 267.051 275.947,266.598 272.080,266.246 268.750 C 265.894 265.420,265.353 260.762,265.045 258.398 C 264.736 256.035,264.377 252.520,264.247 250.586 C 264.117 248.652,263.775 245.488,263.488 243.555 C 263.201 241.621,262.762 237.051,262.511 233.398 C 262.261 229.746,261.794 225.352,261.473 223.633 C 261.152 221.914,260.729 219.277,260.533 217.773 C 260.337 216.270,260.004 214.248,259.793 213.281 C 258.798 208.725,259.650 206.136,262.308 205.638 C 263.043 205.500,263.848 205.142,264.096 204.842 C 264.345 204.542,264.868 204.297,265.259 204.297 C 265.650 204.297,266.069 204.136,266.190 203.940 C 266.311 203.744,267.237 203.183,268.247 202.694 C 269.257 202.205,270.706 201.249,271.467 200.568 C 272.229 199.888,273.643 198.839,274.609 198.239 C 278.276 195.959,289.453 183.612,289.453 181.840 C 289.453 181.685,289.980 180.777,290.625 179.822 C 291.270 178.867,291.797 177.889,291.797 177.648 C 291.797 177.407,292.030 176.932,292.315 176.593 C 292.600 176.254,293.145 174.834,293.527 173.438 C 293.908 172.041,294.463 170.082,294.761 169.083 C 295.058 168.085,295.476 165.281,295.689 162.853 C 296.149 157.612,296.467 157.124,299.629 156.785 C 300.800 156.660,302.472 156.224,303.346 155.818 C 304.219 155.411,305.102 155.078,305.307 155.078 C 306.257 155.078,313.609 146.919,315.438 143.836 C 315.657 143.467,316.288 142.461,316.841 141.602 C 318.856 138.466,321.659 131.810,322.846 127.344 C 324.789 120.027,324.874 116.660,323.290 109.652 C 322.424 105.822,318.902 99.335,315.465 95.242 C 314.801 94.451,313.730 93.092,313.086 92.222 C 310.420 88.624,304.054 81.973,297.266 75.693 C 292.681 71.452,292.208 71.067,284.665 65.447 C 283.642 64.686,282.672 64.063,282.507 64.063 C 282.343 64.063,281.598 63.561,280.851 62.948 C 279.194 61.588,277.234 60.551,276.289 60.534 C 275.902 60.528,275.245 60.264,274.828 59.949 C 274.411 59.633,273.708 59.378,273.265 59.381 C 272.823 59.384,274.239 60.242,276.413 61.287 M154.297 61.328 C 153.551 61.810,154.354 61.810,155.859 61.328 L 156.836 61.015 155.859 60.982 C 155.322 60.964,154.619 61.120,154.297 61.328 M150.082 62.663 C 148.730 63.150,147.420 63.752,147.171 64.000 C 146.922 64.249,146.413 64.453,146.039 64.453 C 145.665 64.453,145.257 64.618,145.132 64.819 C 145.008 65.020,144.426 65.430,143.840 65.729 C 139.662 67.859,137.999 68.834,134.375 71.277 C 129.302 74.698,126.969 76.439,123.122 79.678 C 121.469 81.069,119.865 82.387,119.557 82.608 C 118.469 83.386,106.819 95.162,105.664 96.652 C 103.687 99.202,101.159 103.267,100.910 104.297 C 100.780 104.834,100.519 105.471,100.331 105.711 C 97.672 109.108,98.013 122.328,100.921 128.588 C 101.489 129.810,101.953 130.958,101.953 131.140 C 101.953 131.322,102.612 132.659,103.418 134.111 C 104.224 135.563,105.155 137.245,105.488 137.849 C 111.120 148.054,127.359 165.214,131.406 165.237 C 131.642 165.238,132.363 165.515,133.008 165.852 C 135.865 167.346,138.471 167.969,141.868 167.969 C 146.582 167.969,147.684 168.531,148.643 171.427 C 149.992 175.498,155.649 185.669,157.044 186.532 C 157.928 187.078,159.375 189.894,159.375 191.068 C 159.375 192.141,158.545 193.161,153.223 198.631 C 146.192 205.856,138.854 213.652,134.924 218.073 C 133.440 219.741,130.732 222.754,128.906 224.768 C 127.080 226.781,125.118 229.020,124.547 229.742 C 123.184 231.463,121.076 233.999,120.200 234.969 C 118.151 237.239,111.012 247.595,109.165 250.977 C 108.578 252.051,107.685 253.633,107.180 254.492 C 106.676 255.352,106.080 256.494,105.856 257.031 C 105.631 257.568,105.207 258.535,104.911 259.180 C 103.120 263.092,102.405 264.759,102.149 265.625 C 101.265 268.616,98.824 268.846,97.034 266.106 C 94.128 261.659,92.263 254.219,91.792 245.190 C 91.429 238.254,91.009 236.404,89.491 235.068 C 88.727 234.396,88.641 234.370,89.136 234.962 C 90.436 236.518,90.744 238.186,91.043 245.313 C 91.548 257.338,93.407 263.185,98.710 269.434 C 100.948 272.069,100.858 272.108,102.323 267.871 C 108.447 250.149,119.733 235.214,153.440 200.223 L 162.444 190.876 159.989 188.225 C 155.647 183.535,151.557 176.749,149.213 170.347 L 148.153 167.452 143.901 167.370 C 132.714 167.154,123.290 160.864,112.318 146.289 C 99.219 128.889,96.072 116.231,101.929 104.492 C 108.395 91.533,132.319 70.944,149.414 63.628 C 153.534 61.865,153.721 61.772,153.125 61.775 C 152.803 61.777,151.433 62.176,150.082 62.663 " stroke="none" fill="#eee8e2" fill-rule="evenodd"></path></g></svg>