<svg id="svg" version="1.1" xmlns="http://www.w3.org/2000/svg" xmlns:xlink="http://www.w3.org/1999/xlink" width="400" height="400" viewBox="0, 0, 400,400"><g id="svgg"><path id="path0" d="M255.023 59.638 C 255.135 59.818,255.521 59.852,255.882 59.713 C 256.372 59.525,256.475 59.628,256.287 60.118 C 256.148 60.479,256.182 60.865,256.362 60.977 C 256.542 61.088,256.670 60.779,256.645 60.290 C 256.613 59.665,256.335 59.387,255.710 59.355 C 255.221 59.330,254.912 59.458,255.023 59.638 M165.549 63.325 C 165.307 63.681,165.385 65.133,165.638 64.977 C 165.818 64.865,165.852 64.479,165.713 64.118 C 165.525 63.628,165.628 63.525,166.118 63.713 C 166.479 63.852,166.858 63.830,166.959 63.666 C 167.111 63.420,165.714 63.082,165.549 63.325 M289.827 129.970 C 289.165 130.701,289.165 130.734,289.832 130.636 C 290.218 130.580,290.578 130.233,290.631 129.867 C 290.756 129.020,290.678 129.030,289.827 129.970 M240.400 137.815 C 238.970 138.565,237.193 139.464,236.452 139.815 C 235.710 140.165,234.354 141.205,233.438 142.126 C 230.930 144.648,226.948 148.000,226.460 148.000 C 226.222 148.000,225.436 148.495,224.713 149.100 C 223.079 150.467,222.178 151.043,220.427 151.844 C 217.228 153.307,214.041 156.461,213.804 158.400 C 213.683 159.390,213.383 160.740,213.138 161.400 C 212.043 164.347,212.406 166.596,214.587 170.400 C 214.903 170.950,215.520 172.049,215.960 172.843 C 218.539 177.504,223.786 180.597,231.906 182.243 C 233.608 182.588,235.720 183.018,236.600 183.198 C 237.878 183.460,244.647 183.908,248.513 183.986 C 248.906 183.994,249.601 184.635,250.059 185.410 L 250.891 186.821 256.746 186.710 C 262.474 186.602,262.603 186.581,262.728 185.700 C 262.848 184.853,263.053 184.797,266.228 184.750 C 270.597 184.685,270.591 184.686,270.650 184.100 C 270.678 183.825,270.723 183.430,270.750 183.223 C 270.778 183.016,271.565 182.791,272.500 182.723 C 274.150 182.604,274.204 182.556,274.324 181.100 C 274.392 180.275,274.617 179.600,274.824 179.600 C 275.031 179.600,275.200 179.420,275.200 179.200 C 275.200 178.593,272.285 178.722,270.662 179.400 C 268.553 180.281,250.821 180.269,248.217 179.385 C 247.221 179.047,245.460 178.699,244.303 178.612 C 241.569 178.407,238.458 177.834,237.200 177.304 C 236.650 177.073,235.390 176.646,234.400 176.355 C 232.406 175.770,228.552 173.857,227.608 172.983 C 227.274 172.674,226.328 171.860,225.506 171.174 C 223.512 169.511,222.772 167.050,223.920 165.902 C 224.702 165.120,226.400 165.445,226.400 166.377 C 226.400 167.566,233.325 171.237,237.012 172.002 C 238.256 172.261,240.022 172.812,240.937 173.227 C 241.851 173.643,243.194 173.986,243.920 173.991 C 244.646 173.996,245.726 174.241,246.320 174.536 C 250.534 176.626,275.276 177.250,278.307 175.343 C 279.098 174.845,279.244 174.848,279.443 175.367 C 279.568 175.694,280.285 176.164,281.035 176.412 C 282.103 176.764,282.400 177.079,282.400 177.859 C 282.400 179.151,284.009 179.035,284.595 177.700 C 284.880 177.051,285.353 176.786,286.295 176.750 C 288.431 176.668,288.598 176.622,288.650 176.100 C 288.678 175.825,288.723 175.420,288.750 175.200 C 288.779 174.969,290.224 174.800,292.171 174.800 C 295.448 174.800,296.426 174.472,296.864 173.229 C 296.939 173.017,298.269 172.808,299.819 172.764 C 302.306 172.693,302.646 172.591,302.698 171.897 C 302.777 170.847,302.751 170.860,304.886 170.750 C 305.912 170.696,306.741 170.551,306.728 170.427 C 306.609 169.244,306.901 168.800,307.800 168.800 C 308.592 168.800,308.800 168.598,308.800 167.828 C 308.800 167.124,309.049 166.820,309.700 166.728 C 310.278 166.646,310.646 166.278,310.728 165.700 C 310.819 165.057,311.125 164.800,311.801 164.800 C 312.535 164.800,312.775 164.554,312.873 163.700 C 312.964 162.909,313.225 162.600,313.800 162.600 C 314.546 162.599,314.604 162.312,314.661 158.313 C 314.705 155.263,314.589 154.051,314.261 154.113 C 314.008 154.161,313.843 153.981,313.895 153.714 C 313.950 153.434,313.739 153.325,313.395 153.457 C 312.947 153.629,312.800 153.379,312.800 152.443 L 312.800 151.200 303.800 151.200 C 298.100 151.200,294.782 151.053,294.750 150.800 C 294.723 150.580,294.678 150.192,294.650 149.938 C 294.560 149.107,285.925 148.784,284.481 149.557 C 283.231 150.225,280.946 150.090,279.284 149.249 C 278.468 148.836,277.191 148.366,276.446 148.205 C 275.295 147.957,271.225 146.038,269.200 144.789 C 268.870 144.586,267.970 144.133,267.200 143.782 C 265.147 142.848,262.588 141.466,261.953 140.949 C 261.649 140.701,260.950 140.364,260.400 140.201 C 259.850 140.038,258.468 139.469,257.329 138.937 C 256.190 138.405,254.309 137.857,253.149 137.719 C 251.989 137.582,250.581 137.230,250.020 136.937 C 247.961 135.863,243.316 136.286,240.400 137.815 M143.534 165.151 C 143.828 165.337,144.053 165.604,144.034 165.745 C 144.015 165.885,144.115 165.985,144.255 165.966 C 144.396 165.947,144.663 166.172,144.849 166.466 C 145.075 166.822,145.190 166.843,145.194 166.529 C 145.197 166.269,144.917 165.774,144.571 165.429 C 144.226 165.083,143.731 164.803,143.471 164.806 C 143.157 164.810,143.178 164.925,143.534 165.151 M253.023 193.638 C 253.135 193.818,253.521 193.852,253.882 193.713 C 254.372 193.525,254.475 193.628,254.287 194.118 C 254.148 194.479,254.182 194.865,254.362 194.977 C 254.542 195.088,254.670 194.779,254.645 194.290 C 254.613 193.665,254.335 193.387,253.710 193.355 C 253.221 193.330,252.912 193.458,253.023 193.638 M75.549 211.325 C 75.307 211.681,75.385 213.133,75.638 212.977 C 75.818 212.865,75.852 212.479,75.713 212.118 C 75.525 211.628,75.628 211.525,76.118 211.713 C 76.479 211.852,76.858 211.830,76.959 211.666 C 77.111 211.420,75.714 211.082,75.549 211.325 M103.827 214.030 C 104.678 214.970,104.756 214.980,104.631 214.133 C 104.578 213.767,104.218 213.420,103.832 213.364 C 103.165 213.266,103.165 213.299,103.827 214.030 M73.569 219.367 C 72.977 220.012,73.397 220.746,74.030 220.173 C 74.454 219.789,74.800 219.444,74.800 219.405 C 74.800 219.336,73.631 219.299,73.569 219.367 M270.962 231.662 C 270.805 231.916,270.839 232.025,271.038 231.904 C 271.517 231.613,272.428 232.618,272.083 233.057 C 271.935 233.246,272.064 233.183,272.370 232.917 C 272.824 232.522,272.832 232.321,272.414 231.817 C 271.804 231.082,271.350 231.033,270.962 231.662 M281.467 279.467 C 281.320 279.613,281.200 280.053,281.200 280.445 C 281.200 281.010,280.809 281.181,279.300 281.278 C 277.679 281.382,277.381 281.532,277.272 282.300 C 277.154 283.129,276.125 283.497,274.658 283.233 C 274.048 283.124,273.158 284.113,273.369 284.664 C 273.513 285.038,273.216 285.200,272.387 285.200 C 271.421 285.200,271.200 285.368,271.200 286.104 C 271.200 286.601,270.825 287.242,270.367 287.528 C 269.909 287.814,269.189 288.828,268.767 289.781 C 268.345 290.734,267.775 291.601,267.499 291.707 C 267.223 291.813,266.747 292.591,266.442 293.436 C 266.136 294.281,265.057 295.999,264.043 297.255 C 262.040 299.736,260.000 302.879,260.000 303.482 C 260.000 304.127,258.265 305.530,256.617 306.219 C 254.966 306.909,254.000 306.430,254.000 304.923 C 254.000 304.168,248.953 301.877,247.783 302.101 C 246.120 302.419,245.501 301.214,244.201 295.129 C 243.316 290.984,242.522 290.162,239.043 289.790 C 235.311 289.390,230.770 290.983,229.422 293.164 C 229.305 293.354,228.619 293.620,227.899 293.755 C 227.113 293.902,225.881 294.695,224.821 295.735 L 223.054 297.470 221.125 296.904 C 216.332 295.499,211.974 298.961,208.167 307.200 C 207.811 307.970,207.291 308.870,207.011 309.200 C 206.730 309.530,206.271 310.520,205.990 311.400 C 205.709 312.280,205.256 313.360,204.984 313.800 C 204.712 314.240,204.262 315.320,203.984 316.200 C 203.706 317.080,203.213 318.208,202.889 318.707 C 202.498 319.308,202.318 320.531,202.355 322.340 C 202.436 326.255,200.016 327.548,197.265 325.059 C 196.893 324.722,195.837 324.277,194.918 324.071 C 194.000 323.865,192.763 323.314,192.170 322.848 C 191.577 322.382,190.781 322.000,190.400 322.000 C 190.019 322.000,189.208 321.606,188.596 321.125 C 187.566 320.315,183.222 319.122,179.400 318.601 C 174.911 317.988,169.986 322.261,170.014 326.744 C 170.034 329.863,170.630 330.688,174.251 332.608 C 176.312 333.701,177.585 334.654,177.934 335.365 C 178.228 335.962,178.723 336.549,179.034 336.668 C 179.345 336.788,179.600 337.316,179.600 337.843 C 179.600 338.703,179.773 338.800,181.305 338.800 C 182.690 338.800,183.085 338.969,183.405 339.700 C 183.706 340.387,184.226 340.647,185.600 340.800 C 187.066 340.963,187.400 341.148,187.401 341.799 C 187.401 342.239,187.671 342.617,188.001 342.639 C 188.330 342.660,189.635 342.706,190.900 342.739 C 193.070 342.797,193.200 342.856,193.200 343.800 C 193.200 344.731,193.335 344.800,195.172 344.800 C 196.913 344.800,197.159 344.906,197.272 345.700 C 197.383 346.484,197.671 346.616,199.492 346.721 C 201.360 346.828,201.574 346.933,201.492 347.699 C 201.408 348.486,201.615 348.568,204.000 348.691 C 207.225 348.857,207.668 349.008,207.519 349.895 C 207.409 350.547,208.049 350.609,216.100 350.724 L 224.800 350.849 224.800 349.824 C 224.800 348.804,226.726 348.428,230.130 348.784 C 230.681 348.842,230.829 348.632,230.730 347.930 C 230.624 347.173,230.805 346.976,231.700 346.873 C 232.564 346.774,232.800 346.538,232.800 345.773 C 232.800 344.954,233.006 344.790,234.100 344.739 C 234.815 344.706,235.670 344.660,235.999 344.639 C 236.329 344.617,236.599 344.248,236.599 343.819 C 236.600 343.316,236.956 342.954,237.600 342.803 C 238.220 342.657,238.647 342.241,238.725 341.708 C 238.801 341.180,239.186 340.801,239.725 340.725 C 240.270 340.647,240.647 340.270,240.725 339.725 C 240.802 339.179,241.179 338.802,241.725 338.725 C 242.264 338.648,242.647 338.270,242.722 337.741 C 242.790 337.268,243.208 336.787,243.652 336.670 C 244.096 336.554,244.555 336.092,244.673 335.643 C 244.790 335.194,245.227 334.719,245.642 334.587 C 246.058 334.455,246.507 333.914,246.639 333.385 C 246.811 332.700,247.128 332.449,247.740 332.512 C 248.352 332.575,248.612 332.369,248.641 331.800 C 248.802 328.633,248.719 328.800,250.145 328.800 C 251.308 328.800,251.476 328.923,251.390 329.714 C 251.295 330.580,251.436 330.633,254.131 330.733 C 257.325 330.853,257.221 330.814,257.304 331.927 C 257.338 332.377,257.464 332.736,257.583 332.725 C 260.907 332.423,263.483 332.867,263.388 333.725 C 263.296 334.565,263.446 334.650,265.017 334.650 C 266.514 334.650,266.699 334.559,266.388 333.978 C 265.985 333.225,266.247 332.800,267.113 332.800 C 267.516 332.800,267.635 333.105,267.502 333.800 L 267.311 334.800 273.279 334.800 C 276.562 334.800,279.151 334.644,279.033 334.453 C 278.820 334.109,279.927 332.883,280.500 332.829 C 280.665 332.813,281.700 332.800,282.800 332.800 C 284.667 332.800,284.800 332.733,284.800 331.800 C 284.800 330.854,285.727 330.477,287.342 330.767 C 287.939 330.874,288.844 329.892,288.640 329.360 C 288.516 329.038,288.842 328.803,289.522 328.724 C 290.277 328.637,290.637 328.338,290.725 327.725 C 290.802 327.179,291.179 326.802,291.725 326.725 C 292.270 326.647,292.647 326.270,292.725 325.725 C 292.802 325.179,293.179 324.802,293.725 324.725 C 294.270 324.647,294.647 324.270,294.725 323.725 C 294.802 323.179,295.179 322.802,295.725 322.725 C 296.464 322.619,296.619 322.304,296.722 320.700 C 296.832 318.985,296.939 318.800,297.822 318.800 C 298.591 318.800,298.800 318.592,298.800 317.828 C 298.800 317.124,299.049 316.820,299.700 316.728 C 300.468 316.619,300.618 316.321,300.722 314.700 C 300.832 312.985,300.939 312.800,301.822 312.800 C 302.729 312.800,302.800 312.655,302.800 310.800 C 302.800 308.933,302.867 308.800,303.800 308.800 C 304.733 308.800,304.800 308.667,304.800 306.800 C 304.800 304.841,305.037 304.548,306.466 304.741 C 306.612 304.761,306.754 301.722,306.781 297.989 L 306.830 291.200 305.815 291.200 C 304.818 291.200,304.617 290.721,304.690 288.516 C 304.699 288.249,304.502 288.069,304.253 288.116 C 304.004 288.162,303.838 287.996,303.884 287.747 C 303.931 287.498,303.751 287.301,303.484 287.310 C 303.218 287.319,301.155 287.298,298.900 287.263 L 294.800 287.200 294.800 285.200 C 294.800 283.333,294.733 283.200,293.800 283.200 C 293.000 283.200,292.800 283.000,292.800 282.200 C 292.800 281.408,292.598 281.200,291.828 281.200 C 291.124 281.200,290.820 280.951,290.728 280.300 C 290.613 279.494,290.344 279.388,288.152 279.282 C 285.722 279.165,285.706 279.172,285.899 280.182 C 286.069 281.072,285.956 281.200,285.000 281.200 C 284.050 281.200,283.932 281.069,284.098 280.200 C 284.287 279.210,282.282 278.651,281.467 279.467 M85.355 291.710 C 85.387 292.335,85.665 292.613,86.290 292.645 C 86.779 292.670,87.088 292.542,86.977 292.362 C 86.865 292.182,86.479 292.148,86.118 292.287 C 85.628 292.475,85.525 292.372,85.713 291.882 C 85.852 291.521,85.818 291.135,85.638 291.023 C 85.458 290.912,85.330 291.221,85.355 291.710 " stroke="none" fill="#fb9b34" fill-rule="evenodd"></path><path id="path1" d="M197.837 49.820 C 197.486 50.171,197.200 50.624,197.200 50.829 C 197.200 51.033,195.400 51.200,193.200 51.200 C 189.224 51.200,189.200 51.206,189.200 52.178 C 189.200 53.061,189.015 53.168,187.300 53.278 C 185.679 53.382,185.381 53.532,185.272 54.300 C 185.156 55.116,184.927 55.200,182.801 55.200 C 180.551 55.200,179.200 55.811,179.200 56.829 C 179.200 57.033,178.583 57.200,177.829 57.200 C 176.558 57.200,175.461 57.842,175.136 58.775 C 175.061 58.990,174.358 59.207,173.573 59.259 C 172.232 59.348,171.157 59.998,171.204 60.692 C 171.215 60.861,170.769 61.057,170.212 61.127 C 169.441 61.223,169.200 61.485,169.200 62.227 C 169.200 62.976,168.988 63.200,168.280 63.200 C 167.774 63.200,167.118 63.425,166.821 63.700 C 166.401 64.090,166.344 64.091,166.562 63.705 C 166.746 63.378,166.640 63.286,166.252 63.436 C 165.927 63.560,165.560 63.927,165.436 64.252 C 165.292 64.627,165.376 64.739,165.666 64.559 C 165.948 64.385,166.014 64.454,165.838 64.738 C 165.681 64.992,165.023 65.200,164.376 65.200 C 163.388 65.200,163.200 65.360,163.200 66.200 C 163.200 67.000,163.000 67.200,162.200 67.200 C 161.400 67.200,161.200 67.400,161.200 68.200 C 161.200 69.000,161.000 69.200,160.200 69.200 C 159.400 69.200,159.200 69.400,159.200 70.200 C 159.200 71.000,159.000 71.200,158.200 71.200 C 157.400 71.200,157.200 71.400,157.200 72.200 C 157.200 73.000,157.000 73.200,156.200 73.200 C 155.408 73.200,155.200 73.402,155.200 74.172 C 155.200 74.876,154.951 75.180,154.300 75.272 C 153.722 75.354,153.354 75.722,153.272 76.300 C 153.164 77.063,152.632 77.370,151.583 77.275 C 151.464 77.264,151.339 77.618,151.305 78.061 C 151.272 78.504,150.785 79.293,150.222 79.814 C 149.557 80.431,149.200 81.187,149.200 81.981 C 149.200 83.006,149.045 83.200,148.227 83.200 C 147.462 83.200,147.226 83.436,147.127 84.300 C 147.057 84.905,146.820 85.372,146.600 85.338 C 146.214 85.279,144.896 86.466,145.100 86.690 C 145.602 87.241,145.063 89.070,144.300 89.405 C 143.605 89.710,143.372 90.187,143.277 91.500 C 143.168 93.002,143.040 93.200,142.177 93.200 C 141.258 93.200,141.200 93.332,141.200 95.424 C 141.200 96.674,141.039 97.548,140.832 97.420 C 140.049 96.936,139.338 98.384,139.246 100.649 C 139.140 103.257,139.156 103.219,138.137 103.368 C 137.289 103.493,137.316 103.360,137.250 107.705 C 137.204 110.725,137.122 111.044,136.300 111.405 L 135.400 111.800 135.313 127.731 C 135.229 143.333,135.359 145.224,136.472 144.551 C 136.987 144.241,137.145 145.041,137.234 148.400 C 137.316 151.517,137.765 152.979,138.503 152.533 C 138.955 152.259,139.154 153.117,139.305 156.000 C 139.430 158.388,139.513 158.596,140.321 158.552 C 141.023 158.514,141.210 158.736,141.250 159.652 C 141.378 162.595,141.381 162.601,142.302 162.552 C 143.035 162.513,143.200 162.715,143.200 163.652 C 143.200 164.283,143.391 164.800,143.624 164.800 C 143.857 164.800,143.949 164.960,143.828 165.155 C 143.707 165.350,143.922 165.755,144.304 166.055 C 144.934 166.548,144.948 166.533,144.451 165.900 C 144.102 165.455,144.063 165.200,144.343 165.200 C 144.756 165.200,145.000 165.871,145.289 167.800 C 145.360 168.276,145.771 168.652,146.304 168.728 C 147.003 168.828,147.200 169.118,147.200 170.047 C 147.200 170.804,147.565 171.576,148.200 172.165 C 148.750 172.675,149.200 173.476,149.200 173.946 C 149.200 174.590,149.446 174.800,150.200 174.800 C 151.115 174.800,151.434 175.318,151.247 176.500 C 151.221 176.665,151.335 176.779,151.500 176.753 C 152.548 176.587,153.161 176.915,153.272 177.700 C 153.354 178.278,153.722 178.646,154.300 178.728 C 155.085 178.839,155.413 179.452,155.247 180.500 C 155.221 180.665,155.335 180.779,155.500 180.753 C 156.548 180.587,157.161 180.915,157.272 181.700 C 157.381 182.468,157.679 182.618,159.300 182.722 C 161.015 182.832,161.200 182.939,161.200 183.822 C 161.200 184.599,161.406 184.800,162.200 184.800 C 163.000 184.800,163.200 185.000,163.200 185.800 C 163.200 186.733,163.333 186.800,165.200 186.800 C 167.067 186.800,167.200 186.867,167.200 187.800 C 167.200 188.592,167.402 188.800,168.172 188.800 C 168.876 188.800,169.180 189.049,169.272 189.700 C 169.352 190.265,169.721 190.646,170.263 190.723 C 171.904 190.957,171.819 197.200,170.175 197.200 C 169.402 197.200,169.200 197.407,169.200 198.200 C 169.200 199.000,169.000 199.200,168.200 199.200 C 167.400 199.200,167.200 199.400,167.200 200.200 C 167.200 201.178,167.133 201.200,164.200 201.200 C 161.267 201.200,161.200 201.222,161.200 202.200 C 161.200 203.133,161.067 203.200,159.200 203.200 C 157.333 203.200,157.200 203.267,157.200 204.200 C 157.200 205.127,157.053 205.204,155.200 205.250 C 151.451 205.344,151.400 205.357,151.403 206.200 C 151.405 206.853,151.074 207.037,149.603 207.200 C 148.226 207.353,147.707 207.613,147.405 208.300 C 147.114 208.963,146.674 209.200,145.734 209.200 C 144.541 209.200,143.450 209.864,143.136 210.782 C 143.061 211.000,142.190 211.243,141.200 211.323 C 139.647 211.448,139.407 211.587,139.448 212.334 C 139.486 213.032,139.273 213.200,138.348 213.200 C 137.390 213.200,137.200 213.366,137.200 214.200 C 137.200 215.133,137.067 215.200,135.200 215.200 C 133.333 215.200,133.200 215.267,133.200 216.200 C 133.200 217.133,133.067 217.200,131.200 217.200 C 129.333 217.200,129.200 217.267,129.200 218.200 C 129.200 219.133,129.067 219.200,127.200 219.200 C 125.333 219.200,125.200 219.267,125.200 220.200 L 125.200 221.200 120.776 221.200 C 118.343 221.200,116.442 221.056,116.550 220.881 C 117.179 219.864,115.819 219.281,112.700 219.231 C 110.948 219.202,110.800 219.122,110.800 218.200 C 110.800 217.267,110.667 217.200,108.800 217.200 C 106.948 217.200,106.800 217.128,106.800 216.227 C 106.800 215.462,106.564 215.226,105.700 215.127 C 105.081 215.055,104.644 214.781,104.700 214.500 C 104.755 214.225,104.575 214.045,104.300 214.100 C 104.025 214.155,103.845 213.975,103.900 213.700 C 103.955 213.425,103.865 213.221,103.700 213.247 C 101.886 213.534,100.800 213.142,100.800 212.200 C 100.800 211.400,100.600 211.200,99.800 211.200 C 99.000 211.200,98.800 211.000,98.800 210.200 C 98.800 209.400,98.600 209.200,97.800 209.200 C 96.885 209.200,96.566 208.682,96.753 207.500 C 96.779 207.335,96.665 207.221,96.500 207.247 C 95.318 207.434,94.800 207.115,94.800 206.200 C 94.800 205.400,94.600 205.200,93.800 205.200 C 93.250 205.200,92.800 205.033,92.800 204.829 C 92.800 204.022,91.473 203.200,90.171 203.200 C 88.975 203.200,88.800 203.072,88.800 202.200 C 88.800 201.229,88.720 201.200,86.000 201.200 C 83.280 201.200,83.200 201.229,83.200 202.200 C 83.200 202.961,82.985 203.207,82.300 203.231 C 79.802 203.316,79.581 203.482,79.318 205.474 C 79.081 207.269,79.109 207.226,78.113 207.301 C 77.467 207.350,77.320 207.701,77.245 209.380 C 77.195 210.491,76.958 211.580,76.718 211.800 C 76.418 212.075,76.370 212.046,76.562 211.705 C 76.746 211.378,76.640 211.286,76.252 211.436 C 75.927 211.560,75.560 211.927,75.436 212.252 C 75.284 212.646,75.374 212.743,75.705 212.544 C 76.093 212.310,76.097 212.374,75.719 212.841 C 75.455 213.168,75.185 214.778,75.119 216.418 C 75.034 218.541,74.856 219.371,74.500 219.300 C 74.225 219.245,74.045 219.425,74.100 219.700 C 74.155 219.975,73.975 220.155,73.699 220.100 C 72.929 219.945,73.048 251.776,73.820 252.416 C 74.120 252.665,74.553 252.753,74.782 252.611 C 75.064 252.437,75.200 254.050,75.200 257.576 L 75.200 262.800 76.186 262.800 C 77.158 262.800,77.173 262.853,77.286 266.700 C 77.394 270.400,77.446 270.607,78.300 270.728 C 79.141 270.847,79.200 271.050,79.200 273.828 C 79.200 276.731,79.223 276.800,80.200 276.800 C 81.178 276.800,81.200 276.867,81.200 279.800 C 81.200 282.715,81.228 282.800,82.178 282.800 C 83.061 282.800,83.168 282.985,83.278 284.700 C 83.382 286.321,83.532 286.619,84.300 286.728 C 85.088 286.840,85.200 287.090,85.200 288.748 C 85.200 289.789,85.425 290.882,85.700 291.179 C 86.090 291.599,86.091 291.656,85.705 291.438 C 85.378 291.254,85.286 291.360,85.436 291.748 C 85.560 292.073,85.927 292.440,86.252 292.564 C 86.627 292.708,86.739 292.624,86.559 292.334 C 86.385 292.052,86.454 291.986,86.738 292.162 C 86.992 292.319,87.200 292.977,87.200 293.624 C 87.200 294.612,87.360 294.800,88.200 294.800 C 89.141 294.800,89.584 296.367,89.247 298.500 C 89.221 298.665,89.335 298.779,89.500 298.753 C 90.682 298.566,91.200 298.885,91.200 299.800 C 91.200 300.600,91.400 300.800,92.200 300.800 C 93.133 300.800,93.200 300.933,93.200 302.800 C 93.200 304.651,93.272 304.800,94.172 304.800 C 94.876 304.800,95.180 305.049,95.272 305.700 C 95.354 306.278,95.722 306.646,96.300 306.728 C 96.951 306.820,97.200 307.124,97.200 307.828 C 97.200 308.598,97.408 308.800,98.200 308.800 C 99.000 308.800,99.200 309.000,99.200 309.800 C 99.200 310.600,99.400 310.800,100.200 310.800 C 100.987 310.800,101.211 311.013,101.250 311.800 C 101.278 312.350,101.323 313.205,101.350 313.700 C 101.387 314.370,101.646 314.600,102.362 314.600 C 102.990 314.600,103.361 314.855,103.432 315.337 C 103.595 316.451,104.083 316.694,106.300 316.769 C 106.985 316.793,107.200 317.039,107.200 317.800 C 107.200 318.592,107.402 318.800,108.172 318.800 C 108.876 318.800,109.180 319.049,109.272 319.700 C 109.353 320.270,109.721 320.646,110.275 320.725 C 110.819 320.802,111.198 321.179,111.275 321.721 C 111.346 322.214,111.746 322.658,112.199 322.744 C 112.638 322.828,113.395 323.325,113.880 323.848 C 114.428 324.440,115.212 324.800,115.953 324.800 C 116.884 324.800,117.172 324.997,117.272 325.700 C 117.381 326.466,117.679 326.618,119.275 326.721 C 120.856 326.823,121.169 326.979,121.275 327.721 C 121.380 328.462,121.693 328.619,123.275 328.721 C 124.856 328.823,125.169 328.979,125.275 329.721 C 125.380 330.462,125.693 330.619,127.275 330.721 C 128.856 330.823,129.169 330.979,129.275 331.721 C 129.389 332.521,129.660 332.611,132.300 332.718 C 135.081 332.830,135.200 332.875,135.200 333.818 C 135.200 334.795,135.221 334.800,139.172 334.800 C 142.987 334.800,143.149 334.836,143.272 335.700 C 143.396 336.570,143.562 336.604,148.300 336.712 L 153.200 336.825 153.200 337.812 L 153.200 338.800 166.400 338.800 L 179.600 338.800 179.600 337.843 C 179.600 337.316,179.345 336.788,179.034 336.668 C 178.723 336.549,178.228 335.962,177.934 335.365 C 177.585 334.654,176.312 333.701,174.251 332.608 C 170.630 330.688,170.034 329.863,170.014 326.744 C 169.986 322.261,174.911 317.988,179.400 318.601 C 183.222 319.122,187.566 320.315,188.596 321.125 C 189.208 321.606,190.019 322.000,190.400 322.000 C 190.781 322.000,191.577 322.382,192.170 322.848 C 192.763 323.314,194.000 323.865,194.918 324.071 C 195.837 324.277,196.893 324.722,197.265 325.059 C 200.016 327.548,202.436 326.255,202.355 322.340 C 202.318 320.531,202.498 319.308,202.889 318.707 C 203.213 318.208,203.706 317.080,203.984 316.200 C 204.262 315.320,204.712 314.240,204.984 313.800 C 205.256 313.360,205.709 312.280,205.990 311.400 C 206.271 310.520,206.730 309.530,207.011 309.200 C 207.291 308.870,207.811 307.970,208.167 307.200 C 211.974 298.961,216.332 295.499,221.125 296.904 L 223.054 297.470 224.821 295.735 C 225.881 294.695,227.113 293.902,227.899 293.755 C 228.619 293.620,229.305 293.354,229.422 293.164 C 230.770 290.983,235.311 289.390,239.043 289.790 C 242.522 290.162,243.316 290.984,244.201 295.129 C 245.501 301.214,246.120 302.419,247.783 302.101 C 248.953 301.877,254.000 304.168,254.000 304.923 C 254.000 306.430,254.966 306.909,256.617 306.219 C 258.265 305.530,260.000 304.127,260.000 303.482 C 260.000 302.879,262.040 299.736,264.043 297.255 C 265.057 295.999,266.134 294.287,266.436 293.450 C 266.739 292.613,267.290 291.766,267.661 291.567 C 268.032 291.369,268.449 290.688,268.588 290.054 C 268.728 289.419,269.282 288.486,269.821 287.981 C 270.622 287.228,270.800 286.673,270.800 284.930 C 270.800 282.925,270.859 282.800,271.800 282.800 C 272.800 282.800,272.800 282.798,272.800 278.827 C 272.800 275.207,272.871 274.831,273.599 274.600 C 274.813 274.215,274.838 273.795,274.715 256.000 C 274.602 239.705,274.585 239.400,273.800 239.400 C 273.077 239.400,272.989 239.094,272.882 236.213 C 272.772 233.270,271.874 231.059,271.101 231.832 C 271.000 231.933,270.880 230.629,270.836 228.933 C 270.744 225.459,270.657 225.200,269.594 225.200 C 268.929 225.200,268.820 224.840,268.718 222.300 C 268.610 219.639,268.526 219.389,267.700 219.272 C 266.906 219.159,266.800 218.913,266.800 217.172 C 266.800 215.335,266.731 215.200,265.800 215.200 C 264.867 215.200,264.800 215.067,264.800 213.200 C 264.800 211.333,264.733 211.200,263.800 211.200 C 262.867 211.200,262.800 211.067,262.800 209.200 C 262.800 207.333,262.733 207.200,261.800 207.200 C 260.855 207.200,260.504 206.019,260.725 203.583 C 260.736 203.464,260.377 203.338,259.927 203.304 C 258.847 203.223,258.860 203.246,258.714 201.187 C 258.610 199.713,258.449 199.400,257.794 199.400 C 257.225 199.400,256.964 199.088,256.873 198.300 C 256.774 197.436,256.538 197.200,255.773 197.200 C 255.024 197.200,254.800 196.988,254.800 196.280 C 254.800 195.774,254.575 195.118,254.300 194.821 C 253.910 194.401,253.909 194.344,254.295 194.562 C 254.622 194.746,254.714 194.640,254.564 194.252 C 254.440 193.927,254.073 193.560,253.748 193.436 C 253.360 193.286,253.254 193.378,253.438 193.705 C 253.630 194.045,253.582 194.075,253.283 193.800 C 253.044 193.580,252.792 192.500,252.724 191.400 C 252.617 189.676,252.476 189.382,251.700 189.272 C 250.983 189.170,250.800 188.886,250.799 187.872 C 250.797 186.289,249.449 184.005,248.506 183.986 C 244.630 183.907,237.876 183.460,236.600 183.198 C 235.720 183.018,233.608 182.588,231.906 182.243 C 223.786 180.597,218.539 177.504,215.960 172.843 C 215.520 172.049,214.903 170.950,214.587 170.400 C 212.406 166.596,212.043 164.347,213.138 161.400 C 213.383 160.740,213.683 159.390,213.804 158.400 C 214.041 156.461,217.228 153.307,220.427 151.844 C 222.178 151.043,223.079 150.467,224.713 149.100 C 225.436 148.495,226.222 148.000,226.460 148.000 C 226.948 148.000,230.930 144.648,233.438 142.126 C 234.354 141.205,235.710 140.165,236.452 139.815 C 237.193 139.464,238.970 138.565,240.400 137.815 C 243.316 136.286,247.961 135.863,250.020 136.937 C 250.581 137.230,251.989 137.582,253.149 137.719 C 254.309 137.857,256.190 138.405,257.329 138.937 C 258.468 139.469,259.850 140.038,260.400 140.201 C 260.950 140.364,261.649 140.701,261.953 140.949 C 262.588 141.466,265.147 142.848,267.200 143.782 C 267.970 144.133,268.870 144.586,269.200 144.789 C 271.225 146.038,275.295 147.957,276.446 148.205 C 277.191 148.366,278.468 148.836,279.284 149.249 C 281.040 150.138,282.805 150.194,285.000 149.432 L 286.600 148.877 286.717 145.838 C 286.834 142.804,286.980 142.544,288.462 142.740 C 288.605 142.759,288.748 140.140,288.779 136.921 C 288.835 131.005,288.945 130.195,289.638 130.623 C 289.848 130.753,289.970 130.621,289.910 130.330 C 289.849 130.038,290.000 129.837,290.244 129.881 C 291.482 130.108,290.812 121.801,289.566 121.475 C 288.848 121.287,288.800 120.835,288.800 114.237 L 288.800 107.200 287.814 107.200 C 286.842 107.200,286.827 107.147,286.714 103.300 C 286.606 99.600,286.554 99.393,285.700 99.272 C 284.859 99.153,284.800 98.950,284.800 96.172 C 284.800 93.269,284.777 93.200,283.800 93.200 C 282.867 93.200,282.800 93.067,282.800 91.200 C 282.800 89.333,282.733 89.200,281.800 89.200 C 280.867 89.200,280.800 89.067,280.800 87.200 C 280.800 85.333,280.733 85.200,279.800 85.200 C 279.000 85.200,278.800 85.000,278.800 84.200 C 278.800 83.400,278.600 83.200,277.800 83.200 C 276.867 83.200,276.800 83.067,276.800 81.200 C 276.800 79.333,276.733 79.200,275.800 79.200 C 275.000 79.200,274.800 79.000,274.800 78.200 C 274.800 77.400,274.600 77.200,273.800 77.200 C 273.000 77.200,272.800 77.000,272.800 76.200 C 272.800 75.406,272.599 75.200,271.822 75.200 C 270.939 75.200,270.832 75.015,270.722 73.300 C 270.618 71.679,270.468 71.381,269.700 71.272 C 269.049 71.180,268.800 70.876,268.800 70.172 C 268.800 69.402,268.592 69.200,267.800 69.200 C 267.250 69.200,266.800 69.033,266.800 68.829 C 266.800 68.022,265.473 67.200,264.171 67.200 C 262.975 67.200,262.800 67.072,262.800 66.200 C 262.800 65.400,262.600 65.200,261.800 65.200 C 261.000 65.200,260.800 65.000,260.800 64.200 C 260.800 63.400,260.600 63.200,259.800 63.200 C 259.000 63.200,258.800 63.000,258.800 62.200 C 258.800 61.360,258.612 61.200,257.624 61.200 C 256.977 61.200,256.319 60.992,256.162 60.738 C 255.986 60.454,256.052 60.385,256.334 60.559 C 256.624 60.739,256.708 60.627,256.564 60.252 C 256.440 59.927,256.073 59.560,255.748 59.436 C 255.354 59.284,255.257 59.374,255.456 59.705 C 255.685 60.086,255.621 60.094,255.177 59.738 C 254.860 59.484,254.150 59.214,253.600 59.138 C 252.916 59.044,252.600 58.749,252.600 58.206 C 252.600 57.551,252.287 57.390,250.813 57.286 C 248.787 57.143,248.779 57.138,248.632 56.137 C 248.517 55.352,248.444 55.327,246.052 55.250 C 244.714 55.207,244.511 55.078,244.552 54.302 C 244.603 53.343,244.616 53.346,240.828 53.250 C 239.105 53.206,238.839 53.086,238.728 52.300 C 238.607 51.446,238.400 51.394,234.700 51.286 C 230.738 51.169,230.518 51.071,230.747 49.517 C 230.845 48.851,198.508 49.150,197.837 49.820 M269.838 110.446 C 270.257 110.911,271.005 111.447,271.500 111.636 C 271.995 111.825,272.400 112.234,272.400 112.544 C 272.400 112.854,272.828 113.388,273.351 113.731 C 273.874 114.074,274.428 114.859,274.582 115.477 C 274.736 116.095,275.163 116.934,275.531 117.342 C 276.083 117.954,276.200 118.981,276.200 123.200 C 276.200 127.419,276.083 128.446,275.531 129.058 C 275.163 129.466,274.747 130.261,274.607 130.824 C 273.695 134.479,266.104 137.932,264.107 135.600 C 263.730 135.160,263.205 134.800,262.940 134.800 C 262.387 134.800,259.600 132.275,259.600 131.774 C 259.600 131.592,259.105 130.729,258.500 129.856 C 256.982 127.666,256.806 118.471,258.244 116.526 C 258.708 115.898,259.202 115.028,259.341 114.592 C 260.554 110.808,267.642 108.008,269.838 110.446 M210.464 112.441 C 210.829 112.859,211.261 113.200,211.424 113.200 C 211.947 113.200,214.400 115.941,214.400 116.526 C 214.400 116.837,214.805 117.607,215.300 118.236 C 216.491 119.751,216.684 129.765,215.547 131.058 C 215.188 131.466,214.761 132.237,214.598 132.771 C 214.271 133.841,211.955 136.400,211.314 136.400 C 211.090 136.400,210.431 136.775,209.848 137.233 C 209.134 137.796,208.207 138.067,207.000 138.067 C 205.793 138.067,204.866 137.796,204.152 137.233 C 203.569 136.775,202.919 136.400,202.707 136.400 C 201.827 136.400,199.462 133.413,197.956 130.400 C 197.068 128.625,197.325 118.955,198.288 117.876 C 198.718 117.394,199.285 116.460,199.548 115.800 C 201.017 112.110,208.231 109.890,210.464 112.441 " stroke="none" fill="#fbd37c" fill-rule="evenodd"></path><path id="path2" d="M264.800 111.458 C 259.555 113.265,256.495 122.775,259.400 128.238 C 259.950 129.273,260.400 130.327,260.400 130.581 C 260.400 131.563,263.187 133.720,265.077 134.202 C 275.683 136.908,279.165 116.402,268.889 111.755 C 267.727 111.230,266.737 110.809,266.689 110.819 C 266.640 110.830,265.790 111.117,264.800 111.458 M202.885 114.259 C 194.371 121.662,198.834 138.100,208.778 135.967 C 209.911 135.724,211.054 135.264,211.319 134.944 C 211.584 134.623,212.095 134.055,212.455 133.681 C 213.670 132.416,215.355 127.528,215.378 125.200 C 215.416 121.333,212.351 114.000,210.696 114.000 C 210.493 114.000,209.869 113.640,209.309 113.200 C 207.487 111.767,205.345 112.120,202.885 114.259 " stroke="none" fill="#3f383f" fill-rule="evenodd"></path><path id="path3" d="M313.287 153.618 C 313.665 153.842,314.158 154.335,314.382 154.713 C 314.727 155.294,314.770 155.252,314.660 154.435 C 314.570 153.763,314.237 153.430,313.565 153.340 C 312.748 153.230,312.706 153.273,313.287 153.618 M313.927 162.006 C 313.295 162.701,313.297 162.743,313.948 162.694 C 314.329 162.665,314.666 162.317,314.696 161.921 C 314.760 161.069,314.782 161.066,313.927 162.006 M223.836 165.960 C 222.797 167.108,223.587 169.573,225.506 171.174 C 226.328 171.860,227.274 172.674,227.608 172.983 C 228.552 173.857,232.406 175.770,234.400 176.355 C 235.390 176.646,236.650 177.073,237.200 177.304 C 238.458 177.834,241.569 178.407,244.303 178.612 C 245.460 178.699,247.221 179.047,248.217 179.385 C 250.821 180.269,268.553 180.281,270.662 179.400 C 272.285 178.722,275.200 178.593,275.200 179.200 C 275.200 179.420,275.039 179.600,274.842 179.600 C 274.645 179.600,274.415 180.329,274.330 181.219 L 274.175 182.839 276.388 182.719 C 278.294 182.617,278.600 182.489,278.600 181.800 C 278.600 181.225,278.909 180.964,279.700 180.873 C 280.564 180.774,280.800 180.538,280.800 179.773 C 280.800 179.067,281.019 178.800,281.600 178.800 C 283.077 178.800,282.637 176.940,281.035 176.412 C 280.285 176.164,279.568 175.694,279.443 175.367 C 279.244 174.848,279.098 174.845,278.307 175.343 C 275.276 177.250,250.534 176.626,246.320 174.536 C 245.726 174.241,244.646 173.996,243.920 173.991 C 243.194 173.986,241.851 173.643,240.937 173.227 C 240.022 172.812,238.256 172.261,237.012 172.002 C 233.049 171.180,228.853 168.949,226.323 166.320 C 225.049 164.996,224.748 164.953,223.836 165.960 M284.280 279.453 C 283.577 280.156,284.024 281.200,285.028 281.200 C 285.864 281.200,286.032 281.033,285.928 280.304 C 285.801 279.417,284.822 278.911,284.280 279.453 M303.287 287.618 C 303.665 287.842,304.158 288.335,304.382 288.713 C 304.727 289.294,304.770 289.252,304.660 288.435 C 304.570 287.763,304.237 287.430,303.565 287.340 C 302.748 287.230,302.706 287.273,303.287 287.618 M266.367 332.900 C 266.048 333.857,266.244 334.694,266.770 334.618 C 267.624 334.495,267.864 332.800,267.028 332.800 C 266.683 332.800,266.385 332.845,266.367 332.900 M279.444 333.551 C 278.945 334.103,278.879 334.402,279.212 334.608 C 279.869 335.013,281.088 333.728,280.553 333.193 C 280.270 332.910,279.923 333.022,279.444 333.551 M187.297 341.826 C 187.335 342.337,187.663 342.665,188.174 342.703 C 188.766 342.748,188.841 342.673,188.448 342.430 C 188.150 342.245,187.755 341.850,187.570 341.552 C 187.327 341.159,187.252 341.234,187.297 341.826 M235.927 344.006 C 235.295 344.701,235.297 344.743,235.948 344.694 C 236.329 344.665,236.666 344.317,236.696 343.921 C 236.760 343.069,236.782 343.066,235.927 344.006 M207.297 349.826 C 207.335 350.337,207.663 350.665,208.174 350.703 C 208.766 350.748,208.841 350.673,208.448 350.430 C 208.150 350.245,207.755 349.850,207.570 349.552 C 207.327 349.159,207.252 349.234,207.297 349.826 " stroke="none" fill="#f47210" fill-rule="evenodd"></path><path id="path4" d="M262.995 110.700 C 261.091 112.013,259.689 113.506,259.341 114.592 C 259.202 115.028,258.708 115.898,258.244 116.526 C 256.806 118.471,256.982 127.666,258.500 129.856 C 259.105 130.729,259.600 131.592,259.600 131.774 C 259.600 132.275,262.387 134.800,262.940 134.800 C 263.205 134.800,263.730 135.160,264.107 135.600 C 266.104 137.932,273.695 134.479,274.607 130.824 C 274.747 130.261,275.163 129.466,275.531 129.058 C 276.083 128.446,276.200 127.419,276.200 123.200 C 276.200 118.981,276.083 117.954,275.531 117.342 C 275.163 116.934,274.736 116.095,274.582 115.477 C 274.428 114.859,273.874 114.074,273.351 113.731 C 272.828 113.388,272.400 112.854,272.400 112.544 C 272.400 112.234,271.995 111.825,271.500 111.636 C 271.005 111.447,270.257 110.911,269.838 110.446 C 268.644 109.121,265.094 109.253,262.995 110.700 M268.889 111.755 C 279.165 116.402,275.683 136.908,265.077 134.202 C 263.187 133.720,260.400 131.563,260.400 130.581 C 260.400 130.327,259.950 129.273,259.400 128.238 C 256.026 121.892,260.061 112.248,266.689 110.819 C 266.737 110.809,267.727 111.230,268.889 111.755 M204.971 111.594 C 203.034 111.881,200.248 114.041,199.548 115.800 C 199.285 116.460,198.718 117.394,198.288 117.876 C 197.325 118.955,197.068 128.625,197.956 130.400 C 199.462 133.413,201.827 136.400,202.707 136.400 C 202.919 136.400,203.569 136.775,204.152 137.233 C 204.866 137.796,205.793 138.067,207.000 138.067 C 208.207 138.067,209.134 137.796,209.848 137.233 C 210.431 136.775,211.090 136.400,211.314 136.400 C 211.955 136.400,214.271 133.841,214.598 132.771 C 214.761 132.237,215.188 131.466,215.547 131.058 C 216.684 129.765,216.491 119.751,215.300 118.236 C 214.805 117.607,214.400 116.837,214.400 116.526 C 214.400 115.941,211.947 113.200,211.424 113.200 C 211.261 113.200,210.829 112.859,210.464 112.441 C 209.715 111.586,207.419 111.231,204.971 111.594 M209.309 113.200 C 209.869 113.640,210.493 114.000,210.696 114.000 C 212.351 114.000,215.416 121.333,215.378 125.200 C 215.355 127.528,213.670 132.416,212.455 133.681 C 212.095 134.055,211.584 134.623,211.319 134.944 C 210.525 135.904,206.985 136.481,205.059 135.962 C 199.588 134.490,196.597 125.023,199.585 118.632 C 201.955 113.562,206.524 111.010,209.309 113.200 " stroke="none" fill="#b09878" fill-rule="evenodd"></path></g></svg>