<svg id="svg" version="1.1" xmlns="http://www.w3.org/2000/svg" xmlns:xlink="http://www.w3.org/1999/xlink" width="400" height="374.8837209302325" viewBox="0, 0, 400,374.8837209302325"><g id="svgg"><path id="path0" d="M106.230 50.534 L 98.201 58.612 106.232 66.643 L 114.263 74.674 122.322 66.608 L 130.381 58.543 122.508 50.529 C 118.177 46.122,114.550 42.502,114.447 42.486 C 114.343 42.469,110.646 46.091,106.230 50.534 M108.630 134.849 C 101.524 137.369,98.567 142.185,98.615 151.164 C 98.663 160.239,101.152 168.113,108.579 182.681 C 109.148 183.797,111.894 188.500,114.190 192.291 C 116.824 196.639,126.364 209.883,127.582 210.882 C 127.708 210.985,128.054 211.425,128.352 211.860 C 130.193 214.550,140.988 226.574,146.514 232.091 C 157.941 243.499,171.142 254.576,182.552 262.332 C 186.055 264.714,192.843 269.043,193.074 269.043 C 193.161 269.043,194.362 269.735,195.743 270.580 C 201.474 274.087,211.036 278.282,219.700 281.089 C 223.941 282.463,231.813 283.206,235.943 282.621 C 250.079 280.620,253.500 266.462,244.892 245.591 C 242.687 240.244,242.064 238.938,239.341 233.959 C 237.761 231.069,236.072 227.980,235.589 227.094 C 234.794 225.638,234.601 225.503,233.583 225.683 C 228.084 226.659,204.503 227.436,204.503 226.642 C 204.503 226.421,205.852 226.263,207.786 226.259 C 209.592 226.255,212.167 226.082,213.508 225.876 C 214.850 225.670,217.974 225.248,220.450 224.938 C 224.528 224.429,231.655 223.050,232.368 222.632 C 233.683 221.862,213.640 196.741,204.784 188.059 L 202.364 185.687 201.090 187.684 C 197.890 192.698,190.709 200.050,184.568 204.600 C 184.078 204.963,183.171 205.657,182.552 206.141 C 180.653 207.628,174.466 211.842,169.231 215.214 C 164.956 217.968,164.757 217.889,168.667 214.990 C 180.608 206.133,197.373 190.058,197.373 187.465 C 197.373 187.350,197.955 186.347,198.666 185.236 L 199.959 183.215 196.321 179.690 C 192.460 175.950,184.914 169.229,183.126 167.939 C 182.538 167.514,180.395 165.813,178.364 164.158 C 173.547 160.232,172.781 159.748,172.313 160.333 C 171.823 160.947,169.191 166.051,168.404 167.917 C 168.055 168.743,167.170 170.826,166.437 172.547 C 165.703 174.268,165.103 175.847,165.103 176.055 C 165.103 176.264,164.860 176.967,164.563 177.617 C 163.815 179.254,159.945 191.616,159.639 193.344 C 159.502 194.120,159.256 194.838,159.092 194.939 C 158.928 195.040,158.854 194.827,158.928 194.466 C 159.002 194.104,159.506 191.529,160.049 188.743 C 162.027 178.591,165.586 166.441,168.426 160.145 L 169.562 157.627 168.177 156.547 C 161.141 151.061,145.073 141.880,137.500 139.017 C 130.645 136.426,128.665 135.794,124.648 134.910 C 118.920 133.651,112.082 133.625,108.630 134.849 M333.583 171.496 C 328.853 172.298,328.132 177.148,331.119 188.076 C 331.667 190.082,332.361 192.193,332.660 192.766 C 333.908 195.158,333.724 195.167,329.402 192.926 C 327.471 191.925,325.216 190.890,324.390 190.626 C 323.565 190.362,322.661 189.964,322.381 189.742 C 322.102 189.519,320.314 189.269,318.409 189.186 C 312.577 188.930,310.619 191.559,308.399 202.627 C 308.006 204.587,307.447 207.120,307.156 208.255 C 306.866 209.390,306.511 211.121,306.367 212.101 C 306.219 213.113,305.908 213.884,305.647 213.884 C 304.794 213.884,299.913 208.479,296.060 203.268 C 294.719 201.454,293.193 199.407,292.669 198.720 L 291.717 197.471 287.512 201.001 L 283.307 204.530 285.241 207.049 C 290.339 213.687,298.581 222.514,299.681 222.514 C 299.789 222.514,300.641 223.063,301.575 223.734 C 303.146 224.862,303.495 224.953,306.217 224.953 L 309.161 224.953 310.898 223.265 C 312.768 221.446,314.335 218.679,315.359 215.385 C 315.712 214.250,316.150 212.983,316.333 212.570 C 316.693 211.755,317.613 205.836,318.011 201.782 C 318.147 200.389,318.426 199.250,318.630 199.250 C 319.015 199.250,326.536 202.088,327.640 202.649 C 333.471 205.616,342.030 205.725,343.909 202.857 C 345.596 200.282,344.170 189.484,341.363 183.584 C 340.831 182.466,341.191 182.182,342.361 182.799 C 367.618 196.116,375.839 194.622,373.563 177.129 C 372.765 170.990,372.792 171.032,370.136 171.726 C 364.045 173.316,363.033 174.350,363.330 178.678 C 363.441 180.292,363.417 181.684,363.277 181.770 C 362.958 181.967,359.332 180.436,359.162 180.034 C 359.093 179.871,358.861 179.737,358.645 179.737 C 358.429 179.737,355.446 178.453,352.016 176.884 C 342.205 172.395,337.092 170.900,333.583 171.496 M249.156 304.128 L 241.095 312.195 248.968 320.075 C 253.298 324.409,256.969 327.955,257.125 327.955 C 257.388 327.955,271.680 313.793,272.686 312.536 C 273.066 312.060,271.859 310.690,265.178 304.015 L 257.217 296.060 249.156 304.128 " stroke="none" fill="#925228" fill-rule="evenodd" data-index="0"></path><path id="path2" d="M282.739 26.887 C 275.681 28.008,269.782 33.418,269.798 38.754 C 269.811 42.877,273.373 49.679,277.879 54.186 C 278.761 55.068,278.767 55.066,273.548 55.519 C 257.265 56.933,254.946 62.846,266.128 74.437 C 270.775 79.255,270.737 79.174,268.370 79.174 C 261.239 79.174,255.910 83.989,255.910 90.430 C 255.910 100.744,267.336 116.126,272.993 113.428 C 276.340 111.832,274.755 105.005,268.418 93.728 C 266.322 89.997,266.185 90.246,270.638 89.709 C 286.650 87.777,288.352 80.504,275.644 68.313 C 273.732 66.479,273.826 66.417,278.518 66.414 C 288.187 66.407,292.493 64.387,291.810 60.179 C 291.562 58.653,289.979 55.389,288.660 53.687 C 280.018 42.528,278.525 38.842,281.426 35.826 C 283.903 33.250,285.952 32.822,292.755 33.459 C 297.925 33.943,298.145 33.902,297.794 32.504 C 296.800 28.546,289.482 25.816,282.739 26.887 M64.555 128.503 L 56.520 136.544 64.377 144.445 C 68.697 148.790,72.395 152.345,72.593 152.345 C 72.973 152.345,88.553 136.931,88.554 136.553 C 88.555 136.363,79.018 126.710,74.225 122.050 L 72.591 120.461 64.555 128.503 M286.116 120.890 C 277.264 121.546,263.759 124.273,259.418 126.282 C 258.768 126.583,258.116 126.829,257.969 126.829 C 255.869 126.829,240.470 134.773,236.398 137.957 C 230.476 142.588,221.162 151.645,218.902 154.972 C 218.411 155.694,217.069 157.467,215.919 158.912 C 214.052 161.257,208.688 168.941,207.679 170.715 C 207.303 171.376,205.815 173.668,204.494 175.621 C 204.141 176.144,203.490 177.241,203.048 178.060 C 202.605 178.879,202.034 179.876,201.778 180.275 C 199.217 184.271,197.373 187.274,197.373 187.454 C 197.373 190.058,180.635 206.113,168.667 214.990 C 164.757 217.889,164.956 217.968,169.231 215.214 C 174.466 211.842,180.653 207.628,182.552 206.141 C 183.171 205.657,184.078 204.963,184.568 204.600 C 187.437 202.474,194.643 195.885,196.505 193.685 C 199.506 190.137,199.596 190.019,201.493 187.054 C 202.417 185.610,203.283 184.343,203.418 184.240 C 203.553 184.137,204.468 182.871,205.452 181.426 C 207.154 178.926,211.434 173.168,215.214 168.293 C 225.764 154.689,239.008 144.083,248.520 141.622 C 249.799 141.292,251.013 140.889,251.220 140.728 C 251.426 140.567,253.114 140.156,254.972 139.814 C 256.829 139.473,258.955 139.030,259.695 138.831 C 262.681 138.026,268.669 137.627,279.550 137.507 C 290.127 137.390,291.023 137.329,291.374 136.701 C 292.735 134.271,294.229 131.904,295.949 129.456 C 297.941 126.621,298.461 125.936,301.033 122.762 C 302.270 121.236,302.361 120.992,301.784 120.763 C 300.885 120.408,291.618 120.483,286.116 120.890 M321.190 125.562 C 317.127 128.258,312.482 132.162,308.768 136.001 L 305.843 139.024 310.989 139.627 C 318.314 140.486,333.256 143.304,340.492 145.192 C 344.244 146.171,343.922 146.235,344.596 144.371 C 346.115 140.168,346.435 139.341,347.113 137.851 C 347.514 136.971,347.842 136.144,347.842 136.012 C 347.842 135.881,348.361 134.591,348.996 133.145 C 350.337 130.089,350.250 129.918,346.939 129.090 C 345.888 128.827,344.320 128.295,343.454 127.908 C 342.588 127.521,341.628 127.205,341.320 127.205 C 341.011 127.205,339.440 126.801,337.828 126.309 C 326.918 122.974,325.205 122.897,321.190 125.562 M88.553 176.454 C 87.632 178.945,82.978 192.194,81.073 197.749 C 80.684 198.884,79.446 202.456,78.323 205.688 C 76.308 211.480,76.291 211.568,77.070 211.930 C 77.505 212.131,78.959 212.803,80.300 213.423 C 84.078 215.167,93.588 219.613,97.749 221.579 C 99.812 222.554,104.540 224.748,108.255 226.455 C 111.970 228.161,116.698 230.356,118.762 231.332 C 120.826 232.308,123.527 233.574,124.765 234.145 C 126.004 234.716,128.959 236.109,131.332 237.239 C 133.705 238.369,136.660 239.755,137.899 240.318 C 139.137 240.882,141.163 241.820,142.402 242.404 C 143.640 242.988,145.750 243.966,147.092 244.577 C 148.433 245.188,151.220 246.488,153.283 247.466 C 171.210 255.957,177.144 258.614,175.699 257.502 C 164.490 248.873,155.378 240.939,146.514 232.091 C 140.988 226.574,130.193 214.550,128.352 211.860 C 128.054 211.425,127.708 210.985,127.582 210.882 C 126.740 210.191,119.922 200.964,116.894 196.418 C 114.351 192.599,114.523 192.874,111.569 187.899 C 110.375 185.886,109.270 184.240,109.114 184.240 C 108.958 184.240,107.266 183.504,105.354 182.605 C 103.441 181.706,101.201 180.664,100.375 180.291 C 99.550 179.918,96.788 178.627,94.238 177.423 C 88.792 174.853,89.124 174.909,88.553 176.454 M62.536 252.627 C 61.743 254.948,60.937 257.186,60.744 257.598 C 60.552 258.011,60.074 259.362,59.682 260.600 C 59.290 261.839,58.013 265.553,56.845 268.856 C 55.677 272.158,54.406 275.788,54.021 276.923 C 53.636 278.058,52.993 279.916,52.593 281.051 C 51.138 285.176,50.679 284.494,56.914 287.478 C 63.698 290.724,68.381 292.941,71.857 294.552 C 73.302 295.222,76.184 296.595,78.262 297.603 C 80.340 298.612,82.132 299.437,82.244 299.437 C 82.357 299.437,84.878 300.597,87.847 302.015 C 90.816 303.432,96.032 305.899,99.437 307.495 C 102.842 309.092,106.811 310.958,108.255 311.642 C 117.667 316.097,119.761 317.073,119.906 317.073 C 119.996 317.073,121.795 317.927,123.905 318.970 C 127.685 320.839,127.761 320.858,129.068 320.305 C 129.797 319.996,130.816 319.630,131.332 319.492 C 131.848 319.354,132.777 319.023,133.396 318.755 C 134.015 318.488,135.535 317.931,136.773 317.517 C 141.519 315.930,169.181 306.110,172.420 304.863 C 173.659 304.387,175.151 303.877,175.738 303.731 C 176.324 303.585,177.422 303.162,178.177 302.791 L 179.550 302.115 175.047 299.982 C 165.624 295.518,163.310 294.435,159.850 292.867 C 157.889 291.979,155.779 290.984,155.159 290.656 C 154.540 290.329,153.924 290.060,153.790 290.059 C 153.656 290.057,150.726 288.705,147.280 287.054 C 143.833 285.403,140.965 284.053,140.905 284.053 C 140.846 284.053,138.148 282.786,134.909 281.238 C 131.671 279.690,128.946 278.424,128.855 278.424 C 128.764 278.424,127.215 277.730,125.414 276.882 C 123.613 276.034,120.197 274.447,117.824 273.356 C 115.450 272.265,111.144 270.244,108.255 268.864 C 105.366 267.483,102.242 266.025,101.313 265.622 C 100.385 265.220,98.780 264.478,97.749 263.974 C 96.717 263.470,93.255 261.852,90.056 260.379 C 83.193 257.218,74.932 253.375,70.732 251.387 C 68.210 250.193,64.187 248.405,64.023 248.405 C 63.998 248.405,63.328 250.305,62.536 252.627 M232.458 282.905 C 229.925 283.118,229.868 283.144,230.853 283.645 C 231.756 284.104,232.149 284.072,234.230 283.374 C 235.526 282.939,236.248 282.606,235.835 282.634 C 235.422 282.662,233.902 282.783,232.458 282.905 M321.725 316.287 C 317.825 320.188,314.259 323.782,313.800 324.274 L 312.966 325.168 320.957 333.153 L 328.949 341.138 336.238 333.843 C 340.247 329.831,343.856 326.182,344.257 325.734 L 344.988 324.919 337.131 317.056 C 332.810 312.732,329.172 309.193,329.045 309.193 C 328.919 309.193,325.625 312.385,321.725 316.287 M38.038 322.795 C 37.807 323.466,36.656 326.717,35.480 330.019 C 34.303 333.321,33.029 336.951,32.648 338.086 C 32.266 339.221,31.002 342.852,29.839 346.154 C 26.584 355.396,26.488 355.694,26.719 355.925 C 26.838 356.044,27.587 355.859,28.383 355.514 C 29.180 355.170,30.760 354.582,31.895 354.209 C 33.030 353.836,36.660 352.576,39.962 351.410 C 43.265 350.244,46.979 348.968,48.218 348.575 C 49.456 348.182,50.807 347.690,51.220 347.481 C 51.632 347.271,52.983 346.778,54.221 346.384 C 55.460 345.990,59.428 344.631,63.039 343.365 C 66.651 342.099,70.915 340.614,72.514 340.066 C 76.069 338.846,76.069 338.937,72.514 337.357 C 69.408 335.976,60.894 332.055,55.347 329.450 C 53.490 328.577,50.957 327.401,49.719 326.835 C 48.480 326.268,46.370 325.293,45.028 324.667 C 43.687 324.041,41.745 323.140,40.713 322.665 C 39.681 322.190,38.752 321.751,38.647 321.688 C 38.543 321.626,38.269 322.124,38.038 322.795 " stroke="none" fill="#fbb405" fill-rule="evenodd" data-index="2"></path><path id="path3" d="M165.854 47.815 C 157.557 50.118,156.251 58.396,162.864 66.763 C 164.587 68.942,164.483 69.109,161.742 68.567 C 151.085 66.460,144.594 73.812,149.256 82.709 L 150.747 85.553 147.003 85.553 C 136.194 85.553,130.563 90.638,130.590 100.377 C 130.619 111.019,137.875 124.922,145.340 128.637 C 149.264 130.590,150.214 129.072,147.880 124.578 C 140.353 110.086,138.070 102.914,139.353 97.799 L 139.602 96.811 146.442 96.801 C 165.984 96.773,169.836 93.758,163.486 83.459 L 161.886 80.863 166.215 80.852 C 179.748 80.817,183.958 70.834,174.334 61.601 C 171.461 58.844,171.571 59.062,172.889 58.746 C 177.337 57.681,182.520 50.623,180.243 48.733 C 178.652 47.412,169.427 46.824,165.854 47.815 M309.807 67.735 C 305.342 72.218,301.689 75.995,301.689 76.127 C 301.689 76.259,305.319 79.994,309.756 84.428 L 317.824 92.489 325.891 84.428 C 330.328 79.994,333.959 76.195,333.959 75.985 C 333.959 75.775,330.351 71.999,325.942 67.593 L 317.926 59.583 309.807 67.735 M41.275 76.737 L 33.213 84.805 41.367 92.959 L 49.521 101.113 57.699 92.966 L 65.876 84.819 57.794 76.744 C 53.349 72.302,49.628 68.668,49.525 68.668 C 49.421 68.668,45.709 72.299,41.275 76.737 M323.077 104.945 C 310.780 111.435,301.866 120.355,291.812 136.227 C 290.544 138.229,284.384 150.479,283.047 153.659 C 279.906 161.125,277.493 167.321,275.009 174.296 C 273.107 179.636,271.637 183.522,270.751 185.553 C 266.630 194.995,264.412 198.926,259.633 205.253 C 254.398 212.185,243.285 220.623,239.370 220.640 C 239.077 220.641,238.388 220.876,237.840 221.162 C 236.310 221.961,225.492 224.310,220.450 224.939 C 217.974 225.248,214.850 225.670,213.508 225.876 C 212.167 226.082,209.592 226.255,207.786 226.259 C 205.852 226.263,204.503 226.421,204.503 226.642 C 204.503 228.792,237.119 225.745,245.150 222.845 C 255.681 219.043,268.405 206.713,275.638 193.303 C 279.188 186.721,280.980 183.158,282.554 179.550 C 283.545 177.280,285.192 173.565,286.213 171.295 C 287.235 169.024,288.391 166.412,288.782 165.489 C 296.735 146.733,311.675 129.823,327.480 121.688 C 330.006 120.388,332.317 119.325,332.618 119.325 C 333.708 119.325,333.045 116.222,330.973 111.632 C 330.505 110.595,329.127 106.744,328.456 104.597 C 327.772 102.410,327.894 102.402,323.077 104.945 M159.856 189.118 C 159.847 189.428,159.738 190.061,159.613 190.525 C 159.473 191.050,159.554 191.370,159.828 191.370 C 160.071 191.370,160.153 191.182,160.012 190.952 C 159.870 190.723,159.964 190.405,160.221 190.247 C 160.568 190.032,160.583 189.778,160.280 189.257 C 159.975 188.731,159.869 188.696,159.856 189.118 M337.195 241.830 C 332.732 246.310,329.081 250.088,329.081 250.226 C 329.081 250.363,332.711 254.103,337.148 258.537 L 345.216 266.598 353.283 258.537 C 357.720 254.103,361.351 250.304,361.351 250.094 C 361.351 249.884,357.742 246.106,353.331 241.698 L 345.310 233.684 337.195 241.830 " stroke="none" fill="#44ade5" fill-rule="evenodd" data-index="3"></path><path id="path4" d="M285.451 26.537 C 286.117 26.620,287.299 26.621,288.078 26.540 C 288.856 26.459,288.311 26.391,286.867 26.390 C 285.422 26.388,284.785 26.454,285.451 26.537 M278.987 27.539 C 277.490 28.010,274.296 29.844,274.296 30.233 C 274.296 30.459,274.754 30.221,276.173 29.260 C 276.689 28.910,277.997 28.333,279.081 27.978 C 280.164 27.622,281.051 27.261,281.051 27.174 C 281.051 26.944,280.661 27.013,278.987 27.539 M291.678 27.263 C 292.143 27.728,294.964 28.869,294.736 28.500 C 294.610 28.297,293.908 27.880,293.174 27.574 C 291.727 26.969,291.295 26.879,291.678 27.263 M272.585 31.544 C 271.939 32.218,271.745 32.593,272.117 32.450 C 272.655 32.244,274.180 30.394,273.812 30.394 C 273.743 30.394,273.191 30.911,272.585 31.544 M297.540 31.776 C 298.498 33.759,298.264 33.886,294.090 33.657 C 290.896 33.483,290.594 33.508,292.308 33.810 C 297.078 34.650,299.383 33.757,297.742 31.705 C 297.156 30.972,297.152 30.973,297.540 31.776 M270.492 34.740 C 270.073 35.686,269.798 36.527,269.879 36.608 C 269.960 36.690,270.382 35.916,270.816 34.888 C 271.250 33.861,271.526 33.021,271.429 33.021 C 271.332 33.021,270.910 33.795,270.492 34.740 M286.867 33.207 C 286.660 33.277,285.843 33.443,285.051 33.576 C 280.803 34.289,278.646 39.581,281.220 42.976 C 281.621 43.504,281.564 43.087,281.021 41.511 C 279.388 36.776,281.292 34.637,288.180 33.469 C 290.081 33.147,290.126 33.118,288.743 33.100 C 287.917 33.089,287.073 33.137,286.867 33.207 M269.982 42.026 C 270.331 44.579,274.165 50.958,276.747 53.283 C 277.320 53.799,276.782 52.955,275.552 51.407 C 272.829 47.982,271.497 45.717,270.534 42.873 C 270.006 41.312,269.853 41.077,269.982 42.026 M109.944 46.341 C 107.991 48.302,106.501 49.906,106.633 49.906 C 106.764 49.906,108.494 48.302,110.478 46.341 C 112.461 44.381,113.950 42.777,113.788 42.777 C 113.626 42.777,111.896 44.381,109.944 46.341 M122.512 50.564 L 130.390 58.539 122.318 66.610 L 114.247 74.682 106.091 66.496 C 101.606 61.994,97.936 58.405,97.936 58.520 C 97.936 58.636,101.651 62.443,106.191 66.979 L 114.446 75.228 122.514 67.167 C 126.951 62.733,130.582 58.934,130.582 58.724 C 130.582 58.514,126.993 54.798,122.608 50.466 L 114.634 42.589 122.512 50.564 M282.190 44.653 C 282.455 45.169,283.794 47.111,285.166 48.968 C 286.539 50.826,287.947 52.763,288.296 53.273 C 288.645 53.783,288.931 54.054,288.931 53.874 C 288.931 53.569,282.863 44.916,282.070 44.090 C 281.871 43.884,281.926 44.137,282.190 44.653 M105.441 50.844 C 105.176 51.164,105.043 51.510,105.146 51.613 C 105.250 51.716,105.551 51.539,105.816 51.220 C 106.081 50.900,106.214 50.554,106.111 50.451 C 106.008 50.348,105.706 50.525,105.441 50.844 M103.189 53.096 C 102.929 53.410,102.888 53.659,103.098 53.659 C 103.304 53.659,103.683 53.405,103.940 53.096 C 104.201 52.782,104.241 52.533,104.032 52.533 C 103.825 52.533,103.446 52.786,103.189 53.096 M101.285 55.021 C 100.417 55.963,100.414 55.985,101.212 55.498 C 101.673 55.218,102.132 54.773,102.232 54.511 C 102.501 53.811,102.301 53.919,101.285 55.021 M274.004 54.993 C 269.731 55.484,267.260 56.043,270.732 55.733 C 271.764 55.641,273.917 55.460,275.516 55.331 C 277.115 55.201,278.424 54.941,278.424 54.752 C 278.424 54.563,278.382 54.431,278.330 54.458 C 278.279 54.485,276.332 54.726,274.004 54.993 M289.312 54.481 C 289.304 54.821,290.833 57.411,291.041 57.411 C 291.129 57.411,290.950 56.947,290.643 56.379 C 289.878 54.967,289.318 54.169,289.312 54.481 M266.604 56.158 C 265.413 56.413,262.605 57.477,262.748 57.620 C 262.819 57.691,264.138 57.349,265.679 56.860 C 268.185 56.065,268.637 55.722,266.604 56.158 M260.369 59.243 C 258.153 61.459,258.890 67.969,261.543 69.609 C 261.762 69.744,261.343 68.729,260.614 67.354 C 258.619 63.594,258.697 61.241,260.882 59.244 C 261.759 58.442,262.330 57.786,262.151 57.786 C 261.972 57.786,261.170 58.442,260.369 59.243 M291.381 58.349 C 292.447 61.542,291.725 63.716,289.273 64.697 C 288.414 65.041,287.798 65.409,287.905 65.516 C 288.318 65.929,290.735 64.569,291.501 63.493 C 292.454 62.155,292.547 59.908,291.706 58.537 C 291.313 57.897,291.210 57.837,291.381 58.349 M279.081 66.322 C 273.521 66.458,273.689 66.274,276.458 69.199 C 277.646 70.455,279.349 72.326,280.242 73.358 C 281.135 74.390,281.517 74.706,281.090 74.060 C 280.662 73.414,279.128 71.616,277.680 70.066 C 274.383 66.536,274.228 66.796,279.644 66.765 C 282.172 66.751,284.578 66.594,284.991 66.417 C 285.664 66.127,285.645 66.100,284.803 66.149 C 284.287 66.180,281.712 66.257,279.081 66.322 M262.934 71.482 C 263.580 72.308,265.395 74.250,266.966 75.797 L 269.822 78.612 268.401 78.840 L 266.979 79.068 268.574 79.121 C 270.727 79.193,270.734 79.207,265.956 74.296 C 263.647 71.923,262.287 70.657,262.934 71.482 M282.562 76.862 C 283.043 77.717,283.502 78.349,283.584 78.267 C 283.802 78.049,282.630 75.890,282.123 75.577 C 281.885 75.429,282.082 76.008,282.562 76.862 M283.860 79.301 C 285.100 83.708,283.384 86.357,278.241 87.975 C 277.080 88.340,276.213 88.721,276.314 88.822 C 276.415 88.923,277.142 88.799,277.930 88.548 C 283.351 86.815,285.921 83.214,284.218 79.737 C 283.914 79.118,283.753 78.922,283.860 79.301 M263.588 79.699 C 261.776 80.267,259.964 81.263,261.538 80.826 C 262.054 80.683,263.321 80.265,264.353 79.897 C 266.490 79.136,265.885 78.980,263.588 79.699 M259.099 81.977 C 258.480 82.485,258.155 82.906,258.377 82.913 C 258.599 82.921,259.178 82.505,259.662 81.989 C 260.782 80.797,260.546 80.792,259.099 81.977 M257.032 84.522 C 256.427 85.513,255.947 86.861,256.408 86.273 C 256.966 85.559,258.175 83.302,257.999 83.302 C 257.876 83.302,257.440 83.851,257.032 84.522 M255.655 90.432 C 255.655 91.773,255.723 92.322,255.806 91.651 C 255.889 90.980,255.889 89.883,255.806 89.212 C 255.723 88.541,255.655 89.090,255.655 90.432 M269.700 89.779 C 266.669 90.161,266.325 90.456,267.375 91.767 C 267.939 92.471,267.945 92.467,267.563 91.676 C 267.345 91.225,267.167 90.780,267.167 90.688 C 267.167 90.595,268.257 90.402,269.590 90.259 C 270.922 90.117,272.484 89.858,273.061 89.685 C 274.413 89.279,273.450 89.306,269.700 89.779 M268.893 94.561 C 269.455 95.594,269.975 96.379,270.047 96.307 C 270.209 96.145,268.301 92.683,268.050 92.683 C 267.951 92.683,268.331 93.528,268.893 94.561 M256.508 96.395 C 256.778 97.857,257.758 100.341,257.978 100.121 C 258.059 100.040,257.708 98.882,257.199 97.548 C 256.666 96.152,256.373 95.663,256.508 96.395 M270.558 97.786 C 270.969 98.867,272.045 100.518,272.045 100.069 C 272.045 99.667,270.566 96.811,270.358 96.811 C 270.264 96.811,270.354 97.249,270.558 97.786 M258.161 100.822 C 258.161 101.298,261.217 106.144,261.830 106.640 C 262.163 106.909,261.919 106.370,261.288 105.441 C 260.657 104.512,259.776 103.035,259.331 102.158 C 258.579 100.676,258.161 100.199,258.161 100.822 M272.128 100.970 C 273.249 103.801,273.661 104.701,273.779 104.582 C 274.018 104.344,272.748 100.953,272.321 100.689 C 272.079 100.540,272.002 100.652,272.128 100.970 M274.564 108.497 C 274.840 111.788,274.574 112.672,273.088 113.411 C 272.278 113.814,272.088 114.032,272.531 114.047 C 274.554 114.119,275.884 109.595,274.675 106.754 C 274.480 106.297,274.437 106.979,274.564 108.497 M263.484 108.883 C 264.195 109.744,265.357 110.874,266.066 111.394 C 266.857 111.974,266.417 111.370,264.926 109.828 C 262.158 106.965,261.598 106.598,263.484 108.883 M267.918 112.759 C 268.371 113.305,270.855 114.260,271.124 113.992 C 271.208 113.907,270.424 113.477,269.381 113.036 C 268.131 112.508,267.632 112.413,267.918 112.759 M64.256 128.052 C 59.872 132.439,56.285 136.198,56.285 136.404 C 56.285 136.894,72.124 152.720,72.614 152.720 C 73.103 152.720,88.931 136.883,88.931 136.394 C 88.931 135.915,73.066 120.075,72.586 120.075 C 72.388 120.075,68.639 123.665,64.256 128.052 M285.132 120.498 C 283.146 120.674,280.866 120.982,280.066 121.183 C 278.647 121.540,278.657 121.544,280.488 121.370 C 289.589 120.502,300.353 120.198,301.796 120.768 C 302.393 121.004,302.318 121.217,301.107 122.712 C 299.792 124.335,299.803 124.330,301.451 122.544 C 302.388 121.529,303.068 120.558,302.962 120.386 C 302.719 119.993,289.933 120.073,285.132 120.498 M82.208 129.986 C 85.699 133.477,88.555 136.432,88.554 136.553 C 88.553 136.931,72.973 152.345,72.593 152.345 C 72.395 152.345,68.697 148.790,64.377 144.445 L 56.520 136.544 64.555 128.503 L 72.591 120.461 74.225 122.050 C 75.124 122.925,78.716 126.496,82.208 129.986 M272.233 122.372 C 269.386 122.884,268.563 123.097,268.743 123.277 C 268.940 123.474,275.073 122.425,275.352 122.147 C 275.615 121.884,274.503 121.964,272.233 122.372 M324.744 123.112 C 324.628 123.299,324.966 123.452,325.494 123.452 C 326.644 123.452,326.736 123.238,325.704 122.968 C 325.291 122.860,324.859 122.925,324.744 123.112 M263.948 124.377 C 262.900 124.634,261.718 125.050,261.321 125.302 C 260.709 125.691,260.701 125.729,261.269 125.551 C 261.637 125.437,262.988 125.071,264.271 124.739 C 266.562 124.147,267.436 123.787,266.385 123.869 C 266.093 123.892,264.996 124.120,263.948 124.377 M330.412 124.382 C 331.247 124.645,332.682 124.962,333.601 125.085 C 334.866 125.255,334.633 125.131,332.645 124.577 C 329.754 123.771,327.991 123.617,330.412 124.382 M259.287 125.945 C 257.177 126.628,255.511 127.306,255.636 127.431 C 255.832 127.627,259.379 126.442,259.831 126.029 C 260.217 125.677,260.148 125.666,259.287 125.945 M336.961 125.881 C 336.961 126.052,339.735 126.879,342.025 127.390 C 344.275 127.892,342.583 127.128,339.902 126.432 C 336.737 125.610,336.961 125.652,336.961 125.881 M252.720 128.493 C 251.689 128.990,251.013 129.400,251.220 129.403 C 251.736 129.412,255.439 127.649,254.972 127.616 C 254.765 127.601,253.752 127.996,252.720 128.493 M343.527 127.857 C 343.928 128.271,347.913 129.510,348.134 129.289 C 348.207 129.216,347.369 128.862,346.272 128.501 C 345.175 128.141,344.024 127.761,343.715 127.657 C 343.334 127.530,343.273 127.594,343.527 127.857 M248.687 130.232 C 247.913 130.640,247.280 131.047,247.280 131.134 C 247.280 131.362,250.023 130.204,250.450 129.796 C 251.050 129.224,250.198 129.434,248.687 130.232 M349.444 129.983 C 349.844 130.287,350.025 130.766,349.901 131.191 C 349.779 131.610,349.880 131.542,350.152 131.022 C 350.525 130.310,350.510 130.087,350.070 129.808 C 349.227 129.275,348.703 129.421,349.444 129.983 M312.359 132.176 L 311.257 133.396 312.477 132.294 C 313.147 131.688,313.696 131.139,313.696 131.074 C 313.696 130.784,313.386 131.040,312.359 132.176 M245.591 131.870 C 244.972 132.150,244.128 132.657,243.715 132.997 C 243.302 133.337,243.851 133.183,244.934 132.655 C 246.018 132.127,246.904 131.613,246.904 131.513 C 246.904 131.277,246.904 131.277,245.591 131.870 M348.241 134.920 C 347.801 136.097,347.515 137.133,347.605 137.223 C 347.695 137.314,348.129 136.425,348.569 135.249 C 349.010 134.072,349.296 133.036,349.206 132.945 C 349.115 132.855,348.681 133.744,348.241 134.920 M114.363 133.859 C 115.245 133.938,116.596 133.937,117.365 133.856 C 118.133 133.776,117.411 133.711,115.760 133.712 C 114.109 133.713,113.480 133.779,114.363 133.859 M240.200 135.053 C 238.084 136.355,235.922 138.031,237.523 137.129 C 238.381 136.645,242.518 133.967,242.722 133.763 C 243.187 133.299,242.391 133.706,240.200 135.053 M306.942 137.523 C 306.030 138.452,305.369 139.212,305.472 139.212 C 305.575 139.212,306.406 138.452,307.317 137.523 C 308.229 136.595,308.890 135.835,308.787 135.835 C 308.683 135.835,307.853 136.595,306.942 137.523 M276.454 137.616 C 278.776 137.682,282.575 137.682,284.897 137.616 C 287.219 137.550,285.319 137.496,280.675 137.496 C 276.032 137.496,274.132 137.550,276.454 137.616 M235.041 138.538 C 226.893 144.765,217.946 154.669,210.704 165.480 C 207.774 169.853,207.399 170.466,207.805 170.215 C 208.014 170.086,209.454 168.081,211.006 165.760 C 212.558 163.438,214.769 160.356,215.919 158.912 C 217.069 157.467,218.443 155.638,218.973 154.847 C 220.392 152.728,231.702 141.499,234.465 139.465 C 235.775 138.500,236.685 137.711,236.486 137.711 C 236.287 137.711,235.637 138.083,235.041 138.538 M263.930 138.131 C 262.253 138.307,260.480 138.626,259.990 138.839 C 259.205 139.180,259.255 139.205,260.413 139.048 C 261.981 138.836,268.615 138.137,270.732 137.962 C 271.557 137.893,271.051 137.831,269.606 137.824 C 268.161 137.817,265.607 137.955,263.930 138.131 M346.551 139.030 C 345.705 141.054,345.883 141.584,346.751 139.626 C 347.154 138.719,347.405 137.899,347.309 137.803 C 347.214 137.708,346.873 138.260,346.551 139.030 M253.218 140.101 C 252.254 140.334,251.325 140.679,251.155 140.867 C 250.976 141.063,251.087 141.122,251.417 141.004 C 251.732 140.893,252.956 140.600,254.137 140.355 C 255.319 140.110,256.285 139.837,256.285 139.748 C 256.285 139.502,255.156 139.632,253.218 140.101 M310.324 139.707 C 310.600 139.998,318.970 141.193,319.190 140.972 C 319.291 140.872,318.223 140.610,316.816 140.391 C 312.816 139.768,310.113 139.483,310.324 139.707 M246.829 142.058 C 245.859 142.357,244.974 142.749,244.862 142.930 C 244.667 143.245,249.120 141.999,249.482 141.638 C 249.799 141.321,248.619 141.508,246.829 142.058 M322.023 141.661 C 322.132 141.769,323.806 142.114,325.745 142.428 C 327.683 142.741,329.690 143.078,330.206 143.177 L 331.144 143.357 330.250 142.966 C 328.906 142.380,321.580 141.217,322.023 141.661 M344.815 143.701 C 343.994 145.954,343.953 145.996,342.814 145.762 C 340.257 145.238,339.865 145.261,341.634 145.830 C 343.942 146.573,344.327 146.346,345.215 143.719 C 346.174 140.882,345.849 140.868,344.815 143.701 M242.120 144.101 C 241.243 144.491,240.525 144.903,240.525 145.018 C 240.525 145.237,242.681 144.402,243.805 143.747 C 244.885 143.118,243.836 143.339,242.120 144.101 M331.707 143.440 C 331.981 143.732,339.283 145.270,339.476 145.077 C 339.566 144.986,338.488 144.655,337.081 144.340 C 333.544 143.548,331.485 143.203,331.707 143.440 M238.743 145.962 C 237.486 146.729,237.010 147.400,238.180 146.757 C 239.051 146.278,240.387 145.242,240.150 145.229 C 240.047 145.223,239.414 145.553,238.743 145.962 M98.311 147.376 C 98.311 147.738,97.829 149.469,97.239 151.222 C 95.891 155.228,90.538 170.288,90.104 171.295 C 89.406 172.917,88.229 176.221,88.033 177.111 C 87.919 177.627,88.097 177.416,88.429 176.642 C 89.181 174.889,88.744 174.830,94.238 177.423 C 96.788 178.627,99.550 179.918,100.375 180.291 C 101.201 180.664,103.458 181.714,105.391 182.623 C 109.709 184.654,109.629 184.750,107.353 180.252 C 100.941 167.580,97.743 156.349,98.473 149.062 C 98.602 147.772,98.618 146.717,98.510 146.717 C 98.401 146.717,98.311 147.013,98.311 147.376 M234.902 148.554 C 232.215 150.574,225.581 156.489,223.799 158.456 C 218.081 164.766,216.697 166.333,216.187 167.076 C 215.869 167.539,214.585 169.184,213.333 170.732 C 211.307 173.237,205.125 181.707,204.321 183.079 C 203.432 184.594,204.991 182.806,206.601 180.462 C 209.676 175.986,209.064 176.809,215.203 168.879 C 220.678 161.808,229.444 153.091,236.245 147.957 C 236.845 147.504,237.226 147.124,237.092 147.113 C 236.958 147.101,235.973 147.750,234.902 148.554 M206.913 171.176 C 206.752 171.447,206.378 172.050,206.082 172.514 C 205.785 172.978,205.635 173.358,205.747 173.358 C 206.089 173.358,207.601 171.078,207.396 170.873 C 207.291 170.768,207.073 170.904,206.913 171.176 M333.007 170.979 C 332.587 171.066,331.743 171.556,331.131 172.068 L 330.019 172.998 331.421 172.206 C 332.503 171.595,333.436 171.420,335.508 171.439 C 336.985 171.453,338.127 171.405,338.046 171.333 C 337.781 171.096,333.790 170.815,333.007 170.979 M370.356 171.295 C 368.831 171.882,369.242 172.017,371.012 171.509 C 371.993 171.228,372.304 171.282,372.633 171.791 C 372.999 172.358,373.018 172.352,372.824 171.733 C 372.705 171.355,372.608 170.975,372.608 170.889 C 372.608 170.612,371.707 170.775,370.356 171.295 M341.523 172.576 C 343.524 173.359,345.216 173.822,345.216 173.588 C 345.216 173.384,340.702 171.851,340.171 171.875 C 339.953 171.885,340.561 172.200,341.523 172.576 M365.794 172.737 C 364.546 173.292,363.223 174.469,363.238 175.011 C 363.245 175.237,363.432 175.109,363.654 174.726 C 363.877 174.344,364.927 173.636,365.988 173.153 C 367.049 172.671,367.664 172.280,367.355 172.285 C 367.045 172.290,366.343 172.493,365.794 172.737 M205.021 174.203 C 204.869 174.461,204.479 175.087,204.155 175.595 C 203.788 176.170,203.743 176.409,204.036 176.228 C 204.522 175.929,205.786 173.734,205.473 173.734 C 205.376 173.734,205.173 173.945,205.021 174.203 M345.622 173.886 C 346.008 174.263,358.422 179.789,358.564 179.647 C 358.652 179.560,355.862 178.193,352.364 176.611 C 346.639 174.021,345.140 173.415,345.622 173.886 M329.235 174.537 C 328.896 175.086,329.002 181.334,329.367 182.323 C 329.519 182.736,329.644 181.056,329.644 178.591 C 329.644 176.126,329.611 174.109,329.572 174.109 C 329.532 174.109,329.381 174.302,329.235 174.537 M373.535 176.360 C 373.628 177.289,373.807 178.977,373.934 180.113 C 374.144 182.001,373.774 185.577,373.177 187.430 C 373.044 187.842,373.242 187.674,373.616 187.054 C 374.412 185.738,374.532 177.790,373.787 175.797 C 373.390 174.737,373.375 174.770,373.535 176.360 M362.981 178.685 C 363.013 180.479,363.152 181.830,363.289 181.687 C 363.427 181.543,363.400 180.075,363.231 178.424 L 362.922 175.422 362.981 178.685 M202.916 177.580 C 201.874 179.186,201.408 180.214,201.844 179.945 C 202.268 179.683,203.895 176.735,203.616 176.735 C 203.532 176.735,203.217 177.115,202.916 177.580 M197.363 180.582 C 198.698 181.975,199.826 183.114,199.870 183.114 C 200.134 183.114,201.546 180.783,201.382 180.619 C 201.271 180.508,200.900 180.962,200.556 181.627 L 199.931 182.836 197.432 180.443 L 194.934 178.049 197.363 180.582 M359.099 180.045 C 359.099 180.288,360.180 180.800,362.289 181.557 C 362.495 181.631,362.326 181.455,361.914 181.166 C 360.802 180.389,359.099 179.711,359.099 180.045 M86.160 182.220 C 85.827 183.195,85.621 184.057,85.700 184.137 C 85.779 184.216,86.116 183.483,86.448 182.508 C 86.780 181.533,86.987 180.671,86.908 180.591 C 86.829 180.512,86.492 181.245,86.160 182.220 M341.088 182.879 C 341.088 183.191,341.255 183.549,341.459 183.675 C 341.677 183.809,341.732 183.647,341.592 183.284 C 341.373 182.714,341.458 182.716,342.628 183.305 C 343.622 183.805,343.778 183.822,343.340 183.383 C 342.464 182.506,341.088 182.199,341.088 182.879 M344.720 184.423 C 345.616 185.051,347.467 185.812,347.467 185.553 C 347.467 185.376,344.474 183.865,344.124 183.865 C 344.013 183.865,344.282 184.116,344.720 184.423 M202.799 185.039 C 202.598 185.671,202.924 186.199,204.363 187.572 L 206.180 189.306 204.555 187.566 C 203.136 186.048,202.984 185.726,203.354 185.033 C 203.605 184.564,203.630 184.240,203.416 184.240 C 203.216 184.240,202.938 184.600,202.799 185.039 M342.079 185.647 C 342.487 187.303,343.657 190.472,343.687 190.002 C 343.725 189.411,342.227 184.615,342.004 184.615 C 341.905 184.615,341.939 185.080,342.079 185.647 M330.266 185.929 C 330.259 186.341,330.573 187.608,330.966 188.743 C 331.445 190.129,331.607 190.378,331.457 189.502 C 331.134 187.602,330.283 185.051,330.266 185.929 M84.277 187.493 C 83.632 189.386,83.694 190.190,84.352 188.474 C 84.952 186.911,85.251 185.741,85.051 185.741 C 84.953 185.741,84.605 186.530,84.277 187.493 M347.842 185.940 C 347.842 186.138,350.708 187.617,351.092 187.617 C 351.245 187.617,351.209 187.464,351.013 187.277 C 350.584 186.867,347.842 185.712,347.842 185.940 M352.345 188.164 C 352.345 188.400,353.427 188.855,354.972 189.269 L 355.910 189.521 354.972 188.991 C 353.796 188.327,352.345 187.870,352.345 188.164 M316.323 188.758 C 315.275 188.966,315.535 189.029,317.605 189.069 C 319.032 189.096,320.130 189.058,320.044 188.984 C 319.654 188.651,317.514 188.521,316.323 188.758 M372.009 189.172 C 371.616 189.614,370.788 190.289,370.169 190.671 C 369.550 191.054,369.212 191.367,369.418 191.367 C 370.112 191.367,372.181 189.916,372.597 189.138 C 373.128 188.146,372.910 188.159,372.009 189.172 M312.388 190.879 C 311.690 191.641,311.037 192.612,310.936 193.037 C 310.759 193.779,310.769 193.781,311.192 193.088 C 311.434 192.691,312.201 191.721,312.895 190.930 C 314.515 189.088,314.070 189.043,312.388 190.879 M322.514 189.781 C 322.720 189.986,323.565 190.361,324.390 190.615 C 325.216 190.870,326.567 191.454,327.392 191.915 C 329.115 192.876,330.206 193.308,330.206 193.029 C 330.206 192.923,328.813 192.181,327.111 191.381 C 323.783 189.816,321.882 189.155,322.514 189.781 M357.223 190.006 C 357.223 190.334,361.298 191.451,361.827 191.267 C 362.081 191.180,361.444 190.924,360.412 190.700 C 359.380 190.475,358.240 190.178,357.879 190.040 C 357.518 189.902,357.223 189.886,357.223 190.006 M82.545 192.324 C 82.017 193.714,81.657 195.344,81.935 195.092 C 82.235 194.818,83.286 191.370,83.068 191.370 C 82.980 191.370,82.745 191.799,82.545 192.324 M344.397 193.809 C 345.173 200.628,344.609 203.064,341.928 204.479 C 340.297 205.341,340.550 205.488,342.360 204.732 C 344.950 203.650,345.993 198.485,344.642 193.433 L 344.141 191.557 344.397 193.809 M332.300 193.026 C 332.538 193.990,332.486 194.090,331.857 193.869 C 331.174 193.630,331.175 193.643,331.873 194.183 C 333.214 195.221,333.679 193.582,332.405 192.308 C 332.155 192.058,332.120 192.297,332.300 193.026 M309.357 196.838 C 309.022 197.989,308.838 199.019,308.946 199.128 C 309.055 199.236,309.334 198.591,309.566 197.693 C 309.798 196.795,310.074 195.765,310.179 195.403 C 310.284 195.042,310.278 194.747,310.167 194.747 C 310.056 194.747,309.691 195.688,309.357 196.838 M80.751 197.643 C 80.152 199.205,79.852 200.375,80.052 200.375 C 80.287 200.375,81.463 196.910,81.288 196.735 C 81.213 196.660,80.971 197.069,80.751 197.643 M287.522 200.469 C 285.227 202.378,283.338 204.074,283.325 204.237 C 283.313 204.401,285.190 202.949,287.498 201.012 L 291.694 197.490 292.598 198.464 L 293.502 199.437 292.692 198.218 C 291.695 196.718,292.404 196.409,287.522 200.469 M318.011 201.782 C 317.874 203.175,317.609 205.328,317.421 206.567 C 317.013 209.253,317.022 210.328,317.440 208.943 C 317.606 208.393,317.954 206.113,318.212 203.877 C 318.776 199.002,318.450 199.439,320.826 200.375 C 321.911 200.803,322.873 201.079,322.964 200.988 C 323.133 200.819,319.185 199.250,318.590 199.250 C 318.408 199.250,318.147 200.389,318.011 201.782 M293.775 200.312 C 293.977 200.690,294.441 201.239,294.805 201.532 C 295.275 201.909,295.219 201.710,294.613 200.844 C 293.686 199.523,293.181 199.202,293.775 200.312 M324.765 201.866 C 326.622 202.704,328.235 203.193,327.869 202.806 C 327.604 202.527,323.835 201.130,323.452 201.170 C 323.349 201.180,323.940 201.494,324.765 201.866 M78.654 203.611 C 78.321 204.588,78.061 205.568,78.076 205.789 C 78.091 206.010,78.428 205.276,78.825 204.158 C 79.223 203.039,79.482 202.059,79.403 201.980 C 79.324 201.900,78.987 202.635,78.654 203.611 M307.554 204.566 C 306.611 209.048,306.465 209.956,306.727 209.708 C 307.044 209.407,308.505 202.189,308.292 201.975 C 308.204 201.888,307.872 203.054,307.554 204.566 M296.052 203.366 C 296.488 203.979,297.037 204.599,297.271 204.743 C 297.506 204.888,297.224 204.387,296.646 203.629 C 295.392 201.984,294.919 201.775,296.052 203.366 M331.512 204.143 C 332.746 204.559,334.012 204.842,334.326 204.771 C 334.640 204.701,334.053 204.446,333.021 204.205 C 329.551 203.394,329.257 203.382,331.512 204.143 M283.996 205.925 C 284.459 206.575,285.032 207.227,285.270 207.373 C 285.507 207.520,285.322 207.108,284.859 206.458 C 284.396 205.808,283.823 205.156,283.586 205.009 C 283.349 204.863,283.533 205.274,283.996 205.925 M299.990 208.246 C 303.192 212.344,306.234 214.712,306.148 213.039 C 306.115 212.404,306.062 212.358,305.933 212.852 C 305.655 213.914,305.279 213.669,302.189 210.403 C 300.572 208.696,299.583 207.725,299.990 208.246 M285.967 208.443 C 286.953 209.902,291.118 214.835,292.146 215.760 C 292.720 216.276,291.851 215.111,290.215 213.172 C 286.694 208.996,285.269 207.410,285.967 208.443 M76.548 209.568 C 76.300 210.318,76.187 211.021,76.295 211.130 C 76.404 211.238,76.670 210.688,76.886 209.906 C 77.395 208.060,77.132 207.798,76.548 209.568 M70.024 229.554 C 66.745 239.406,63.996 247.650,63.916 247.874 C 63.835 248.098,64.491 248.589,65.374 248.966 C 66.257 249.342,68.499 250.358,70.356 251.225 C 81.916 256.618,84.827 257.971,90.056 260.379 C 93.255 261.852,96.717 263.470,97.749 263.974 C 98.780 264.478,100.385 265.220,101.313 265.622 C 102.242 266.025,105.366 267.483,108.255 268.864 C 111.144 270.244,115.450 272.265,117.824 273.356 C 120.197 274.447,123.613 276.034,125.414 276.882 C 127.215 277.730,128.764 278.424,128.855 278.424 C 128.946 278.424,131.671 279.690,134.909 281.238 C 138.148 282.786,140.846 284.053,140.905 284.053 C 140.965 284.053,143.796 285.386,147.197 287.015 C 150.598 288.644,153.781 290.100,154.270 290.250 C 154.759 290.400,155.328 290.655,155.535 290.815 C 155.741 290.976,157.598 291.867,159.662 292.795 C 163.532 294.535,167.258 296.280,175.047 299.999 L 179.550 302.149 178.330 302.671 C 177.659 302.957,177.111 303.271,177.111 303.369 C 177.111 303.547,178.526 303.090,179.925 302.461 C 180.338 302.275,181.435 301.871,182.364 301.563 C 183.293 301.255,186.754 300.048,190.056 298.881 C 199.306 295.613,200.535 295.185,206.567 293.135 C 209.662 292.083,213.377 290.782,214.822 290.245 C 216.266 289.707,218.546 288.930,219.887 288.519 C 221.229 288.107,222.664 287.606,223.077 287.406 C 223.490 287.206,225.695 286.410,227.977 285.636 L 232.126 284.230 230.791 283.599 C 230.057 283.251,227.796 282.702,225.767 282.378 C 219.116 281.318,209.134 277.799,201.876 273.958 C 199.402 272.649,195.171 270.349,194.559 269.981 C 191.381 268.068,185.031 264.019,182.552 262.323 C 180.901 261.194,178.874 259.816,178.049 259.261 C 177.223 258.705,173.762 256.980,170.356 255.427 C 166.951 253.874,162.308 251.725,160.038 250.653 C 157.767 249.580,154.475 248.025,152.720 247.197 C 150.966 246.368,148.433 245.190,147.092 244.578 C 145.750 243.966,143.640 242.988,142.402 242.404 C 141.163 241.820,139.137 240.882,137.899 240.318 C 136.660 239.755,133.705 238.369,131.332 237.239 C 128.959 236.109,126.004 234.716,124.765 234.145 C 123.527 233.574,120.826 232.308,118.762 231.332 C 116.698 230.356,111.970 228.161,108.255 226.455 C 104.540 224.748,99.812 222.554,97.749 221.579 C 93.062 219.364,83.535 214.915,80.300 213.429 C 78.959 212.813,77.568 212.157,77.210 211.971 C 76.851 211.785,76.429 211.634,76.272 211.637 C 76.114 211.639,73.302 219.702,70.024 229.554 M316.155 212.852 C 316.076 213.110,315.744 214.152,315.418 215.167 C 315.091 216.182,314.890 217.079,314.971 217.160 C 315.113 217.302,316.042 214.937,316.515 213.227 C 316.754 212.361,316.415 212.006,316.155 212.852 M293.433 217.169 C 293.433 217.375,293.687 217.754,293.996 218.011 C 294.310 218.272,294.559 218.312,294.559 218.103 C 294.559 217.897,294.306 217.518,293.996 217.261 C 293.682 217.000,293.433 216.960,293.433 217.169 M313.772 219.333 C 313.323 220.257,313.034 221.013,313.130 221.013 C 313.385 221.013,314.901 217.965,314.731 217.796 C 314.652 217.717,314.221 218.409,313.772 219.333 M297.079 220.653 C 297.949 221.553,298.735 222.214,298.826 222.120 C 298.916 222.027,298.204 221.291,297.244 220.484 L 295.497 219.017 297.079 220.653 M311.054 223.147 C 310.072 224.179,309.757 224.671,310.293 224.338 C 311.121 223.823,313.260 221.388,312.884 221.388 C 312.798 221.388,311.974 222.180,311.054 223.147 M300.000 223.116 C 301.353 224.159,302.279 224.453,301.126 223.474 C 300.507 222.948,299.831 222.522,299.625 222.528 C 299.418 222.533,299.587 222.798,300.000 223.116 M303.873 225.306 C 304.219 225.500,305.263 225.659,306.191 225.659 C 307.120 225.659,308.163 225.500,308.510 225.306 C 308.946 225.062,308.230 224.953,306.191 224.953 C 304.152 224.953,303.437 225.062,303.873 225.306 M62.895 250.512 C 62.563 251.487,62.356 252.350,62.435 252.429 C 62.515 252.509,62.852 251.776,63.184 250.801 C 63.516 249.826,63.723 248.964,63.643 248.884 C 63.564 248.805,63.227 249.537,62.895 250.512 M61.019 255.766 C 60.687 256.741,60.495 257.618,60.593 257.716 C 60.690 257.814,60.844 257.658,60.934 257.371 C 61.024 257.083,61.282 256.272,61.507 255.568 C 62.141 253.587,61.700 253.766,61.019 255.766 M59.153 261.217 C 58.833 262.307,58.637 263.265,58.716 263.344 C 58.796 263.424,59.125 262.599,59.448 261.512 C 59.771 260.424,59.967 259.467,59.885 259.384 C 59.802 259.302,59.473 260.126,59.153 261.217 M249.243 260.788 C 249.243 261.510,249.320 261.806,249.414 261.445 C 249.509 261.083,249.509 260.492,249.414 260.131 C 249.320 259.770,249.243 260.066,249.243 260.788 M249.603 265.103 C 249.559 266.754,249.443 268.780,249.345 269.606 L 249.167 271.107 249.550 269.606 C 249.761 268.780,249.877 266.754,249.809 265.103 L 249.684 262.101 249.603 265.103 M57.111 267.054 C 56.555 268.864,56.824 269.132,57.411 267.355 C 57.658 266.605,57.788 265.918,57.699 265.829 C 57.610 265.740,57.345 266.291,57.111 267.054 M55.331 272.115 C 54.343 275.119,54.297 275.320,54.773 274.581 C 55.271 273.807,56.317 270.451,56.122 270.256 C 56.047 270.181,55.691 271.018,55.331 272.115 M53.127 278.455 C 52.783 279.315,52.572 280.089,52.658 280.175 C 52.744 280.261,53.096 279.628,53.440 278.768 C 53.784 277.908,53.995 277.134,53.909 277.048 C 53.823 276.962,53.471 277.595,53.127 278.455 M51.673 282.458 C 50.787 285.407,49.241 290.060,47.465 295.122 C 46.306 298.424,44.955 302.308,44.462 303.752 C 43.968 305.197,43.146 307.561,42.634 309.006 C 42.122 310.450,41.009 313.659,40.162 316.135 C 39.314 318.612,38.393 321.144,38.114 321.764 C 37.835 322.383,37.497 323.311,37.362 323.827 L 37.117 324.765 37.682 323.827 C 37.993 323.311,38.253 322.580,38.261 322.201 C 38.268 321.823,38.401 321.578,38.555 321.658 C 38.710 321.737,39.681 322.190,40.713 322.665 C 41.745 323.140,43.687 324.041,45.028 324.667 C 46.370 325.293,48.480 326.268,49.719 326.835 C 50.957 327.401,53.490 328.577,55.347 329.450 C 60.894 332.055,69.408 335.976,72.514 337.357 C 75.238 338.568,76.048 339.189,74.953 339.229 C 74.695 339.238,73.977 339.490,73.358 339.788 C 71.855 340.512,73.574 340.124,75.235 339.364 C 75.854 339.081,77.120 338.606,78.049 338.309 C 78.977 338.011,82.439 336.809,85.741 335.637 C 89.043 334.465,92.758 333.184,93.996 332.790 C 95.235 332.396,96.585 331.919,96.998 331.729 C 97.411 331.540,98.424 331.184,99.250 330.939 C 100.075 330.694,101.257 330.273,101.876 330.004 C 102.495 329.735,105.281 328.746,108.068 327.805 C 113.232 326.062,123.594 322.465,126.218 321.503 L 127.670 320.971 126.781 320.414 C 126.291 320.108,124.118 319.038,121.951 318.037 C 117.981 316.203,114.156 314.417,108.630 311.818 C 106.979 311.041,102.842 309.097,99.437 307.499 C 96.032 305.900,90.816 303.432,87.847 302.015 C 84.878 300.597,82.357 299.437,82.244 299.437 C 82.132 299.437,80.340 298.612,78.262 297.603 C 76.184 296.595,73.302 295.222,71.857 294.552 C 55.866 287.141,51.319 284.824,51.556 284.206 C 51.967 283.135,52.243 281.801,52.054 281.801 C 51.953 281.801,51.781 282.097,51.673 282.458 M234.763 283.163 C 233.761 283.471,233.008 283.789,233.088 283.870 C 233.266 284.047,237.148 282.939,237.148 282.711 C 237.148 282.475,236.774 282.546,234.763 283.163 M248.871 303.662 C 244.487 308.049,240.901 311.818,240.901 312.037 C 240.901 312.631,256.636 328.330,257.231 328.330 C 257.512 328.330,257.857 328.143,257.999 327.915 C 258.167 327.643,258.010 327.577,257.546 327.725 C 256.991 327.901,255.119 326.231,248.965 320.072 L 241.095 312.195 249.156 304.128 L 257.217 296.060 265.178 304.015 C 271.312 310.143,273.046 312.081,272.734 312.457 C 272.451 312.798,272.449 312.946,272.727 312.946 C 274.166 312.946,272.872 311.339,265.436 303.898 C 260.923 299.381,257.142 295.685,257.036 295.685 C 256.929 295.685,253.255 299.274,248.871 303.662 M173.053 304.572 C 172.163 304.886,171.502 305.210,171.583 305.291 C 171.754 305.462,175.235 304.320,175.235 304.092 C 175.235 303.857,174.808 303.951,173.053 304.572 M167.800 306.448 C 166.910 306.762,166.248 307.086,166.329 307.167 C 166.501 307.339,169.981 306.196,169.981 305.968 C 169.981 305.734,169.554 305.827,167.800 306.448 M162.547 308.324 C 161.657 308.639,160.995 308.963,161.076 309.044 C 161.247 309.215,164.728 308.072,164.728 307.845 C 164.728 307.610,164.301 307.703,162.547 308.324 M328.330 309.215 C 328.330 309.434,328.518 309.497,328.748 309.355 C 329.121 309.124,344.841 324.396,344.841 324.990 C 344.841 325.117,341.266 328.804,336.898 333.183 L 328.956 341.144 320.961 333.156 L 312.966 325.168 313.772 324.310 C 314.215 323.838,314.405 323.452,314.195 323.452 C 313.984 323.452,313.499 323.798,313.117 324.221 C 312.428 324.982,312.503 325.072,320.751 333.319 L 329.081 341.649 337.364 333.365 L 345.648 325.081 337.471 316.950 C 329.972 309.492,328.330 308.103,328.330 309.215 M157.294 310.200 C 156.404 310.515,155.738 310.835,155.814 310.911 C 156.048 311.145,158.683 310.313,158.920 309.930 C 159.043 309.731,159.092 309.582,159.028 309.598 C 158.964 309.614,158.184 309.885,157.294 310.200 M326.788 310.788 C 326.347 311.628,326.349 311.628,327.150 310.917 C 328.044 310.123,328.126 309.944,327.593 309.944 C 327.394 309.944,327.032 310.324,326.788 310.788 M152.040 312.076 C 151.150 312.391,150.488 312.715,150.570 312.796 C 150.741 312.967,154.221 311.824,154.221 311.597 C 154.221 311.362,153.794 311.456,152.040 312.076 M324.946 312.392 C 324.220 313.265,324.738 313.430,325.514 312.573 C 325.889 312.159,326.021 311.820,325.808 311.820 C 325.595 311.820,325.207 312.077,324.946 312.392 M145.661 314.328 C 144.771 314.642,144.109 314.966,144.191 315.047 C 144.362 315.219,147.842 314.076,147.842 313.848 C 147.842 313.613,147.415 313.707,145.661 314.328 M323.069 314.268 C 322.344 315.142,322.862 315.306,323.638 314.449 C 324.012 314.035,324.145 313.696,323.931 313.696 C 323.718 313.696,323.330 313.953,323.069 314.268 M140.408 316.204 C 139.518 316.519,138.856 316.842,138.937 316.924 C 139.109 317.095,142.589 315.952,142.589 315.725 C 142.589 315.490,142.162 315.583,140.408 316.204 M321.193 316.144 C 320.468 317.018,320.986 317.182,321.762 316.325 C 322.136 315.911,322.268 315.572,322.055 315.572 C 321.842 315.572,321.454 315.830,321.193 316.144 M135.397 317.957 C 134.640 318.193,133.893 318.514,133.738 318.669 C 133.583 318.825,134.261 318.710,135.245 318.413 C 136.229 318.117,137.130 317.779,137.248 317.662 C 137.542 317.368,137.014 317.452,135.397 317.957 M319.491 317.981 C 319.090 318.273,318.862 318.612,318.984 318.733 C 319.105 318.855,319.511 318.615,319.885 318.201 C 320.683 317.320,320.519 317.229,319.491 317.981 M130.085 319.869 C 128.455 320.451,127.651 321.066,129.081 320.638 C 130.474 320.221,132.326 319.388,131.895 319.372 C 131.689 319.364,130.874 319.588,130.085 319.869 M317.913 319.575 C 317.653 319.679,317.250 320.130,317.018 320.577 C 316.623 321.336,316.659 321.330,317.585 320.479 C 318.129 319.978,318.574 319.514,318.574 319.447 C 318.574 319.310,318.568 319.311,317.913 319.575 M315.189 322.148 C 314.464 323.022,314.982 323.186,315.758 322.329 C 316.132 321.915,316.265 321.576,316.052 321.576 C 315.838 321.576,315.451 321.833,315.189 322.148 M35.878 327.811 C 35.546 328.786,35.339 329.648,35.419 329.727 C 35.498 329.807,35.835 329.074,36.167 328.099 C 36.499 327.124,36.706 326.262,36.626 326.182 C 36.547 326.103,36.210 326.836,35.878 327.811 M34.522 331.744 C 34.522 331.833,34.187 332.821,33.778 333.940 C 33.369 335.059,33.116 336.055,33.215 336.155 C 33.315 336.254,33.396 336.262,33.396 336.174 C 33.396 336.085,33.730 335.097,34.139 333.978 C 34.548 332.859,34.802 331.862,34.702 331.763 C 34.603 331.664,34.522 331.655,34.522 331.744 M31.932 339.062 C 31.423 340.908,31.686 341.171,32.270 339.400 C 32.518 338.650,32.631 337.947,32.523 337.838 C 32.414 337.730,32.148 338.280,31.932 339.062 M68.856 341.289 C 68.236 341.573,67.983 341.805,68.293 341.805 C 68.602 341.805,69.362 341.573,69.981 341.289 C 70.600 341.006,70.854 340.774,70.544 340.774 C 70.235 340.774,69.475 341.006,68.856 341.289 M63.110 343.221 C 62.220 343.535,61.558 343.859,61.639 343.940 C 61.720 344.021,62.701 343.763,63.820 343.366 C 64.938 342.969,65.600 342.645,65.291 342.646 C 64.981 342.647,64.000 342.906,63.110 343.221 M29.912 344.921 C 29.570 345.989,29.353 346.926,29.429 347.002 C 29.505 347.078,29.855 346.274,30.206 345.216 C 30.558 344.157,30.775 343.221,30.689 343.135 C 30.603 343.049,30.253 343.852,29.912 344.921 M57.856 345.097 C 56.966 345.412,56.305 345.736,56.386 345.817 C 56.557 345.988,60.038 344.845,60.038 344.618 C 60.038 344.383,59.611 344.476,57.856 345.097 M51.876 347.104 C 51.412 347.290,51.032 347.521,51.032 347.616 C 51.032 347.824,53.299 347.202,53.584 346.916 C 53.893 346.607,52.816 346.726,51.876 347.104 M47.146 348.830 C 46.144 349.137,45.394 349.459,45.479 349.544 C 45.700 349.765,48.525 348.963,48.949 348.558 C 49.386 348.141,49.390 348.140,47.146 348.830 M28.027 350.354 C 27.674 351.307,27.453 352.156,27.536 352.239 C 27.620 352.323,27.983 351.617,28.345 350.671 C 28.706 349.725,28.927 348.877,28.836 348.786 C 28.744 348.694,28.381 349.400,28.027 350.354 M41.721 350.725 C 40.831 351.040,40.170 351.364,40.251 351.445 C 40.422 351.616,43.902 350.474,43.902 350.246 C 43.902 350.011,43.475 350.105,41.721 350.725 M36.102 352.699 C 35.011 353.070,33.997 353.508,33.851 353.670 C 33.704 353.833,33.837 353.879,34.146 353.773 C 34.456 353.667,35.596 353.289,36.679 352.933 C 37.763 352.576,38.649 352.214,38.649 352.127 C 38.649 351.880,38.227 351.975,36.102 352.699 M29.831 354.978 C 28.992 355.390,28.744 355.614,29.268 355.485 C 30.712 355.130,32.526 354.285,31.895 354.262 C 31.585 354.250,30.657 354.573,29.831 354.978 M26.161 355.456 C 26.031 355.796,26.097 356.180,26.308 356.311 C 26.850 356.646,26.965 356.401,26.660 355.562 C 26.429 354.927,26.369 354.914,26.161 355.456 " stroke="none" fill="#fbdb7c" fill-rule="evenodd" data-index="4"></path></g></svg>