<svg id="svg" version="1.1" xmlns="http://www.w3.org/2000/svg" xmlns:xlink="http://www.w3.org/1999/xlink" width="400" height="400" viewBox="0, 0, 400,400"><g id="svgg"><path id="path0" d="M198.455 38.063 C 194.882 39.840,192.938 44.240,194.169 47.766 C 196.944 55.714,207.120 55.922,210.141 48.092 C 212.725 41.396,205.031 34.794,198.455 38.063 M140.547 52.276 C 136.538 53.062,133.704 59.373,135.552 63.400 C 139.645 72.323,152.441 68.894,151.502 59.125 C 151.022 54.124,146.271 51.154,140.547 52.276 M258.160 52.408 C 255.369 53.272,252.800 56.906,252.800 59.989 C 252.800 68.883,264.289 71.851,268.533 64.053 C 272.151 57.405,265.638 50.094,258.160 52.408 M198.960 64.359 C 198.102 64.997,192.631 70.307,186.803 76.159 C 176.230 86.775,175.391 87.438,174.031 86.247 C 173.684 85.942,168.900 82.930,163.400 79.552 L 153.400 73.411 150.856 73.406 C 146.303 73.396,145.080 75.792,146.169 82.597 C 146.929 87.353,147.611 91.792,148.595 98.400 C 148.939 100.710,149.387 103.590,149.591 104.800 C 150.366 109.401,151.923 119.262,153.000 126.400 C 153.771 131.509,154.704 137.435,155.203 140.400 C 155.407 141.610,155.860 144.490,156.210 146.800 C 157.868 157.739,157.973 158.086,160.100 159.626 L 161.720 160.800 202.200 160.800 L 242.680 160.800 244.327 159.607 C 246.189 158.258,246.901 156.425,247.594 151.200 C 247.813 149.550,248.264 146.490,248.596 144.400 C 248.928 142.310,249.470 138.890,249.800 136.800 C 250.130 134.710,250.680 131.290,251.022 129.200 C 251.363 127.110,251.796 124.230,251.983 122.800 C 252.169 121.370,252.793 117.320,253.369 113.800 C 254.331 107.915,254.929 104.123,255.988 97.200 C 257.247 88.969,257.740 85.878,258.241 83.056 C 259.500 75.970,257.875 72.950,253.000 73.317 C 250.939 73.472,248.214 75.003,234.083 83.943 C 231.599 85.514,229.258 86.800,228.880 86.800 C 228.503 86.800,223.426 82.012,217.597 76.159 C 205.381 63.893,204.558 63.200,202.200 63.200 C 200.972 63.200,200.100 63.512,198.960 64.359 M154.000 176.400 C 153.205 177.195,153.200 177.733,153.200 255.618 L 153.200 334.036 154.182 335.018 L 155.164 336.000 202.351 336.000 L 249.539 336.000 250.769 334.964 L 252.000 333.929 252.000 255.634 L 252.000 177.339 251.074 176.470 L 250.148 175.600 202.474 175.600 C 155.333 175.600,154.791 175.609,154.000 176.400 M207.184 215.405 C 208.166 216.067,209.516 217.388,210.184 218.339 L 211.400 220.068 211.514 240.262 L 211.628 260.456 210.717 262.279 C 207.774 268.174,200.271 269.373,195.930 264.643 C 193.323 261.802,193.247 261.286,193.222 246.194 L 193.200 232.588 191.100 231.849 C 184.589 229.557,182.455 221.572,187.110 216.917 C 189.772 214.255,190.933 213.969,198.600 214.092 L 205.400 214.200 207.184 215.405 " stroke="none" fill="#f66c59" fill-rule="evenodd"></path><path id="path1" d="M69.467 215.067 C 69.036 215.497,69.160 335.317,69.591 336.000 C 70.116 336.830,131.403 337.129,132.513 336.307 C 133.114 335.862,133.497 268.837,133.204 215.500 C 133.200 214.780,70.182 214.352,69.467 215.067 M271.900 233.475 C 270.875 233.744,270.804 335.947,271.829 336.971 C 272.788 337.931,334.014 337.929,334.973 336.970 C 335.541 336.402,335.593 331.266,335.502 284.870 L 335.400 233.400 304.000 233.345 C 286.730 233.315,272.285 233.373,271.900 233.475 " stroke="none" fill="#74c7bc" fill-rule="evenodd"></path><path id="path2" d="M199.933 21.184 C 199.860 21.395,198.317 21.599,196.505 21.637 C 194.276 21.683,193.064 21.882,192.756 22.253 C 192.506 22.554,191.694 22.800,190.951 22.800 C 190.017 22.800,189.600 22.985,189.600 23.400 C 189.600 23.730,189.251 24.000,188.824 24.000 C 188.397 24.000,187.919 24.208,187.762 24.462 C 187.573 24.767,187.654 24.814,188.000 24.600 C 188.346 24.386,188.427 24.433,188.238 24.738 C 188.081 24.992,187.598 25.200,187.164 25.200 C 186.730 25.200,186.272 25.469,186.146 25.798 C 186.019 26.126,185.755 26.296,185.558 26.174 C 185.361 26.052,185.200 26.233,185.200 26.576 C 185.200 26.919,184.930 27.200,184.600 27.200 C 184.270 27.200,184.000 27.470,184.000 27.800 C 184.000 28.130,183.730 28.400,183.400 28.400 C 183.070 28.400,182.800 28.670,182.800 29.000 C 182.800 29.330,182.530 29.600,182.200 29.600 C 181.870 29.600,181.600 29.793,181.600 30.029 C 181.600 30.264,181.328 30.729,180.996 31.061 C 180.664 31.393,180.496 31.831,180.622 32.035 C 180.748 32.239,180.569 32.514,180.225 32.646 C 179.858 32.787,179.600 33.362,179.600 34.043 C 179.600 34.805,179.395 35.200,179.000 35.200 C 178.579 35.200,178.400 35.625,178.400 36.629 C 178.400 37.414,178.130 38.327,177.800 38.657 C 177.412 39.045,177.200 40.035,177.200 41.457 C 177.200 42.879,176.988 43.869,176.600 44.257 C 175.836 45.021,175.833 46.383,176.591 47.466 C 176.916 47.930,177.215 49.247,177.256 50.392 C 177.302 51.706,177.527 52.551,177.865 52.680 C 178.211 52.813,178.400 53.579,178.400 54.855 C 178.400 56.237,178.579 56.894,179.000 57.055 C 179.342 57.187,179.600 57.783,179.600 58.443 C 179.600 59.205,179.395 59.600,179.000 59.600 C 178.670 59.600,178.400 59.793,178.400 60.029 C 178.400 60.478,177.421 61.600,177.029 61.600 C 176.748 61.600,175.200 63.123,175.200 63.400 C 175.200 63.510,174.840 63.960,174.400 64.400 C 173.450 65.350,171.600 65.483,171.600 64.600 C 171.600 64.234,171.227 64.000,170.643 64.000 C 169.435 64.000,169.041 63.114,169.163 60.677 C 169.217 59.620,169.083 58.540,168.867 58.277 C 168.650 58.015,168.428 56.990,168.374 56.000 C 168.320 55.010,168.028 53.793,167.725 53.295 C 167.423 52.798,167.152 51.772,167.124 51.017 C 167.095 50.261,166.876 49.678,166.636 49.721 C 166.396 49.765,166.142 49.294,166.071 48.676 C 166.000 48.058,165.685 47.454,165.371 47.334 C 165.057 47.213,164.800 46.853,164.800 46.534 C 164.800 46.214,164.645 46.049,164.456 46.166 C 164.266 46.283,163.780 45.573,163.374 44.589 C 162.968 43.605,162.403 42.800,162.118 42.800 C 161.833 42.800,161.600 42.519,161.600 42.176 C 161.600 41.833,161.454 41.643,161.276 41.753 C 161.098 41.863,160.515 41.424,159.981 40.777 C 159.446 40.129,158.711 39.600,158.347 39.600 C 157.983 39.600,157.582 39.330,157.455 39.000 C 157.329 38.670,156.949 38.400,156.613 38.400 C 156.276 38.400,156.000 38.130,156.000 37.800 C 156.000 37.385,155.583 37.200,154.649 37.200 C 153.906 37.200,153.087 36.946,152.830 36.636 C 152.572 36.326,151.425 35.970,150.281 35.845 C 144.700 35.237,143.815 35.072,143.283 34.540 C 142.786 34.043,142.586 34.048,141.769 34.584 C 141.252 34.923,140.138 35.200,139.294 35.200 C 138.450 35.200,137.518 35.425,137.221 35.700 C 136.784 36.106,136.742 36.088,137.000 35.600 C 137.258 35.112,137.216 35.094,136.779 35.500 C 136.482 35.775,135.758 36.000,135.169 36.000 C 134.580 36.000,133.874 36.270,133.600 36.600 C 133.326 36.930,132.573 37.200,131.927 37.200 C 131.197 37.200,130.853 37.361,131.017 37.627 C 131.162 37.862,130.903 38.153,130.440 38.274 C 129.978 38.394,129.600 38.742,129.600 39.047 C 129.600 39.351,129.330 39.623,129.000 39.650 C 128.670 39.678,128.222 39.723,128.005 39.750 C 127.470 39.818,125.200 41.716,125.200 42.096 C 125.200 42.541,123.668 44.000,123.200 44.000 C 122.980 44.000,122.800 44.270,122.800 44.600 C 122.800 44.930,122.574 45.200,122.298 45.200 C 121.778 45.200,120.727 47.193,120.504 48.600 C 120.434 49.040,120.202 49.460,119.988 49.533 C 119.775 49.607,119.600 50.558,119.600 51.647 C 119.600 52.737,119.345 54.027,119.034 54.514 C 118.221 55.786,118.223 65.557,119.036 65.869 C 119.440 66.024,119.600 66.811,119.600 68.643 C 119.600 70.081,119.775 71.200,120.000 71.200 C 120.220 71.200,120.400 71.627,120.400 72.150 C 120.400 72.673,121.015 73.770,121.770 74.595 C 122.618 75.521,123.049 76.329,122.901 76.715 C 122.724 77.175,122.837 77.271,123.331 77.082 C 123.730 76.929,124.003 77.022,124.007 77.313 C 124.011 77.581,124.461 78.224,125.007 78.742 C 125.553 79.260,126.000 79.845,126.000 80.042 C 126.000 80.239,126.171 80.400,126.379 80.400 C 126.588 80.400,127.244 80.850,127.838 81.400 C 128.431 81.950,128.766 82.400,128.582 82.400 C 128.398 82.400,128.546 82.625,128.912 82.900 C 129.442 83.298,129.590 84.172,129.637 87.200 C 129.670 89.290,129.878 91.115,130.100 91.255 C 130.322 91.396,130.477 92.779,130.445 94.328 C 130.413 95.898,130.570 97.258,130.800 97.400 C 131.027 97.540,131.109 97.823,130.983 98.028 C 130.856 98.232,130.943 98.400,131.176 98.400 C 131.436 98.400,131.600 99.546,131.600 101.367 C 131.600 104.406,131.856 105.736,132.379 105.413 C 132.542 105.312,132.712 106.388,132.758 107.804 C 132.861 110.965,133.060 112.066,133.589 112.393 C 133.813 112.532,134.014 114.311,134.036 116.350 C 134.066 119.135,134.215 120.108,134.638 120.270 C 135.058 120.431,135.200 121.324,135.200 123.809 C 135.200 125.638,135.370 127.193,135.578 127.267 C 135.787 127.340,135.994 128.840,136.039 130.600 C 136.093 132.700,136.303 133.938,136.650 134.200 C 136.990 134.457,137.202 135.634,137.245 137.500 C 137.295 139.645,137.454 140.400,137.856 140.400 C 138.262 140.400,138.400 141.102,138.400 143.171 C 138.400 145.102,138.582 146.125,139.000 146.543 C 139.461 147.004,139.600 148.168,139.600 151.571 C 139.600 154.257,139.757 156.000,140.000 156.000 C 140.220 156.000,140.406 156.765,140.413 157.700 C 140.420 158.635,140.690 159.749,141.013 160.176 C 141.342 160.612,141.600 161.807,141.600 162.900 C 141.600 164.000,141.762 164.747,141.972 164.617 C 142.177 164.491,142.458 164.570,142.596 164.793 C 142.734 165.017,142.556 165.200,142.200 165.200 C 141.844 165.200,141.660 165.373,141.791 165.585 C 141.922 165.797,141.663 166.337,141.215 166.785 C 140.767 167.233,140.400 167.780,140.400 168.000 C 140.400 168.220,140.220 168.400,140.000 168.400 C 139.780 168.400,139.600 168.670,139.600 169.000 C 139.600 169.330,139.330 169.600,139.000 169.600 C 138.539 169.600,138.400 170.111,138.400 171.800 C 138.400 173.489,138.261 174.000,137.800 174.000 C 137.279 174.000,137.200 175.689,137.200 186.800 L 137.200 199.600 135.849 199.600 C 135.106 199.600,134.277 199.334,134.008 199.009 C 133.269 198.120,69.006 198.103,68.508 198.992 C 68.295 199.374,67.449 199.605,66.090 199.653 C 64.940 199.694,64.000 199.878,64.000 200.063 C 64.000 200.249,63.647 200.400,63.216 200.400 C 62.101 200.400,59.622 201.706,59.610 202.300 C 59.604 202.575,59.330 202.800,59.000 202.800 C 58.670 202.800,58.400 202.980,58.400 203.200 C 58.400 203.719,56.919 205.200,56.400 205.200 C 56.180 205.200,56.000 205.470,56.000 205.800 C 56.000 206.130,55.820 206.400,55.600 206.400 C 55.380 206.400,55.200 206.850,55.200 207.400 C 55.200 207.970,54.969 208.400,54.663 208.400 C 54.293 208.400,54.104 209.045,54.053 210.490 C 54.005 211.845,53.773 212.695,53.394 212.907 C 52.494 213.411,52.497 339.251,53.398 339.998 C 53.784 340.319,54.000 341.201,54.000 342.462 C 54.000 343.838,54.179 344.494,54.600 344.655 C 54.930 344.782,55.200 345.136,55.200 345.443 C 55.200 345.749,55.360 346.000,55.557 346.000 C 55.753 346.000,56.016 346.410,56.142 346.912 C 56.454 348.155,58.517 350.400,59.348 350.400 C 59.721 350.400,60.129 350.670,60.255 351.000 C 60.382 351.330,60.717 351.600,61.000 351.600 C 61.283 351.600,61.603 351.832,61.712 352.115 C 61.821 352.399,62.596 352.677,63.436 352.733 C 64.275 352.790,65.230 353.053,65.557 353.318 C 66.044 353.711,66.097 353.689,65.847 353.200 C 65.670 352.853,65.783 352.895,66.114 353.300 C 66.932 354.298,135.948 354.395,136.943 353.400 C 137.273 353.070,138.187 352.800,138.975 352.800 C 139.900 352.800,140.644 352.524,141.075 352.020 C 141.442 351.592,141.892 351.333,142.074 351.446 C 142.256 351.559,142.514 351.369,142.646 351.025 C 142.778 350.681,143.059 350.400,143.271 350.400 C 143.756 350.400,144.599 349.571,144.904 348.793 C 145.071 348.369,145.146 348.351,145.168 348.729 C 145.220 349.587,146.270 350.400,147.329 350.400 C 147.871 350.400,148.418 350.670,148.545 351.000 C 148.706 351.421,149.362 351.600,150.738 351.600 C 151.996 351.600,152.881 351.816,153.200 352.200 C 153.956 353.111,251.395 353.111,251.745 352.200 C 251.906 351.778,252.564 351.600,253.959 351.600 C 255.189 351.600,256.171 351.372,256.543 351.000 C 256.873 350.670,257.505 350.400,257.948 350.400 C 258.391 350.400,258.864 350.220,259.000 350.000 C 259.424 349.314,260.552 349.560,261.762 350.600 C 262.401 351.150,263.166 351.600,263.462 351.600 C 263.758 351.600,264.000 351.833,264.000 352.118 C 264.000 352.430,264.581 352.676,265.456 352.735 C 266.256 352.788,267.289 353.097,267.750 353.420 C 269.022 354.311,338.206 354.283,338.548 353.392 C 338.706 352.980,339.375 352.800,340.745 352.800 C 342.127 352.800,342.783 352.621,342.945 352.200 C 343.071 351.870,343.541 351.600,343.987 351.600 C 344.443 351.600,344.800 351.336,344.800 351.000 C 344.800 350.670,345.070 350.400,345.400 350.400 C 345.730 350.400,346.000 350.130,346.000 349.800 C 346.000 349.470,346.147 349.245,346.326 349.300 C 346.885 349.472,349.146 346.955,349.423 345.851 C 349.568 345.273,349.847 344.800,350.043 344.800 C 350.240 344.800,350.400 344.099,350.400 343.243 C 350.400 342.228,350.609 341.605,351.000 341.455 C 351.999 341.072,351.900 231.816,350.900 230.638 C 350.232 229.851,350.232 229.839,350.909 230.363 C 351.529 230.844,351.586 230.830,351.366 230.257 C 351.228 229.895,350.954 229.600,350.757 229.600 C 350.561 229.600,350.400 229.068,350.400 228.419 C 350.400 226.927,349.629 225.200,348.962 225.200 C 348.682 225.200,348.396 224.705,348.327 224.100 C 348.255 223.481,347.981 223.044,347.700 223.100 C 347.248 223.190,347.026 222.703,347.153 221.900 C 347.179 221.735,346.930 221.600,346.600 221.600 C 346.270 221.600,346.000 221.409,346.000 221.176 C 346.000 220.943,345.847 220.847,345.661 220.963 C 345.474 221.078,344.941 220.819,344.477 220.386 C 344.013 219.954,343.465 219.600,343.260 219.600 C 343.054 219.600,342.782 219.330,342.655 219.000 C 342.490 218.569,341.815 218.400,340.255 218.400 C 338.710 218.400,338.020 218.230,337.859 217.809 C 337.502 216.878,269.964 216.893,269.033 217.824 C 268.456 218.401,268.400 216.603,268.400 197.416 C 268.400 179.082,268.323 176.345,267.800 176.145 C 267.372 175.980,267.200 175.311,267.200 173.806 C 267.200 172.420,266.994 171.527,266.600 171.200 C 266.270 170.926,266.000 170.268,266.000 169.738 C 266.000 169.209,265.730 168.671,265.400 168.545 C 265.070 168.418,264.800 168.140,264.800 167.926 C 264.800 167.386,262.561 165.200,262.007 165.200 C 261.757 165.200,261.666 165.017,261.804 164.793 C 261.942 164.570,262.223 164.491,262.428 164.617 C 262.632 164.744,262.806 164.162,262.813 163.324 C 262.820 162.486,263.090 161.451,263.413 161.024 C 263.794 160.519,264.000 159.302,264.000 157.547 C 264.000 156.062,264.180 154.736,264.400 154.600 C 264.620 154.464,264.800 152.743,264.800 150.776 C 264.800 147.864,264.911 147.200,265.400 147.200 C 265.879 147.200,266.000 146.605,266.000 144.249 C 266.000 142.237,266.175 141.153,266.549 140.843 C 266.899 140.552,267.118 139.435,267.154 137.746 C 267.215 134.962,267.416 134.239,268.028 134.617 C 268.247 134.753,268.400 133.291,268.400 131.047 C 268.400 128.957,268.569 127.143,268.775 127.016 C 268.981 126.888,269.171 126.473,269.198 126.092 C 269.224 125.711,269.340 124.005,269.455 122.300 C 269.569 120.595,269.829 119.200,270.032 119.200 C 270.234 119.200,270.400 117.844,270.400 116.187 C 270.400 113.879,270.540 113.121,271.000 112.945 C 271.467 112.765,271.600 111.972,271.600 109.357 C 271.600 106.640,271.714 106.000,272.200 106.000 C 272.683 106.000,272.800 105.383,272.800 102.846 C 272.800 100.869,273.017 99.274,273.381 98.572 C 273.729 97.902,273.958 96.339,273.953 94.675 C 273.948 93.146,274.136 91.704,274.372 91.468 C 274.610 91.230,274.800 89.500,274.800 87.563 C 274.800 84.841,274.930 84.036,275.400 83.855 C 275.796 83.703,276.000 83.077,276.000 82.013 C 276.000 80.676,276.135 80.400,276.786 80.400 C 277.599 80.400,280.277 78.067,280.100 77.513 C 280.045 77.341,280.360 77.200,280.800 77.200 C 281.240 77.200,281.555 77.036,281.500 76.835 C 281.379 76.394,282.338 74.910,283.300 74.049 C 283.685 73.704,284.000 73.012,284.000 72.511 C 284.000 72.010,284.180 71.600,284.400 71.600 C 284.620 71.600,284.800 70.899,284.800 70.043 C 284.800 69.028,285.009 68.405,285.400 68.255 C 285.825 68.092,286.000 67.429,286.000 65.984 C 286.000 64.703,286.223 63.719,286.600 63.343 C 287.009 62.933,287.200 61.922,287.200 60.159 C 287.200 58.231,287.048 57.516,286.600 57.345 C 286.169 57.179,286.000 56.504,286.000 54.945 C 286.000 53.385,285.831 52.710,285.400 52.545 C 285.017 52.397,284.800 51.781,284.800 50.837 C 284.800 49.109,284.015 47.208,283.300 47.203 C 283.025 47.201,282.800 46.834,282.800 46.387 C 282.800 45.941,282.530 45.471,282.200 45.345 C 281.870 45.218,281.600 44.864,281.600 44.557 C 281.600 44.251,281.330 44.000,281.000 44.000 C 280.670 44.000,280.400 43.811,280.400 43.580 C 280.400 42.968,277.811 40.400,277.193 40.400 C 276.903 40.400,276.782 40.285,276.923 40.144 C 277.064 40.003,276.509 39.531,275.689 39.094 C 274.870 38.657,274.080 38.111,273.933 37.879 C 273.786 37.648,273.274 37.400,272.796 37.327 C 272.318 37.254,271.543 36.925,271.074 36.597 C 270.605 36.269,269.463 36.000,268.535 36.000 C 267.607 36.000,266.736 35.820,266.600 35.600 C 266.456 35.367,264.204 35.200,261.200 35.200 C 258.196 35.200,255.944 35.367,255.800 35.600 C 255.664 35.820,254.788 36.000,253.853 36.000 C 252.918 36.000,251.804 36.264,251.376 36.587 C 250.949 36.910,250.189 37.180,249.687 37.187 C 249.186 37.194,248.671 37.470,248.545 37.800 C 248.418 38.130,248.064 38.400,247.757 38.400 C 247.451 38.400,247.200 38.670,247.200 39.000 C 247.200 39.330,246.858 39.600,246.440 39.600 C 245.456 39.600,240.727 44.212,239.980 45.900 C 239.664 46.615,239.190 47.200,238.928 47.200 C 238.665 47.200,238.394 47.785,238.325 48.500 C 238.250 49.278,237.999 49.760,237.700 49.700 C 237.365 49.633,237.200 50.139,237.200 51.229 C 237.200 52.143,236.937 53.120,236.600 53.457 C 236.140 53.917,236.000 55.076,236.000 58.429 C 236.000 61.076,235.842 62.800,235.600 62.800 C 235.380 62.800,235.200 63.070,235.200 63.400 C 235.200 63.797,234.803 64.000,234.029 64.000 C 233.384 64.000,232.587 64.270,232.257 64.600 C 231.359 65.498,230.499 65.328,229.725 64.100 C 228.942 62.857,226.825 60.800,226.328 60.800 C 226.148 60.800,226.000 60.530,226.000 60.200 C 226.000 59.870,225.751 59.600,225.447 59.600 C 224.522 59.600,224.374 58.015,225.230 57.282 C 225.786 56.805,226.000 56.103,226.000 54.754 C 226.000 53.462,226.185 52.815,226.600 52.655 C 227.040 52.487,227.200 51.793,227.200 50.062 C 227.200 48.449,227.391 47.540,227.800 47.200 C 228.130 46.926,228.400 46.206,228.400 45.600 C 228.400 44.994,228.130 44.274,227.800 44.000 C 227.391 43.660,227.200 42.751,227.200 41.138 C 227.200 39.407,227.040 38.713,226.600 38.545 C 226.169 38.379,226.000 37.706,226.000 36.157 C 226.000 34.506,225.859 34.000,225.400 34.000 C 225.042 34.000,224.800 33.632,224.800 33.089 C 224.800 32.288,222.814 29.600,222.223 29.600 C 221.928 29.600,220.400 28.065,220.400 27.769 C 220.400 27.358,218.074 25.200,217.631 25.200 C 217.394 25.200,217.200 24.930,217.200 24.600 C 217.200 24.270,216.930 23.978,216.600 23.950 C 215.447 23.854,215.264 23.797,214.933 23.436 C 214.736 23.220,214.829 23.205,215.162 23.398 C 215.540 23.617,215.630 23.572,215.438 23.262 C 215.281 23.008,214.555 22.800,213.825 22.800 C 213.095 22.800,212.294 22.554,212.044 22.253 C 211.737 21.883,210.522 21.682,208.297 21.635 C 206.486 21.596,204.833 21.393,204.622 21.182 C 204.124 20.684,200.107 20.685,199.933 21.184 M206.120 37.045 C 215.129 41.582,212.211 54.800,202.200 54.800 C 192.206 54.800,189.268 41.773,198.200 37.065 C 199.827 36.207,204.433 36.195,206.120 37.045 M146.800 51.634 C 153.805 54.809,154.769 63.545,148.600 67.937 C 144.599 70.785,140.275 70.327,136.616 66.669 C 129.560 59.612,137.745 47.528,146.800 51.634 M264.340 51.465 C 271.151 54.566,272.763 61.690,267.780 66.672 C 263.045 71.407,256.513 70.588,253.005 64.820 C 248.659 57.672,256.829 48.045,264.340 51.465 M204.716 62.766 C 205.532 63.187,211.200 68.497,217.310 74.566 C 223.421 80.635,228.716 85.600,229.077 85.600 C 229.723 85.600,232.722 83.844,239.000 79.790 C 240.760 78.653,242.830 77.381,243.600 76.962 C 244.370 76.543,245.090 76.092,245.200 75.960 C 246.105 74.875,251.994 72.000,253.312 72.000 C 257.619 72.000,260.471 75.908,259.679 80.726 C 259.438 82.197,258.965 85.200,258.628 87.400 C 258.292 89.600,257.747 93.110,257.417 95.200 C 257.086 97.290,256.530 100.980,256.181 103.400 C 255.831 105.820,255.393 108.430,255.208 109.200 C 255.022 109.970,254.655 112.130,254.393 114.000 C 253.395 121.104,251.464 133.609,250.193 141.200 C 249.843 143.290,249.403 146.170,249.215 147.600 C 247.918 157.474,247.386 158.966,244.478 160.884 C 242.824 161.974,161.586 161.988,159.961 160.897 C 157.657 159.352,156.647 157.636,156.252 154.600 C 155.985 152.546,155.270 147.763,154.204 140.899 C 153.871 138.755,153.423 135.773,153.207 134.274 C 152.992 132.775,152.726 131.403,152.616 131.226 C 152.506 131.048,152.239 129.485,152.023 127.751 C 151.807 126.018,151.349 122.800,151.005 120.600 C 150.662 118.400,150.120 114.890,149.802 112.800 C 149.484 110.710,148.944 107.290,148.601 105.200 C 148.259 103.110,147.803 100.147,147.590 98.617 C 147.376 97.086,147.104 95.527,146.985 95.153 C 146.866 94.779,146.601 93.152,146.394 91.537 C 145.993 88.398,144.945 81.447,144.548 79.294 C 143.925 75.914,147.461 72.000,151.139 72.000 C 152.605 72.000,161.158 76.761,169.000 81.943 C 169.880 82.524,171.275 83.356,172.100 83.791 C 172.925 84.226,173.600 84.707,173.600 84.859 C 173.600 85.012,174.160 85.259,174.845 85.410 C 176.048 85.674,176.461 85.312,187.207 74.571 C 200.428 61.358,201.104 60.902,204.716 62.766 M250.588 175.200 C 252.933 176.384,252.799 171.258,252.696 256.291 L 252.600 334.782 251.491 335.891 L 250.382 337.000 203.190 337.105 C 151.060 337.221,153.936 337.358,152.669 334.689 C 152.051 333.386,152.000 327.390,152.000 255.800 C 152.000 169.521,151.771 176.299,154.724 175.081 C 156.935 174.169,248.772 174.283,250.588 175.200 M133.511 214.623 L 134.400 215.245 134.400 275.946 C 134.400 327.739,134.317 336.761,133.832 337.424 C 132.942 338.642,69.858 338.642,68.968 337.424 C 68.061 336.183,68.121 215.537,69.029 214.629 C 69.981 213.676,132.152 213.671,133.511 214.623 M190.589 215.574 C 183.555 218.707,184.333 229.626,191.688 231.005 C 194.430 231.520,194.349 231.053,194.481 247.010 C 194.610 262.600,194.543 262.114,196.879 264.472 C 199.879 267.502,205.787 267.224,208.605 263.920 C 210.820 261.325,210.800 261.541,210.800 240.669 L 210.800 221.365 209.500 219.195 C 207.336 215.583,205.291 214.808,198.000 214.835 C 193.321 214.852,191.889 214.995,190.589 215.574 M335.823 233.386 L 336.809 234.373 336.704 285.822 L 336.600 337.271 335.647 338.042 C 334.427 339.030,272.106 339.067,271.120 338.080 C 270.586 337.546,270.080 236.223,270.601 234.083 C 270.987 232.495,271.862 232.451,303.718 232.425 L 334.836 232.400 335.823 233.386 " stroke="none" fill="#3c0404" fill-rule="evenodd"></path><path id="path3" d="M69.770 214.346 C 69.347 214.427,68.868 214.697,68.706 214.946 C 68.089 215.898,68.347 336.575,68.968 337.424 C 69.858 338.642,132.942 338.642,133.832 337.424 C 134.658 336.295,134.690 215.538,133.865 214.854 C 133.364 214.438,71.853 213.951,69.770 214.346 M133.204 215.500 C 133.497 268.837,133.114 335.862,132.513 336.307 C 131.403 337.129,70.116 336.830,69.591 336.000 C 69.160 335.317,69.036 215.497,69.467 215.067 C 70.182 214.352,133.200 214.780,133.204 215.500 M271.712 232.804 C 271.224 233.003,270.724 233.578,270.601 234.083 C 270.080 236.223,270.586 337.546,271.120 338.080 C 272.106 339.067,334.427 339.030,335.647 338.042 L 336.600 337.271 336.704 285.885 C 336.806 235.703,336.791 234.477,336.040 233.550 L 335.271 232.600 303.935 232.522 C 286.014 232.477,272.220 232.598,271.712 232.804 M335.502 284.870 C 335.593 331.266,335.541 336.402,334.973 336.970 C 334.014 337.929,272.788 337.931,271.829 336.971 C 270.804 335.947,270.875 233.744,271.900 233.475 C 272.285 233.373,286.730 233.315,304.000 233.345 L 335.400 233.400 335.502 284.870 " stroke="none" fill="#52674d" fill-rule="evenodd"></path><path id="path4" d="M198.200 37.065 C 189.268 41.773,192.206 54.800,202.200 54.800 C 212.211 54.800,215.129 41.582,206.120 37.045 C 204.433 36.195,199.827 36.207,198.200 37.065 M206.892 38.621 C 211.257 41.647,211.858 47.226,208.241 51.144 C 201.098 58.883,189.422 48.992,195.612 40.446 C 198.071 37.052,203.387 36.192,206.892 38.621 M139.800 51.584 C 133.455 54.578,131.899 61.951,136.616 66.669 C 141.129 71.182,147.597 70.625,151.138 65.419 C 156.162 58.031,147.790 47.814,139.800 51.584 M257.600 51.632 C 249.164 55.451,250.239 67.076,259.259 69.567 C 263.470 70.731,269.216 67.136,270.351 62.628 C 272.210 55.246,264.433 48.539,257.600 51.632 M147.237 52.931 C 154.781 56.913,151.762 68.626,143.206 68.573 C 137.276 68.536,133.147 62.279,135.554 56.978 C 136.359 55.207,139.188 52.542,140.547 52.276 C 143.025 51.791,145.544 52.037,147.237 52.931 M265.902 53.438 C 270.913 57.217,270.822 63.791,265.712 67.175 C 257.283 72.758,248.126 61.086,255.488 54.143 C 258.140 51.642,263.078 51.308,265.902 53.438 M199.663 62.746 C 198.927 63.138,193.322 68.460,187.207 74.571 C 176.461 85.312,176.048 85.674,174.845 85.410 C 174.160 85.259,173.600 85.012,173.600 84.859 C 173.600 84.707,172.925 84.226,172.100 83.791 C 171.275 83.356,169.880 82.524,169.000 81.943 C 161.158 76.761,152.605 72.000,151.139 72.000 C 147.461 72.000,143.925 75.914,144.548 79.294 C 144.945 81.447,145.993 88.398,146.394 91.537 C 146.601 93.152,146.866 94.779,146.985 95.153 C 147.104 95.527,147.376 97.086,147.590 98.617 C 147.803 100.147,148.259 103.110,148.601 105.200 C 148.944 107.290,149.484 110.710,149.802 112.800 C 150.120 114.890,150.662 118.400,151.005 120.600 C 151.349 122.800,151.807 126.018,152.023 127.751 C 152.239 129.485,152.506 131.048,152.616 131.226 C 152.726 131.403,152.992 132.775,153.207 134.274 C 153.423 135.773,153.871 138.755,154.204 140.899 C 155.270 147.763,155.985 152.546,156.252 154.600 C 156.647 157.636,157.657 159.352,159.961 160.897 C 161.586 161.988,242.824 161.974,244.478 160.884 C 247.386 158.966,247.918 157.474,249.215 147.600 C 249.403 146.170,249.843 143.290,250.193 141.200 C 251.464 133.609,253.395 121.104,254.393 114.000 C 254.655 112.130,255.022 109.970,255.208 109.200 C 255.393 108.430,255.831 105.820,256.181 103.400 C 256.530 100.980,257.086 97.290,257.417 95.200 C 257.747 93.110,258.292 89.600,258.628 87.400 C 258.965 85.200,259.438 82.197,259.679 80.726 C 260.471 75.908,257.619 72.000,253.312 72.000 C 251.994 72.000,246.105 74.875,245.200 75.960 C 245.090 76.092,244.370 76.543,243.600 76.962 C 242.830 77.381,240.760 78.653,239.000 79.790 C 232.722 83.844,229.723 85.600,229.077 85.600 C 228.716 85.600,223.421 80.635,217.310 74.566 C 204.226 61.571,203.181 60.871,199.663 62.746 M205.440 64.359 C 206.298 64.997,211.769 70.307,217.597 76.159 C 223.426 82.012,228.503 86.800,228.880 86.800 C 229.258 86.800,231.599 85.514,234.083 83.943 C 248.214 75.003,250.939 73.472,253.000 73.317 C 257.875 72.950,259.500 75.970,258.241 83.056 C 257.740 85.878,257.247 88.969,255.988 97.200 C 254.929 104.123,254.331 107.915,253.369 113.800 C 252.793 117.320,252.169 121.370,251.983 122.800 C 251.796 124.230,251.363 127.110,251.022 129.200 C 250.680 131.290,250.130 134.710,249.800 136.800 C 249.470 138.890,248.928 142.310,248.596 144.400 C 248.264 146.490,247.813 149.550,247.594 151.200 C 246.901 156.425,246.189 158.258,244.327 159.607 L 242.680 160.800 202.200 160.800 L 161.720 160.800 160.100 159.626 C 157.973 158.086,157.868 157.739,156.210 146.800 C 155.860 144.490,155.407 141.610,155.203 140.400 C 154.704 137.435,153.771 131.509,153.000 126.400 C 151.923 119.262,150.366 109.401,149.591 104.800 C 149.387 103.590,148.939 100.710,148.595 98.400 C 147.611 91.792,146.929 87.353,146.169 82.597 C 145.080 75.792,146.303 73.396,150.856 73.406 L 153.400 73.411 163.400 79.552 C 168.900 82.930,173.684 85.942,174.031 86.247 C 175.391 87.438,176.230 86.775,186.803 76.159 C 199.019 63.893,199.842 63.200,202.200 63.200 C 203.428 63.200,204.300 63.512,205.440 64.359 M154.724 175.081 C 151.771 176.299,152.000 169.521,152.000 255.800 C 152.000 327.390,152.051 333.386,152.669 334.689 C 153.936 337.358,151.060 337.221,203.190 337.105 L 250.382 337.000 251.491 335.891 L 252.600 334.782 252.696 256.291 C 252.799 171.258,252.933 176.384,250.588 175.200 C 248.772 174.283,156.935 174.169,154.724 175.081 M251.074 176.470 L 252.000 177.339 252.000 255.634 L 252.000 333.929 250.769 334.964 L 249.539 336.000 202.351 336.000 L 155.164 336.000 154.182 335.018 L 153.200 334.036 153.200 255.618 C 153.200 177.733,153.205 177.195,154.000 176.400 C 154.791 175.609,155.333 175.600,202.474 175.600 L 250.148 175.600 251.074 176.470 M86.330 214.300 C 94.981 214.360,109.021 214.360,117.530 214.300 C 126.038 214.240,118.960 214.190,101.800 214.190 C 84.640 214.190,77.678 214.240,86.330 214.300 M190.160 214.745 C 182.376 218.362,182.960 228.984,191.100 231.849 L 193.200 232.588 193.222 246.194 C 193.247 261.286,193.323 261.802,195.930 264.643 C 200.271 269.373,207.774 268.174,210.717 262.279 L 211.628 260.456 211.514 240.262 L 211.400 220.068 210.184 218.339 C 209.516 217.388,208.166 216.067,207.184 215.405 L 205.400 214.200 198.600 214.092 C 192.610 213.996,191.605 214.074,190.160 214.745 M206.000 215.919 C 207.742 216.795,208.471 217.477,209.500 219.195 L 210.800 221.365 210.800 240.669 C 210.800 261.541,210.820 261.325,208.605 263.920 C 205.787 267.224,199.879 267.502,196.879 264.472 C 194.543 262.114,194.610 262.600,194.481 247.010 C 194.349 231.053,194.430 231.520,191.688 231.005 C 184.333 229.626,183.555 218.707,190.589 215.574 C 193.493 214.281,203.171 214.497,206.000 215.919 " stroke="none" fill="#80371f" fill-rule="evenodd"></path></g></svg>