<svg id="svg" version="1.1" xmlns="http://www.w3.org/2000/svg" xmlns:xlink="http://www.w3.org/1999/xlink" width="400" height="400" viewBox="0, 0, 400,400"><g id="svgg"><path id="path0" d="M141.648 32.831 C 119.054 38.506,120.638 84.013,144.575 116.923 L 146.513 119.588 142.776 123.124 C 114.447 149.935,116.438 196.732,146.767 216.943 L 150.761 219.604 148.491 221.311 C 130.362 234.939,114.109 282.127,123.062 295.140 C 127.472 301.549,136.878 301.836,143.440 295.761 L 145.800 293.576 145.563 295.518 C 144.657 302.939,144.006 332.092,144.659 336.019 L 144.965 337.858 142.615 339.044 C 131.604 344.602,133.720 360.138,145.754 362.090 C 149.162 362.643,173.596 362.623,176.250 362.065 C 185.936 360.027,189.040 355.113,193.135 335.326 C 196.343 319.830,197.075 317.418,198.926 316.254 C 201.320 314.748,202.670 318.311,206.091 335.156 C 210.193 355.363,213.585 360.602,223.576 362.157 C 228.270 362.888,253.370 362.403,255.661 361.537 C 265.020 357.999,264.456 343.271,254.797 338.986 L 253.150 338.256 253.040 321.764 C 252.979 312.694,252.962 305.212,253.001 305.137 C 253.041 305.061,254.271 305.300,255.735 305.667 C 266.297 308.316,273.950 300.190,273.948 286.328 C 273.944 260.352,264.535 236.677,248.721 222.852 L 246.487 220.898 250.099 218.673 C 283.380 198.167,286.608 149.928,256.533 122.524 L 253.320 119.597 254.146 118.685 C 261.388 110.690,269.906 92.095,272.866 77.823 C 279.414 46.246,265.306 24.646,244.883 34.979 C 229.856 42.582,216.929 72.767,215.976 102.482 L 215.890 105.160 214.488 104.919 C 209.142 104.002,206.363 103.788,199.805 103.792 C 194.701 103.794,191.176 103.999,188.519 104.446 C 186.393 104.804,184.614 105.049,184.564 104.990 C 184.515 104.931,184.180 101.895,183.820 98.242 C 179.766 57.060,161.009 27.969,141.648 32.831 M148.346 40.176 C 162.782 44.669,175.479 72.939,177.289 104.619 C 177.778 113.184,178.496 114.021,184.066 112.520 C 193.684 109.929,206.691 109.949,216.537 112.570 C 221.107 113.787,222.640 112.420,222.650 107.118 C 222.729 68.453,246.182 28.785,260.905 42.416 C 273.330 53.919,266.818 91.573,248.483 114.243 C 243.715 120.137,243.673 119.913,250.909 127.098 C 276.745 152.752,276.511 189.977,250.391 209.447 C 218.904 232.916,157.602 226.889,138.271 198.422 C 123.598 176.816,129.283 143.658,150.856 125.009 C 155.918 120.634,156.045 119.874,152.460 115.430 C 132.678 90.908,126.203 51.635,140.240 41.312 C 142.943 39.324,144.782 39.066,148.346 40.176 M148.252 56.266 C 148.379 56.472,148.711 56.641,148.988 56.641 C 149.994 56.641,152.786 59.052,154.535 61.432 C 156.701 64.380,156.992 64.672,156.018 62.917 C 154.890 60.887,150.752 56.828,149.303 56.331 C 148.576 56.082,148.121 56.053,148.252 56.266 M143.400 57.631 C 142.733 58.390,142.189 59.137,142.192 59.291 C 142.194 59.445,142.644 59.002,143.192 58.307 C 143.739 57.612,144.484 56.871,144.848 56.659 C 145.211 56.447,145.306 56.268,145.060 56.262 C 144.814 56.255,144.067 56.871,143.400 57.631 M255.517 56.744 C 255.866 57.017,256.524 57.853,256.980 58.601 C 257.436 59.349,257.810 59.806,257.811 59.616 C 257.814 58.932,256.219 56.713,255.559 56.483 C 254.944 56.269,254.940 56.293,255.517 56.744 M248.047 58.251 C 246.686 59.444,246.685 59.446,247.937 58.613 C 248.629 58.153,249.299 57.609,249.425 57.404 C 249.802 56.794,249.490 56.986,248.047 58.251 M245.353 61.146 C 244.686 61.906,244.141 62.644,244.141 62.787 C 244.141 62.930,244.274 62.880,244.437 62.676 C 244.599 62.472,245.248 61.733,245.877 61.035 C 246.506 60.337,246.919 59.766,246.793 59.766 C 246.668 59.766,246.020 60.387,245.353 61.146 M242.383 65.625 C 242.050 66.270,241.865 66.797,241.972 66.797 C 242.080 66.797,242.440 66.270,242.773 65.625 C 243.107 64.980,243.292 64.453,243.184 64.453 C 243.077 64.453,242.716 64.980,242.383 65.625 M240.500 69.354 C 239.582 71.278,239.711 71.606,240.671 69.787 C 241.106 68.961,241.394 68.217,241.309 68.132 C 241.225 68.048,240.860 68.598,240.500 69.354 M159.018 68.797 C 158.999 68.930,159.588 70.336,160.326 71.922 C 161.064 73.507,161.672 74.629,161.678 74.414 C 161.690 73.965,159.069 68.430,159.018 68.797 M144.755 85.938 C 144.899 86.475,145.179 87.178,145.378 87.500 C 145.630 87.907,145.661 87.788,145.479 87.109 C 145.336 86.572,145.055 85.869,144.856 85.547 C 144.604 85.140,144.574 85.259,144.755 85.938 M146.517 90.430 C 146.517 90.645,146.854 91.436,147.266 92.188 C 147.677 92.939,148.014 93.379,148.014 93.164 C 148.014 92.949,147.677 92.158,147.266 91.406 C 146.854 90.654,146.517 90.215,146.517 90.430 M252.520 91.833 C 252.177 92.498,251.965 93.111,252.050 93.195 C 252.134 93.280,252.496 92.737,252.853 91.987 C 253.657 90.303,253.378 90.174,252.520 91.833 M250.860 95.516 C 250.393 96.478,250.092 97.266,250.192 97.266 C 250.457 97.266,252.035 94.093,251.859 93.916 C 251.777 93.834,251.327 94.554,250.860 95.516 M149.219 96.243 C 149.219 96.663,150.381 98.828,150.606 98.828 C 150.713 98.828,150.511 98.257,150.156 97.559 C 149.431 96.133,149.219 95.835,149.219 96.243 M248.828 99.219 C 248.390 100.078,248.119 100.781,248.226 100.781 C 248.334 100.781,248.780 100.078,249.219 99.219 C 249.657 98.359,249.928 97.656,249.821 97.656 C 249.713 97.656,249.267 98.359,248.828 99.219 M167.278 99.219 C 167.278 99.971,167.359 100.278,167.457 99.902 C 167.555 99.526,167.555 98.911,167.457 98.535 C 167.359 98.159,167.278 98.467,167.278 99.219 M232.165 104.492 C 232.167 106.211,232.235 106.865,232.318 105.947 C 232.400 105.028,232.399 103.622,232.315 102.822 C 232.231 102.022,232.164 102.773,232.165 104.492 M153.465 103.711 C 153.676 104.141,154.135 104.844,154.485 105.273 L 155.121 106.055 154.738 105.273 C 154.527 104.844,154.068 104.141,153.718 103.711 L 153.082 102.930 153.465 103.711 M244.141 106.641 C 243.682 107.285,243.394 107.813,243.501 107.813 C 243.609 107.813,244.072 107.285,244.531 106.641 C 244.990 105.996,245.278 105.469,245.170 105.469 C 245.063 105.469,244.600 105.996,244.141 106.641 M157.320 109.180 C 157.983 110.039,159.195 111.357,160.015 112.109 C 160.989 113.004,160.776 112.666,159.398 111.133 C 156.478 107.885,155.912 107.353,157.320 109.180 M239.258 112.279 C 238.097 113.424,237.780 113.875,238.477 113.391 C 239.776 112.488,241.632 110.606,241.375 110.451 C 241.285 110.396,240.332 111.219,239.258 112.279 M233.215 113.014 C 233.191 113.650,234.023 114.844,234.486 114.838 C 234.813 114.834,234.829 114.742,234.537 114.545 C 234.304 114.387,233.914 113.906,233.670 113.477 C 233.426 113.047,233.222 112.839,233.215 113.014 M171.463 163.504 C 169.826 165.200,166.627 167.146,163.477 168.363 C 160.425 169.542,160.156 169.778,160.156 171.279 C 160.156 178.751,168.697 181.973,173.413 176.281 C 177.896 170.870,176.047 158.755,171.463 163.504 M224.950 162.754 C 224.213 163.641,223.991 170.641,224.627 172.916 C 226.600 179.963,234.601 181.546,238.426 175.646 C 240.362 172.661,240.163 169.501,238.005 168.960 C 235.415 168.310,231.137 165.953,229.168 164.091 C 226.982 162.024,225.855 161.666,224.950 162.754 M197.708 180.097 C 190.474 181.567,182.152 192.687,187.316 193.983 C 188.851 194.368,189.660 193.796,191.512 191.016 C 195.700 184.728,203.509 184.098,207.542 189.722 C 210.918 194.429,212.088 195.089,213.612 193.151 C 214.533 191.981,214.315 190.819,212.643 187.955 C 209.350 182.319,203.061 179.010,197.708 180.097 M165.625 225.738 C 185.482 232.592,211.876 232.822,233.095 226.325 L 239.042 224.505 241.884 226.780 C 255.002 237.279,263.439 254.123,266.233 275.391 C 268.205 290.404,266.662 296.810,260.588 298.815 C 255.204 300.592,252.607 297.225,252.164 287.891 C 251.253 268.695,250.605 262.557,248.584 253.955 C 247.232 248.202,246.269 246.908,243.753 247.460 C 241.459 247.964,241.224 248.946,242.140 254.185 C 244.391 267.052,245.806 293.340,245.863 323.320 C 245.891 338.125,246.006 342.256,246.402 342.652 C 246.679 342.929,248.349 343.860,250.113 344.722 C 254.874 347.048,256.794 350.184,255.267 353.138 C 254.032 355.525,253.548 355.596,238.672 355.587 C 217.219 355.572,217.218 355.571,212.869 332.813 C 209.070 312.931,206.290 308.307,198.611 309.099 C 191.248 309.859,190.282 311.916,185.546 336.914 C 182.082 355.201,181.361 355.737,160.352 355.634 C 143.456 355.552,142.662 355.293,143.045 349.997 C 143.249 347.170,144.117 346.097,147.757 344.165 C 149.098 343.453,150.478 342.624,150.824 342.323 C 151.379 341.839,151.479 339.581,151.679 322.938 C 151.884 305.898,152.242 297.745,153.521 281.055 C 154.107 273.405,155.333 261.683,156.204 255.401 C 157.171 248.437,156.765 246.875,153.989 246.875 C 151.229 246.875,150.724 248.378,147.822 265.234 C 144.843 282.540,143.713 285.880,139.387 290.163 C 135.616 293.896,131.773 294.283,128.906 291.218 C 126.108 288.226,128.252 272.767,133.620 257.228 C 139.131 241.272,145.764 231.775,156.250 224.825 C 158.716 223.191,158.063 223.127,165.625 225.738 M294.127 310.917 C 292.476 311.229,293.409 310.674,283.594 317.178 C 270.578 325.802,269.744 326.532,269.744 329.297 C 269.744 333.222,271.330 333.831,283.049 334.404 L 292.383 334.861 297.548 333.609 C 306.291 331.488,306.506 331.000,303.123 320.992 C 299.832 311.256,298.749 310.044,294.127 310.917 M296.663 320.996 C 297.455 323.091,298.190 325.079,298.297 325.415 C 298.441 325.870,297.602 326.429,294.995 327.617 L 291.499 329.209 289.988 325.256 C 289.157 323.082,288.477 321.171,288.477 321.009 C 288.477 320.655,294.146 317.235,294.779 317.207 C 295.023 317.196,295.870 318.901,296.663 320.996 " stroke="none" fill="#43417f" fill-rule="evenodd"></path><path id="path1" d="M0.000 200.000 L 0.000 400.000 200.000 400.000 L 400.000 400.000 400.000 200.000 L 400.000 0.000 200.000 0.000 L 0.000 0.000 0.000 200.000 M152.003 33.468 C 167.213 38.682,179.979 63.689,183.599 95.360 C 184.026 99.093,184.375 102.826,184.375 103.655 C 184.375 105.020,184.458 105.143,185.254 104.955 C 190.929 103.611,205.266 103.312,211.914 104.398 C 216.165 105.093,215.537 105.974,216.205 98.379 C 219.609 59.656,235.533 32.585,254.883 32.625 C 280.608 32.679,281.182 81.067,255.878 116.442 L 253.529 119.727 257.011 122.956 C 286.845 150.626,283.365 197.937,249.958 218.845 L 246.595 220.949 249.345 223.265 C 264.121 235.710,273.881 260.543,273.978 285.938 C 274.034 300.407,266.103 308.829,255.361 305.706 C 254.173 305.361,253.139 305.078,253.065 305.078 C 252.991 305.078,252.977 312.515,253.035 321.606 L 253.141 338.133 254.793 338.948 C 264.463 343.717,265.330 357.014,256.250 361.292 L 254.102 362.305 239.540 362.420 C 212.880 362.632,211.268 361.259,205.689 333.594 C 202.952 320.022,201.764 316.449,199.870 316.084 C 197.650 315.656,196.284 319.677,192.989 336.342 C 190.316 349.859,189.133 353.033,185.250 357.104 C 180.430 362.158,178.403 362.577,159.502 362.424 L 144.727 362.305 142.275 361.172 C 132.946 356.865,133.105 343.844,142.544 339.080 L 144.737 337.972 144.380 332.951 C 144.047 328.280,144.519 309.287,145.253 297.772 L 145.508 293.787 143.565 295.740 C 134.757 304.594,121.325 299.871,120.608 287.668 C 119.317 265.682,133.355 232.767,149.207 220.612 C 149.952 220.040,150.480 219.508,150.379 219.429 C 150.278 219.351,148.613 218.248,146.680 216.978 C 116.558 197.206,114.419 150.209,142.424 123.470 L 146.508 119.571 144.713 117.211 C 130.644 98.711,122.636 70.296,126.378 52.148 C 129.474 37.128,140.096 29.386,152.003 33.468 M143.357 39.803 C 126.295 45.251,130.643 87.020,151.023 113.448 C 155.145 118.793,155.161 118.821,154.933 120.313 C 154.770 121.384,154.193 122.138,152.265 123.803 C 126.740 145.836,122.532 182.951,143.164 204.071 C 169.507 231.037,233.351 230.272,257.842 202.697 C 276.968 181.162,273.128 147.333,249.042 125.182 C 243.950 120.499,243.849 119.844,247.520 115.391 C 254.289 107.181,260.909 94.404,264.051 83.484 C 273.397 50.997,260.756 28.276,243.118 45.862 C 232.205 56.743,224.643 78.443,222.894 103.900 C 222.245 113.337,221.695 114.041,216.120 112.569 C 206.603 110.057,194.136 110.046,184.049 112.543 C 178.383 113.945,177.581 113.004,177.186 104.492 C 175.859 75.864,164.085 47.679,150.781 41.284 C 147.719 39.812,145.017 39.273,143.357 39.803 M149.950 56.615 C 158.808 61.134,168.608 88.419,167.881 106.542 C 167.410 118.284,162.623 117.708,154.078 104.882 C 139.007 82.264,136.215 49.608,149.950 56.615 M255.955 56.632 C 264.129 63.062,255.077 96.148,241.071 111.036 C 235.003 117.486,232.465 116.267,232.113 106.732 C 231.214 82.332,246.852 49.471,255.955 56.632 M175.173 162.978 C 176.116 164.323,176.011 170.842,175.003 173.536 C 172.740 179.585,166.134 181.282,162.219 176.822 C 159.924 174.209,159.451 170.194,161.328 169.270 C 161.865 169.006,163.799 168.083,165.625 167.219 C 167.451 166.356,169.824 164.859,170.898 163.894 C 173.074 161.940,174.267 161.684,175.173 162.978 M228.729 163.691 C 230.603 165.611,232.747 166.904,236.235 168.217 C 240.107 169.674,240.712 170.873,239.293 174.269 C 235.221 184.015,224.036 179.523,224.033 168.140 C 224.031 162.006,225.618 160.503,228.729 163.691 M155.372 179.765 C 161.948 182.829,161.644 193.076,154.886 196.146 C 147.185 199.645,139.560 191.050,143.645 183.476 C 145.993 179.124,150.758 177.616,155.372 179.765 M252.608 179.928 C 258.989 183.567,258.856 192.516,252.371 195.801 C 246.212 198.921,239.677 194.849,239.677 187.891 C 239.677 180.894,246.709 176.564,252.608 179.928 M205.078 180.923 C 211.563 183.938,216.847 192.938,212.737 193.970 C 211.162 194.365,210.218 193.807,208.841 191.671 C 203.854 183.932,196.112 183.942,191.139 191.694 C 188.174 196.316,184.108 194.074,186.577 189.180 C 190.487 181.432,198.490 177.860,205.078 180.923 M157.422 224.125 C 143.759 233.163,136.036 245.827,130.309 268.582 C 126.012 285.653,127.223 294.194,133.789 293.129 C 141.182 291.929,144.322 285.708,147.667 265.625 C 150.364 249.436,151.220 246.866,153.944 246.788 C 157.083 246.699,157.325 247.878,156.075 257.160 C 153.434 276.776,151.443 309.235,151.620 329.793 C 151.736 343.226,152.080 342.031,147.386 344.504 C 141.612 347.546,141.176 353.491,146.599 355.232 C 147.965 355.671,174.815 355.520,176.006 355.067 C 181.691 352.905,183.041 349.964,186.313 332.617 C 189.592 315.224,189.947 314.144,193.325 311.253 C 198.067 307.194,205.252 308.756,208.213 314.490 C 209.557 317.092,211.619 325.552,214.432 340.000 C 216.290 349.544,218.442 353.070,223.484 354.835 C 226.315 355.825,251.259 355.835,253.343 354.846 C 257.947 352.661,255.162 346.199,248.737 344.157 C 245.582 343.154,245.713 344.075,245.711 323.008 C 245.710 312.725,245.619 302.858,245.509 301.082 C 245.400 299.305,245.129 293.545,244.908 288.281 C 244.142 270.032,243.405 261.426,241.967 253.906 C 241.175 249.765,241.235 249.020,242.435 248.075 C 245.180 245.917,247.103 247.510,248.511 253.108 C 250.591 261.377,250.816 263.454,252.303 288.148 C 252.900 298.080,255.676 301.120,261.530 298.256 C 265.784 296.175,266.863 293.702,266.820 286.131 C 266.682 261.538,257.696 240.090,242.068 227.050 L 239.018 224.505 234.646 225.926 C 211.543 233.433,182.315 232.773,161.021 224.263 C 158.594 223.293,158.674 223.296,157.422 224.125 M298.057 311.333 C 300.163 312.408,300.513 313.053,303.180 320.785 C 305.751 328.238,305.853 329.422,304.083 331.270 C 303.037 332.361,302.524 332.540,296.165 334.042 C 291.611 335.118,274.754 334.685,272.329 333.431 C 269.294 331.862,268.756 328.395,271.161 325.901 C 273.564 323.407,291.757 311.438,293.945 310.910 C 295.860 310.448,296.438 310.507,298.057 311.333 " stroke="none" fill="#fbfbfb" fill-rule="evenodd"></path><path id="path2" d="M146.170 56.664 C 145.734 57.362,145.566 57.406,145.020 56.963 C 144.669 56.678,144.497 56.639,144.638 56.875 C 144.780 57.111,144.464 57.535,143.937 57.817 C 143.141 58.243,143.060 58.431,143.462 58.927 C 143.847 59.403,143.846 59.465,143.457 59.232 C 143.141 59.042,142.958 59.187,142.938 59.645 C 142.920 60.059,142.825 60.148,142.709 59.861 C 142.600 59.591,142.342 59.475,142.135 59.603 C 141.902 59.747,141.925 60.035,142.196 60.362 C 142.503 60.731,142.521 61.393,142.257 62.573 C 142.050 63.500,141.859 63.906,141.833 63.477 C 141.692 61.174,141.033 64.250,141.060 67.090 C 141.087 70.067,141.491 71.262,141.918 69.629 C 142.026 69.218,142.115 69.382,142.142 70.043 C 142.174 70.820,142.045 71.057,141.699 70.854 C 141.431 70.697,141.563 70.981,141.992 71.484 C 142.422 71.988,142.572 72.283,142.326 72.140 C 141.829 71.851,141.276 72.911,141.627 73.479 C 141.750 73.678,142.042 73.723,142.276 73.578 C 142.701 73.315,142.596 74.028,141.995 75.488 C 141.833 75.880,141.886 76.172,142.117 76.172 C 142.339 76.172,142.601 75.864,142.699 75.488 C 142.812 75.057,142.895 75.192,142.923 75.853 C 142.948 76.430,143.138 77.348,143.345 77.893 C 143.644 78.678,143.583 78.973,143.052 79.315 C 142.463 79.695,142.460 79.723,143.031 79.548 C 143.831 79.302,144.385 81.071,143.748 81.839 C 143.453 82.194,143.447 82.430,143.731 82.605 C 143.956 82.745,144.148 82.716,144.156 82.543 C 144.164 82.369,144.431 82.824,144.748 83.555 C 145.065 84.286,145.234 84.974,145.123 85.085 C 145.012 85.196,144.922 85.071,144.922 84.808 C 144.922 84.544,144.748 84.436,144.535 84.568 C 144.292 84.718,144.328 85.001,144.633 85.331 C 144.899 85.620,145.244 85.779,145.399 85.685 C 145.960 85.346,146.218 87.572,145.658 87.927 C 145.232 88.197,145.267 88.271,145.824 88.275 C 146.212 88.279,146.422 88.457,146.289 88.672 C 146.156 88.887,146.202 89.063,146.392 89.063 C 147.113 89.063,148.584 93.027,148.000 93.396 C 147.587 93.658,147.644 93.741,148.242 93.750 C 148.903 93.760,148.933 93.827,148.438 94.180 C 147.976 94.510,148.059 94.554,148.828 94.389 C 149.759 94.189,149.769 94.206,149.046 94.746 C 148.401 95.228,148.384 95.312,148.935 95.313 C 149.704 95.313,150.542 96.704,150.153 97.334 C 149.973 97.626,150.056 97.668,150.397 97.457 C 150.772 97.226,150.846 97.315,150.666 97.783 C 150.523 98.155,150.599 98.389,150.844 98.335 C 151.078 98.284,151.350 98.462,151.449 98.731 C 151.566 99.052,151.383 99.144,150.912 98.999 C 150.518 98.878,150.683 99.061,151.279 99.407 C 151.875 99.752,152.578 99.926,152.841 99.792 C 153.105 99.659,152.905 99.915,152.398 100.361 C 151.755 100.926,151.652 101.172,152.057 101.172 C 152.958 101.172,153.788 102.325,153.165 102.710 C 152.811 102.929,152.913 103.081,153.522 103.240 C 153.995 103.364,154.261 103.649,154.118 103.880 C 153.976 104.109,154.038 104.297,154.255 104.297 C 154.472 104.297,155.192 105.085,155.855 106.048 C 156.781 107.395,156.898 107.743,156.362 107.558 C 155.774 107.355,155.787 107.416,156.445 107.943 C 156.875 108.287,157.465 108.574,157.757 108.581 C 158.053 108.588,158.192 108.839,158.073 109.151 C 157.955 109.458,158.146 109.941,158.497 110.225 C 158.959 110.600,159.054 110.608,158.841 110.254 C 158.023 108.893,159.076 110.037,160.369 111.914 C 161.871 114.094,162.253 114.501,161.875 113.516 C 161.760 113.216,161.853 112.854,162.083 112.712 C 162.326 112.561,162.500 112.784,162.500 113.246 C 162.500 113.792,162.683 113.968,163.090 113.811 C 163.465 113.668,163.631 113.779,163.545 114.117 C 163.470 114.409,163.483 114.517,163.573 114.355 C 163.663 114.194,164.074 114.063,164.486 114.063 C 164.930 114.063,165.234 113.792,165.234 113.398 C 165.234 112.882,165.339 112.839,165.703 113.203 C 165.961 113.461,166.356 113.669,166.582 113.666 C 166.808 113.663,166.754 113.509,166.462 113.324 C 165.760 112.879,166.253 111.328,167.097 111.328 C 167.593 111.328,167.630 111.224,167.266 110.859 C 167.008 110.602,166.811 109.854,166.828 109.199 C 166.845 108.544,166.947 108.228,167.056 108.496 C 167.164 108.765,167.414 108.984,167.611 108.984 C 168.194 108.984,168.018 106.355,167.393 105.730 C 166.951 105.288,166.931 105.110,167.307 104.966 C 167.883 104.745,168.174 100.391,167.613 100.391 C 167.410 100.391,167.164 100.698,167.066 101.074 C 166.968 101.450,166.867 101.099,166.842 100.293 C 166.815 99.421,166.599 98.818,166.309 98.803 C 166.040 98.790,166.216 98.620,166.699 98.425 C 167.227 98.213,167.578 97.738,167.578 97.236 C 167.578 96.680,167.395 96.471,167.031 96.611 C 166.249 96.911,165.937 95.396,166.693 94.972 C 167.048 94.774,167.174 94.434,166.998 94.150 C 166.765 93.773,166.624 93.783,166.356 94.197 C 166.113 94.572,166.049 94.473,166.135 93.858 C 166.201 93.380,166.378 92.867,166.526 92.718 C 167.017 92.227,166.808 91.709,166.211 91.938 C 165.528 92.200,165.456 91.670,166.029 90.599 C 166.273 90.144,166.286 89.844,166.062 89.844 C 165.857 89.844,165.617 90.063,165.528 90.331 C 165.438 90.599,165.243 90.052,165.093 89.116 C 164.938 88.149,164.985 87.215,165.200 86.955 C 165.417 86.694,165.438 86.267,165.248 85.960 C 165.065 85.664,165.006 85.187,165.117 84.899 C 165.228 84.611,165.138 84.375,164.918 84.375 C 164.698 84.375,164.430 84.595,164.321 84.863 C 164.190 85.188,164.114 85.148,164.093 84.746 C 164.076 84.413,164.268 83.935,164.518 83.685 C 164.866 83.337,164.817 83.168,164.313 82.975 C 163.765 82.765,163.737 82.616,164.150 82.108 C 164.573 81.587,164.545 81.533,163.965 81.751 C 163.168 82.049,163.068 81.621,163.770 80.914 C 164.161 80.520,164.132 80.470,163.625 80.663 C 163.237 80.811,162.898 80.661,162.750 80.276 C 162.618 79.930,162.671 79.747,162.868 79.869 C 163.066 79.991,163.338 79.912,163.473 79.694 C 163.608 79.476,163.444 79.297,163.109 79.297 C 162.774 79.297,162.500 79.111,162.500 78.883 C 162.500 78.656,162.297 78.595,162.049 78.748 C 161.776 78.917,161.704 78.856,161.866 78.593 C 162.014 78.354,162.436 78.256,162.805 78.374 C 163.197 78.500,163.314 78.452,163.086 78.260 C 162.677 77.914,161.890 76.740,161.464 75.839 C 161.327 75.549,161.460 75.137,161.759 74.924 C 162.177 74.626,162.135 74.591,161.578 74.772 C 161.018 74.954,160.907 74.860,161.098 74.363 C 161.289 73.865,161.229 73.814,160.835 74.141 C 160.431 74.477,160.334 74.289,160.369 73.236 C 160.396 72.411,160.201 71.826,159.853 71.693 C 159.528 71.568,159.394 71.216,159.534 70.852 C 159.712 70.388,159.607 70.290,159.129 70.473 C 158.589 70.681,158.564 70.624,158.977 70.126 C 159.368 69.656,159.369 69.531,158.984 69.531 C 158.616 69.531,158.628 69.371,159.034 68.872 C 159.502 68.297,159.486 68.245,158.907 68.462 C 158.245 68.709,157.656 67.772,157.616 66.406 C 157.606 66.072,157.309 65.870,156.924 65.935 C 156.468 66.013,156.250 65.792,156.250 65.251 C 156.250 64.812,156.470 64.442,156.738 64.428 C 157.007 64.415,156.820 64.240,156.323 64.041 C 155.771 63.820,155.530 63.499,155.703 63.218 C 155.893 62.911,155.780 62.837,155.364 62.997 C 154.895 63.177,154.779 63.038,154.895 62.437 C 155.001 61.887,154.803 61.574,154.260 61.432 C 153.826 61.318,153.557 61.001,153.663 60.728 C 153.873 60.180,152.746 58.984,152.020 58.984 C 151.768 58.984,151.606 58.773,151.660 58.514 C 151.714 58.256,151.406 58.036,150.977 58.026 C 150.541 58.016,150.243 57.779,150.303 57.490 C 150.362 57.206,150.228 57.085,150.006 57.223 C 149.466 57.556,147.980 57.065,148.243 56.639 C 148.357 56.455,148.272 56.194,148.053 56.059 C 147.835 55.924,147.656 56.121,147.656 56.497 C 147.656 57.139,147.627 57.140,147.168 56.513 C 146.714 55.894,146.643 55.904,146.170 56.664 M251.563 56.273 C 251.563 56.501,251.738 56.578,251.953 56.445 C 252.168 56.313,252.344 56.390,252.344 56.618 C 252.344 56.845,252.014 57.031,251.610 57.031 C 251.207 57.031,250.658 57.295,250.391 57.617 C 250.123 57.939,249.673 58.203,249.389 58.203 C 249.106 58.203,248.749 58.406,248.596 58.654 C 248.411 58.953,248.490 58.998,248.828 58.789 C 249.174 58.575,249.245 58.625,249.049 58.943 C 248.848 59.268,248.610 59.290,248.278 59.014 C 247.932 58.727,247.420 58.949,246.457 59.804 L 245.117 60.994 246.680 59.906 C 248.226 58.830,248.233 58.829,247.360 59.809 C 246.874 60.354,246.611 60.947,246.774 61.127 C 246.937 61.306,246.851 61.327,246.582 61.172 C 246.313 61.018,246.094 61.078,246.094 61.305 C 246.094 61.533,245.874 61.675,245.605 61.621 C 245.324 61.565,245.170 61.829,245.241 62.246 C 245.309 62.644,245.213 62.875,245.027 62.760 C 244.841 62.645,244.434 62.713,244.122 62.910 C 243.654 63.206,243.677 63.270,244.253 63.275 C 244.896 63.281,244.888 63.351,244.156 64.136 C 243.718 64.606,243.359 65.232,243.359 65.526 C 243.359 65.821,243.186 65.954,242.973 65.823 C 242.758 65.690,242.683 65.835,242.805 66.151 C 242.924 66.463,242.807 66.851,242.544 67.013 C 242.219 67.214,242.167 67.145,242.383 66.797 C 242.587 66.466,242.546 66.380,242.265 66.554 C 242.026 66.701,241.930 67.079,242.050 67.393 C 242.171 67.707,242.454 67.850,242.679 67.711 C 242.929 67.557,242.972 67.647,242.790 67.942 C 242.574 68.292,242.371 68.309,242.065 68.003 C 241.832 67.769,241.456 67.581,241.230 67.584 C 241.005 67.587,241.084 67.777,241.406 68.004 C 241.850 68.318,241.873 68.467,241.501 68.618 C 241.232 68.727,241.108 68.974,241.227 69.166 C 241.574 69.729,240.657 71.093,239.928 71.100 C 239.440 71.104,239.515 71.237,240.204 71.588 C 240.724 71.853,241.227 72.334,241.323 72.656 C 241.425 73.003,241.247 72.923,240.886 72.461 C 240.291 71.698,240.266 71.710,239.835 72.925 C 239.507 73.849,239.224 74.108,238.740 73.927 C 238.170 73.713,238.155 73.767,238.622 74.341 C 239.089 74.915,239.064 75.001,238.427 75.006 C 237.863 75.011,237.818 75.090,238.229 75.350 C 239.050 75.870,238.089 78.567,237.204 78.228 C 236.708 78.037,236.763 78.261,237.447 79.223 C 238.090 80.126,238.164 80.399,237.720 80.229 C 237.317 80.074,237.109 80.216,237.109 80.645 C 237.109 81.003,236.950 81.198,236.755 81.077 C 236.560 80.957,236.488 81.254,236.594 81.738 C 236.754 82.468,236.709 82.518,236.330 82.031 C 235.961 81.557,235.918 81.647,236.106 82.509 C 236.290 83.352,236.215 83.526,235.747 83.346 C 235.365 83.200,235.156 83.350,235.156 83.770 C 235.156 84.128,235.331 84.313,235.544 84.181 C 235.771 84.041,235.896 84.380,235.845 85.000 C 235.793 85.627,235.480 86.130,235.075 86.236 C 234.542 86.376,234.479 86.573,234.784 87.144 C 235.237 87.990,234.878 89.858,234.287 89.733 C 234.067 89.687,233.797 89.896,233.687 90.199 C 233.558 90.556,233.683 90.674,234.043 90.536 C 234.472 90.371,234.563 90.623,234.444 91.646 C 234.359 92.373,234.157 92.969,233.996 92.969 C 233.834 92.969,233.787 93.411,233.890 93.951 C 234.040 94.734,233.950 94.884,233.445 94.690 C 233.097 94.557,232.813 94.642,232.813 94.880 C 232.813 95.118,232.969 95.313,233.160 95.313 C 233.352 95.313,233.580 95.928,233.668 96.680 C 233.756 97.432,233.687 98.047,233.515 98.047 C 233.344 98.047,233.203 97.754,233.203 97.396 C 233.203 96.638,232.700 97.014,232.575 97.865 C 232.529 98.182,232.651 98.342,232.847 98.221 C 233.043 98.100,233.203 98.621,233.203 99.379 C 233.203 100.443,233.070 100.706,232.617 100.532 C 231.909 100.260,231.827 101.202,232.500 101.875 C 232.758 102.133,232.850 102.344,232.705 102.344 C 232.560 102.344,232.600 102.761,232.794 103.271 C 233.026 103.883,232.997 104.347,232.706 104.638 C 232.379 104.964,232.412 105.080,232.832 105.084 C 233.224 105.088,233.259 105.179,232.946 105.378 C 232.379 105.739,231.961 109.285,232.450 109.588 C 232.649 109.711,232.833 109.406,232.858 108.910 C 232.892 108.220,232.946 108.173,233.085 108.709 C 233.185 109.095,233.080 109.947,232.851 110.604 C 232.502 111.606,232.528 111.762,233.014 111.575 C 233.364 111.441,233.594 111.580,233.594 111.926 C 233.594 112.242,233.374 112.503,233.105 112.506 C 232.837 112.509,233.049 112.730,233.577 112.997 C 234.105 113.264,234.641 113.921,234.769 114.456 C 234.994 115.398,235.017 115.404,235.462 114.648 C 235.862 113.971,235.981 113.945,236.358 114.453 C 236.732 114.958,236.764 114.949,236.585 114.388 C 236.471 114.030,236.621 113.643,236.919 113.529 C 237.288 113.387,237.395 113.532,237.255 113.985 C 237.073 114.575,237.099 114.573,237.492 113.962 C 237.734 113.584,237.831 113.110,237.706 112.908 C 237.581 112.706,237.816 112.606,238.227 112.685 C 238.695 112.775,239.395 112.364,240.093 111.590 L 241.211 110.352 239.850 111.523 C 238.869 112.368,239.032 112.089,240.436 110.524 C 241.507 109.329,242.479 108.395,242.597 108.447 C 242.714 108.499,243.066 108.361,243.378 108.141 C 243.849 107.807,243.835 107.774,243.294 107.946 C 242.924 108.064,242.546 107.903,242.420 107.572 C 242.295 107.247,242.365 107.095,242.580 107.227 C 242.790 107.358,243.272 107.284,243.649 107.064 C 244.028 106.843,244.117 106.659,243.848 106.653 C 243.525 106.645,243.591 106.398,244.043 105.927 C 244.419 105.534,244.990 105.294,245.313 105.393 C 245.677 105.506,245.604 105.322,245.117 104.906 C 244.688 104.539,244.529 104.334,244.765 104.450 C 245.002 104.566,245.419 104.241,245.694 103.729 C 245.970 103.212,246.425 102.886,246.713 102.997 C 247.073 103.135,247.185 102.938,247.074 102.361 C 246.982 101.888,247.225 101.212,247.633 100.804 C 248.189 100.248,248.251 99.963,247.905 99.554 C 247.658 99.262,247.624 99.155,247.829 99.316 C 248.279 99.669,249.061 99.712,248.715 99.366 C 248.382 99.033,249.915 96.094,250.422 96.094 C 250.645 96.094,250.719 95.918,250.586 95.703 C 250.453 95.488,250.575 95.310,250.856 95.307 C 251.227 95.302,251.207 95.197,250.781 94.922 C 250.283 94.600,250.300 94.542,250.893 94.537 C 251.461 94.532,251.515 94.391,251.186 93.776 C 250.649 92.774,250.675 92.578,251.341 92.578 C 251.649 92.578,252.016 92.214,252.157 91.769 C 252.325 91.241,252.625 91.040,253.020 91.192 C 253.532 91.388,253.546 91.328,253.114 90.807 C 252.833 90.468,252.764 90.221,252.961 90.259 C 253.862 90.430,253.993 90.184,253.297 89.628 C 252.568 89.045,252.576 89.031,253.516 89.263 C 254.187 89.429,254.327 89.390,253.962 89.137 C 253.190 88.602,253.752 87.081,254.610 87.382 C 255.151 87.572,255.183 87.518,254.785 87.089 C 254.240 86.502,254.119 85.782,254.617 86.089 C 254.793 86.198,254.860 85.762,254.766 85.120 C 254.671 84.478,254.747 83.981,254.934 84.015 C 255.738 84.161,256.278 83.955,256.051 83.587 C 255.916 83.369,255.658 83.281,255.478 83.393 C 255.298 83.504,255.253 83.204,255.378 82.725 C 255.503 82.247,255.677 82.071,255.765 82.334 C 255.853 82.597,256.092 82.813,256.296 82.813 C 256.516 82.813,256.497 82.493,256.250 82.031 C 255.906 81.388,255.955 81.245,256.529 81.219 C 256.939 81.201,257.025 81.107,256.738 80.991 C 256.164 80.760,256.084 79.446,256.624 79.112 C 256.829 78.985,256.897 78.621,256.775 78.303 C 256.611 77.875,256.742 77.792,257.281 77.983 C 257.876 78.193,257.919 78.145,257.520 77.714 C 256.818 76.957,256.888 75.751,257.617 76.031 C 257.939 76.154,258.203 76.061,258.203 75.823 C 258.203 75.585,258.065 75.391,257.896 75.391 C 257.726 75.391,257.561 74.819,257.529 74.121 C 257.496 73.423,257.561 73.071,257.674 73.340 C 257.958 74.019,258.594 73.952,258.594 73.242 C 258.594 72.920,258.445 72.656,258.263 72.656 C 258.080 72.656,257.915 72.092,257.896 71.402 C 257.872 70.552,257.968 70.323,258.196 70.692 C 259.004 72.000,259.087 67.172,258.281 65.731 C 257.870 64.997,257.884 64.896,258.369 65.082 C 258.803 65.248,258.918 65.032,258.841 64.194 C 258.784 63.585,258.549 63.123,258.318 63.169 C 258.087 63.215,257.818 62.836,257.721 62.326 C 257.595 61.665,257.694 61.457,258.069 61.601 C 258.358 61.712,258.594 61.608,258.594 61.370 C 258.594 61.132,258.330 60.938,258.008 60.938 C 257.298 60.938,257.230 60.299,257.910 60.024 C 258.193 59.910,258.102 59.814,257.692 59.796 C 257.256 59.777,257.093 59.591,257.268 59.309 C 257.462 58.994,257.330 58.936,256.845 59.122 C 256.221 59.362,256.202 59.315,256.683 58.723 C 257.043 58.279,257.062 58.152,256.738 58.347 C 256.297 58.612,256.069 58.177,256.204 57.324 C 256.229 57.163,256.118 57.052,255.957 57.078 C 254.885 57.247,254.133 56.999,254.676 56.656 C 254.992 56.456,255.128 56.170,254.979 56.020 C 254.829 55.871,254.450 55.961,254.136 56.221 C 253.719 56.567,253.355 56.582,252.785 56.277 C 251.805 55.753,251.563 55.752,251.563 56.273 M238.021 109.932 C 238.412 110.952,237.327 111.378,236.754 110.429 C 236.330 109.727,236.330 109.659,236.751 110.059 C 237.477 110.747,238.087 110.668,237.500 109.961 C 237.220 109.623,237.182 109.375,237.410 109.375 C 237.629 109.375,237.903 109.626,238.021 109.932 " stroke="none" fill="#66b471" fill-rule="evenodd"></path><path id="path3" d="M149.609 178.960 C 142.710 180.248,140.119 189.276,145.193 194.350 C 148.765 197.922,154.432 197.736,157.767 193.937 C 163.599 187.295,158.188 177.359,149.609 178.960 M245.780 179.263 C 236.242 182.530,238.340 196.875,248.355 196.875 C 252.511 196.875,256.634 193.345,257.247 189.261 C 258.234 182.679,251.908 177.163,245.780 179.263 M291.699 318.966 C 290.034 319.936,288.672 320.935,288.672 321.185 C 288.672 322.193,291.518 328.904,291.935 328.881 C 292.777 328.832,298.149 325.977,298.134 325.586 C 298.108 324.884,295.193 317.187,294.957 317.195 C 294.830 317.198,293.364 317.995,291.699 318.966 " stroke="none" fill="#eca53c" fill-rule="evenodd"></path><path id="path4" d="M144.922 56.912 C 144.170 57.260,143.410 57.512,143.233 57.473 C 143.056 57.434,143.021 57.581,143.155 57.798 C 143.312 58.051,143.722 57.983,144.290 57.611 C 144.779 57.291,145.272 57.121,145.386 57.235 C 145.499 57.348,145.814 57.173,146.086 56.845 C 146.690 56.118,146.634 56.121,144.922 56.912 M250.439 57.134 C 248.677 58.035,244.898 61.819,244.953 62.629 C 244.974 62.942,245.046 62.931,245.181 62.595 C 245.290 62.325,245.544 62.207,245.746 62.331 C 245.948 62.456,246.088 62.413,246.057 62.236 C 245.913 61.404,246.135 60.917,246.545 61.170 C 246.801 61.328,246.891 61.279,246.752 61.055 C 246.510 60.662,248.264 58.736,248.762 58.848 C 248.906 58.880,248.979 58.748,248.926 58.555 C 248.872 58.361,249.070 58.203,249.366 58.203 C 249.662 58.203,250.123 57.939,250.391 57.617 C 250.658 57.295,251.207 57.031,251.610 57.031 C 252.014 57.031,252.344 56.855,252.344 56.641 C 252.344 56.139,252.432 56.116,250.439 57.134 M149.386 57.400 C 151.203 58.351,151.042 58.321,151.042 57.701 C 151.042 57.425,150.763 57.178,150.423 57.153 C 150.083 57.128,149.365 56.992,148.828 56.852 C 148.242 56.699,148.465 56.918,149.386 57.400 M254.955 57.034 C 255.922 57.424,256.754 58.725,256.334 59.191 C 256.180 59.361,256.277 59.372,256.549 59.215 C 257.335 58.763,255.804 56.623,254.725 56.665 C 254.307 56.682,254.383 56.803,254.955 57.034 M141.992 62.109 C 141.842 62.998,141.801 63.806,141.901 63.907 C 142.002 64.007,142.201 63.356,142.344 62.461 C 142.487 61.566,142.528 60.757,142.435 60.664 C 142.341 60.570,142.142 61.221,141.992 62.109 M243.572 63.700 C 243.806 64.079,242.203 67.243,241.879 67.043 C 241.726 66.949,241.580 67.338,241.553 67.909 C 241.527 68.479,241.586 68.724,241.684 68.455 C 241.783 68.185,242.012 68.056,242.194 68.168 C 242.376 68.280,242.651 68.166,242.807 67.915 C 242.983 67.629,242.920 67.562,242.638 67.736 C 242.390 67.889,242.188 67.943,242.188 67.855 C 242.188 67.428,244.276 63.833,244.664 63.592 C 244.909 63.439,244.728 63.344,244.260 63.380 C 243.795 63.415,243.485 63.559,243.572 63.700 M156.250 65.234 C 156.250 65.664,156.422 66.016,156.631 66.016 C 156.841 66.016,157.379 66.675,157.826 67.480 C 158.274 68.286,158.516 68.594,158.365 68.164 C 158.214 67.734,158.078 67.088,158.063 66.728 C 158.048 66.368,157.897 66.159,157.728 66.263 C 157.559 66.368,157.249 66.003,157.040 65.453 C 156.585 64.255,156.250 64.162,156.250 65.234 M239.490 72.720 C 239.253 73.399,239.127 74.023,239.211 74.107 C 239.294 74.190,239.568 73.678,239.820 72.969 C 240.257 71.735,240.301 71.712,240.842 72.438 C 241.152 72.855,241.406 73.022,241.406 72.809 C 241.406 72.364,240.602 71.484,240.194 71.484 C 240.044 71.484,239.726 72.040,239.490 72.720 M160.309 73.390 C 160.333 74.018,160.466 74.462,160.606 74.376 C 160.747 74.290,161.045 74.747,161.270 75.391 C 161.494 76.035,161.773 76.563,161.888 76.563 C 162.071 76.563,160.660 72.640,160.374 72.354 C 160.316 72.295,160.286 72.761,160.309 73.390 M142.794 76.823 C 142.900 77.933,143.249 79.515,143.570 80.338 C 144.238 82.057,144.152 81.491,142.963 76.367 C 142.617 74.875,142.610 74.896,142.794 76.823 M237.969 76.836 C 237.391 78.719,237.670 78.999,238.281 77.148 C 238.539 76.368,238.674 75.653,238.581 75.560 C 238.488 75.467,238.213 76.041,237.969 76.836 M236.719 80.469 C 236.476 81.371,236.359 82.193,236.461 82.294 C 236.562 82.395,236.766 81.925,236.914 81.250 C 237.110 80.357,237.348 80.086,237.788 80.255 C 238.309 80.455,238.319 80.391,237.861 79.794 C 237.569 79.413,237.292 79.040,237.246 78.964 C 237.199 78.889,236.962 79.566,236.719 80.469 M144.170 82.813 C 144.168 83.375,145.270 85.612,145.299 85.103 C 145.306 84.967,145.056 84.264,144.742 83.541 C 144.428 82.818,144.171 82.490,144.170 82.813 M235.517 84.473 C 235.501 84.741,235.426 85.285,235.351 85.680 C 235.276 86.076,235.326 86.289,235.461 86.154 C 235.778 85.837,236.030 83.984,235.756 83.984 C 235.641 83.984,235.533 84.204,235.517 84.473 M254.582 85.258 C 254.329 86.919,254.498 87.044,255.010 85.575 C 255.236 84.925,255.276 84.302,255.099 84.192 C 254.921 84.082,254.688 84.562,254.582 85.258 M145.346 85.938 C 145.358 86.260,145.518 86.875,145.703 87.305 L 146.039 88.086 146.060 87.305 C 146.072 86.875,145.911 86.260,145.703 85.938 C 145.367 85.417,145.327 85.417,145.346 85.938 M164.929 87.695 C 164.933 88.125,165.070 89.004,165.234 89.648 C 165.502 90.701,165.533 90.721,165.540 89.844 C 165.544 89.307,165.406 88.428,165.234 87.891 C 164.989 87.125,164.923 87.083,164.929 87.695 M253.694 87.959 C 253.538 88.458,253.239 88.977,253.031 89.111 C 252.788 89.268,252.793 89.443,253.045 89.599 C 253.423 89.833,254.472 87.544,254.139 87.212 C 254.050 87.123,253.850 87.459,253.694 87.959 M234.598 88.504 C 234.455 89.077,234.412 89.621,234.504 89.713 C 234.596 89.805,234.789 89.412,234.933 88.839 C 235.077 88.267,235.119 87.723,235.027 87.631 C 234.935 87.539,234.742 87.932,234.598 88.504 M146.725 89.648 C 146.878 90.078,147.018 90.811,147.037 91.276 C 147.055 91.742,147.149 92.044,147.245 91.947 C 147.342 91.851,147.643 92.173,147.915 92.664 C 148.848 94.344,148.438 92.725,147.442 90.795 C 146.895 89.735,146.572 89.219,146.725 89.648 M234.202 90.723 C 233.787 92.090,233.699 92.969,233.978 92.969 C 234.149 92.969,234.361 92.354,234.449 91.602 C 234.608 90.239,234.484 89.796,234.202 90.723 M252.158 91.767 C 252.016 92.213,251.649 92.578,251.341 92.578 C 250.716 92.578,250.640 92.923,251.105 93.654 C 251.319 93.992,251.627 93.703,252.092 92.727 C 252.464 91.947,252.688 91.230,252.591 91.133 C 252.494 91.036,252.299 91.322,252.158 91.767 M166.283 95.215 C 166.190 95.376,166.255 95.859,166.428 96.289 C 166.702 96.971,166.745 96.934,166.769 95.996 C 166.797 94.936,166.614 94.643,166.283 95.215 M150.215 97.304 C 150.770 98.400,151.303 99.218,151.399 99.122 C 151.585 98.936,149.659 95.313,149.374 95.313 C 149.281 95.313,149.660 96.209,150.215 97.304 M233.053 97.785 C 232.883 99.252,232.847 100.555,232.973 100.682 C 233.100 100.808,233.203 100.282,233.203 99.512 C 233.203 98.742,233.337 98.053,233.500 97.982 C 233.663 97.910,233.699 97.236,233.579 96.484 C 233.393 95.311,233.319 95.495,233.053 97.785 M249.219 97.656 C 248.780 98.516,248.510 99.219,248.617 99.219 C 248.724 99.219,249.171 98.516,249.609 97.656 C 250.048 96.797,250.319 96.094,250.211 96.094 C 250.104 96.094,249.657 96.797,249.219 97.656 M166.277 98.740 C 166.528 98.900,166.807 99.644,166.898 100.394 C 167.055 101.694,167.065 101.680,167.125 100.098 C 167.176 98.751,167.058 98.439,166.504 98.443 C 166.056 98.447,165.977 98.549,166.277 98.740 M232.422 103.734 C 232.422 104.284,232.581 104.635,232.776 104.515 C 232.971 104.395,233.038 103.945,232.926 103.515 C 232.645 102.440,232.422 102.537,232.422 103.734 M245.710 103.698 C 245.427 104.227,245.018 104.552,244.803 104.419 C 244.585 104.284,244.531 104.371,244.680 104.613 C 244.829 104.853,244.592 105.408,244.155 105.845 C 243.717 106.283,243.525 106.641,243.727 106.641 C 243.929 106.641,244.205 106.462,244.340 106.244 C 244.475 106.025,244.729 105.935,244.905 106.044 C 245.081 106.153,245.200 105.936,245.171 105.562 C 245.141 105.189,245.316 104.920,245.560 104.965 C 245.803 105.010,245.979 104.747,245.950 104.379 C 245.922 104.012,246.112 103.753,246.373 103.804 C 246.647 103.858,246.753 103.652,246.624 103.316 C 246.334 102.559,246.316 102.567,245.710 103.698 M154.064 104.748 C 153.902 105.010,153.956 105.093,154.194 104.947 C 154.731 104.614,155.971 106.525,155.618 107.140 C 155.467 107.402,155.487 107.487,155.663 107.328 C 155.839 107.168,156.253 107.256,156.583 107.523 C 156.914 107.790,156.614 107.173,155.917 106.152 C 154.536 104.131,154.475 104.084,154.064 104.748 M242.459 107.675 C 242.705 108.317,238.318 112.959,237.779 112.626 C 237.538 112.478,237.500 112.574,237.682 112.869 C 237.895 113.214,238.640 112.710,240.206 111.161 C 241.427 109.952,242.577 109.100,242.760 109.267 C 242.944 109.434,242.963 109.343,242.802 109.065 C 242.436 108.430,243.294 107.343,243.892 107.684 C 244.136 107.824,244.201 107.789,244.035 107.607 C 243.534 107.056,242.243 107.111,242.459 107.675 M166.888 109.375 C 166.888 110.127,166.968 110.435,167.066 110.059 C 167.164 109.683,167.164 109.067,167.066 108.691 C 166.968 108.315,166.888 108.623,166.888 109.375 M237.500 109.961 C 238.087 110.668,237.477 110.747,236.751 110.059 C 236.330 109.659,236.330 109.727,236.754 110.429 C 237.128 111.049,237.407 111.177,237.754 110.889 C 238.283 110.450,238.040 109.375,237.410 109.375 C 237.182 109.375,237.220 109.623,237.500 109.961 M158.779 110.506 C 158.813 110.975,159.214 111.731,159.669 112.186 C 160.740 113.258,160.641 112.295,159.521 110.758 C 158.785 109.747,158.721 109.725,158.779 110.506 M166.177 112.302 C 166.042 112.838,165.775 113.179,165.583 113.060 C 165.391 112.942,165.234 113.141,165.234 113.502 C 165.234 114.033,164.989 114.114,163.965 113.923 C 163.146 113.770,162.903 113.808,163.281 114.031 C 164.555 114.782,166.140 114.694,166.210 113.867 C 166.246 113.437,166.405 112.690,166.563 112.207 C 166.720 111.724,166.753 111.328,166.635 111.328 C 166.518 111.328,166.311 111.766,166.177 112.302 M161.486 112.800 C 162.377 113.844,162.500 113.871,162.500 113.021 C 162.500 112.663,162.384 112.485,162.243 112.627 C 162.102 112.768,161.706 112.669,161.364 112.406 C 160.983 112.113,161.030 112.265,161.486 112.800 M233.594 113.186 C 233.594 113.400,233.857 113.795,234.180 114.063 C 234.507 114.334,234.766 114.376,234.766 114.158 C 234.766 113.943,234.502 113.549,234.180 113.281 C 233.853 113.010,233.594 112.968,233.594 113.186 M223.953 168.359 C 223.953 169.756,224.024 170.327,224.111 169.629 C 224.197 168.931,224.197 167.788,224.111 167.090 C 224.024 166.392,223.953 166.963,223.953 168.359 M277.044 167.578 C 277.044 168.330,277.124 168.638,277.222 168.262 C 277.321 167.886,277.321 167.271,277.222 166.895 C 277.124 166.519,277.044 166.826,277.044 167.578 M277.052 172.852 C 277.056 173.711,277.136 174.017,277.229 173.531 C 277.323 173.045,277.319 172.342,277.222 171.968 C 277.124 171.595,277.047 171.992,277.052 172.852 M246.859 231.348 C 247.816 232.368,248.651 233.203,248.714 233.203 C 249.007 233.203,248.697 232.852,246.973 231.234 L 245.117 229.492 246.859 231.348 M194.238 231.129 C 194.614 231.227,195.229 231.227,195.605 231.129 C 195.981 231.030,195.674 230.950,194.922 230.950 C 194.170 230.950,193.862 231.030,194.238 231.129 M203.613 231.129 C 203.989 231.227,204.604 231.227,204.980 231.129 C 205.356 231.030,205.049 230.950,204.297 230.950 C 203.545 230.950,203.237 231.030,203.613 231.129 M244.622 282.813 C 244.622 283.564,244.702 283.872,244.801 283.496 C 244.899 283.120,244.899 282.505,244.801 282.129 C 244.702 281.753,244.622 282.061,244.622 282.813 M266.918 286.523 C 266.920 287.813,266.993 288.293,267.080 287.591 C 267.167 286.889,267.165 285.834,267.076 285.247 C 266.987 284.660,266.916 285.234,266.918 286.523 M152.065 303.711 C 152.068 304.785,152.144 305.178,152.233 304.584 C 152.323 303.991,152.321 303.112,152.228 302.631 C 152.135 302.151,152.062 302.637,152.065 303.711 M144.622 309.375 C 144.622 310.127,144.702 310.435,144.801 310.059 C 144.899 309.683,144.899 309.067,144.801 308.691 C 144.702 308.315,144.622 308.623,144.622 309.375 M151.653 312.891 C 151.653 313.643,151.734 313.950,151.832 313.574 C 151.930 313.198,151.930 312.583,151.832 312.207 C 151.734 311.831,151.653 312.139,151.653 312.891 M245.861 318.555 C 245.862 321.992,245.921 323.346,245.994 321.563 C 246.067 319.781,246.066 316.968,245.993 315.313 C 245.920 313.659,245.861 315.117,245.861 318.555 M144.231 319.141 C 144.231 319.893,144.312 320.200,144.410 319.824 C 144.508 319.448,144.508 318.833,144.410 318.457 C 144.312 318.081,144.231 318.389,144.231 319.141 M245.842 328.320 C 245.841 330.254,245.907 331.094,245.989 330.188 C 246.070 329.281,246.071 327.699,245.991 326.672 C 245.910 325.645,245.843 326.387,245.842 328.320 M276.270 334.254 C 276.646 334.352,277.261 334.352,277.637 334.254 C 278.013 334.155,277.705 334.075,276.953 334.075 C 276.201 334.075,275.894 334.155,276.270 334.254 M151.661 339.258 C 151.665 340.117,151.745 340.423,151.839 339.937 C 151.932 339.451,151.929 338.748,151.831 338.374 C 151.733 338.001,151.657 338.398,151.661 339.258 M149.902 355.751 C 150.601 355.838,151.743 355.838,152.441 355.751 C 153.140 355.665,152.568 355.594,151.172 355.594 C 149.775 355.594,149.204 355.665,149.902 355.751 M169.238 355.738 C 169.614 355.836,170.229 355.836,170.605 355.738 C 170.981 355.640,170.674 355.559,169.922 355.559 C 169.170 355.559,168.862 355.640,169.238 355.738 M171.973 355.738 C 172.349 355.836,172.964 355.836,173.340 355.738 C 173.716 355.640,173.408 355.559,172.656 355.559 C 171.904 355.559,171.597 355.640,171.973 355.738 M245.206 355.751 C 245.900 355.837,247.130 355.838,247.941 355.754 C 248.751 355.669,248.184 355.599,246.680 355.597 C 245.176 355.595,244.513 355.664,245.206 355.751 " stroke="none" fill="#8bb493" fill-rule="evenodd"></path></g></svg>