<svg id="svg" version="1.1" xmlns="http://www.w3.org/2000/svg" xmlns:xlink="http://www.w3.org/1999/xlink" width="400" height="400" viewBox="0, 0, 400,400"><g id="svgg"><path id="path0" d="M237.659 30.459 C 226.357 32.851,217.090 49.265,212.899 74.318 C 212.441 77.058,212.031 81.013,211.990 83.107 C 211.948 85.201,211.777 87.016,211.610 87.140 C 211.442 87.264,211.266 92.305,211.219 98.343 L 211.133 109.321 208.203 109.550 C 204.756 109.818,200.988 110.353,196.739 111.178 C 195.054 111.505,193.629 111.717,193.573 111.648 C 193.518 111.580,193.251 109.854,192.980 107.813 C 191.943 100.004,188.241 84.375,187.428 84.375 C 187.227 84.375,187.158 84.221,187.275 84.033 C 187.744 83.274,181.980 69.141,181.201 69.141 C 181.013 69.141,180.903 68.996,180.957 68.819 C 181.106 68.330,178.816 63.682,178.517 63.866 C 178.373 63.955,178.255 63.799,178.255 63.520 C 178.255 62.869,175.431 58.203,175.037 58.203 C 174.873 58.203,174.740 57.966,174.740 57.677 C 174.740 56.924,171.760 52.760,171.386 52.990 C 171.215 53.096,171.123 53.015,171.182 52.809 C 171.320 52.326,167.799 47.496,166.649 46.591 C 166.164 46.210,165.692 45.723,165.599 45.508 C 165.506 45.293,165.254 45.176,165.039 45.247 C 164.824 45.319,164.783 45.243,164.947 45.079 C 165.349 44.677,163.266 42.541,162.770 42.848 C 162.555 42.981,162.486 42.917,162.616 42.706 C 163.391 41.453,153.917 35.482,149.023 34.139 C 145.543 33.184,138.281 33.635,138.281 34.807 C 138.281 35.024,138.091 35.085,137.859 34.941 C 135.752 33.639,130.162 40.880,128.435 47.149 C 126.921 52.646,127.551 68.825,129.304 69.459 C 129.491 69.526,129.556 69.809,129.450 70.087 C 129.192 70.758,131.662 78.337,133.762 83.318 C 136.877 90.708,137.207 91.392,137.545 91.183 C 137.730 91.069,137.766 91.277,137.624 91.645 C 137.436 92.136,137.506 92.230,137.885 91.996 C 138.213 91.793,138.308 91.828,138.145 92.092 C 137.833 92.596,138.248 93.816,138.648 93.570 C 138.804 93.473,138.932 93.622,138.932 93.901 C 138.932 94.689,142.570 101.172,143.012 101.172 C 143.229 101.172,143.317 101.315,143.209 101.489 C 142.976 101.866,144.305 104.002,144.593 103.714 C 144.702 103.605,144.792 103.741,144.792 104.016 C 144.792 104.679,146.090 106.641,146.529 106.641 C 146.719 106.641,146.831 106.772,146.777 106.934 C 146.594 107.483,148.991 110.883,149.399 110.652 C 149.622 110.525,149.674 110.566,149.514 110.743 C 149.182 111.108,150.767 113.412,152.296 114.789 C 152.860 115.296,153.077 115.578,152.779 115.417 C 152.481 115.255,152.641 115.668,153.134 116.335 C 153.627 117.002,154.205 117.439,154.419 117.307 C 154.633 117.175,154.691 117.256,154.549 117.487 C 154.406 117.717,154.862 118.378,155.563 118.954 C 156.263 119.530,156.572 119.861,156.250 119.690 C 155.592 119.340,159.718 124.076,161.879 126.151 C 163.718 127.917,163.853 127.600,159.360 132.065 C 156.926 134.484,155.542 136.143,155.711 136.438 C 155.862 136.700,155.845 136.788,155.675 136.634 C 155.368 136.358,153.222 139.009,153.029 139.903 C 152.975 140.157,152.616 140.693,152.232 141.095 C 151.848 141.497,151.655 142.022,151.804 142.262 C 151.962 142.517,151.898 142.590,151.651 142.437 C 151.257 142.194,150.529 143.577,150.704 144.238 C 150.746 144.399,150.593 144.531,150.363 144.531 C 149.736 144.531,146.250 152.187,144.523 157.358 C 138.613 175.053,137.708 189.094,141.664 201.709 C 143.421 207.311,148.908 217.969,150.035 217.969 C 150.256 217.969,150.345 218.118,150.232 218.300 C 149.955 218.748,153.874 223.451,155.841 225.032 C 157.335 226.233,157.387 226.344,156.776 227.019 C 156.045 227.827,155.269 227.993,155.713 227.246 C 157.211 224.732,134.286 247.834,129.559 253.602 C 121.413 263.545,114.086 277.055,112.046 285.893 L 111.607 287.795 107.424 287.967 C 92.657 288.576,85.749 302.615,92.854 317.578 C 96.483 325.221,106.754 331.646,114.453 331.090 C 116.272 330.959,116.605 330.996,115.625 331.222 L 114.258 331.538 115.495 331.589 C 116.657 331.637,116.784 331.794,117.560 334.124 C 119.889 341.125,124.459 344.538,137.475 348.997 C 152.920 354.288,166.574 357.019,167.785 355.059 C 167.958 354.779,168.214 354.795,168.592 355.109 C 169.401 355.780,178.806 354.301,178.356 353.574 C 178.265 353.426,179.235 352.757,180.513 352.087 C 181.966 351.325,182.651 351.108,182.343 351.508 C 182.047 351.893,182.214 351.836,182.762 351.368 C 185.321 349.179,186.543 344.598,185.525 341.016 C 185.250 340.049,184.987 339.075,184.942 338.852 C 184.888 338.591,186.034 338.660,188.162 339.046 C 190.555 339.480,191.215 339.716,190.557 339.901 C 189.650 340.156,189.650 340.157,190.520 340.195 C 191.142 340.223,191.454 340.541,191.612 341.309 C 193.745 351.695,199.482 356.471,211.914 358.210 C 217.844 359.040,230.990 357.837,230.743 356.487 C 230.700 356.249,231.134 356.061,231.709 356.068 C 232.284 356.075,232.651 355.913,232.524 355.708 C 232.392 355.495,232.579 355.446,232.964 355.593 C 233.362 355.746,233.537 355.694,233.396 355.464 C 233.149 355.065,233.203 355.040,234.661 354.887 C 236.443 354.699,239.063 351.164,239.063 348.947 C 239.063 348.038,239.243 347.656,239.671 347.656 C 240.006 347.656,240.195 347.794,240.091 347.963 C 239.839 348.370,246.943 349.897,251.367 350.386 C 254.918 350.779,258.435 350.573,258.821 349.949 C 258.936 349.762,259.679 349.634,260.472 349.665 L 261.914 349.720 260.352 350.000 C 257.838 350.450,260.387 350.440,263.281 349.989 C 266.667 349.460,271.172 348.099,270.914 347.682 C 270.645 347.246,271.822 346.796,272.361 347.129 C 272.614 347.286,272.662 347.200,272.482 346.909 C 272.291 346.601,272.399 346.476,272.787 346.556 C 273.116 346.624,273.354 346.575,273.314 346.447 C 273.194 346.058,274.287 344.918,274.597 345.109 C 275.410 345.612,277.211 342.604,277.728 339.879 C 278.860 333.910,274.017 327.490,265.001 323.009 L 261.039 321.041 260.773 312.571 C 260.029 288.860,258.390 268.405,256.401 258.008 C 255.436 252.963,252.259 241.022,251.936 241.222 C 251.544 241.464,250.759 239.185,251.009 238.532 C 251.117 238.252,252.471 237.536,254.020 236.940 C 277.246 228.001,287.613 204.738,280.287 178.005 C 279.557 175.342,278.759 171.686,278.515 169.882 C 275.501 147.639,265.513 129.624,250.719 119.744 L 247.336 117.485 248.322 114.895 C 259.858 84.598,261.812 55.946,253.445 39.772 C 249.936 32.987,243.541 29.215,237.659 30.459 M243.809 50.879 C 249.691 57.593,248.658 79.644,241.471 100.781 C 240.408 103.909,237.125 112.544,236.893 112.824 C 236.834 112.896,234.987 112.500,232.788 111.946 C 230.590 111.391,228.350 110.938,227.811 110.938 L 226.832 110.938 227.095 104.004 C 227.891 82.983,230.984 65.980,235.687 56.762 C 238.543 51.164,241.918 48.720,243.809 50.879 M150.365 53.586 C 157.471 56.977,167.728 74.011,172.904 91.016 C 175.277 98.812,179.356 117.114,178.786 117.401 C 178.745 117.422,177.889 117.910,176.884 118.485 C 175.879 119.061,174.963 119.531,174.849 119.531 C 173.011 119.531,158.069 100.158,152.715 90.832 C 139.779 68.301,138.493 47.919,150.365 53.586 M159.943 130.957 L 158.398 132.617 160.059 131.073 C 161.603 129.637,161.898 129.297,161.603 129.297 C 161.539 129.297,160.792 130.044,159.943 130.957 M202.217 154.963 C 205.324 156.571,204.066 158.635,200.436 157.885 C 195.070 156.776,191.965 157.444,188.627 160.422 C 185.709 163.027,183.984 163.117,183.984 160.665 C 183.984 155.829,196.391 151.949,202.217 154.963 M257.719 154.238 C 262.000 155.570,265.268 158.508,264.072 159.949 C 263.318 160.858,262.588 160.690,259.691 158.939 C 256.225 156.845,253.178 156.483,250.115 157.800 C 247.742 158.821,246.728 158.729,246.550 157.477 C 246.119 154.450,252.476 152.606,257.719 154.238 M257.340 169.412 C 262.433 173.505,263.138 184.127,258.617 188.648 C 252.327 194.939,244.008 184.501,247.029 174.109 C 248.641 168.564,253.519 166.342,257.340 169.412 M200.203 170.375 C 203.810 172.840,205.774 178.981,204.707 184.457 C 202.242 197.103,189.984 195.054,189.161 181.858 C 188.598 172.842,194.632 166.568,200.203 170.375 M240.994 192.949 C 244.278 193.329,244.924 193.843,244.918 196.071 C 244.912 198.549,240.677 204.404,237.233 206.696 C 235.988 207.525,235.705 215.844,236.878 217.145 C 239.622 220.188,246.189 218.483,248.569 214.110 C 250.491 210.579,253.371 211.529,252.317 215.347 C 250.575 221.655,240.405 224.833,234.589 220.886 C 233.166 219.920,233.135 219.917,232.101 220.631 C 225.208 225.396,213.213 222.818,211.365 216.174 C 210.347 212.517,213.352 211.375,215.433 214.627 C 218.191 218.939,222.490 220.131,227.734 218.037 C 231.460 216.548,231.581 216.373,232.157 211.589 L 232.666 207.366 231.585 206.807 C 226.943 204.407,223.018 197.505,224.606 194.537 C 225.376 193.098,234.578 192.206,240.994 192.949 M155.469 227.857 C 155.469 227.924,154.897 228.495,154.199 229.126 L 152.930 230.273 154.077 229.004 C 155.146 227.821,155.469 227.555,155.469 227.857 M170.605 354.957 C 170.229 355.055,169.614 355.055,169.238 354.957 C 168.862 354.859,169.170 354.778,169.922 354.778 C 170.674 354.778,170.981 354.859,170.605 354.957 M220.410 358.088 C 219.927 358.181,219.136 358.181,218.652 358.088 C 218.169 357.995,218.564 357.919,219.531 357.919 C 220.498 357.919,220.894 357.995,220.410 358.088 " stroke="none" fill="#aea8ab" fill-rule="evenodd"></path><path id="path1" d="M193.783 154.050 C 193.872 154.129,195.527 154.279,197.461 154.383 C 199.395 154.486,200.537 154.439,200.000 154.278 C 199.021 153.983,193.477 153.780,193.783 154.050 M248.957 154.663 C 247.355 155.390,246.484 156.412,246.484 157.565 C 246.484 158.476,247.882 158.699,249.229 158.002 C 249.901 157.655,251.184 157.211,252.081 157.017 L 253.711 156.662 252.106 156.802 C 251.223 156.879,249.851 157.251,249.056 157.628 C 247.419 158.405,246.630 158.029,247.059 156.676 C 247.398 155.607,249.267 154.657,251.743 154.293 C 253.657 154.012,253.668 154.003,252.148 153.964 C 251.289 153.941,249.853 154.256,248.957 154.663 M256.145 154.318 C 259.883 155.056,263.815 157.598,263.593 159.134 C 263.435 160.228,262.089 160.088,260.402 158.801 C 258.654 157.468,256.516 156.632,254.993 156.687 C 253.945 156.724,254.058 156.791,255.610 157.051 C 256.677 157.230,258.389 157.949,259.517 158.692 C 262.846 160.885,264.063 160.965,264.063 158.990 C 264.063 157.173,258.394 153.829,255.517 153.949 C 254.807 153.979,255.000 154.092,256.145 154.318 M190.493 154.902 C 186.097 156.514,182.586 161.014,184.863 162.117 C 185.656 162.502,185.676 162.489,185.059 161.990 C 183.067 160.379,186.858 156.473,191.992 154.845 C 192.852 154.572,193.203 154.350,192.773 154.351 C 192.344 154.351,191.318 154.599,190.493 154.902 M202.275 155.482 C 203.717 156.361,203.728 156.987,202.313 157.709 C 201.793 157.974,201.598 158.194,201.881 158.197 C 202.737 158.207,203.906 157.429,203.906 156.851 C 203.906 156.251,202.102 154.687,201.412 154.689 C 201.173 154.690,201.561 155.047,202.275 155.482 M193.750 157.039 C 193.143 157.237,193.661 157.276,195.117 157.141 C 196.406 157.021,197.534 156.859,197.624 156.782 C 197.939 156.509,194.715 156.722,193.750 157.039 M198.079 157.175 C 198.169 157.254,198.945 157.425,199.805 157.556 C 200.894 157.722,201.130 157.687,200.586 157.440 C 199.836 157.100,197.744 156.879,198.079 157.175 M190.820 158.077 C 189.571 158.742,185.769 162.109,186.268 162.109 C 186.432 162.109,187.171 161.479,187.912 160.708 C 188.652 159.937,190.049 158.890,191.016 158.382 C 191.982 157.874,192.598 157.457,192.383 157.456 C 192.168 157.454,191.465 157.734,190.820 158.077 M252.148 168.249 C 247.299 169.427,244.913 178.723,247.827 185.083 C 251.583 193.281,259.420 191.875,261.321 182.663 C 262.928 174.880,257.830 166.869,252.148 168.249 M192.555 171.433 C 190.079 174.002,189.245 176.464,189.298 181.055 C 189.459 194.949,202.256 197.395,204.685 183.996 C 206.514 173.912,198.333 165.438,192.555 171.433 M227.949 193.351 C 224.028 193.877,222.968 196.805,225.379 200.446 C 226.891 202.729,231.371 207.021,232.290 207.067 C 236.698 207.290,238.380 206.407,241.849 202.047 C 244.858 198.266,245.574 195.815,244.176 194.086 C 243.356 193.074,233.386 192.622,227.949 193.351 M232.672 208.676 C 232.540 209.168,232.452 210.186,232.476 210.938 C 232.509 211.981,232.593 211.797,232.830 210.158 C 233.157 207.902,233.078 207.161,232.672 208.676 M235.729 211.570 C 235.390 216.094,235.920 217.675,238.077 218.576 C 242.113 220.262,247.074 218.208,249.273 213.940 C 250.279 211.990,251.692 212.009,251.881 213.975 C 252.220 217.495,247.601 221.356,241.974 222.255 L 239.648 222.626 242.087 222.452 C 244.842 222.256,246.646 221.606,248.620 220.100 C 251.973 217.543,253.580 212.825,251.294 212.251 C 250.181 211.972,250.116 212.029,248.318 214.829 C 246.193 218.139,241.414 219.717,238.174 218.180 C 236.182 217.234,235.806 216.010,236.141 211.546 C 236.295 209.492,236.329 207.813,236.216 207.813 C 236.103 207.813,235.884 209.504,235.729 211.570 M212.196 213.108 C 209.131 215.255,216.173 223.841,219.964 222.577 C 220.200 222.498,219.459 222.195,218.317 221.902 C 213.775 220.738,209.732 214.277,212.807 213.097 C 213.509 212.828,214.130 213.442,216.070 216.325 C 218.802 220.386,228.036 220.508,231.307 216.526 C 231.599 216.171,231.137 216.337,230.273 216.898 C 224.762 220.478,218.677 219.765,215.748 215.198 C 213.944 212.384,213.556 212.156,212.196 213.108 M232.138 214.063 C 232.138 215.029,232.214 215.425,232.307 214.941 C 232.400 214.458,232.400 213.667,232.307 213.184 C 232.214 212.700,232.138 213.096,232.138 214.063 M232.195 219.914 C 231.985 220.124,231.115 220.658,230.262 221.100 C 229.356 221.569,229.117 221.797,229.688 221.649 C 230.685 221.390,233.203 219.990,233.203 219.695 C 233.203 219.393,232.582 219.528,232.195 219.914 M234.375 220.385 C 234.912 220.946,235.791 221.516,236.328 221.654 C 237.187 221.873,237.163 221.825,236.133 221.254 C 235.488 220.897,234.609 220.327,234.180 219.986 C 233.750 219.645,233.838 219.825,234.375 220.385 M227.256 222.093 C 227.137 222.212,225.569 222.466,223.773 222.657 L 220.508 223.003 223.633 222.864 C 226.320 222.744,229.893 221.972,228.092 221.900 C 227.752 221.886,227.376 221.973,227.256 222.093 " stroke="none" fill="#3d393b" fill-rule="evenodd"></path><path id="path2" d="M235.667 30.281 C 233.965 30.817,229.290 33.873,227.930 35.338 C 224.837 38.669,221.625 43.643,219.977 47.656 C 219.491 48.838,218.850 50.332,218.552 50.977 C 217.545 53.156,215.625 58.656,215.625 59.364 C 215.625 59.750,215.362 60.570,215.041 61.186 C 214.721 61.801,214.457 62.768,214.456 63.334 C 214.454 63.900,214.206 65.219,213.903 66.264 C 213.128 68.944,212.144 75.112,210.951 84.766 C 210.752 86.377,210.580 92.300,210.568 97.927 C 210.547 108.046,210.537 108.166,209.679 108.767 L 208.811 109.375 209.972 109.373 L 211.133 109.371 211.180 99.900 C 211.321 71.817,216.670 50.288,226.574 37.947 C 233.037 29.894,242.730 27.941,248.560 33.518 C 249.165 34.096,249.557 34.306,249.433 33.984 C 248.270 30.978,240.278 28.828,235.667 30.281 M138.163 34.054 C 135.837 34.865,131.553 38.346,130.821 40.020 C 130.628 40.460,130.306 41.084,130.104 41.406 C 126.270 47.530,125.670 61.873,128.837 71.680 C 129.045 72.324,129.598 74.082,130.066 75.586 C 130.877 78.192,131.200 79.098,132.673 82.910 C 133.320 84.584,136.800 92.132,137.567 93.523 C 137.794 93.935,138.681 95.605,139.538 97.234 C 140.395 98.863,141.605 100.951,142.228 101.875 C 142.850 102.799,143.359 103.684,143.359 103.843 C 143.359 104.001,143.880 104.740,144.515 105.484 C 145.151 106.227,145.679 106.978,145.687 107.152 C 145.701 107.430,147.707 110.278,148.824 111.607 C 149.044 111.868,149.618 112.659,150.100 113.365 C 151.934 116.050,155.894 120.997,158.163 123.438 C 161.532 127.061,161.489 127.857,157.679 132.355 C 153.043 137.831,146.875 147.743,146.875 149.718 C 146.875 150.002,146.670 150.440,146.419 150.691 C 146.168 150.941,145.725 151.812,145.435 152.624 C 143.562 157.863,142.208 162.129,141.990 163.477 C 141.850 164.336,141.502 165.830,141.215 166.797 C 140.035 170.780,139.455 173.889,139.491 176.041 L 139.529 178.320 140.051 174.969 C 142.822 157.197,150.594 140.288,160.476 130.529 L 163.382 127.660 160.864 125.061 C 141.644 105.218,127.478 76.025,127.568 56.445 C 127.646 39.457,135.626 31.213,149.219 34.077 L 150.586 34.365 149.414 33.802 C 147.580 32.920,140.994 33.068,138.163 34.054 M151.563 34.961 C 152.841 35.692,153.533 35.683,152.562 34.949 C 152.145 34.633,151.530 34.381,151.195 34.389 C 150.805 34.398,150.937 34.603,151.563 34.961 M251.317 36.291 C 261.602 48.980,260.828 80.414,249.461 111.626 C 247.367 117.376,247.366 117.383,248.182 117.969 C 248.632 118.291,250.323 119.481,251.941 120.613 L 254.883 122.671 252.046 120.027 C 248.232 116.472,248.245 116.048,252.536 104.688 C 253.789 101.372,255.488 95.167,256.227 91.211 C 256.668 88.848,257.209 86.123,257.429 85.156 C 258.960 78.434,259.751 59.363,258.686 54.883 C 258.431 53.809,257.851 51.172,257.399 49.023 C 256.436 44.456,253.433 37.897,251.483 36.105 L 250.239 34.961 251.317 36.291 M155.078 36.598 C 169.687 45.272,184.133 68.638,190.206 93.420 C 191.430 98.416,193.359 109.032,193.359 110.773 C 193.359 111.857,193.556 111.880,196.484 111.149 C 198.424 110.666,198.499 110.610,197.255 110.580 C 194.630 110.517,193.764 109.280,192.991 104.492 C 192.156 99.318,191.780 97.358,191.193 95.117 C 188.683 85.525,186.859 79.573,186.049 78.331 C 185.773 77.907,185.547 77.335,185.547 77.060 C 185.547 76.382,179.409 63.871,178.117 61.914 C 177.549 61.055,176.973 60.044,176.836 59.669 C 175.796 56.810,167.722 46.282,163.853 42.739 C 160.726 39.876,154.614 35.544,153.711 35.551 C 153.496 35.553,154.111 36.024,155.078 36.598 M240.344 50.770 C 233.460 54.967,228.143 76.330,227.095 104.004 L 226.832 110.938 227.811 110.938 C 228.350 110.938,230.590 111.391,232.788 111.946 C 234.987 112.500,236.834 112.896,236.893 112.824 C 237.743 111.796,242.313 98.546,243.943 92.383 C 250.093 69.124,248.097 46.042,240.344 50.770 M144.872 53.324 C 137.976 57.070,144.369 79.319,158.114 99.414 C 162.717 106.144,173.854 119.531,174.849 119.531 C 174.963 119.531,175.879 119.061,176.884 118.485 C 177.889 117.910,178.745 117.422,178.786 117.401 C 179.356 117.114,175.277 98.812,172.904 91.016 C 165.866 67.892,152.107 49.392,144.872 53.324 M259.487 127.344 C 270.449 139.106,276.037 151.600,278.515 169.882 C 278.759 171.686,279.557 175.342,280.287 178.005 C 287.578 204.610,277.462 227.593,254.424 236.764 C 252.743 237.433,251.321 238.021,251.265 238.070 C 251.209 238.119,251.438 238.934,251.774 239.880 C 252.885 243.008,256.174 256.376,256.811 260.352 C 258.160 268.764,258.197 268.915,257.996 265.234 C 257.789 261.460,256.603 254.364,255.645 251.172 C 255.290 249.990,254.853 248.232,254.675 247.266 C 254.496 246.299,253.986 244.470,253.542 243.201 C 252.442 240.058,253.528 237.109,255.786 237.109 C 257.387 237.109,265.595 231.600,268.983 228.251 C 273.338 223.947,278.174 217.513,279.208 214.648 C 279.441 214.004,280.005 212.510,280.463 211.328 C 282.690 205.573,282.954 203.845,282.962 194.922 C 282.971 186.107,283.001 186.343,280.590 176.367 C 280.046 174.120,278.910 168.205,278.151 163.672 C 277.716 161.076,275.490 152.068,275.013 150.977 C 274.573 149.968,272.916 146.288,272.111 144.531 C 269.146 138.062,263.352 130.177,258.046 125.391 C 256.223 123.746,256.561 124.205,259.487 127.344 M138.739 180.499 C 138.095 183.288,138.167 186.136,139.034 192.199 C 140.020 199.097,140.772 202.125,142.571 206.445 C 142.928 207.305,143.549 208.799,143.950 209.766 C 144.351 210.732,145.173 212.279,145.777 213.203 C 146.381 214.127,146.875 214.986,146.875 215.112 C 146.875 215.570,150.404 220.684,151.325 221.561 C 152.721 222.891,154.297 225.389,154.297 226.273 C 154.297 226.763,150.961 230.352,145.178 236.082 C 136.637 244.545,135.043 246.232,131.055 251.022 C 130.195 252.054,128.953 253.521,128.295 254.282 C 126.983 255.796,124.272 259.395,122.451 262.039 C 119.193 266.770,114.508 276.208,112.295 282.500 C 110.927 286.392,110.503 286.743,106.701 287.126 C 100.558 287.745,93.082 292.156,91.966 295.819 C 91.822 296.292,91.488 296.943,91.224 297.266 C 89.561 299.294,89.073 308.508,90.369 313.425 C 93.003 323.425,101.275 329.949,113.707 331.831 C 115.459 332.096,116.363 333.101,117.754 336.328 C 119.853 341.196,124.153 344.657,131.543 347.425 C 132.456 347.767,133.862 348.296,134.668 348.600 C 135.474 348.904,137.100 349.442,138.281 349.795 C 139.463 350.148,142.803 351.201,145.703 352.136 C 148.604 353.070,151.768 353.938,152.734 354.064 C 153.701 354.190,151.855 353.516,148.633 352.567 C 126.506 346.051,120.306 342.376,117.572 334.160 L 116.757 331.713 114.336 331.454 C 86.450 328.478,80.190 289.089,107.424 287.967 L 111.607 287.795 112.046 285.893 C 115.758 269.808,128.332 252.572,153.436 229.152 L 156.677 226.129 153.998 223.259 C 144.585 213.180,139.283 199.399,139.301 185.059 C 139.305 181.460,139.284 178.516,139.253 178.516 C 139.222 178.516,138.991 179.408,138.739 180.499 M258.237 269.509 C 258.218 269.819,258.476 273.247,258.809 277.126 C 259.143 281.006,259.648 288.047,259.931 292.773 C 260.362 299.950,260.453 300.659,260.484 297.070 C 260.560 288.332,258.569 263.925,258.237 269.509 M260.817 312.695 C 260.931 317.207,261.136 321.004,261.274 321.133 C 261.411 321.262,262.754 321.917,264.258 322.588 C 265.762 323.260,266.553 323.506,266.016 323.136 C 265.479 322.765,264.363 321.840,263.536 321.080 L 262.033 319.699 261.657 314.830 C 260.897 305.000,260.604 304.257,260.817 312.695 M272.318 327.677 C 277.179 332.085,279.183 338.190,277.124 342.315 C 276.998 342.567,277.153 342.458,277.468 342.072 C 280.232 338.692,277.381 331.162,271.722 326.892 C 270.655 326.087,270.855 326.350,272.318 327.677 M185.425 340.689 C 187.780 347.441,183.689 352.740,174.609 354.698 L 171.289 355.414 173.633 355.439 C 174.999 355.453,176.443 355.221,177.095 354.880 C 177.711 354.559,178.459 354.297,178.757 354.297 C 179.422 354.297,181.517 353.195,182.856 352.142 C 183.841 351.368,186.461 346.400,186.871 344.531 C 187.123 343.381,188.864 341.406,189.626 341.406 C 190.231 341.406,191.797 343.865,191.797 344.816 C 191.797 347.198,195.669 352.660,198.240 353.905 C 199.205 354.373,200.095 354.916,200.216 355.112 C 200.337 355.308,200.717 355.469,201.060 355.469 C 201.403 355.469,200.640 354.794,199.364 353.969 C 198.088 353.145,196.369 351.694,195.544 350.747 C 193.421 348.308,192.726 346.640,191.630 341.361 C 191.442 340.458,191.131 340.283,188.970 339.868 C 187.625 339.609,186.143 339.306,185.679 339.196 C 184.845 338.998,184.842 339.017,185.425 340.689 M275.209 344.835 C 273.373 346.875,270.863 348.225,267.046 349.226 C 265.513 349.628,264.575 349.967,264.964 349.978 C 266.035 350.011,269.212 349.227,270.313 348.658 C 270.850 348.380,271.729 348.041,272.266 347.903 C 273.369 347.621,275.388 345.885,276.390 344.356 C 277.451 342.737,276.895 342.963,275.209 344.835 M239.062 348.899 C 239.061 349.767,239.167 349.799,241.613 349.673 C 243.017 349.601,244.698 349.727,245.348 349.954 C 245.998 350.181,248.146 350.451,250.121 350.555 L 253.711 350.743 250.781 350.385 C 248.287 350.079,242.025 348.833,239.746 348.188 C 239.236 348.043,239.062 348.224,239.062 348.899 M262.207 350.269 C 262.583 350.368,263.198 350.368,263.574 350.269 C 263.950 350.171,263.643 350.091,262.891 350.091 C 262.139 350.091,261.831 350.171,262.207 350.269 M256.938 350.667 C 257.424 350.760,258.127 350.757,258.501 350.659 C 258.874 350.561,258.477 350.485,257.617 350.489 C 256.758 350.493,256.452 350.573,256.938 350.667 M236.989 353.364 C 236.003 354.683,232.176 356.526,228.602 357.405 C 226.206 357.994,225.879 358.152,227.010 358.175 C 230.161 358.237,235.868 355.686,237.368 353.543 C 238.199 352.357,237.862 352.198,236.989 353.364 M155.124 354.690 C 155.472 354.893,156.790 355.151,158.054 355.264 L 160.352 355.469 158.008 354.908 C 155.141 354.222,154.201 354.151,155.124 354.690 M202.949 356.222 C 203.153 356.422,203.848 356.694,204.492 356.828 C 205.660 357.069,205.660 357.068,204.350 356.465 C 202.850 355.774,202.414 355.699,202.949 356.222 M206.445 357.422 C 206.875 357.607,207.490 357.758,207.813 357.758 C 208.182 357.758,208.110 357.633,207.617 357.422 C 207.188 357.237,206.572 357.086,206.250 357.086 C 205.881 357.086,205.953 357.210,206.445 357.422 M212.594 358.652 C 213.761 358.988,222.919 358.966,224.414 358.624 C 225.059 358.476,222.464 358.365,218.649 358.377 C 214.833 358.389,212.108 358.513,212.594 358.652 " stroke="none" fill="#fbc184" fill-rule="evenodd"></path><path id="path3" d="M252.915 153.870 C 253.615 154.144,253.592 154.193,252.654 154.429 C 252.088 154.571,251.347 154.580,251.008 154.450 C 250.658 154.316,250.391 154.415,250.391 154.678 C 250.391 154.934,250.171 155.069,249.902 154.979 C 249.634 154.888,249.181 155.093,248.897 155.434 C 248.612 155.776,248.502 155.817,248.651 155.527 C 248.870 155.103,248.762 155.086,248.094 155.444 C 247.638 155.687,247.266 155.979,247.266 156.091 C 247.266 156.204,247.439 156.189,247.652 156.057 C 247.875 155.920,247.938 156.080,247.801 156.435 C 247.607 156.943,247.459 156.964,246.961 156.553 C 246.428 156.113,246.412 156.159,246.829 156.942 C 247.089 157.430,247.205 157.984,247.088 158.175 C 246.970 158.365,247.241 158.425,247.689 158.308 C 248.137 158.191,248.591 157.867,248.698 157.588 C 248.805 157.309,249.142 157.176,249.446 157.293 C 249.751 157.410,250.000 157.316,250.000 157.085 C 250.000 156.854,250.292 156.777,250.650 156.915 C 251.122 157.096,251.213 157.022,250.980 156.646 C 250.726 156.235,250.934 156.190,251.990 156.428 C 253.511 156.770,254.488 156.774,255.811 156.443 C 256.545 156.259,256.690 156.339,256.504 156.825 C 256.305 157.343,256.398 157.370,257.099 156.995 C 257.822 156.608,257.896 156.640,257.667 157.236 C 257.435 157.841,257.483 157.858,258.072 157.379 C 258.665 156.897,258.709 156.919,258.463 157.575 C 258.236 158.178,258.286 158.230,258.735 157.858 C 259.165 157.501,259.337 157.541,259.529 158.042 C 259.679 158.432,260.059 158.608,260.500 158.493 C 260.996 158.363,261.210 158.503,261.179 158.937 C 261.151 159.324,261.409 159.548,261.843 159.512 C 262.292 159.474,262.479 159.647,262.351 159.980 C 262.224 160.312,262.350 160.430,262.692 160.299 C 263.947 159.817,262.847 156.525,261.573 156.950 C 261.386 157.012,261.325 156.822,261.438 156.526 C 261.552 156.231,261.405 155.990,261.113 155.990 C 260.820 155.990,260.687 156.180,260.817 156.413 C 260.946 156.646,260.654 156.425,260.167 155.924 C 259.639 155.379,258.992 155.087,258.562 155.200 C 258.165 155.303,257.631 155.135,257.374 154.825 C 257.116 154.515,256.671 154.352,256.383 154.462 C 255.685 154.730,254.636 154.306,254.908 153.865 C 255.027 153.673,254.455 153.528,253.636 153.543 C 252.522 153.564,252.341 153.646,252.915 153.870 M193.082 154.650 C 192.747 155.181,192.600 155.192,192.040 154.727 C 191.473 154.256,191.420 154.269,191.634 154.828 C 191.925 155.585,191.378 155.673,190.680 154.980 C 190.285 154.589,190.244 154.640,190.473 155.240 C 190.655 155.719,190.612 155.897,190.351 155.736 C 190.128 155.598,189.548 155.829,189.063 156.250 C 188.577 156.671,188.039 156.928,187.867 156.821 C 187.695 156.715,187.442 156.809,187.305 157.031 C 187.168 157.253,186.865 157.317,186.631 157.173 C 186.398 157.028,186.314 157.083,186.445 157.295 C 186.695 157.700,184.594 160.245,184.274 159.925 C 184.171 159.822,184.172 160.182,184.276 160.724 C 184.383 161.286,184.642 161.600,184.877 161.455 C 185.133 161.297,185.195 161.445,185.041 161.845 C 184.650 162.866,185.557 162.456,187.382 160.786 C 188.296 159.949,188.925 159.072,188.782 158.833 C 188.639 158.594,188.848 158.662,189.247 158.984 C 189.927 159.534,189.943 159.516,189.503 158.691 C 189.243 158.203,189.200 157.813,189.407 157.813 C 189.611 157.813,189.867 158.032,189.976 158.301 C 190.124 158.669,190.180 158.672,190.204 158.315 C 190.259 157.458,191.768 156.913,192.481 157.492 C 193.027 157.936,193.080 157.913,192.859 157.324 C 192.562 156.531,193.055 156.451,194.264 157.095 C 195.014 157.495,195.057 157.476,194.619 156.946 C 194.193 156.429,194.278 156.319,195.205 156.188 C 196.758 155.967,197.656 156.220,197.656 156.878 C 197.656 157.330,197.821 157.361,198.446 157.027 C 199.316 156.561,200.155 156.854,199.764 157.488 C 199.612 157.733,199.838 157.717,200.343 157.447 C 200.988 157.102,201.172 157.115,201.172 157.506 C 201.172 157.782,201.603 158.008,202.129 158.008 C 202.673 158.008,202.939 157.861,202.745 157.667 C 202.558 157.480,202.503 157.070,202.624 156.756 C 202.803 156.289,202.903 156.279,203.173 156.706 C 203.400 157.062,203.506 157.080,203.510 156.760 C 203.517 156.176,201.940 155.040,201.499 155.313 C 201.319 155.424,201.172 155.235,201.172 154.892 C 201.172 154.390,201.020 154.351,200.391 154.688 C 199.686 155.065,199.463 154.951,199.544 154.255 C 199.560 154.125,198.877 154.145,198.028 154.300 C 197.179 154.456,195.806 154.459,194.978 154.307 C 193.815 154.094,193.383 154.173,193.082 154.650 M233.082 207.895 C 233.632 208.503,233.555 208.725,232.812 208.672 C 232.705 208.665,232.678 209.435,232.754 210.384 C 232.829 211.333,232.726 212.109,232.523 212.109 C 232.308 212.109,232.266 212.839,232.422 213.867 C 232.609 215.103,232.553 215.625,232.231 215.625 C 231.979 215.625,231.545 216.050,231.267 216.570 C 230.942 217.178,230.497 217.463,230.019 217.371 C 229.547 217.281,229.375 217.388,229.546 217.665 C 229.720 217.946,229.592 218.016,229.186 217.860 C 228.722 217.682,228.619 217.784,228.797 218.248 C 228.951 218.650,228.883 218.782,228.609 218.612 C 228.372 218.466,228.063 218.534,227.922 218.763 C 227.744 219.051,227.493 219.036,227.105 218.714 C 226.650 218.336,226.591 218.370,226.791 218.890 C 227.076 219.634,226.813 219.693,225.750 219.124 C 225.331 218.900,225.035 218.856,225.092 219.026 C 225.238 219.465,224.891 219.531,222.438 219.531 C 220.958 219.531,220.351 219.394,220.532 219.102 C 220.705 218.822,220.489 218.837,219.910 219.147 C 219.136 219.561,219.054 219.539,219.272 218.970 C 219.410 218.612,219.373 218.411,219.191 218.524 C 218.293 219.078,215.225 216.303,215.831 215.484 C 215.932 215.347,215.899 215.322,215.757 215.428 C 215.472 215.641,213.861 213.259,213.981 212.803 C 214.022 212.647,213.614 212.721,213.073 212.967 C 212.525 213.217,211.994 213.861,211.872 214.422 C 211.752 214.976,211.571 215.688,211.470 216.004 C 211.369 216.319,211.409 216.456,211.557 216.307 C 211.905 215.960,213.262 218.438,212.981 218.908 C 212.865 219.102,212.949 219.150,213.169 219.015 C 213.675 218.702,214.946 220.070,214.552 220.504 C 214.390 220.683,214.434 220.732,214.648 220.615 C 215.194 220.317,217.621 221.690,217.275 222.100 C 217.119 222.285,217.300 222.200,217.676 221.912 C 218.303 221.432,218.534 221.581,218.400 222.380 C 218.372 222.550,218.691 222.506,219.109 222.282 C 220.121 221.741,220.313 221.767,220.313 222.448 C 220.313 222.867,220.534 222.940,221.132 222.719 C 221.583 222.552,222.808 222.525,223.855 222.660 C 225.403 222.858,225.679 222.808,225.331 222.389 C 224.811 221.763,225.303 221.713,226.714 222.249 C 227.535 222.561,227.658 222.521,227.461 222.008 C 227.258 221.479,227.350 221.460,228.125 221.875 C 228.909 222.294,228.993 222.274,228.779 221.716 C 228.570 221.172,228.657 221.142,229.353 221.514 C 229.805 221.756,230.066 221.780,229.934 221.568 C 229.803 221.356,229.992 220.943,230.353 220.650 C 230.917 220.192,230.967 220.200,230.710 220.703 C 230.525 221.065,230.621 221.033,230.961 220.619 C 231.393 220.093,231.614 220.051,231.990 220.424 C 232.366 220.797,232.413 220.753,232.208 220.215 C 231.834 219.233,233.599 219.301,234.766 220.313 C 235.261 220.742,235.826 221.094,236.020 221.094 C 236.215 221.094,236.250 221.313,236.099 221.582 C 235.878 221.973,235.928 221.973,236.349 221.582 C 237.039 220.941,237.527 220.959,237.276 221.614 C 237.127 222.002,237.394 222.089,238.320 221.953 C 239.004 221.852,239.468 221.925,239.350 222.115 C 239.233 222.305,240.069 222.461,241.209 222.461 C 242.349 222.461,243.214 222.351,243.132 222.217 C 243.050 222.082,243.691 221.859,244.557 221.721 C 245.589 221.556,246.036 221.317,245.856 221.026 C 245.691 220.758,245.756 220.690,246.022 220.854 C 246.264 221.004,246.877 220.855,247.383 220.523 C 247.890 220.191,248.451 220.052,248.629 220.213 C 248.807 220.375,248.833 220.299,248.687 220.043 C 248.355 219.464,249.962 217.907,250.547 218.240 C 250.783 218.375,250.847 218.342,250.689 218.167 C 250.530 217.992,250.758 217.271,251.194 216.565 C 252.009 215.247,252.210 211.696,251.426 212.480 C 251.188 212.718,250.755 212.700,250.233 212.429 C 249.783 212.195,249.539 212.138,249.691 212.301 C 249.844 212.465,249.719 213.082,249.414 213.672 C 249.109 214.262,248.984 214.883,249.137 215.052 C 249.289 215.221,249.097 215.245,248.710 215.106 C 248.323 214.967,248.096 214.999,248.207 215.177 C 248.535 215.708,245.832 218.095,245.286 217.757 C 244.951 217.550,244.900 217.618,245.121 217.975 C 245.355 218.354,245.261 218.423,244.770 218.235 C 244.322 218.063,244.192 218.126,244.377 218.425 C 244.563 218.728,244.389 218.804,243.840 218.660 C 243.326 218.526,243.089 218.611,243.196 218.892 C 243.310 219.190,242.658 219.336,241.210 219.336 C 239.760 219.336,239.110 219.190,239.224 218.892 C 239.332 218.611,239.096 218.526,238.582 218.660 C 238.073 218.793,237.863 218.720,238.021 218.465 C 238.162 218.237,237.979 218.081,237.606 218.111 C 236.057 218.235,235.369 215.702,235.769 211.345 C 235.988 208.954,235.993 207.261,235.781 207.130 C 235.586 207.009,235.552 207.113,235.705 207.362 C 235.898 207.674,235.528 207.801,234.496 207.774 C 233.168 207.739,233.113 207.700,233.984 207.415 C 234.891 207.118,234.870 207.099,233.705 207.145 C 232.524 207.192,232.487 207.237,233.082 207.895 " stroke="none" fill="#5c545a" fill-rule="evenodd"></path><path id="path4" d="M160.156 131.055 C 159.207 132.021,158.519 132.813,158.626 132.813 C 158.734 132.813,159.598 132.021,160.547 131.055 C 161.496 130.088,162.184 129.297,162.077 129.297 C 161.969 129.297,161.105 130.088,160.156 131.055 M195.117 156.282 C 194.109 156.511,194.205 156.555,195.801 156.594 C 196.821 156.620,197.656 156.573,197.656 156.491 C 197.656 156.152,196.212 156.033,195.117 156.282 M195.610 157.308 C 196.096 157.401,196.799 157.397,197.173 157.300 C 197.546 157.202,197.148 157.125,196.289 157.130 C 195.430 157.134,195.124 157.214,195.610 157.308 M187.870 160.840 L 186.523 162.305 187.988 160.959 C 188.794 160.218,189.453 159.559,189.453 159.494 C 189.453 159.195,189.123 159.476,187.870 160.840 M235.050 192.860 C 235.743 192.946,236.974 192.948,237.784 192.863 C 238.595 192.779,238.027 192.708,236.523 192.706 C 235.020 192.705,234.356 192.774,235.050 192.860 M233.984 207.438 C 233.120 207.701,233.173 207.739,234.450 207.774 C 235.243 207.795,235.977 207.673,236.083 207.503 C 236.333 207.098,235.218 207.064,233.984 207.438 M156.468 225.819 C 156.614 226.054,155.877 227.138,154.831 228.227 L 152.930 230.207 155.168 228.317 C 156.907 226.849,157.310 226.312,156.975 225.909 C 156.456 225.284,156.098 225.220,156.468 225.819 M251.005 239.453 C 251.149 239.990,251.429 240.693,251.628 241.016 C 251.880 241.423,251.911 241.304,251.729 240.625 C 251.586 240.088,251.305 239.385,251.106 239.063 C 250.854 238.655,250.824 238.774,251.005 239.453 M114.751 331.136 C 115.237 331.229,115.940 331.226,116.313 331.128 C 116.687 331.030,116.289 330.954,115.430 330.958 C 114.570 330.962,114.265 331.042,114.751 331.136 M184.974 338.693 C 185.165 339.002,190.964 340.025,191.198 339.792 C 191.289 339.701,189.890 339.359,188.090 339.033 C 186.290 338.706,184.888 338.553,184.974 338.693 M273.665 345.667 C 273.294 346.077,272.470 346.628,271.834 346.892 C 271.198 347.155,270.764 347.456,270.868 347.561 C 271.144 347.837,274.609 345.739,274.609 345.296 C 274.609 344.756,274.425 344.828,273.665 345.667 M258.845 349.910 C 258.743 350.075,259.348 350.144,260.189 350.064 C 261.030 349.984,261.719 349.849,261.719 349.764 C 261.719 349.473,259.031 349.609,258.845 349.910 M180.273 352.183 C 178.984 352.904,178.067 353.499,178.236 353.505 C 178.742 353.523,182.348 351.607,182.613 351.179 C 182.918 350.684,183.066 350.621,180.273 352.183 M167.720 355.165 C 167.528 355.475,170.708 355.137,171.082 354.808 C 171.183 354.719,170.513 354.690,169.592 354.744 C 168.672 354.799,167.829 354.988,167.720 355.165 M233.008 355.269 C 232.363 355.562,231.503 355.906,231.096 356.035 C 230.690 356.163,230.458 356.369,230.581 356.493 C 230.704 356.616,231.740 356.275,232.883 355.735 C 234.026 355.195,234.785 354.749,234.570 354.745 C 234.355 354.741,233.652 354.977,233.008 355.269 M218.652 358.088 C 219.136 358.181,219.927 358.181,220.410 358.088 C 220.894 357.995,220.498 357.919,219.531 357.919 C 218.564 357.919,218.169 357.995,218.652 358.088 " stroke="none" fill="#5f5c5c" fill-rule="evenodd"></path></g></svg>