<svg id="svg" version="1.1" xmlns="http://www.w3.org/2000/svg" xmlns:xlink="http://www.w3.org/1999/xlink" width="400" height="400" viewBox="0, 0, 400,400"><g id="svgg"><path id="path0" d="M188.086 24.071 C 174.513 26.132,165.450 30.336,156.474 38.734 C 143.160 51.191,137.410 64.828,132.454 95.703 C 131.781 99.893,130.880 105.488,130.451 108.138 C 129.534 113.801,127.768 119.522,124.522 127.344 C 116.477 146.729,115.460 158.657,120.953 169.176 C 124.764 176.476,132.792 182.224,141.869 184.154 L 142.918 184.377 141.779 187.749 C 140.625 191.163,138.529 199.223,138.748 199.404 C 139.060 199.662,148.992 202.795,151.722 203.497 C 153.421 203.934,154.916 204.395,155.043 204.522 C 155.523 205.002,155.192 219.934,154.586 225.195 C 153.730 232.611,152.982 242.565,153.259 242.843 C 154.277 243.860,177.155 248.168,187.305 249.253 C 201.404 250.761,225.665 247.048,233.158 242.236 C 234.349 241.471,234.146 237.302,232.593 230.664 C 229.978 219.480,229.709 216.988,230.327 209.669 L 230.577 206.721 232.964 206.262 C 241.540 204.613,258.130 199.865,258.477 198.960 C 258.580 198.690,257.797 195.661,256.737 192.229 L 254.808 185.988 256.799 185.349 C 262.883 183.395,269.760 177.257,272.795 171.072 C 278.144 160.171,277.340 149.867,269.899 133.939 C 263.773 120.826,262.255 115.173,257.848 89.063 C 254.858 71.346,253.553 66.482,249.615 58.371 C 241.822 42.322,228.834 31.641,217.114 31.641 C 215.486 31.641,214.928 31.416,213.248 30.089 C 207.470 25.521,196.233 22.834,188.086 24.071 M200.586 50.130 C 206.539 54.158,213.100 61.530,220.961 73.025 C 224.490 78.184,226.895 81.239,229.305 83.624 L 232.691 86.974 232.966 93.389 C 233.385 103.185,233.816 104.578,235.365 101.143 C 239.899 91.087,251.284 94.919,251.867 106.698 C 252.346 116.363,247.555 121.687,237.565 122.592 L 234.701 122.852 233.756 125.586 C 230.362 135.415,224.456 142.792,216.165 147.561 C 214.538 148.497,213.727 149.191,213.860 149.535 C 216.450 156.285,210.907 166.680,202.683 170.498 C 188.586 177.042,174.887 167.532,180.832 155.329 C 182.408 152.095,182.438 152.177,179.395 151.367 C 168.772 148.540,159.420 141.102,154.736 131.755 C 150.886 124.072,149.987 117.963,149.745 97.852 L 149.561 82.617 153.212 80.199 C 161.199 74.910,187.444 52.985,191.808 47.957 L 193.412 46.109 195.827 47.327 C 197.155 47.996,199.297 49.258,200.586 50.130 M164.120 80.468 C 161.273 81.492,158.426 83.381,157.861 84.619 C 156.842 86.855,159.346 88.362,161.398 86.747 C 163.955 84.736,169.183 83.873,172.252 84.956 C 176.364 86.407,176.974 82.286,172.919 80.445 C 170.760 79.464,166.881 79.475,164.120 80.468 M206.645 81.601 C 203.256 82.809,201.957 84.770,203.516 86.328 C 204.435 87.248,205.016 87.304,206.065 86.573 C 208.713 84.731,214.113 85.829,218.120 89.024 C 219.899 90.442,220.428 90.510,221.484 89.453 C 225.098 85.839,212.887 79.378,206.645 81.601 M168.164 94.066 C 165.510 95.751,164.453 97.997,164.453 101.953 C 164.453 109.072,169.473 112.383,173.569 107.966 C 178.675 102.459,173.976 90.376,168.164 94.066 M208.789 94.036 C 201.924 95.755,202.977 110.938,209.961 110.938 C 216.756 110.938,217.986 97.075,211.438 94.286 C 210.125 93.726,210.055 93.719,208.789 94.036 M158.035 342.997 C 147.456 349.063,144.466 352.150,144.376 357.097 C 144.284 362.187,147.981 363.813,159.570 363.779 C 179.387 363.722,186.060 359.766,186.111 348.047 L 186.133 343.164 184.961 343.234 C 184.316 343.273,181.855 343.428,179.492 343.579 C 173.876 343.939,166.555 342.950,162.104 341.231 C 161.771 341.103,159.994 341.874,158.035 342.997 M233.755 342.023 C 229.866 343.653,217.454 344.588,212.207 343.648 L 210.547 343.350 210.547 347.632 C 210.547 359.369,214.709 362.766,231.193 364.484 C 252.598 366.714,258.477 356.252,241.797 345.612 C 235.613 341.668,235.124 341.450,233.755 342.023 " stroke="none" fill="#4c5c75" fill-rule="evenodd" data-index="0"></path><path id="path1" d="M200.362 128.345 C 194.654 130.398,188.761 130.500,181.708 128.668 C 174.255 126.731,173.279 129.179,179.714 133.666 C 187.026 138.762,196.189 138.124,202.829 132.055 C 207.049 128.199,205.836 126.375,200.362 128.345 M179.119 128.561 C 180.138 128.817,180.746 129.164,180.599 129.402 C 180.461 129.626,180.528 129.697,180.747 129.562 C 180.966 129.426,182.620 129.574,184.421 129.891 C 190.228 130.913,197.997 130.353,201.236 128.678 C 204.510 126.985,205.692 128.623,203.048 131.189 C 201.512 132.680,199.868 132.892,200.648 131.499 C 200.784 131.254,200.652 131.282,200.354 131.559 C 199.892 131.989,199.898 132.120,200.394 132.446 C 200.894 132.774,200.866 132.913,200.195 133.436 C 193.810 138.415,182.884 137.157,177.123 130.780 C 175.119 128.561,175.857 127.740,179.119 128.561 M201.866 129.199 C 201.743 129.667,201.870 129.948,202.202 129.948 C 202.813 129.948,202.860 129.709,202.392 128.971 C 202.137 128.569,202.017 128.621,201.866 129.199 M182.951 130.922 C 182.326 131.613,182.324 131.654,182.932 131.420 C 183.296 131.281,183.594 130.999,183.594 130.795 C 183.594 130.590,183.780 130.538,184.008 130.679 C 184.593 131.040,186.970 131.380,186.652 131.057 C 185.876 130.269,183.617 130.186,182.951 130.922 M189.221 132.092 C 189.054 132.361,189.113 132.437,189.366 132.281 C 189.599 132.136,189.900 132.197,190.035 132.416 C 190.170 132.634,190.458 132.813,190.676 132.813 C 190.893 132.813,190.808 132.549,190.485 132.227 C 189.781 131.522,189.585 131.501,189.221 132.092 M184.471 134.225 C 184.533 135.046,185.938 135.124,185.938 134.306 C 185.938 134.104,185.742 134.059,185.503 134.207 C 185.264 134.354,184.921 134.235,184.739 133.942 C 184.500 133.554,184.426 133.632,184.471 134.225 M188.959 133.827 C 188.677 134.110,189.058 135.204,189.627 135.742 C 190.155 136.242,191.406 136.349,191.406 135.894 C 191.406 135.703,191.073 135.547,190.667 135.547 C 189.986 135.547,189.244 134.581,189.391 133.887 C 189.466 133.534,189.278 133.508,188.959 133.827 M194.531 133.969 C 194.531 134.176,194.158 134.692,193.702 135.117 C 192.891 135.872,192.891 135.885,193.666 135.682 C 194.102 135.568,194.547 135.139,194.654 134.728 C 194.790 134.208,195.069 134.052,195.569 134.215 C 196.167 134.409,196.190 134.377,195.703 134.027 C 194.973 133.502,194.531 133.480,194.531 133.969 M229.297 244.013 C 213.694 251.133,188.265 251.165,157.855 244.102 C 156.051 243.683,154.522 243.395,154.455 243.462 C 153.265 244.652,153.385 272.221,154.658 289.844 C 157.366 327.339,158.490 338.706,159.587 339.711 C 163.486 343.280,181.514 345.074,186.672 342.407 C 187.753 341.848,187.770 341.782,188.235 336.253 C 189.743 318.347,191.079 300.998,192.043 286.798 L 193.137 270.666 194.701 270.782 L 196.265 270.898 197.540 278.516 C 199.117 287.937,202.315 307.581,205.449 327.098 C 206.756 335.234,207.919 342.043,208.034 342.230 C 209.667 344.873,228.822 344.458,234.375 341.660 L 236.133 340.774 236.133 338.258 C 236.133 283.621,235.173 255.340,232.994 245.759 C 232.284 242.640,232.296 242.645,229.297 244.013 " stroke="none" fill="#ee5f7c" fill-rule="evenodd" data-index="1"></path><path id="path3" d="M192.578 47.165 C 192.041 47.729,191.909 47.960,192.285 47.680 C 193.712 46.616,192.850 47.593,189.371 50.985 C 187.392 52.914,186.030 54.133,186.344 53.694 C 186.657 53.255,186.261 53.606,185.462 54.475 C 184.663 55.344,183.784 55.996,183.509 55.924 C 183.233 55.853,183.134 55.920,183.288 56.074 C 183.556 56.342,181.753 58.008,181.194 58.008 C 181.046 58.008,180.778 58.168,180.599 58.363 C 180.407 58.573,180.514 58.597,180.859 58.421 C 181.182 58.258,180.834 58.625,180.087 59.238 C 179.340 59.850,178.608 60.352,178.460 60.352 C 178.311 60.352,178.044 60.512,177.865 60.707 C 177.672 60.918,177.778 60.934,178.125 60.748 C 178.764 60.404,178.597 60.575,176.792 62.115 C 176.167 62.649,175.798 62.822,175.973 62.500 C 176.147 62.178,175.636 62.617,174.837 63.477 C 174.038 64.336,173.510 64.775,173.665 64.453 C 173.820 64.131,173.292 64.570,172.493 65.430 C 171.694 66.289,171.167 66.729,171.321 66.406 C 171.476 66.084,170.949 66.523,170.149 67.383 C 169.350 68.242,168.819 68.682,168.970 68.359 C 169.120 68.037,168.681 68.389,167.993 69.141 C 167.306 69.893,166.866 70.244,167.017 69.922 C 167.167 69.600,166.728 69.951,166.040 70.703 C 165.353 71.455,164.908 71.807,165.052 71.484 C 165.196 71.162,164.842 71.471,164.266 72.172 C 163.671 72.895,163.021 73.332,162.762 73.183 C 162.510 73.039,162.435 73.066,162.595 73.242 C 162.899 73.578,161.349 74.868,160.840 74.704 C 160.679 74.652,160.547 74.770,160.547 74.967 C 160.547 75.164,159.806 75.911,158.902 76.627 C 157.997 77.344,157.394 77.666,157.563 77.344 C 157.732 77.021,157.491 77.242,157.026 77.834 C 156.562 78.426,156.021 78.811,155.825 78.690 C 155.629 78.569,155.469 78.647,155.469 78.864 C 155.469 79.332,151.959 81.822,151.941 81.366 C 151.935 81.195,151.748 81.366,151.527 81.746 C 151.305 82.127,150.959 82.336,150.757 82.212 C 150.556 82.087,150.391 82.182,150.391 82.422 C 150.391 82.662,150.259 82.777,150.098 82.678 C 149.937 82.578,149.805 87.912,149.805 94.531 C 149.805 101.644,149.950 106.476,150.159 106.347 C 150.368 106.218,150.419 107.597,150.282 109.704 C 150.125 112.131,150.185 113.281,150.469 113.281 C 150.740 113.281,150.803 113.900,150.647 115.039 C 150.492 116.166,150.554 116.797,150.819 116.797 C 151.047 116.797,151.183 117.367,151.122 118.072 C 151.061 118.773,151.147 119.566,151.312 119.833 C 151.478 120.101,151.502 120.669,151.366 121.097 C 151.214 121.575,151.298 121.875,151.582 121.875 C 151.852 121.875,151.959 122.200,151.840 122.656 C 151.728 123.085,151.807 123.543,152.016 123.672 C 152.226 123.801,152.303 124.153,152.187 124.454 C 152.072 124.754,152.168 125.000,152.402 125.000 C 152.635 125.000,152.733 125.352,152.621 125.782 C 152.509 126.212,152.576 126.465,152.771 126.345 C 153.094 126.145,153.162 126.344,153.281 127.832 C 153.303 128.101,153.550 128.563,153.831 128.859 C 154.112 129.155,154.249 129.639,154.136 129.933 C 154.023 130.228,154.111 130.469,154.332 130.469 C 154.553 130.469,154.634 130.630,154.513 130.826 C 154.391 131.023,154.456 131.242,154.656 131.314 C 154.856 131.386,155.077 131.694,155.146 131.999 C 155.216 132.303,155.587 132.881,155.971 133.282 C 156.355 133.684,156.572 134.170,156.454 134.361 C 156.336 134.553,156.595 134.823,157.031 134.961 C 157.467 135.099,157.731 135.363,157.616 135.548 C 157.502 135.733,157.591 135.996,157.813 136.133 C 158.034 136.270,158.153 136.502,158.077 136.648 C 158.001 136.794,159.880 138.848,162.253 141.211 C 164.626 143.574,166.430 145.244,166.262 144.922 C 166.094 144.600,166.283 144.703,166.682 145.153 C 167.081 145.602,167.697 145.927,168.052 145.875 C 168.447 145.817,168.619 145.980,168.497 146.297 C 168.370 146.629,168.555 146.776,169.013 146.706 C 169.405 146.646,170.085 146.980,170.522 147.448 C 170.960 147.915,171.555 148.219,171.846 148.122 C 172.161 148.017,172.265 148.122,172.104 148.382 C 171.938 148.652,172.047 148.738,172.390 148.606 C 172.696 148.489,173.212 148.658,173.536 148.982 C 173.860 149.307,174.235 149.463,174.368 149.330 C 174.501 149.197,174.609 149.288,174.609 149.532 C 174.609 149.776,174.873 149.874,175.195 149.751 C 175.518 149.627,175.781 149.715,175.781 149.946 C 175.781 150.177,176.045 150.265,176.367 150.141 C 176.689 150.018,176.953 150.105,176.953 150.337 C 176.953 150.568,177.217 150.656,177.539 150.532 C 177.861 150.408,178.125 150.485,178.125 150.703 C 178.125 150.921,178.477 151.007,178.906 150.894 C 179.336 150.782,179.688 150.881,179.688 151.114 C 179.688 151.347,179.951 151.437,180.273 151.313 C 180.596 151.189,180.859 151.301,180.859 151.563 C 180.859 151.823,181.106 151.942,181.407 151.827 C 182.554 151.386,181.955 154.779,180.750 155.544 C 180.375 155.783,180.376 155.849,180.752 155.853 C 181.299 155.860,182.422 153.877,182.422 152.904 C 182.422 152.327,182.723 152.291,185.059 152.591 C 193.677 153.698,204.226 152.646,210.902 150.014 C 213.342 149.052,213.313 149.037,213.574 151.357 C 213.685 152.339,213.898 153.218,214.047 153.311 C 214.197 153.403,214.170 152.389,213.987 151.056 C 213.658 148.646,214.238 147.236,215.292 147.887 C 215.475 148.000,215.625 147.878,215.625 147.614 C 215.625 147.351,215.739 147.250,215.879 147.390 C 216.019 147.530,216.327 147.393,216.563 147.086 C 216.799 146.779,217.250 146.474,217.565 146.408 C 217.879 146.343,218.464 145.938,218.864 145.508 C 219.264 145.078,219.455 144.990,219.290 145.313 C 219.124 145.635,219.594 145.282,220.334 144.529 C 221.074 143.776,222.910 142.025,224.414 140.639 C 225.918 139.253,226.899 138.272,226.593 138.460 C 226.266 138.661,226.346 138.390,226.789 137.800 C 227.201 137.250,227.675 136.882,227.842 136.983 C 228.008 137.085,228.119 137.023,228.088 136.845 C 227.944 136.013,228.167 135.526,228.576 135.779 C 228.850 135.949,228.921 135.887,228.757 135.621 C 228.609 135.381,228.845 134.827,229.283 134.389 C 229.720 133.952,230.080 133.462,230.083 133.301 C 230.095 132.506,230.565 131.654,230.883 131.851 C 231.080 131.973,231.126 131.771,230.984 131.402 C 230.796 130.911,230.865 130.817,231.244 131.051 C 231.575 131.256,231.668 131.219,231.501 130.949 C 231.206 130.473,231.988 128.516,232.472 128.516 C 232.646 128.516,232.695 128.275,232.582 127.980 C 232.469 127.685,232.621 127.201,232.919 126.902 C 233.217 126.604,233.388 126.142,233.300 125.875 C 233.211 125.609,233.323 125.391,233.549 125.391 C 233.775 125.391,233.859 125.127,233.735 124.805 C 233.611 124.482,233.699 124.219,233.930 124.219 C 234.161 124.219,234.259 123.980,234.147 123.689 C 233.843 122.895,235.962 122.162,237.646 122.477 C 238.649 122.666,239.063 122.603,239.063 122.264 C 239.063 121.963,239.426 121.853,240.039 121.971 C 240.576 122.073,241.016 121.987,241.016 121.779 C 241.016 121.571,241.258 121.494,241.554 121.607 C 241.850 121.721,242.290 121.617,242.531 121.376 C 242.772 121.135,242.969 121.073,242.969 121.239 C 242.969 121.405,243.253 121.256,243.600 120.909 C 243.947 120.562,244.415 120.339,244.639 120.414 C 244.864 120.488,245.481 120.148,246.010 119.657 C 246.540 119.166,247.157 118.878,247.381 119.017 C 247.632 119.172,247.694 119.021,247.541 118.623 C 247.405 118.269,247.451 118.020,247.643 118.071 C 247.835 118.122,248.281 117.813,248.634 117.383 C 248.988 116.953,249.148 116.865,248.990 117.188 C 248.821 117.532,248.849 117.639,249.058 117.448 C 249.254 117.269,249.416 117.005,249.419 116.862 C 249.429 116.265,250.509 114.063,250.792 114.063 C 250.961 114.063,251.000 113.683,250.878 113.220 C 250.724 112.629,250.798 112.464,251.126 112.667 C 251.464 112.876,251.524 112.677,251.340 111.947 C 251.201 111.392,251.250 110.938,251.448 110.938 C 251.647 110.938,251.819 109.531,251.830 107.813 C 251.842 106.009,251.687 104.688,251.465 104.688 C 251.254 104.688,251.165 104.248,251.267 103.711 C 251.370 103.174,251.282 102.734,251.072 102.734 C 250.862 102.734,250.782 102.383,250.895 101.953 C 251.025 101.455,250.946 101.265,250.678 101.431 C 250.412 101.595,250.350 101.452,250.507 101.041 C 250.650 100.670,250.566 100.391,250.313 100.391 C 250.069 100.391,249.969 100.292,250.089 100.171 C 250.449 99.812,246.723 96.200,246.191 96.392 C 245.923 96.489,245.703 96.379,245.703 96.148 C 245.703 95.917,245.437 95.830,245.112 95.954 C 244.787 96.079,244.246 95.953,243.911 95.674 C 243.409 95.258,243.242 95.260,242.979 95.687 C 242.795 95.984,242.307 96.114,241.837 95.991 C 241.385 95.873,241.016 95.924,241.016 96.104 C 241.016 96.484,239.442 97.082,238.867 96.920 C 238.652 96.859,238.602 96.936,238.756 97.090 C 238.910 97.243,238.603 97.710,238.073 98.127 C 237.543 98.544,237.109 99.072,237.109 99.300 C 237.109 99.528,236.681 100.112,236.157 100.598 C 235.633 101.083,235.311 101.587,235.441 101.717 C 235.571 101.847,235.472 101.953,235.221 101.953 C 234.971 101.953,234.810 102.085,234.863 102.246 C 234.973 102.576,234.636 102.734,233.826 102.734 C 233.469 102.734,233.348 102.461,233.481 101.953 C 233.601 101.493,233.493 101.172,233.218 101.172 C 232.876 101.172,232.818 100.462,233.003 98.535 C 233.197 96.515,233.151 96.035,232.809 96.484 C 232.469 96.929,232.420 95.869,232.606 92.090 C 232.779 88.561,232.724 87.109,232.418 87.109 C 232.180 87.109,232.096 86.929,232.233 86.709 C 232.369 86.489,232.320 86.357,232.124 86.416 C 231.660 86.556,225.944 80.840,226.084 80.376 C 226.143 80.180,226.030 80.120,225.832 80.242 C 225.470 80.466,224.814 79.380,224.948 78.780 C 224.987 78.602,224.858 78.558,224.660 78.680 C 224.341 78.877,224.043 78.487,223.869 77.646 C 223.837 77.489,223.365 76.917,222.822 76.373 C 222.278 75.829,221.929 75.228,222.047 75.038 C 222.165 74.847,221.987 74.586,221.653 74.458 C 221.318 74.329,221.142 74.066,221.262 73.872 C 221.382 73.678,221.206 73.414,220.871 73.286 C 220.537 73.157,220.361 72.894,220.481 72.700 C 220.601 72.506,220.425 72.242,220.090 72.114 C 219.756 71.986,219.590 71.706,219.722 71.492 C 219.859 71.269,219.709 71.200,219.372 71.329 C 218.935 71.497,218.823 71.341,218.940 70.729 C 219.028 70.273,218.952 69.993,218.771 70.105 C 218.519 70.260,217.895 69.349,217.923 68.867 C 217.925 68.824,217.410 68.235,216.778 67.558 C 216.145 66.881,215.742 66.142,215.882 65.916 C 216.022 65.689,215.952 65.618,215.726 65.758 C 215.501 65.897,215.199 65.705,215.055 65.330 C 214.911 64.955,214.761 64.587,214.721 64.511 C 214.681 64.435,213.825 63.477,212.818 62.382 C 211.811 61.287,211.067 60.263,211.164 60.105 C 211.261 59.948,211.135 59.692,210.884 59.537 C 210.575 59.346,210.532 59.425,210.750 59.778 C 211.026 60.225,207.097 56.187,204.829 53.693 C 204.429 53.253,204.277 53.165,204.492 53.497 C 204.707 53.829,204.250 53.573,203.476 52.929 C 202.703 52.285,202.159 51.599,202.267 51.404 C 202.376 51.210,202.274 51.169,202.040 51.313 C 201.807 51.457,201.504 51.394,201.367 51.172 C 201.230 50.950,200.924 50.888,200.688 51.034 C 200.412 51.205,200.347 51.069,200.505 50.655 C 200.642 50.300,200.628 50.028,200.474 50.051 C 199.750 50.159,199.192 49.968,199.374 49.674 C 199.484 49.495,199.319 49.320,199.006 49.284 C 198.693 49.248,198.166 49.189,197.835 49.154 C 197.494 49.117,197.322 48.854,197.440 48.547 C 197.554 48.250,197.474 48.114,197.261 48.245 C 197.049 48.376,196.875 48.287,196.875 48.047 C 196.875 47.807,196.699 47.719,196.484 47.852 C 196.270 47.984,196.094 47.896,196.094 47.656 C 196.094 47.416,195.941 47.314,195.754 47.430 C 195.566 47.545,195.012 47.292,194.522 46.867 C 194.032 46.442,193.613 46.104,193.593 46.117 C 193.572 46.130,193.115 46.602,192.578 47.165 M171.707 79.780 C 171.842 79.915,172.227 79.919,172.563 79.790 C 173.000 79.622,173.083 79.703,172.855 80.072 C 172.633 80.432,172.685 80.497,173.030 80.284 C 173.338 80.094,173.839 80.335,174.360 80.926 C 174.819 81.447,175.107 81.680,175.000 81.445 C 174.893 81.210,175.112 81.353,175.488 81.763 C 176.412 82.770,176.348 83.858,175.293 85.107 C 174.461 86.092,173.047 86.336,173.047 85.495 C 173.047 85.283,172.871 85.219,172.656 85.352 C 172.441 85.484,172.266 85.423,172.266 85.216 C 172.266 85.008,171.914 84.931,171.484 85.043 C 171.048 85.157,170.703 85.055,170.703 84.811 C 170.703 84.555,169.979 84.375,168.945 84.375 C 167.919 84.375,167.188 84.555,167.188 84.808 C 167.188 85.075,166.813 85.147,166.211 84.996 C 165.602 84.843,165.234 84.916,165.234 85.191 C 165.234 85.433,164.971 85.529,164.648 85.406 C 164.326 85.282,164.063 85.361,164.063 85.582 C 164.063 85.803,163.902 85.884,163.705 85.763 C 163.509 85.641,163.289 85.675,163.217 85.837 C 162.102 88.351,157.031 88.020,157.031 85.434 C 157.031 84.666,158.948 82.354,159.370 82.614 C 159.542 82.721,159.789 82.534,159.917 82.200 C 160.046 81.865,160.328 81.701,160.544 81.834 C 160.760 81.968,160.938 81.881,160.938 81.641 C 160.938 81.400,161.095 81.301,161.287 81.420 C 161.480 81.539,161.745 81.355,161.876 81.012 C 162.013 80.656,162.366 80.484,162.699 80.611 C 163.019 80.734,163.281 80.646,163.281 80.415 C 163.281 80.184,163.545 80.096,163.867 80.219 C 164.189 80.343,164.453 80.262,164.453 80.040 C 164.453 79.813,164.796 79.744,165.234 79.883 C 165.664 80.019,166.016 79.986,166.016 79.810 C 166.016 79.440,171.340 79.413,171.707 79.780 M212.109 80.886 C 212.109 81.125,212.442 81.197,212.891 81.055 C 213.329 80.916,213.672 80.984,213.672 81.211 C 213.672 81.434,213.936 81.515,214.258 81.391 C 214.580 81.268,214.844 81.355,214.844 81.587 C 214.844 81.818,215.136 81.895,215.494 81.757 C 215.966 81.576,216.056 81.650,215.824 82.025 C 215.598 82.391,215.654 82.450,216.015 82.227 C 216.336 82.029,216.720 82.179,217.051 82.632 C 217.341 83.028,217.578 83.197,217.578 83.008 C 217.578 82.818,217.855 83.004,218.193 83.421 C 218.531 83.838,218.670 83.916,218.501 83.594 C 218.332 83.271,218.934 83.594,219.839 84.310 C 220.744 85.026,221.484 85.713,221.484 85.836 C 221.484 85.958,221.168 85.812,220.782 85.510 C 220.395 85.208,220.527 85.386,221.075 85.905 C 221.622 86.424,222.085 86.952,222.104 87.077 C 222.123 87.202,222.280 87.629,222.453 88.025 C 222.689 88.564,222.492 88.983,221.675 89.686 C 220.530 90.670,219.531 90.915,219.531 90.211 C 219.531 89.984,219.373 89.895,219.180 90.015 C 218.987 90.134,218.290 89.728,217.632 89.112 C 216.973 88.497,216.344 88.083,216.234 88.193 C 216.124 88.303,215.924 88.105,215.789 87.753 C 215.654 87.402,215.386 87.211,215.193 87.330 C 215.001 87.449,214.844 87.365,214.844 87.145 C 214.844 86.924,214.580 86.844,214.258 86.968 C 213.936 87.092,213.672 87.004,213.672 86.773 C 213.672 86.542,213.408 86.454,213.086 86.577 C 212.764 86.701,212.500 86.624,212.500 86.406 C 212.500 86.189,212.163 86.099,211.751 86.207 C 211.338 86.314,210.685 86.225,210.298 86.009 C 209.789 85.724,209.084 85.809,207.747 86.317 C 206.731 86.703,205.802 86.922,205.684 86.804 C 205.566 86.685,205.469 86.794,205.469 87.044 C 205.469 87.295,205.144 87.500,204.748 87.500 C 203.934 87.500,202.594 86.208,202.994 85.808 C 203.138 85.664,203.050 85.547,202.799 85.547 C 202.549 85.547,202.344 85.267,202.344 84.926 C 202.344 84.169,204.321 82.000,204.762 82.273 C 204.936 82.380,205.078 82.271,205.078 82.031 C 205.078 81.791,205.239 81.694,205.435 81.815 C 205.632 81.937,205.857 81.843,205.936 81.607 C 206.014 81.371,206.557 81.150,207.141 81.116 C 207.725 81.082,208.203 80.923,208.203 80.762 C 208.203 80.601,209.082 80.469,210.156 80.469 C 211.280 80.469,212.109 80.646,212.109 80.886 M171.293 93.366 C 171.428 93.584,171.702 93.662,171.902 93.538 C 172.102 93.414,172.266 93.510,172.266 93.750 C 172.266 93.990,172.424 94.089,172.617 93.970 C 172.810 93.850,173.513 94.373,174.179 95.132 C 175.307 96.416,175.578 97.118,175.420 98.340 C 175.385 98.608,175.513 98.828,175.703 98.828 C 176.089 98.828,176.076 103.741,175.689 104.128 C 175.555 104.263,175.539 104.620,175.655 104.921 C 175.770 105.222,175.660 105.469,175.409 105.469 C 175.159 105.469,175.063 105.645,175.195 105.859 C 175.328 106.074,175.240 106.250,175.000 106.250 C 174.760 106.250,174.673 106.427,174.806 106.643 C 174.940 106.860,174.776 107.142,174.441 107.270 C 174.106 107.399,173.920 107.645,174.027 107.818 C 174.321 108.295,171.842 110.227,171.234 109.994 C 170.942 109.882,170.703 109.981,170.703 110.214 C 170.703 110.475,170.364 110.532,169.824 110.363 C 169.341 110.212,168.644 110.093,168.276 110.097 C 167.406 110.108,165.100 107.955,165.423 107.433 C 165.559 107.212,165.475 107.031,165.234 107.031 C 164.994 107.031,164.906 106.855,165.039 106.641 C 165.172 106.426,165.100 106.250,164.879 106.250 C 164.658 106.250,164.590 105.957,164.727 105.600 C 164.904 105.138,164.832 105.039,164.478 105.258 C 164.095 105.495,164.041 105.283,164.247 104.346 C 164.418 103.567,164.363 103.125,164.094 103.125 C 163.862 103.125,163.672 102.686,163.672 102.148 C 163.672 101.611,163.818 101.172,163.997 101.172 C 164.176 101.172,164.323 100.375,164.323 99.401 C 164.323 97.536,166.193 94.228,167.131 94.434 C 167.377 94.487,167.578 94.350,167.578 94.128 C 167.578 93.256,170.815 92.592,171.293 93.366 M210.938 93.738 C 210.938 93.946,211.183 94.022,211.484 93.906 C 212.129 93.659,214.969 96.356,214.635 96.897 C 214.509 97.100,214.604 97.266,214.844 97.266 C 215.084 97.266,215.172 97.441,215.039 97.656 C 214.906 97.871,215.003 98.047,215.253 98.047 C 215.504 98.047,215.607 98.311,215.484 98.633 C 215.360 98.955,215.412 99.219,215.599 99.219 C 215.976 99.219,216.093 100.805,216.022 104.980 C 216.014 105.464,215.839 105.859,215.633 105.859 C 215.427 105.859,215.360 106.123,215.484 106.445 C 215.607 106.768,215.504 107.031,215.253 107.031 C 215.003 107.031,214.906 107.207,215.039 107.422 C 215.172 107.637,215.094 107.813,214.867 107.813 C 214.639 107.813,214.494 107.944,214.544 108.105 C 214.663 108.487,212.394 110.757,212.012 110.638 C 211.851 110.588,211.719 110.689,211.719 110.863 C 211.719 111.530,207.857 111.099,206.958 110.330 C 205.706 109.261,205.117 108.457,205.331 108.110 C 205.432 107.946,205.318 107.813,205.078 107.813 C 204.838 107.813,204.750 107.637,204.883 107.422 C 205.016 107.207,204.919 107.031,204.669 107.031 C 204.418 107.031,204.318 106.759,204.446 106.425 C 204.596 106.035,204.521 105.916,204.235 106.093 C 203.927 106.283,203.869 106.059,204.046 105.356 C 204.186 104.800,204.123 104.236,203.908 104.102 C 203.390 103.782,203.402 100.898,203.922 100.576 C 204.146 100.438,204.222 99.988,204.091 99.577 C 203.960 99.165,204.036 98.828,204.258 98.828 C 204.481 98.828,204.562 98.564,204.438 98.242 C 204.314 97.920,204.418 97.656,204.669 97.656 C 204.919 97.656,205.022 97.491,204.897 97.289 C 204.603 96.813,207.000 94.075,207.461 94.360 C 207.654 94.480,207.813 94.372,207.813 94.122 C 207.813 93.871,208.084 93.771,208.419 93.899 C 208.766 94.032,208.923 93.967,208.786 93.746 C 208.649 93.523,209.055 93.359,209.743 93.359 C 210.400 93.359,210.938 93.530,210.938 93.738 M190.794 109.044 C 192.222 109.694,192.509 110.951,191.403 111.702 C 187.281 114.500,186.926 116.883,190.220 119.655 C 191.657 120.864,191.709 121.607,190.447 122.869 C 187.389 125.928,181.250 121.176,181.250 115.749 C 181.250 110.900,186.607 107.136,190.794 109.044 M205.139 127.681 C 205.376 128.644,205.291 130.078,204.997 130.078 C 204.801 130.078,204.733 130.227,204.846 130.409 C 204.958 130.591,204.529 131.239,203.892 131.849 C 203.255 132.459,202.729 132.794,202.721 132.593 C 202.714 132.391,202.384 132.615,201.989 133.089 C 201.593 133.563,201.163 133.846,201.034 133.717 C 200.905 133.588,200.689 133.770,200.554 134.122 C 200.419 134.473,200.171 134.676,200.003 134.572 C 199.835 134.469,199.481 134.645,199.215 134.965 C 198.950 135.285,198.402 135.547,197.999 135.547 C 197.596 135.547,197.266 135.733,197.266 135.961 C 197.266 136.188,197.090 136.266,196.875 136.133 C 196.660 136.000,196.484 136.096,196.484 136.347 C 196.484 136.597,196.226 136.703,195.911 136.582 C 195.596 136.461,195.232 136.533,195.103 136.742 C 194.974 136.951,194.704 137.021,194.504 136.897 C 194.304 136.774,193.955 136.788,193.727 136.928 C 193.500 137.069,191.928 137.184,190.234 137.184 C 188.541 137.184,186.969 137.069,186.742 136.928 C 186.514 136.788,186.164 136.774,185.964 136.897 C 185.764 137.021,185.483 136.931,185.339 136.698 C 185.195 136.465,184.831 136.369,184.531 136.485 C 184.230 136.600,183.984 136.514,183.984 136.293 C 183.984 136.072,183.809 136.000,183.594 136.133 C 183.379 136.266,183.203 136.178,183.203 135.938 C 183.203 135.697,183.027 135.609,182.813 135.742 C 182.598 135.875,182.422 135.787,182.422 135.547 C 182.422 135.307,182.246 135.219,182.031 135.352 C 181.816 135.484,181.641 135.396,181.641 135.156 C 181.641 134.916,181.465 134.828,181.250 134.961 C 181.035 135.094,180.859 135.016,180.859 134.789 C 180.859 134.561,180.696 134.419,180.496 134.473 C 180.297 134.526,179.844 134.219,179.491 133.789 C 179.137 133.359,178.975 133.271,179.130 133.594 C 179.285 133.916,178.539 133.301,177.473 132.227 C 174.498 129.228,174.668 127.164,177.847 127.693 C 178.016 127.721,178.631 127.806,179.214 127.882 C 179.797 127.958,180.755 128.215,181.344 128.452 C 181.933 128.690,182.663 128.789,182.965 128.673 C 183.267 128.557,183.631 128.651,183.773 128.881 C 183.916 129.111,184.461 129.192,184.985 129.061 C 185.509 128.929,185.938 128.990,185.938 129.196 C 185.938 129.648,195.284 129.602,196.020 129.147 C 196.296 128.977,196.777 128.935,197.089 129.055 C 197.401 129.174,197.656 129.082,197.656 128.848 C 197.656 128.615,198.008 128.516,198.438 128.629 C 198.867 128.741,199.219 128.655,199.219 128.437 C 199.219 128.220,199.477 128.141,199.793 128.262 C 200.109 128.383,200.637 128.214,200.965 127.885 C 201.294 127.557,201.563 127.397,201.563 127.531 C 201.563 127.664,201.835 127.620,202.169 127.434 C 202.811 127.075,205.036 127.260,205.139 127.681 M252.101 201.368 C 249.927 202.077,245.093 203.401,241.359 204.310 C 235.004 205.856,233.583 206.458,233.600 207.594 C 233.603 207.822,233.793 207.744,234.023 207.422 C 234.335 206.983,234.385 207.228,234.223 208.398 C 234.062 209.560,234.112 209.811,234.419 209.375 C 234.730 208.933,234.777 209.106,234.609 210.078 C 234.452 210.988,234.518 211.286,234.832 211.091 C 235.149 210.896,235.205 211.180,235.028 212.068 C 234.850 212.956,234.907 213.240,235.223 213.045 C 235.541 212.848,235.595 213.151,235.413 214.099 C 235.219 215.108,235.260 215.288,235.580 214.844 C 235.904 214.395,235.951 214.559,235.781 215.547 C 235.624 216.456,235.690 216.755,236.004 216.560 C 236.321 216.365,236.377 216.649,236.200 217.537 C 236.023 218.418,236.080 218.708,236.391 218.516 C 236.692 218.330,236.770 218.569,236.637 219.266 C 236.516 219.899,236.592 220.196,236.836 220.045 C 237.090 219.888,237.141 220.250,236.981 221.052 C 236.803 221.941,236.860 222.224,237.176 222.029 C 237.494 221.833,237.549 222.135,237.366 223.084 C 237.172 224.093,237.213 224.272,237.533 223.828 C 237.857 223.379,237.904 223.544,237.734 224.531 C 237.577 225.441,237.643 225.739,237.957 225.545 C 238.274 225.349,238.330 225.633,238.153 226.521 C 237.981 227.379,238.037 227.690,238.329 227.510 C 238.623 227.328,238.674 227.656,238.495 228.564 C 238.290 229.600,238.330 229.757,238.681 229.297 C 239.035 228.833,239.082 228.979,238.906 230.000 C 238.754 230.878,238.820 231.205,239.110 231.025 C 239.404 230.844,239.456 231.171,239.276 232.080 C 239.072 233.108,239.112 233.269,239.457 232.813 C 239.809 232.345,239.868 232.480,239.747 233.475 C 239.656 234.222,239.748 234.630,239.975 234.489 C 240.211 234.343,240.261 234.731,240.106 235.506 C 239.928 236.394,239.985 236.678,240.301 236.482 C 240.617 236.287,240.674 236.571,240.497 237.459 C 240.325 238.317,240.380 238.628,240.673 238.447 C 240.968 238.265,241.013 238.575,240.820 239.453 C 240.607 240.426,240.657 240.651,241.035 240.418 C 241.412 240.185,241.468 240.426,241.272 241.443 C 241.079 242.451,241.119 242.631,241.439 242.188 C 241.758 241.745,241.809 241.983,241.645 243.164 C 241.484 244.325,241.534 244.576,241.840 244.141 C 242.148 243.702,242.201 243.926,242.048 245.028 C 241.907 246.041,241.977 246.419,242.272 246.237 C 242.566 246.055,242.622 246.363,242.450 247.224 C 242.312 247.913,242.352 248.382,242.539 248.266 C 242.726 248.151,242.865 248.923,242.849 249.982 C 242.833 251.043,242.659 251.808,242.462 251.686 C 242.259 251.561,242.218 251.824,242.367 252.295 C 242.529 252.806,242.462 253.125,242.191 253.125 C 241.949 253.125,241.860 253.302,241.994 253.519 C 242.342 254.082,241.814 255.526,241.362 255.246 C 241.136 255.106,241.080 255.395,241.224 255.966 C 241.370 256.549,241.250 257.132,240.915 257.467 C 240.613 257.768,240.440 258.233,240.529 258.500 C 240.617 258.766,240.516 258.984,240.303 258.984 C 240.091 258.984,240.016 259.363,240.137 259.827 C 240.272 260.343,240.204 260.574,239.962 260.424 C 239.718 260.274,239.631 260.588,239.735 261.242 C 239.873 262.102,239.820 262.193,239.460 261.719 C 239.112 261.260,239.072 261.419,239.276 262.451 C 239.439 263.278,239.394 263.681,239.153 263.533 C 238.915 263.385,238.827 263.998,238.921 265.144 C 239.033 266.509,238.976 266.788,238.704 266.211 C 238.437 265.644,238.336 266.234,238.336 268.359 C 238.336 270.468,238.438 271.070,238.700 270.508 C 238.988 269.891,239.040 270.029,238.950 271.164 C 238.882 272.011,238.989 272.506,239.211 272.369 C 239.424 272.238,239.480 272.413,239.341 272.775 C 239.207 273.126,239.288 273.531,239.522 273.676 C 240.114 274.041,242.936 274.090,242.714 273.730 C 242.614 273.569,242.721 273.438,242.951 273.438 C 243.182 273.438,243.691 272.911,244.083 272.267 C 244.474 271.623,244.920 271.222,245.074 271.376 C 245.228 271.530,245.227 271.325,245.071 270.920 C 244.876 270.412,244.929 270.271,245.242 270.464 C 245.537 270.647,245.614 270.534,245.462 270.137 C 245.333 269.803,245.433 269.531,245.684 269.531 C 245.935 269.531,246.041 269.371,245.920 269.176 C 245.637 268.718,246.087 267.528,246.457 267.756 C 246.611 267.852,246.725 267.561,246.709 267.110 C 246.693 266.659,246.899 266.214,247.168 266.120 C 247.503 266.004,247.657 266.421,247.660 267.448 C 247.662 268.271,247.764 269.912,247.887 271.094 C 248.060 272.752,248.009 273.108,247.665 272.656 C 247.314 272.197,247.274 272.354,247.479 273.389 C 247.673 274.372,247.619 274.633,247.266 274.414 C 246.921 274.201,246.868 274.362,247.070 275.000 C 247.279 275.659,247.224 275.802,246.850 275.571 C 246.496 275.352,246.424 275.450,246.601 275.912 C 246.738 276.270,246.670 276.563,246.449 276.563 C 246.228 276.563,246.136 276.705,246.244 276.880 C 246.526 277.337,245.116 279.361,244.762 279.007 C 244.599 278.844,244.502 278.887,244.545 279.102 C 244.712 279.927,244.515 280.505,244.145 280.276 C 243.924 280.139,243.858 280.296,243.992 280.644 C 244.120 280.977,244.054 281.250,243.846 281.250 C 243.638 281.250,243.545 281.733,243.639 282.324 C 243.774 283.164,243.720 283.270,243.396 282.813 C 243.053 282.329,242.980 282.384,242.975 283.129 C 242.971 283.631,243.142 283.924,243.359 283.789 C 243.574 283.656,243.750 283.827,243.750 284.169 C 243.750 284.511,244.013 284.891,244.334 285.014 C 244.655 285.137,244.821 285.393,244.704 285.583 C 244.587 285.773,244.792 285.813,245.161 285.671 C 245.532 285.529,245.733 285.575,245.611 285.773 C 245.485 285.978,246.455 286.133,247.854 286.133 C 249.259 286.133,250.124 285.994,249.866 285.809 C 249.600 285.619,249.852 285.556,250.476 285.655 C 251.131 285.760,251.445 285.673,251.294 285.429 C 251.144 285.186,251.376 285.119,251.893 285.254 C 252.438 285.396,252.644 285.326,252.476 285.053 C 252.310 284.785,252.458 284.726,252.886 284.890 C 253.338 285.063,253.465 285.000,253.277 284.695 C 253.088 284.390,253.215 284.326,253.667 284.499 C 254.119 284.673,254.246 284.609,254.058 284.304 C 253.872 284.004,253.992 283.934,254.416 284.096 C 254.766 284.231,255.174 284.146,255.321 283.907 C 255.495 283.626,255.409 283.584,255.078 283.789 C 254.730 284.004,254.661 283.953,254.862 283.627 C 255.024 283.365,255.390 283.239,255.675 283.349 C 255.960 283.458,256.425 283.250,256.710 282.887 C 257.183 282.283,257.160 282.275,256.445 282.792 C 256.016 283.102,256.719 282.321,258.008 281.055 C 259.297 279.789,260.114 278.896,259.824 279.072 C 259.397 279.331,259.381 279.234,259.740 278.563 C 259.984 278.107,260.364 277.734,260.584 277.734 C 260.804 277.734,260.875 277.559,260.742 277.344 C 260.609 277.129,260.697 276.953,260.938 276.953 C 261.178 276.953,261.266 276.777,261.133 276.563 C 261.000 276.348,261.088 276.172,261.328 276.172 C 261.568 276.172,261.666 276.012,261.545 275.817 C 261.216 275.284,261.742 274.187,262.192 274.465 C 262.435 274.615,262.483 274.391,262.320 273.877 C 262.175 273.419,262.227 273.047,262.437 273.047 C 262.646 273.047,262.718 272.668,262.597 272.205 C 262.448 271.633,262.520 271.451,262.823 271.638 C 263.140 271.834,263.197 271.551,263.019 270.662 C 262.833 269.732,262.891 269.485,263.244 269.703 C 263.607 269.928,263.666 269.409,263.496 267.518 C 263.373 266.155,263.406 265.339,263.570 265.706 C 263.733 266.073,263.884 263.173,263.905 259.261 C 263.928 254.989,263.816 252.616,263.626 253.320 C 263.425 254.062,263.362 253.129,263.453 250.781 C 263.548 248.321,263.476 247.334,263.237 247.852 C 262.990 248.388,262.935 247.900,263.061 246.297 C 263.191 244.628,263.129 244.126,262.842 244.539 C 262.559 244.947,262.511 244.370,262.677 242.578 C 262.854 240.676,262.805 240.186,262.482 240.625 C 262.158 241.065,262.104 240.579,262.264 238.672 C 262.416 236.855,262.367 236.355,262.091 236.914 C 261.813 237.476,261.760 236.983,261.903 235.156 C 262.050 233.289,261.991 232.772,261.684 233.203 C 261.376 233.634,261.326 233.167,261.494 231.445 C 261.664 229.708,261.614 229.253,261.300 229.688 C 260.986 230.123,260.937 229.721,261.112 228.125 C 261.288 226.511,261.240 226.122,260.916 226.563 C 260.593 227.003,260.544 226.614,260.721 225.000 C 260.898 223.383,260.849 222.996,260.524 223.438 C 260.197 223.882,260.149 223.601,260.326 222.266 C 260.501 220.937,260.453 220.651,260.130 221.094 C 259.807 221.535,259.757 221.197,259.926 219.727 C 260.093 218.276,260.043 217.924,259.731 218.359 C 259.412 218.804,259.360 218.589,259.515 217.472 C 259.653 216.473,259.583 216.082,259.298 216.259 C 259.008 216.438,258.959 216.045,259.140 214.998 C 259.343 213.829,259.303 213.612,258.967 214.063 C 258.626 214.518,258.575 214.320,258.734 213.175 C 258.874 212.163,258.804 211.784,258.510 211.966 C 258.215 212.148,258.159 211.840,258.332 210.979 C 258.503 210.121,258.448 209.810,258.155 209.990 C 257.861 210.173,257.815 209.862,258.008 208.984 C 258.220 208.017,258.170 207.787,257.797 208.017 C 257.430 208.244,257.375 208.054,257.576 207.252 C 257.770 206.479,257.716 206.263,257.381 206.471 C 257.054 206.673,256.975 206.457,257.113 205.734 C 257.233 205.108,257.157 204.805,256.918 204.953 C 256.679 205.100,256.603 204.797,256.723 204.171 C 256.843 203.545,256.767 203.242,256.527 203.390 C 256.280 203.543,256.234 203.240,256.404 202.565 C 256.598 201.791,256.544 201.576,256.209 201.783 C 255.875 201.990,255.818 201.781,256.005 201.035 C 256.148 200.466,256.218 200.018,256.160 200.040 C 256.102 200.062,254.276 200.660,252.101 201.368 M141.690 201.066 C 141.834 201.440,141.769 201.591,141.529 201.443 C 141.278 201.288,141.201 201.577,141.324 202.218 C 141.468 202.970,141.390 203.161,141.030 202.939 C 140.675 202.719,140.611 202.855,140.794 203.433 C 141.106 204.415,140.668 206.323,140.199 206.033 C 140.010 205.916,139.968 206.384,140.106 207.073 C 140.284 207.961,140.227 208.245,139.911 208.049 C 139.594 207.854,139.538 208.138,139.715 209.026 C 139.893 209.914,139.836 210.198,139.520 210.002 C 139.205 209.808,139.140 210.106,139.297 211.016 C 139.471 212.024,139.424 212.177,139.081 211.719 C 138.744 211.268,138.704 211.485,138.907 212.654 C 139.104 213.790,139.052 214.102,138.701 213.885 C 138.352 213.669,138.295 213.979,138.481 215.098 C 138.670 216.235,138.627 216.459,138.305 216.016 C 137.986 215.577,137.945 215.861,138.140 217.150 C 138.337 218.450,138.284 218.798,137.925 218.576 C 137.568 218.355,137.518 218.644,137.724 219.745 C 137.924 220.811,137.876 221.131,137.545 220.926 C 137.213 220.721,137.162 221.089,137.355 222.297 C 137.534 223.417,137.486 223.866,137.206 223.693 C 136.929 223.521,136.865 223.971,137.011 225.060 C 137.166 226.219,137.101 226.603,136.783 226.407 C 136.462 226.209,136.400 226.657,136.560 228.007 C 136.730 229.431,136.679 229.742,136.351 229.297 C 136.026 228.855,135.977 229.240,136.154 230.859 C 136.329 232.456,136.280 232.857,135.965 232.422 C 135.651 231.988,135.601 232.443,135.771 234.180 C 135.938 235.883,135.888 236.363,135.588 235.938 C 135.288 235.512,135.228 236.100,135.368 238.086 C 135.498 239.933,135.443 240.567,135.198 240.039 C 134.953 239.509,134.890 240.201,135.003 242.188 C 135.118 244.220,135.056 244.878,134.798 244.336 C 134.543 243.799,134.482 244.533,134.603 246.680 C 134.732 248.968,134.673 249.595,134.380 249.023 C 134.084 248.446,134.040 248.839,134.211 250.532 C 134.360 252.005,134.304 252.736,134.054 252.582 C 133.821 252.438,133.755 252.679,133.887 253.186 C 134.042 253.777,133.968 253.942,133.640 253.739 C 133.298 253.528,133.244 253.739,133.440 254.518 C 133.641 255.320,133.586 255.510,133.218 255.283 C 132.845 255.052,132.795 255.282,133.008 256.250 C 133.211 257.175,133.163 257.443,132.829 257.237 C 132.495 257.031,132.439 257.360,132.622 258.458 C 132.810 259.594,132.767 259.818,132.446 259.375 C 132.126 258.934,132.078 259.225,132.253 260.547 C 132.381 261.515,132.339 262.102,132.160 261.853 C 131.981 261.604,131.836 263.464,131.836 266.014 C 131.836 268.628,131.987 270.533,132.186 270.411 C 132.378 270.293,132.447 270.657,132.340 271.219 C 132.219 271.853,132.295 272.149,132.540 271.997 C 132.782 271.848,132.850 272.079,132.715 272.595 C 132.594 273.058,132.673 273.438,132.891 273.438 C 133.109 273.438,133.182 273.710,133.054 274.044 C 132.902 274.440,132.978 274.553,133.274 274.370 C 133.579 274.182,133.643 274.309,133.469 274.761 C 133.296 275.213,133.360 275.340,133.665 275.152 C 133.970 274.963,134.033 275.090,133.860 275.542 C 133.687 275.994,133.750 276.121,134.055 275.933 C 134.356 275.747,134.426 275.867,134.263 276.291 C 134.129 276.641,134.214 277.049,134.452 277.196 C 134.731 277.368,134.784 277.268,134.602 276.916 C 134.445 276.614,134.588 276.701,134.919 277.108 C 135.251 277.516,135.445 277.974,135.351 278.126 C 135.177 278.407,137.040 280.345,137.332 280.186 C 137.714 279.978,138.647 280.584,138.445 280.910 C 138.323 281.108,138.368 281.244,138.545 281.213 C 139.309 281.081,139.873 281.277,139.671 281.604 C 139.551 281.799,139.831 281.859,140.295 281.738 C 140.835 281.597,141.045 281.667,140.881 281.933 C 140.716 282.200,140.927 282.270,141.467 282.129 C 141.930 282.007,142.211 282.068,142.090 282.263 C 141.970 282.458,142.802 282.617,143.944 282.617 C 145.084 282.617,145.918 282.458,145.798 282.263 C 145.679 282.068,145.960 282.007,146.424 282.129 C 146.921 282.259,147.170 282.193,147.032 281.969 C 146.902 281.760,147.039 281.644,147.336 281.712 C 147.632 281.780,147.928 281.660,147.994 281.445 C 148.210 280.738,148.911 280.083,149.236 280.284 C 149.412 280.393,149.683 280.276,149.838 280.024 C 150.025 279.721,149.936 279.663,149.572 279.851 C 149.270 280.008,149.328 279.886,149.701 279.580 C 150.543 278.889,150.209 278.516,148.747 278.516 C 144.500 278.516,140.219 272.490,140.283 266.602 C 140.362 259.258,143.739 259.257,144.154 266.601 C 144.429 271.459,145.063 272.425,148.058 272.543 C 149.201 272.588,150.369 272.714,150.654 272.824 C 150.939 272.933,151.175 272.808,151.178 272.546 C 151.182 272.223,151.295 272.245,151.529 272.616 C 151.737 272.943,151.810 271.458,151.714 268.905 C 151.598 265.829,151.664 264.865,151.955 265.430 C 152.265 266.034,152.310 265.812,152.149 264.453 C 151.992 263.118,152.045 262.836,152.371 263.281 C 152.705 263.737,152.754 263.597,152.591 262.646 C 152.464 261.899,152.598 261.140,152.937 260.693 C 153.306 260.204,153.495 258.907,153.503 256.795 C 153.510 255.054,153.699 251.366,153.924 248.600 C 154.292 244.068,154.268 243.523,153.683 243.095 C 152.979 242.581,153.207 237.672,154.495 225.586 C 155.930 212.115,155.743 204.459,153.967 204.060 C 152.772 203.791,145.991 201.857,143.284 201.013 C 141.619 200.494,141.472 200.499,141.690 201.066 M153.253 263.867 C 153.255 265.371,153.326 265.938,153.410 265.128 C 153.495 264.318,153.493 263.087,153.407 262.394 C 153.321 261.700,153.251 262.363,153.253 263.867 M235.247 265.625 C 235.247 266.377,235.327 266.685,235.426 266.309 C 235.524 265.933,235.524 265.317,235.426 264.941 C 235.327 264.565,235.247 264.873,235.247 265.625 M235.705 292.383 C 235.705 295.820,235.765 297.174,235.838 295.392 C 235.910 293.609,235.910 290.796,235.837 289.142 C 235.764 287.487,235.705 288.945,235.705 292.383 M236.044 333.984 C 236.044 334.951,236.120 335.347,236.213 334.863 C 236.306 334.380,236.306 333.589,236.213 333.105 C 236.120 332.622,236.044 333.018,236.044 333.984 M210.277 347.461 C 210.279 348.750,210.352 349.230,210.439 348.528 C 210.526 347.826,210.524 346.771,210.435 346.184 C 210.346 345.597,210.275 346.172,210.277 347.461 " stroke="none" fill="#fbd19c" fill-rule="evenodd" data-index="3"></path><path id="path4" d="M185.352 109.328 C 179.786 111.884,180.002 120.495,185.697 123.081 C 189.663 124.882,193.225 122.183,190.220 119.655 C 186.926 116.883,187.281 114.500,191.403 111.702 C 194.355 109.698,189.065 107.623,185.352 109.328 M176.481 128.538 C 176.074 128.775,175.909 129.176,176.059 129.567 C 176.237 130.029,176.161 130.118,175.787 129.887 C 175.440 129.672,175.363 129.718,175.553 130.024 C 175.708 130.276,175.971 130.398,176.137 130.295 C 176.585 130.018,178.970 132.614,178.620 132.998 C 178.455 133.180,178.548 133.197,178.826 133.037 C 179.405 132.703,180.567 133.509,180.249 134.024 C 180.133 134.212,180.339 134.250,180.708 134.109 C 181.199 133.921,181.293 133.990,181.058 134.369 C 180.868 134.678,180.891 134.792,181.117 134.653 C 181.325 134.524,182.626 134.826,184.009 135.324 C 189.757 137.391,196.066 136.656,200.195 133.436 C 200.866 132.913,200.894 132.774,200.394 132.446 C 199.898 132.120,199.892 131.989,200.354 131.559 C 200.652 131.282,200.784 131.254,200.648 131.499 C 200.063 132.544,201.428 132.811,202.348 131.831 C 203.486 130.620,204.297 130.540,203.286 131.738 C 202.618 132.530,202.651 132.523,203.616 131.670 C 204.686 130.725,205.036 130.207,204.297 130.664 C 204.082 130.797,203.906 130.709,203.906 130.469 C 203.906 130.229,203.730 130.141,203.516 130.273 C 203.301 130.406,203.125 130.321,203.125 130.084 C 203.125 129.847,203.433 129.705,203.809 129.768 C 204.265 129.845,204.534 129.591,204.617 129.004 C 204.768 127.938,202.996 127.767,201.236 128.678 C 197.997 130.353,190.228 130.913,184.421 129.891 C 182.620 129.574,180.966 129.426,180.747 129.562 C 180.528 129.697,180.461 129.626,180.599 129.402 C 181.036 128.695,177.490 127.950,176.481 128.538 M202.728 129.720 C 202.732 129.845,202.495 129.948,202.202 129.948 C 201.870 129.948,201.743 129.667,201.866 129.199 C 202.045 128.514,202.707 128.914,202.728 129.720 M189.551 129.972 C 190.356 130.056,191.675 130.056,192.480 129.972 C 193.286 129.888,192.627 129.819,191.016 129.819 C 189.404 129.819,188.745 129.888,189.551 129.972 M186.652 131.057 C 186.970 131.380,184.593 131.040,184.008 130.679 C 183.780 130.538,183.594 130.590,183.594 130.795 C 183.594 130.999,183.296 131.281,182.932 131.420 C 182.324 131.654,182.326 131.613,182.951 130.922 C 183.617 130.186,185.876 130.269,186.652 131.057 M190.485 132.227 C 190.808 132.549,190.893 132.813,190.676 132.813 C 190.458 132.813,190.170 132.634,190.035 132.416 C 189.900 132.197,189.599 132.136,189.366 132.281 C 189.113 132.437,189.054 132.361,189.221 132.092 C 189.585 131.501,189.781 131.522,190.485 132.227 M185.503 134.207 C 185.742 134.059,185.938 134.104,185.938 134.306 C 185.938 135.124,184.533 135.046,184.471 134.225 C 184.426 133.632,184.500 133.554,184.739 133.942 C 184.921 134.235,185.264 134.354,185.503 134.207 M189.391 133.887 C 189.244 134.581,189.986 135.547,190.667 135.547 C 191.073 135.547,191.406 135.703,191.406 135.894 C 191.406 136.349,190.155 136.242,189.627 135.742 C 189.058 135.204,188.677 134.110,188.959 133.827 C 189.278 133.508,189.466 133.534,189.391 133.887 M195.703 134.027 C 196.190 134.377,196.167 134.409,195.569 134.215 C 195.069 134.052,194.790 134.208,194.654 134.728 C 194.547 135.139,194.102 135.568,193.666 135.682 C 192.891 135.885,192.891 135.872,193.702 135.117 C 194.158 134.692,194.531 134.176,194.531 133.969 C 194.531 133.480,194.973 133.502,195.703 134.027 M223.999 141.504 L 222.852 142.773 224.121 141.626 C 224.819 140.995,225.391 140.424,225.391 140.357 C 225.391 140.055,225.068 140.321,223.999 141.504 M210.757 150.047 C 204.241 152.690,193.346 153.813,185.662 152.636 C 183.685 152.333,182.163 152.241,182.281 152.432 C 182.650 153.028,182.044 154.742,181.569 154.448 C 181.282 154.271,181.239 154.354,181.445 154.686 C 181.644 155.008,181.490 155.394,181.029 155.731 C 177.234 158.506,179.963 168.016,185.352 170.796 C 188.074 172.201,194.970 173.063,196.344 172.171 C 196.590 172.012,197.408 171.836,198.162 171.780 C 198.916 171.725,199.440 171.529,199.327 171.345 C 199.214 171.161,199.456 171.116,199.865 171.246 C 201.647 171.812,210.834 165.513,210.582 163.899 C 210.563 163.774,210.898 163.320,211.328 162.891 C 211.758 162.461,212.109 161.846,212.109 161.523 C 212.109 161.201,212.261 160.938,212.447 160.938 C 213.278 160.938,214.792 153.771,214.056 153.317 C 213.845 153.186,213.669 152.606,213.667 152.028 C 213.660 150.713,213.270 149.212,212.943 149.240 C 212.807 149.252,211.823 149.615,210.757 150.047 M141.395 201.192 C 141.159 201.633,141.021 202.260,141.089 202.584 C 141.156 202.909,141.404 202.548,141.641 201.783 C 142.124 200.218,142.034 200.000,141.395 201.192 M256.298 202.539 C 256.280 202.754,256.510 203.809,256.809 204.883 C 257.107 205.957,257.354 206.484,257.357 206.055 C 257.362 205.223,256.355 201.878,256.298 202.539 M140.479 204.736 C 140.153 206.365,140.468 206.680,140.820 205.078 C 140.969 204.403,141.009 203.769,140.909 203.669 C 140.810 203.570,140.616 204.050,140.479 204.736 M233.837 206.173 C 233.730 206.345,233.888 207.443,234.186 208.614 C 234.692 210.597,234.713 210.622,234.485 208.984 C 234.350 208.018,234.233 206.919,234.224 206.543 C 234.206 205.785,234.124 205.707,233.837 206.173 M235.234 213.477 C 235.234 213.906,235.375 214.697,235.547 215.234 C 235.795 216.008,235.860 216.048,235.860 215.430 C 235.860 215.000,235.719 214.209,235.547 213.672 C 235.299 212.899,235.234 212.858,235.234 213.477 M236.406 218.945 C 236.406 219.375,236.547 220.166,236.719 220.703 C 236.966 221.476,237.031 221.517,237.031 220.898 C 237.031 220.469,236.891 219.678,236.719 219.141 C 236.471 218.367,236.406 218.327,236.406 218.945 M259.856 220.313 C 259.856 221.064,259.937 221.372,260.035 220.996 C 260.133 220.620,260.133 220.005,260.035 219.629 C 259.937 219.253,259.856 219.561,259.856 220.313 M237.187 222.461 C 237.187 222.891,237.328 223.682,237.500 224.219 C 237.748 224.992,237.813 225.033,237.813 224.414 C 237.813 223.984,237.672 223.193,237.500 222.656 C 237.252 221.883,237.187 221.842,237.187 222.461 M136.809 225.391 C 136.809 226.143,136.890 226.450,136.988 226.074 C 137.086 225.698,137.086 225.083,136.988 224.707 C 136.890 224.331,136.809 224.639,136.809 225.391 M260.638 225.781 C 260.638 226.533,260.718 226.841,260.816 226.465 C 260.914 226.089,260.914 225.474,260.816 225.098 C 260.718 224.722,260.638 225.029,260.638 225.781 M136.419 228.516 C 136.419 229.268,136.499 229.575,136.597 229.199 C 136.696 228.823,136.696 228.208,136.597 227.832 C 136.499 227.456,136.419 227.764,136.419 228.516 M261.028 228.906 C 261.028 229.658,261.109 229.966,261.207 229.590 C 261.305 229.214,261.305 228.599,261.207 228.223 C 261.109 227.847,261.028 228.154,261.028 228.906 M136.028 231.641 C 136.028 232.393,136.109 232.700,136.207 232.324 C 136.305 231.948,136.305 231.333,136.207 230.957 C 136.109 230.581,136.028 230.889,136.028 231.641 M261.427 232.227 C 261.431 233.086,261.511 233.392,261.604 232.906 C 261.698 232.420,261.694 231.717,261.597 231.343 C 261.499 230.970,261.422 231.367,261.427 232.227 M239.538 233.203 C 239.534 233.740,239.672 234.619,239.844 235.156 C 240.264 236.469,240.264 235.051,239.844 233.398 C 239.576 232.346,239.545 232.326,239.538 233.203 M135.645 234.961 C 135.650 235.820,135.730 236.126,135.823 235.640 C 135.917 235.154,135.913 234.451,135.815 234.077 C 135.717 233.704,135.641 234.102,135.645 234.961 M261.825 235.938 C 261.825 236.904,261.901 237.300,261.994 236.816 C 262.088 236.333,262.088 235.542,261.994 235.059 C 261.901 234.575,261.825 234.971,261.825 235.938 M135.268 238.867 C 135.271 239.941,135.347 240.334,135.437 239.741 C 135.526 239.147,135.524 238.268,135.431 237.788 C 135.339 237.307,135.265 237.793,135.268 238.867 M262.208 239.648 C 262.212 240.508,262.292 240.813,262.386 240.327 C 262.479 239.842,262.476 239.138,262.378 238.765 C 262.280 238.392,262.204 238.789,262.208 239.648 M241.079 240.625 C 241.063 240.947,241.288 242.266,241.579 243.555 C 241.869 244.844,242.109 245.459,242.110 244.922 C 242.113 243.826,241.125 239.709,241.079 240.625 M134.883 242.969 C 134.883 244.150,134.956 244.634,135.045 244.043 C 135.135 243.452,135.135 242.485,135.045 241.895 C 134.956 241.304,134.883 241.787,134.883 242.969 M262.599 243.555 C 262.603 244.414,262.683 244.720,262.776 244.234 C 262.870 243.748,262.866 243.045,262.768 242.671 C 262.671 242.298,262.594 242.695,262.599 243.555 M262.997 246.875 C 262.997 247.842,263.073 248.237,263.166 247.754 C 263.259 247.271,263.259 246.479,263.166 245.996 C 263.073 245.513,262.997 245.908,262.997 246.875 M134.492 247.656 C 134.492 248.838,134.565 249.321,134.655 248.730 C 134.744 248.140,134.744 247.173,134.655 246.582 C 134.565 245.991,134.492 246.475,134.492 247.656 M263.409 251.758 C 263.411 253.262,263.482 253.829,263.566 253.019 C 263.651 252.208,263.649 250.978,263.563 250.284 C 263.477 249.591,263.408 250.254,263.409 251.758 M134.032 251.367 C 134.000 251.797,133.883 252.588,133.773 253.125 L 133.572 254.102 133.990 253.143 C 134.220 252.616,134.337 251.825,134.250 251.385 C 134.095 250.607,134.089 250.606,134.032 251.367 M239.648 260.547 C 239.500 261.222,239.460 261.856,239.560 261.956 C 239.659 262.055,239.853 261.575,239.990 260.889 C 240.127 260.202,240.167 259.568,240.079 259.480 C 239.990 259.392,239.797 259.872,239.648 260.547 M263.789 261.719 C 263.789 262.900,263.862 263.384,263.952 262.793 C 264.041 262.202,264.041 261.235,263.952 260.645 C 263.862 260.054,263.789 260.537,263.789 261.719 M140.992 261.943 C 140.046 263.082,140.046 268.646,140.992 271.153 C 144.148 279.520,153.108 281.663,151.733 273.722 C 151.576 272.814,151.374 272.280,151.284 272.537 C 151.195 272.793,150.900 272.918,150.629 272.814 C 150.357 272.710,149.201 272.588,148.058 272.543 C 145.069 272.425,144.429 271.456,144.154 266.631 C 143.894 262.068,142.546 260.070,140.992 261.943 M131.781 266.406 C 131.781 268.447,131.847 269.282,131.928 268.262 C 132.008 267.241,132.008 265.571,131.928 264.551 C 131.847 263.530,131.781 264.365,131.781 266.406 M238.770 265.430 C 238.775 266.289,238.855 266.595,238.948 266.109 C 239.042 265.623,239.038 264.920,238.940 264.546 C 238.842 264.173,238.766 264.570,238.770 265.430 M151.699 267.969 C 151.699 269.795,151.766 270.542,151.849 269.629 C 151.931 268.716,151.931 267.222,151.849 266.309 C 151.766 265.396,151.699 266.143,151.699 267.969 M263.380 266.602 C 263.384 267.461,263.464 267.767,263.558 267.281 C 263.651 266.795,263.647 266.092,263.550 265.718 C 263.452 265.345,263.375 265.742,263.380 266.602 M246.289 267.443 C 245.961 268.228,245.783 268.960,245.893 269.070 C 246.004 269.181,246.094 269.175,246.094 269.058 C 246.094 268.941,246.360 268.209,246.685 267.431 C 247.010 266.652,247.188 266.016,247.081 266.016 C 246.973 266.016,246.617 266.658,246.289 267.443 M244.716 271.118 C 243.044 274.824,239.759 274.855,239.043 271.171 C 238.768 269.757,238.761 269.752,238.717 270.943 C 238.620 273.554,241.201 275.061,243.278 273.607 C 244.136 273.006,245.912 270.001,245.596 269.685 C 245.507 269.596,245.111 270.241,244.716 271.118 M132.098 270.898 C 132.091 271.328,132.237 272.031,132.422 272.461 C 132.850 273.456,132.850 272.429,132.422 271.094 C 132.170 270.309,132.107 270.270,132.098 270.898 M247.755 271.680 C 247.759 272.539,247.839 272.845,247.933 272.359 C 248.026 271.873,248.022 271.170,247.925 270.796 C 247.827 270.423,247.750 270.820,247.755 271.680 M132.827 273.633 C 132.782 276.191,140.685 283.664,142.021 282.328 C 142.115 282.234,141.505 281.950,140.665 281.699 C 138.561 281.068,135.547 278.245,134.068 275.518 C 133.389 274.266,132.830 273.418,132.827 273.633 M244.963 278.843 C 244.296 279.882,243.750 280.883,243.750 281.068 C 243.750 281.345,244.802 279.811,246.235 277.441 C 247.092 276.025,245.997 277.231,244.963 278.843 M148.799 280.309 C 147.507 281.690,146.680 282.084,144.364 282.424 C 142.466 282.703,142.448 282.717,143.920 282.764 C 145.784 282.823,148.534 281.561,149.391 280.254 C 150.200 279.018,149.987 279.038,148.799 280.309 M257.505 281.434 C 253.342 285.746,245.037 287.423,243.739 284.215 C 243.466 283.540,243.405 283.518,243.384 284.088 C 243.233 288.308,254.839 285.855,258.508 280.892 C 259.714 279.260,259.485 279.384,257.505 281.434 " stroke="none" fill="#f4a86a" fill-rule="evenodd" data-index="4"></path></g></svg>